<?xml version="1.0" encoding="utf-8"?>
<!-- Generator: Adobe Illustrator 24.1.3, SVG Export Plug-In . SVG Version: 6.00 Build 0)  -->
<svg version="1.1" id="Capa_1" xmlns="http://www.w3.org/2000/svg" xmlns:xlink="http://www.w3.org/1999/xlink" x="0px" y="0px"
	 viewBox="0 0 3300 2200" style="enable-background:new 0 0 3300 2200;" xml:space="preserve">
<style type="text/css">
	.st0{fill:#FFFFFF;}
	.st1{fill:none;stroke:#000000;stroke-width:0.5;}
	.st2{font-family:'Arial-BoldMT';}
	.st3{font-size:12px;}
	.st4{font-family:'ArialMT';}
	.st5{opacity:0.4;fill:#00AEEF;enable-background:new    ;}
	.st6{fill:#27AAE1;}
	.st7{fill:none;stroke:#27AAE1;stroke-width:0.577;}
</style>
<g id="Notes">
	<rect id="artboard" class="st0" width="3300" height="2200"/>
	<line class="st1" x1="263" y1="292" x2="3036" y2="292"/>
	<text transform="matrix(1 0 0 1 263 322)" class="st2 st3">Weight/Scale Variations</text>
	<text transform="matrix(1 0 0 1 536.0362 322)" class="st4 st3">Ultralight</text>
	<text transform="matrix(1 0 0 1 844.7501 322)" class="st4 st3">Thin</text>
	<text transform="matrix(1 0 0 1 1140.1193 322)" class="st4 st3">Light</text>
	<text transform="matrix(1 0 0 1 1428.8282 322)" class="st4 st3">Regular</text>
	<text transform="matrix(1 0 0 1 1725.2202 322)" class="st4 st3">Medium</text>
	<text transform="matrix(1 0 0 1 2018.2563 322)" class="st4 st3">Semibold</text>
	<text transform="matrix(1 0 0 1 2327.9712 322)" class="st4 st3">Bold</text>
	<text transform="matrix(1 0 0 1 2619.6831 322)" class="st4 st3">Heavy</text>
	<text transform="matrix(1 0 0 1 2918.728 322)" class="st4 st3">Black</text>
	<line class="st1" x1="263" y1="1903" x2="3036" y2="1903"/>
	<g transform="matrix(1 0 0 1 263 1933)">
		<path d="M9.2,0.8c4.3,0,7.9-3.6,7.9-7.9S13.5-15,9.2-15s-7.9,3.6-7.9,7.9C1.4-2.7,5,0.8,9.2,0.8z M9.2-0.7c-3.5,0-6.4-2.8-6.4-6.4
			s2.8-6.4,6.4-6.4s6.4,2.8,6.4,6.4C15.7-3.5,12.8-0.7,9.2-0.7z M9.2-3.4c0.5,0,0.7-0.3,0.7-0.8v-2.1h2.2C12.7-6.3,13-6.6,13-7
			c0-0.5-0.3-0.7-0.8-0.7H10V-10c0-0.5-0.3-0.8-0.7-0.8S8.5-10.5,8.5-10v2.2H6.3C5.8-7.8,5.4-7.5,5.4-7s0.4,0.7,0.8,0.7h2.2v2.1
			C8.5-3.8,8.8-3.4,9.2-3.4z"/>
	</g>
	<g transform="matrix(1 0 0 1 281.506 1933)">
		<path d="M11.7,2.9c5.4,0,10-4.5,10-10c0-5.4-4.5-10-10-10c-5.4,0-10,4.5-10,10C1.7-1.6,6.3,2.9,11.7,2.9z M11.7,1.3
			C7.1,1.3,3.4-2.4,3.4-7s3.7-8.3,8.3-8.3S20-11.6,20-7S16.3,1.3,11.7,1.3z M11.7-2.4c0.5,0,0.8-0.4,0.8-0.9v-2.9h3.1
			c0.5,0,0.9-0.3,0.9-0.8s-0.4-0.8-0.9-0.8h-3.1v-3.1c0-0.6-0.3-0.9-0.8-0.9s-0.8,0.4-0.8,0.9v3.1h-3c-0.6-0.1-1,0.2-1,0.8
			c0,0.5,0.4,0.8,0.9,0.8h3v2.9C10.9-2.8,11.2-2.4,11.7-2.4z"/>
	</g>
	<g transform="matrix(1 0 0 1 304.924 1933)">
		<path d="M15,5.7c7,0,12.7-5.8,12.7-12.7c0-7-5.8-12.7-12.7-12.7C8-19.8,2.3-14,2.3-7C2.3-0.1,8,5.7,15,5.7z M15,3.9
			C8.9,3.9,4.1-1,4.1-7S8.9-17.9,15-17.9c6,0,10.9,4.9,10.9,10.9S21,3.9,15,3.9z M15-1.1c0.6,0,0.9-0.4,0.9-1v-4.1h4.2
			c0.6,0,1-0.3,1-0.9S20.7-8,20.1-8h-4.2v-4.2c0-0.6-0.4-1-0.9-1c-0.6,0-0.9,0.4-0.9,1V-8H9.8c-0.6,0-1,0.3-1,0.9s0.4,0.9,1,0.9H14
			v4.1C14.1-1.5,14.4-1.1,15-1.1z"/>
	</g>
	<text transform="matrix(1 0 0 1 263 1953)" class="st2 st3">Design Variations</text>
	<text transform="matrix(1 0 0 1 263 1971)" class="st4 st3">Symbols are supported in up to nine weights and three scales.</text>
	<text transform="matrix(1 0 0 1 263 1989)" class="st4 st3">For optimal layout with text and other symbols, vertically align</text>
	<text transform="matrix(1 0 0 1 263 2007)" class="st4 st3">symbols with the adjacent text.</text>
	<rect x="776" y="1919" class="st5" width="3" height="14"/>
	<g transform="matrix(1 0 0 1 779 1933)">
		<path d="M10.5,0h1.8L7.2-14.1H5.4L0.2,0H2l1.4-4H9L10.5,0z M6.3-12L6.3-12l2.3,6.4H4L6.3-12z"/>
	</g>
	<rect x="791.6" y="1919" class="st5" width="3" height="14"/>
	<text transform="matrix(1 0 0 1 776 1953)" class="st2 st3">Margins</text>
	<text transform="matrix(1 0 0 1 776 1971)" class="st4 st3">Leading and trailing margins on the left and right side of each symbol</text>
	<text transform="matrix(1 0 0 1 776 1989)" class="st4 st3">can be adjusted by modifying the width of the blue rectangles.</text>
	<text transform="matrix(1 0 0 1 776 2007)" class="st4 st3">Modifications are automatically applied proportionally to all</text>
	<text transform="matrix(1 0 0 1 776 2025)" class="st4 st3">scales and weights.</text>
	<g transform="matrix(1 0 0 1 1289 1933)">
		<path d="M2.8,3.1l1.5,1.5C5.1,5.4,6.1,5.4,7,4.4L17.3-6.7c0.4,0.3,0.8,0.3,1.3,0.2l1-0.2L20.3-6v0.5c-0.1,0.5,0.1,1,0.5,1.5
			l0.8,0.8c0.5,0.5,1.2,0.5,1.6,0.1l3.3-3.3C27-6.9,27-7.5,26.5-8l-0.8-0.8c-0.5-0.5-0.9-0.7-1.4-0.6l-0.5,0.1L23.1-10l0.3-1.1
			c0.1-0.6,0-1-0.6-1.6l-2.4-2.4c-3.5-3.5-8.1-3.4-11.2-0.3C8.8-15,8.7-14.4,9-14c0.2,0.4,0.7,0.6,1.4,0.4c1.5-0.4,3-0.3,4.5,0.7
			l-0.6,1.6c-0.2,0.6-0.2,1.1,0,1.5L3,0.4C2.1,1.3,2,2.3,2.8,3.1z M10.7-15.1c2.7-2,6-1.7,8.4,0.7l2.6,2.6c0.2,0.2,0.3,0.4,0.2,0.7
			l-0.4,1.6L23.1-8H24c0.3,0,0.4,0,0.6,0.2l0.6,0.6l-2.8,2.7l-0.6-0.6c-0.2-0.2-0.2-0.3-0.2-0.6l0.1-1l-1.6-1.6L18.5-8
			c-0.3,0.1-0.4,0.1-0.7-0.2l-2.2-2.2c-0.2-0.2-0.3-0.4-0.1-0.7l0.9-2.3c-1.6-1.5-3.7-2.4-5.8-1.7c-0.1,0-0.2,0-0.2,0
			C10.6-15,10.6-15.1,10.7-15.1z M4.1,2.4c-0.5-0.5-0.3-0.8,0-1.1l11-10.1l1.2,1.2L6.2,3.3c-0.3,0.3-0.7,0.4-1.1,0L4.1,2.4z"/>
	</g>
	<text transform="matrix(1 0 0 1 1289 1953)" class="st2 st3">Exporting</text>
	<text transform="matrix(1 0 0 1 1289 1971)" class="st4 st3">Symbols should be outlined when exporting to ensure the</text>
	<text transform="matrix(1 0 0 1 1289 1989)" class="st4 st3">design is preserved when submitting to Xcode.</text>
	<text id="template-version" transform="matrix(1 0 0 1 2958.8496 1933)" class="st4 st3">Template v.1.0</text>
	<text transform="matrix(1 0 0 1 2865.8965 1951)" class="st4 st3">Generated from hand.thumbsup</text>
	<text transform="matrix(1 0 0 1 2921.9238 1969)" class="st4 st3">Typeset at 100 points</text>
	<text transform="matrix(1 0 0 1 263 726)" class="st4 st3">Small</text>
	<text transform="matrix(1 0 0 1 263 1156)" class="st4 st3">Medium</text>
	<text transform="matrix(1 0 0 1 263 1586)" class="st4 st3">Large</text>
</g>
<g id="Guides">
	<g id="H-reference" transform="matrix(1 0 0 1 339 696)">
		<path class="st6" d="M54.9,0h2.7l-27-70.5h-2.5L1,0h2.7L13-24.5h32.8L54.9,0z M29.2-67.1h0.2l15.4,40.4h-31L29.2-67.1z"/>
	</g>
	<line id="Baseline-S" class="st7" x1="263" y1="696" x2="3036" y2="696"/>
	<line id="Capline-S" class="st7" x1="263" y1="625.5" x2="3036" y2="625.5"/>
	<g id="H-reference_1_" transform="matrix(1 0 0 1 339 1126)">
		<path class="st6" d="M54.9,0h2.7l-27-70.5h-2.5L1,0h2.7L13-24.5h32.8L54.9,0z M29.2-67.1h0.2l15.4,40.4h-31L29.2-67.1z"/>
	</g>
	<line id="Baseline-M" class="st7" x1="263" y1="1126" x2="3036" y2="1126"/>
	<line id="Capline-M" class="st7" x1="263" y1="1055.5" x2="3036" y2="1055.5"/>
	<g id="H-reference_2_" transform="matrix(1 0 0 1 339 1556)">
		<path class="st6" d="M54.9,0h2.7l-27-70.5h-2.5L1,0h2.7L13-24.5h32.8L54.9,0z M29.2-67.1h0.2l15.4,40.4h-31L29.2-67.1z"/>
	</g>
	<line id="Baseline-L" class="st7" x1="263" y1="1556" x2="3036" y2="1556"/>
	<line id="Capline-L" class="st7" x1="263" y1="1485.5" x2="3036" y2="1485.5"/>
	<rect id="left-margin" x="1389.6" y="1030.8" class="st5" width="8.7" height="119.3"/>
	<rect id="right-margin" x="1501.4" y="1030.8" class="st5" width="8.7" height="119.3"/>
</g>
<g id="Black-L">
	<path d="M3014.4,1524.9l-16.9,8.4l-3.2-3.2l0,0l0,0l-31.2-30.8c-0.1-0.1-0.2-0.2-0.3-0.3c-0.1-0.1-0.3-0.2-0.4-0.3
		c-0.1-0.1-0.3-0.2-0.4-0.2c-0.2-0.1-0.3-0.2-0.5-0.2c-0.1-0.1-0.3-0.1-0.4-0.1c-0.2-0.1-0.3-0.1-0.5-0.1s-0.3,0-0.5-0.1
		c-0.2,0-0.3,0-0.5,0s-0.3,0-0.5,0s-0.3,0-0.5,0s-0.3,0.1-0.5,0.1s-0.3,0.1-0.5,0.1c-0.2,0.1-0.3,0.1-0.5,0.2
		c-0.1,0.1-0.3,0.1-0.4,0.2c-0.1,0.1-0.3,0.2-0.4,0.3c-0.1,0.1-0.2,0.1-0.3,0.2l-19.1,18l-0.1,0.1c-4.3,4.3-10.1,5.7-14.9,4.2l28-28
		c0.1-0.1,0.1-0.1,0.2-0.2c0.1-0.1,0.1-0.1,0.2-0.2c4.3-4.3,10.6-5.6,15.2-3l8.8,4.8c1.9,1.1,4.1,1.6,6.3,1.6s4.4-0.5,6.5-1.6
		l31.6-15.8c2.5-1.2,3.5-4.2,2.2-6.7c-1.2-2.5-4.2-3.5-6.7-2.2l-31.6,15.8c-1.3,0.6-2.6,0.7-3.6,0.1l-8.8-4.8
		c-8-4.3-18.3-2.9-25.7,3.5l-38.6-3.7l-30.8-15.4c-2.5-1.2-5.5-0.2-6.7,2.2c-1.2,2.5-0.2,5.5,2.2,6.7l31.6,15.8
		c0.2,0.1,0.5,0.2,0.7,0.3c0.1,0,0.1,0,0.2,0c0.3,0.1,0.6,0.1,0.9,0.2l0,0l31.2,3l-24.9,24.9c-2,2-2,5.1,0,7.1c4,4,9.4,6.2,15.3,6.2
		c0.4,0,0.9,0,1.4,0c6.2-0.3,12.1-3,16.7-7.6l15.5-14.6l27.8,27.4l0,0l6.5,6.5c1.9,1.9,2.2,4.6,0.7,6.1c-0.8,0.8-1.9,0.9-2.6,0.9
		c-1.3-0.1-2.5-0.7-3.5-1.6c-2-2-5.1-2-7.1,0s-2,5.1,0,7.1c1.9,1.9,2.2,4.6,0.7,6.1c-0.9,0.9-2,0.9-2.6,0.9
		c-1.3-0.1-2.5-0.7-3.5-1.6c-2-2-5.1-2-7.1,0c-1,1-1.5,2.3-1.5,3.5s0.5,2.6,1.5,3.5c1.9,1.9,2.2,4.6,0.7,6.1c-0.9,0.9-2,0.9-2.6,0.9
		c-1.3-0.1-2.5-0.7-3.5-1.6c-2-2-5.1-2-7.1,0c-0.3,0.3-0.5,0.6-0.7,0.9c-0.5-0.9-1.2-1.8-2-2.6l-2.5-2.5c-1.9-1.9-4.2-3-6.6-3.4
		c-0.4-2.4-1.5-4.7-3.4-6.6l-2.5-2.5c-1.9-1.9-4.2-3-6.6-3.4c-0.4-2.4-1.5-4.7-3.4-6.6l-2.5-2.5c-1.8-1.8-4.1-3-6.6-3.4
		c-0.4-2.4-1.5-4.7-3.4-6.6l-2.5-2.5c-4.4-4.4-11.5-4.7-16.2-0.7l-22.5-11.2c-2.5-1.2-5.5-0.2-6.7,2.2c-1.2,2.5-0.2,5.5,2.2,6.7
		l19.4,9.7l-1.9,1.9c-2.3,2.3-3.5,5.3-3.5,8.5s1.3,6.2,3.5,8.5l2.5,2.5c1.9,1.9,4.2,3,6.6,3.4c0.4,2.4,1.5,4.7,3.4,6.6l2.5,2.5l0,0
		c1.9,1.9,4.2,3,6.6,3.4c0.4,2.5,1.5,4.8,3.4,6.6l2.5,2.5c1.9,1.9,4.2,3,6.6,3.4c0.4,2.4,1.5,4.7,3.4,6.6l2.5,2.5l0,0
		c2.3,2.3,5.4,3.5,8.5,3.5s6.2-1.2,8.5-3.5l1.9-1.9c2.1,1.3,4.5,2,6.9,2.1c0.3,0,0.5,0,0.8,0c3.6,0,7-1.4,9.5-3.8
		c2.4-2.4,3.6-5.4,3.8-8.6c3.3-0.2,6.4-1.5,8.6-3.8c2.4-2.4,3.6-5.4,3.8-8.6c3.3-0.2,6.4-1.5,8.6-3.8c2.4-2.4,3.6-5.4,3.8-8.6
		c3.3-0.2,6.3-1.5,8.6-3.8c4.1-4.1,4.9-10.3,2.5-15.6l14.9-7.4c2.5-1.2,3.5-4.2,2.2-6.7C3019.8,1524.7,3016.8,1523.7,3014.4,1524.9z
		 M2894.9,1549.6c0-0.3,0.1-0.9,0.6-1.4l8.6-8.6c0.5-0.5,1.1-0.6,1.4-0.6s0.9,0.1,1.4,0.6l2.5,2.5c0.8,0.8,0.8,2.1,0,2.9l-8.6,8.6
		c-0.5,0.5-1.1,0.6-1.4,0.6s-0.9-0.1-1.4-0.6l-2.5-2.5C2895,1550.5,2894.9,1549.9,2894.9,1549.6z M2907.3,1562
		c0-0.3,0.1-0.9,0.6-1.4l8.6-8.6c0.5-0.5,1.1-0.6,1.4-0.6s0.9,0.1,1.4,0.6l2.5,2.5c0.5,0.5,0.6,1.1,0.6,1.4s-0.1,0.9-0.6,1.4
		l-8.6,8.6c-0.8,0.8-2.1,0.8-2.9,0l-2.5-2.5C2907.4,1562.9,2907.3,1562.3,2907.3,1562z M2919.7,1574.4c0-0.3,0.1-0.9,0.6-1.4
		l8.6-8.6c0.5-0.5,1.1-0.6,1.4-0.6s0.9,0.1,1.4,0.6l2.5,2.5c0.8,0.8,0.8,2.1,0,2.9l-8.6,8.6c-0.5,0.5-1.1,0.6-1.4,0.6
		s-0.9-0.1-1.4-0.6l-2.5-2.5C2919.8,1575.3,2919.7,1574.7,2919.7,1574.4z M2935.2,1590.8l-2.5-2.5c-0.8-0.8-0.8-2.1,0-2.9l8.6-8.6
		c0.5-0.5,1.1-0.6,1.4-0.6s0.9,0.1,1.4,0.6l2.5,2.5c0.5,0.5,0.6,1.1,0.6,1.4s-0.1,0.9-0.6,1.4l-8.6,8.6
		C2937.3,1591.5,2936,1591.5,2935.2,1590.8z M2957.2,1587.1c-0.8,0.8-1.7,0.9-2.4,0.9c1.4-1.8,2.2-3.9,2.4-6
		C2958.3,1583.8,2958.4,1585.9,2957.2,1587.1z"/>
</g>
<g id="Heavy-L">
	<path d="M2723.8,1527.4c-1.1-2.2-3.8-3.1-6-2l-17.2,8.6l-3.5-3.5l0,0l0,0l-31.2-30.8c-0.1-0.1-0.2-0.2-0.3-0.2
		c-0.1-0.1-0.2-0.2-0.4-0.3c-0.1-0.1-0.3-0.1-0.4-0.2c-0.1-0.1-0.3-0.1-0.4-0.2c-0.1-0.1-0.3-0.1-0.4-0.1c-0.1,0-0.3-0.1-0.4-0.1
		c-0.1,0-0.3,0-0.4-0.1c-0.1,0-0.3,0-0.4,0c-0.1,0-0.3,0-0.4,0c-0.1,0-0.3,0-0.4,0c-0.1,0-0.3,0.1-0.4,0.1c-0.1,0-0.3,0.1-0.4,0.1
		c-0.1,0.1-0.3,0.1-0.4,0.2c-0.1,0.1-0.3,0.1-0.4,0.2c-0.1,0.1-0.2,0.2-0.4,0.3c-0.1,0.1-0.2,0.1-0.3,0.2l-19.1,18l-0.1,0.1
		c-4.6,4.6-11.1,6-16.1,4l28.5-28.5c0.1-0.1,0.1-0.1,0.1-0.2l0,0c0.1-0.1,0.1-0.1,0.2-0.2c4.5-4.5,11-5.8,15.8-3.1l8.8,4.8
		c1.9,1,4,1.5,6.1,1.5s4.3-0.5,6.3-1.5l31.6-15.8c2.2-1.1,3.1-3.8,2-6s-3.8-3.1-6-2l-31.6,15.8c-1.4,0.7-2.9,0.7-4.1,0.1l-8.8-4.8
		c-7.9-4.3-18-2.8-25.3,3.5l-38.9-3.7l-30.9-15.4c-2.2-1.1-4.9-0.2-6,2s-0.2,4.9,2,6l31.6,15.8c0.2,0.1,0.4,0.2,0.6,0.3h0.1
		c0.3,0.1,0.5,0.1,0.8,0.2l0,0l32.3,3.1l-25.6,25.6c-1.8,1.8-1.8,4.6,0,6.4c4,4,9.4,6,15,6c6.2,0,12.7-2.5,17.7-7.5l15.9-15
		l28.1,27.7l0,0l6.5,6.5c2.1,2.1,2.4,5.1,0.7,6.8c-1,1-2.3,1.1-3,1.1c-1.4-0.1-2.7-0.7-3.8-1.8l0,0l0,0c-1.8-1.8-4.6-1.8-6.4,0
		c-1.8,1.8-1.8,4.6,0,6.4c2.1,2.1,2.4,5.1,0.7,6.8c-0.7,0.7-1.8,1.1-3,1c-1.4-0.1-2.7-0.7-3.8-1.8c-1.8-1.8-4.6-1.8-6.4,0
		c-0.9,0.9-1.3,2-1.3,3.2s0.4,2.3,1.3,3.2c2.1,2.1,2.4,5.1,0.7,6.8c-0.7,0.7-1.8,1.1-3,1c-1.4-0.1-2.7-0.7-3.8-1.8
		c-1.8-1.8-4.6-1.8-6.4,0c-0.5,0.5-0.8,1.1-1,1.7c-0.6-1.2-1.3-2.4-2.3-3.4l-2.5-2.5c-1.9-1.9-4.2-3-6.7-3.3
		c-0.3-2.4-1.4-4.8-3.3-6.7l-2.5-2.5c-1.9-1.9-4.2-3-6.7-3.3c-0.3-2.4-1.4-4.8-3.3-6.7l-2.5-2.5c-1.8-1.8-4.2-3-6.7-3.3
		c-0.3-2.4-1.4-4.8-3.3-6.7l-2.5-2.5c-4.3-4.3-11.2-4.5-15.8-0.5l-22.8-11.4c-2.2-1.1-4.9-0.2-6,2s-0.2,4.9,2,6l20.1,10l-2.4,2.4
		c-2.2,2.2-3.4,5.1-3.4,8.2s1.2,6,3.4,8.2l2.5,2.5c1.9,1.9,4.2,3,6.7,3.3c0.3,2.4,1.4,4.8,3.3,6.7l2.5,2.5l0,0
		c1.9,1.9,4.2,2.9,6.7,3.3c0.3,2.5,1.4,4.9,3.3,6.7l2.5,2.5c1.9,1.9,4.2,3,6.7,3.3c0.3,2.4,1.4,4.8,3.3,6.7l2.5,2.5l0,0
		c2.2,2.2,5.2,3.4,8.2,3.4s5.9-1.1,8.2-3.4l2.2-2.2c2.1,1.3,4.5,2.1,7,2.3c0.3,0,0.5,0,0.8,0c3.5,0,6.7-1.3,9.1-3.7
		c2.4-2.4,3.6-5.5,3.7-8.7c3.3-0.1,6.5-1.4,8.8-3.7c2.4-2.4,3.6-5.5,3.7-8.7c3.3-0.1,6.5-1.4,8.8-3.7c2.4-2.4,3.6-5.5,3.7-8.7
		c3.4-0.1,6.4-1.4,8.8-3.7c4.1-4.1,4.7-10.3,2.1-15.5l15.3-7.6C2724,1532.3,2724.9,1529.6,2723.8,1527.4z M2598.3,1551.3
		c-0.5-0.5-0.7-1.1-0.7-1.8s0.3-1.3,0.7-1.8l8.6-8.6c0.5-0.5,1.1-0.7,1.8-0.7c0.6,0,1.3,0.2,1.8,0.7l2.5,2.5c1,1,1,2.6,0,3.6
		l-8.6,8.6c-1,1-2.6,1-3.6,0L2598.3,1551.3z M2610.7,1563.8c-1-1-1-2.6,0-3.6l8.6-8.6c1-1,2.6-1,3.6,0l2.5,2.5c1,1,1,2.6,0,3.6
		l-8.6,8.6c-1,1-2.6,1-3.6,0L2610.7,1563.8z M2623.1,1576.2c-0.5-0.5-0.7-1.1-0.7-1.8s0.3-1.3,0.7-1.8l8.6-8.6
		c0.5-0.5,1.1-0.7,1.8-0.7c0.6,0,1.3,0.2,1.8,0.7l2.5,2.5c1,1,1,2.6,0,3.6l-8.6,8.6c-1,1-2.6,1-3.6,0L2623.1,1576.2z M2638,1591.1
		l-2.5-2.5c-1-1-1-2.6,0-3.6l8.6-8.6c1-1,2.6-1,3.6,0l2.5,2.5c1,1,1,2.6,0,3.6l-8.6,8.6C2640.6,1592.1,2639,1592.1,2638,1591.1z
		 M2660.7,1587.5c-0.7,0.7-1.8,1.1-3,1c-0.2,0-0.5-0.1-0.7-0.1c2-2.2,3-5,3-7.7l0,0C2662,1582.8,2662.3,1585.8,2660.7,1587.5z"/>
</g>
<g id="Bold-L">
	<path d="M2421.1,1525.8l-17.5,8.8l-3.7-3.7l0,0l0,0l-31.2-30.8c-0.1-0.1-0.2-0.1-0.3-0.2s-0.2-0.2-0.3-0.3
		c-0.1-0.1-0.2-0.1-0.4-0.2c-0.1-0.1-0.2-0.1-0.3-0.2s-0.3-0.1-0.4-0.1c-0.1,0-0.2-0.1-0.3-0.1s-0.3,0-0.4-0.1c-0.1,0-0.2,0-0.4,0
		c-0.1,0-0.3,0-0.4,0c-0.1,0-0.2,0-0.4,0c-0.1,0-0.3,0.1-0.4,0.1c-0.1,0-0.2,0.1-0.4,0.1c-0.1,0-0.2,0.1-0.4,0.2
		c-0.1,0.1-0.2,0.1-0.3,0.2s-0.2,0.2-0.3,0.2c-0.1,0.1-0.2,0.1-0.3,0.2l-19.1,18l-0.1,0.1c-5,5-12,6.3-17.4,3.8l29-29.1
		c0,0,0.1-0.1,0.1-0.2c0,0,0,0,0-0.1c0.1-0.1,0.1-0.1,0.2-0.1c4.6-4.6,11.4-5.9,16.4-3.2l8.8,4.8c1.8,1,3.8,1.5,5.9,1.5
		c2,0,4.1-0.5,6.1-1.5l31.6-15.8c2-1,2.8-3.4,1.8-5.4s-3.4-2.8-5.4-1.8l-31.6,15.8c-1.6,0.8-3.2,0.8-4.5,0.1l-8.8-4.8
		c-7.7-4.2-17.8-2.7-24.8,3.6l-39.3-3.7l-30.9-15.4c-2-1-4.4-0.2-5.4,1.8s-0.2,4.4,1.8,5.4l31.6,15.8c0.1,0,0.1,0,0.2,0.1
		c0.2,0.1,0.4,0.2,0.6,0.2c0.1,0,0.2,0.1,0.4,0.1c0.1,0,0.2,0,0.3,0.1l33.4,3.2l-26.4,26.4c-1.6,1.6-1.6,4.1,0,5.7
		c4,4,9.2,5.9,14.6,5.9c6.1,0,12.4-2.5,17.3-7.3l16.2-15.3l28.4,28.1l6.5,6.5c2.3,2.3,2.6,5.6,0.7,7.5c-0.8,0.8-2,1.3-3.4,1.2
		c-1.5-0.1-3-0.8-4.1-1.9l0,0l0,0c-1.6-1.6-4.1-1.6-5.7,0c-1.6,1.6-1.6,4.1,0,5.7l0,0l0,0c2.3,2.3,2.6,5.6,0.7,7.5
		c-0.8,0.8-2,1.3-3.4,1.2c-1.5-0.1-3-0.8-4.1-1.9c-1.6-1.6-4.1-1.6-5.7,0c-0.8,0.8-1.2,1.8-1.2,2.8s0.4,2,1.2,2.8
		c2.3,2.3,2.6,5.6,0.7,7.5c-0.8,0.8-2,1.3-3.4,1.2c-1.5-0.1-3-0.8-4.1-1.9c-1.6-1.6-4.1-1.6-5.7,0c-0.8,0.8-1.2,1.8-1.2,2.8
		s0.4,2,1.2,2.8c2.3,2.3,2.6,5.6,0.7,7.5c-0.8,0.8-2.1,1.3-3.4,1.2c-0.5,0-1.1-0.2-1.6-0.3l0.2-0.2c2.1-2.1,3.2-4.9,3.2-7.8
		s-1.1-5.7-3.2-7.8l-2.5-2.5c-1.8-1.8-4.2-2.9-6.8-3.2c-0.2-2.5-1.3-4.9-3.2-6.8l-2.5-2.5c-1.8-1.8-4.2-2.9-6.8-3.2
		c-0.2-2.6-1.3-4.9-3.2-6.8l-2.5-2.5c-1.8-1.8-4.2-2.9-6.8-3.2c-0.2-2.5-1.3-4.9-3.2-6.8l-2.5-2.5c-2.1-2.1-4.9-3.2-7.8-3.2
		c-2.8,0-5.5,1.1-7.5,3l-23.1-11.5c-2-1-4.4-0.2-5.4,1.8s-0.2,4.4,1.8,5.4l20.7,10.3l-2.9,2.9c-2.1,2.1-3.2,4.9-3.2,7.8
		s1.1,5.7,3.2,7.8l2.5,2.5c1.8,1.8,4.2,2.9,6.8,3.2c0.2,2.6,1.3,4.9,3.2,6.8l2.5,2.5l0,0c1.9,1.9,4.3,2.9,6.8,3.2
		c0.2,2.6,1.3,4.9,3.2,6.8l2.5,2.5c1.8,1.8,4.2,2.9,6.8,3.2c0.2,2.5,1.3,4.9,3.2,6.8l2.5,2.5l0,0c2.2,2.1,5,3.2,7.8,3.2
		s5.6-1.1,7.8-3.2l2.5-2.5c2.1,1.4,4.6,2.3,7.1,2.4c0.2,0,0.5,0,0.7,0c3.3,0,6.5-1.3,8.8-3.5c2.4-2.4,3.6-5.6,3.5-8.9h0.1
		c3.3,0,6.5-1.3,8.8-3.5c2.4-2.4,3.6-5.6,3.5-8.9h0.1c3.3,0,6.5-1.3,8.8-3.5c2.4-2.4,3.6-5.6,3.5-8.9c3.4,0.1,6.6-1.2,8.9-3.5
		c4-4,4.6-10.3,1.8-15.4l15.7-7.9c2-1,2.8-3.4,1.8-5.4S2423,1524.8,2421.1,1525.8z M2301,1551.7c-0.6-0.6-0.9-1.3-0.9-2.1
		s0.3-1.6,0.9-2.1l8.6-8.6c0.6-0.6,1.4-0.9,2.1-0.9c0.8,0,1.6,0.3,2.1,0.9l2.5,2.5c1.2,1.2,1.2,3.1,0,4.3l-8.6,8.6
		c-1.2,1.2-3.1,1.2-4.3,0L2301,1551.7z M2313.4,1564.1c-1.2-1.2-1.2-3.1,0-4.3l8.6-8.6c1.1-1.1,3.1-1.1,4.3,0l2.5,2.5
		c1.2,1.2,1.2,3.1,0,4.3l-8.6,8.6c-1.2,1.2-3.1,1.2-4.3,0L2313.4,1564.1z M2325.9,1576.5c-0.6-0.6-0.9-1.3-0.9-2.1s0.3-1.6,0.9-2.1
		l8.6-8.6c0.6-0.6,1.4-0.9,2.1-0.9c0.8,0,1.6,0.3,2.1,0.9l2.5,2.5c1.2,1.2,1.2,3.1,0,4.3l-8.6,8.6c-1.2,1.2-3.1,1.2-4.3,0
		L2325.9,1576.5z M2340.8,1591.5l-2.5-2.5c-1.2-1.2-1.2-3.1,0-4.3l8.6-8.6c1.2-1.2,3.1-1.2,4.3,0l2.5,2.5c1.2,1.2,1.2,3.1,0,4.3
		l-8.6,8.6C2343.9,1592.6,2342,1592.6,2340.8,1591.5z"/>
</g>
<g id="Semibold-L">
	<path d="M2124.2,1525.8l-17.5,8.8l-3.7-3.7l0,0l0,0l-31.2-30.8c-0.1-0.1-0.2-0.1-0.3-0.2s-0.2-0.2-0.3-0.3
		c-0.1-0.1-0.2-0.1-0.3-0.2s-0.2-0.1-0.3-0.2s-0.3-0.1-0.4-0.1c-0.1,0-0.2-0.1-0.3-0.1s-0.3,0-0.4-0.1c-0.1,0-0.2,0-0.4,0
		c-0.1,0-0.3,0-0.4,0c-0.1,0-0.2,0-0.4,0c-0.1,0-0.3,0.1-0.4,0.1c-0.1,0-0.2,0.1-0.4,0.1c-0.1,0-0.2,0.1-0.4,0.2
		c-0.1,0.1-0.2,0.1-0.3,0.2s-0.2,0.2-0.3,0.2c-0.1,0.1-0.2,0.1-0.3,0.2l-19.1,18l-0.1,0.1c-5,5-12,6.3-17.4,3.8l29-29.1
		c0,0,0.1-0.1,0.1-0.2c0,0,0,0,0-0.1c0.1-0.1,0.1-0.1,0.2-0.1c4.6-4.6,11.4-5.9,16.4-3.2l8.8,4.8c1.8,1,3.8,1.5,5.9,1.5
		c2,0,4.1-0.5,6.1-1.5l31.6-15.8c2-1,2.8-3.4,1.8-5.4s-3.4-2.8-5.4-1.8l-31.6,15.8c-1.5,0.8-3.2,0.8-4.5,0.1l-8.8-4.8
		c-7.7-4.2-17.8-2.7-24.8,3.6l-39.3-3.7l-30.9-15.4c-2-1-4.4-0.2-5.4,1.8s-0.2,4.4,1.8,5.4l31.6,15.8c0.1,0,0.1,0,0.2,0.1
		c0.2,0.1,0.4,0.2,0.6,0.2c0.1,0,0.2,0.1,0.4,0.1c0.1,0,0.2,0,0.3,0.1l33.4,3.2l-26.4,26.4c-1.6,1.6-1.6,4.1,0,5.7
		c4,4,9.2,5.9,14.6,5.9c6.1,0,12.4-2.5,17.3-7.3l16.2-15.3l28.4,28.1l6.5,6.5c2.3,2.3,2.6,5.6,0.7,7.5c-0.8,0.8-2,1.3-3.4,1.2
		c-1.5-0.1-3-0.8-4.1-1.9c-1.6-1.6-4.1-1.6-5.7,0c-1.6,1.6-1.6,4.1,0,5.7c2.3,2.3,2.6,5.6,0.7,7.5c-0.8,0.8-2,1.3-3.4,1.2
		c-1.5-0.1-3-0.8-4.1-1.9c-1.6-1.6-4.1-1.6-5.7,0c-0.8,0.8-1.2,1.8-1.2,2.8s0.4,2,1.2,2.8c2.3,2.3,2.6,5.6,0.7,7.5
		c-0.8,0.8-2.1,1.3-3.4,1.2c-1.5-0.1-3-0.8-4.1-1.9c-1.6-1.6-4.1-1.6-5.7,0c-0.8,0.8-1.2,1.8-1.2,2.8s0.4,2,1.2,2.8
		c2.3,2.3,2.6,5.6,0.7,7.5c-0.8,0.8-2,1.3-3.4,1.2c-0.5,0-1.1-0.2-1.6-0.3l0.2-0.2c2.1-2.1,3.2-4.9,3.2-7.8s-1.1-5.7-3.2-7.8
		l-2.5-2.5c-1.8-1.8-4.2-2.9-6.8-3.2c-0.2-2.5-1.3-4.9-3.2-6.8l-2.5-2.5c-1.8-1.8-4.2-2.9-6.8-3.2c-0.2-2.6-1.3-4.9-3.2-6.8
		l-2.5-2.5c-1.8-1.8-4.2-2.9-6.8-3.2c-0.2-2.5-1.3-4.9-3.2-6.8l-2.5-2.5c-2.1-2.1-4.9-3.2-7.8-3.2c-2.8,0-5.5,1.1-7.5,3l-23.1-11.5
		c-2-1-4.4-0.2-5.4,1.8s-0.2,4.4,1.8,5.4l20.7,10.3l-2.9,2.9c-2.1,2.1-3.2,4.9-3.2,7.8s1.1,5.7,3.2,7.8l2.5,2.5
		c1.8,1.8,4.2,2.9,6.8,3.2c0.2,2.6,1.3,4.9,3.2,6.8l2.5,2.5l0,0c1.9,1.9,4.3,2.9,6.8,3.2c0.2,2.6,1.3,4.9,3.2,6.8l2.5,2.5
		c1.8,1.8,4.2,2.9,6.8,3.2c0.2,2.5,1.3,4.9,3.2,6.8l2.5,2.5l0,0c2.2,2.1,5,3.2,7.8,3.2c2.8,0,5.6-1.1,7.8-3.2l2.5-2.5
		c2.1,1.4,4.6,2.3,7.1,2.4c0.2,0,0.5,0,0.7,0c3.3,0,6.5-1.3,8.8-3.5c2.4-2.4,3.6-5.6,3.5-8.9h0.1c3.3,0,6.5-1.3,8.8-3.5
		c2.4-2.4,3.6-5.6,3.5-8.9h0.1c3.3,0,6.5-1.3,8.8-3.5c2.4-2.4,3.6-5.6,3.5-8.9c3.4,0.1,6.6-1.2,8.9-3.5c4-4,4.6-10.3,1.8-15.4
		l15.7-7.9c2-1,2.8-3.4,1.8-5.4S2126.2,1524.8,2124.2,1525.8z M2004.1,1551.7c-0.6-0.6-0.9-1.3-0.9-2.1s0.3-1.6,0.9-2.1l8.6-8.6
		c0.6-0.6,1.4-0.9,2.1-0.9c0.8,0,1.6,0.3,2.1,0.9l2.5,2.5c1.2,1.2,1.2,3.1,0,4.3l-8.6,8.6c-1.2,1.2-3.1,1.2-4.3,0L2004.1,1551.7z
		 M2016.6,1564.1c-1.2-1.2-1.2-3.1,0-4.3l8.6-8.6c1.1-1.1,3.1-1.1,4.3,0l2.5,2.5c1.2,1.2,1.2,3.1,0,4.3l-8.6,8.6
		c-1.2,1.2-3.1,1.2-4.3,0L2016.6,1564.1z M2029,1576.5c-0.6-0.6-0.9-1.3-0.9-2.1s0.3-1.6,0.9-2.1l8.6-8.6c0.6-0.6,1.4-0.9,2.1-0.9
		c0.8,0,1.6,0.3,2.1,0.9l2.5,2.5c1.2,1.2,1.2,3.1,0,4.3l-8.6,8.6c-1.2,1.2-3.1,1.2-4.3,0L2029,1576.5z M2043.9,1591.5l-2.5-2.5
		c-1.2-1.2-1.2-3.1,0-4.3l8.6-8.6c1.2-1.2,3.1-1.2,4.3,0l2.5,2.5c1.2,1.2,1.2,3.1,0,4.3l-8.6,8.6
		C2047,1592.6,2045.1,1592.6,2043.9,1591.5z"/>
</g>
<g id="Medium-L">
	<path d="M1827.3,1525.8l-17.5,8.8l-3.7-3.7l0,0l0,0l-31.2-30.8c-0.1-0.1-0.2-0.1-0.3-0.2c-0.1-0.1-0.2-0.2-0.3-0.3
		c-0.1-0.1-0.2-0.1-0.4-0.2c-0.1-0.1-0.2-0.1-0.3-0.2c-0.1-0.1-0.3-0.1-0.4-0.1s-0.2-0.1-0.3-0.1c-0.1,0-0.3,0-0.4-0.1
		c-0.1,0-0.2,0-0.4,0c-0.1,0-0.3,0-0.4,0s-0.2,0-0.4,0c-0.1,0-0.3,0.1-0.4,0.1s-0.2,0.1-0.4,0.1c-0.1,0-0.2,0.1-0.4,0.2
		c-0.1,0.1-0.2,0.1-0.3,0.2c-0.1,0.1-0.2,0.2-0.3,0.2c-0.1,0.1-0.2,0.1-0.3,0.2l-19.1,18l-0.1,0.1c-5,5-12,6.3-17.4,3.8l29-29.1
		c0,0,0.1-0.1,0.1-0.2c0,0,0,0,0-0.1c0.1-0.1,0.1-0.1,0.2-0.1c4.6-4.6,11.4-5.9,16.4-3.2l8.8,4.8c1.8,1,3.8,1.5,5.9,1.5
		c2,0,4.1-0.5,6.1-1.5l31.6-15.8c2-1,2.8-3.4,1.8-5.4s-3.4-2.8-5.4-1.8l-31.6,15.8c-1.6,0.8-3.2,0.8-4.5,0.1l-8.8-4.8
		c-7.7-4.2-17.8-2.7-24.8,3.6l-39.3-3.7l-30.9-15.4c-2-1-4.4-0.2-5.4,1.8s-0.2,4.4,1.8,5.4l31.6,15.8c0.1,0,0.1,0,0.2,0.1
		c0.2,0.1,0.4,0.2,0.6,0.2c0.1,0,0.2,0.1,0.4,0.1c0.1,0,0.2,0,0.3,0.1l33.4,3.2l-26.4,26.4c-1.6,1.6-1.6,4.1,0,5.7
		c4,4,9.2,5.9,14.6,5.9c6.1,0,12.4-2.5,17.3-7.3l16.2-15.3l28.4,28.1l6.5,6.5c2.3,2.3,2.6,5.6,0.7,7.5c-0.8,0.8-2,1.3-3.4,1.2
		c-1.5-0.1-3-0.8-4.1-1.9l0,0l0,0c-1.6-1.6-4.1-1.6-5.7,0s-1.6,4.1,0,5.7l0,0l0,0c2.3,2.3,2.6,5.6,0.7,7.5c-0.8,0.8-2,1.3-3.4,1.2
		c-1.5-0.1-3-0.8-4.1-1.9c-1.6-1.6-4.1-1.6-5.7,0c-0.8,0.8-1.2,1.8-1.2,2.8s0.4,2,1.2,2.8c2.3,2.3,2.6,5.6,0.7,7.5
		c-0.8,0.8-2.1,1.3-3.4,1.2c-1.5-0.1-3-0.8-4.1-1.9c-1.6-1.6-4.1-1.6-5.7,0c-0.8,0.8-1.2,1.8-1.2,2.8s0.4,2,1.2,2.8
		c2.3,2.3,2.6,5.6,0.7,7.5c-0.8,0.8-2,1.3-3.4,1.2c-0.5,0-1.1-0.2-1.6-0.3l0.2-0.2c2.1-2.1,3.2-4.9,3.2-7.8s-1.1-5.7-3.2-7.8
		l-2.5-2.5c-1.8-1.8-4.2-2.9-6.8-3.2c-0.2-2.5-1.3-4.9-3.2-6.8l-2.5-2.5c-1.8-1.8-4.2-2.9-6.8-3.2c-0.2-2.6-1.3-4.9-3.2-6.8
		l-2.5-2.5c-1.8-1.8-4.2-2.9-6.8-3.2c-0.2-2.5-1.3-4.9-3.2-6.8l-2.5-2.5c-2.1-2.1-4.9-3.2-7.8-3.2c-2.8,0-5.5,1.1-7.5,3l-23.1-11.5
		c-2-1-4.4-0.2-5.4,1.8s-0.2,4.4,1.8,5.4l20.7,10.3l-2.9,2.9c-2.1,2.1-3.2,4.9-3.2,7.8s1.1,5.7,3.2,7.8l2.5,2.5
		c1.8,1.8,4.2,2.9,6.8,3.2c0.2,2.6,1.3,4.9,3.2,6.8l2.5,2.5l0,0c1.9,1.9,4.3,2.9,6.8,3.2c0.2,2.6,1.3,4.9,3.2,6.8l2.5,2.5
		c1.8,1.8,4.2,2.9,6.8,3.2c0.2,2.5,1.3,4.9,3.2,6.8l2.5,2.5l0,0c2.2,2.1,5,3.2,7.8,3.2s5.6-1.1,7.8-3.2l2.5-2.5
		c2.1,1.4,4.6,2.3,7.1,2.4c0.2,0,0.5,0,0.7,0c3.3,0,6.5-1.3,8.8-3.5c2.4-2.4,3.6-5.6,3.5-8.9h0.1c3.3,0,6.5-1.3,8.8-3.5
		c2.4-2.4,3.6-5.6,3.5-8.9h0.1c3.3,0,6.5-1.3,8.8-3.5c2.4-2.4,3.6-5.6,3.5-8.9c0.1,0,0.1,0,0.2,0c3.4,0,6.4-1.2,8.7-3.6
		c4-4,4.6-10.3,1.8-15.4l15.7-7.9c2-1,2.8-3.4,1.8-5.4C1831.7,1525.6,1829.3,1524.8,1827.3,1525.8z M1707.3,1551.7
		c-0.6-0.6-0.9-1.3-0.9-2.1s0.3-1.6,0.9-2.1l8.6-8.6c0.6-0.6,1.4-0.9,2.1-0.9c0.8,0,1.6,0.3,2.1,0.9l2.5,2.5c1.2,1.2,1.2,3.1,0,4.3
		l-8.6,8.6c-1.2,1.2-3.1,1.2-4.3,0L1707.3,1551.7z M1719.7,1564.1c-1.2-1.2-1.2-3.1,0-4.3l8.6-8.6c1.1-1.1,3.1-1.1,4.3,0l2.5,2.5
		c1.2,1.2,1.2,3.1,0,4.3l-8.6,8.6c-1.2,1.2-3.1,1.2-4.3,0L1719.7,1564.1z M1732.1,1576.5c-0.6-0.6-0.9-1.3-0.9-2.1s0.3-1.6,0.9-2.1
		l8.6-8.6c0.6-0.6,1.4-0.9,2.1-0.9c0.8,0,1.6,0.3,2.1,0.9l2.5,2.5c1.2,1.2,1.2,3.1,0,4.3l-8.6,8.6c-1.2,1.2-3.1,1.2-4.3,0
		L1732.1,1576.5z M1747,1591.5l-2.5-2.5c-1.2-1.2-1.2-3.1,0-4.3l8.6-8.6c1.2-1.2,3.1-1.2,4.3,0l2.5,2.5c1.2,1.2,1.2,3.1,0,4.3
		l-8.6,8.6C1750.1,1592.6,1748.2,1592.6,1747,1591.5z"/>
</g>
<g id="Regular-L">
	<path d="M1520,1526.3l-17.9,8.9l-4-4l0,0l0,0l-31.2-30.8c-0.1-0.1-0.1-0.1-0.2-0.2s-0.2-0.2-0.3-0.2c-0.1-0.1-0.2-0.1-0.3-0.2
		c-0.1-0.1-0.2-0.1-0.3-0.2c-0.1,0-0.2-0.1-0.3-0.1c-0.1,0-0.2-0.1-0.3-0.1c-0.1,0-0.2,0-0.3,0c-0.1,0-0.2,0-0.3,0
		c-0.1,0-0.2,0-0.3,0c-0.1,0-0.2,0-0.3,0c-0.1,0-0.2,0.1-0.3,0.1c-0.1,0-0.2,0.1-0.3,0.1c-0.1,0-0.2,0.1-0.3,0.2
		c-0.1,0.1-0.2,0.1-0.3,0.2c-0.1,0.1-0.2,0.1-0.3,0.2c-0.1,0.1-0.2,0.1-0.2,0.2l-19.1,18c0,0,0,0-0.1,0.1c-5.3,5.3-13,6.6-18.6,3.6
		l29.5-29.5l0.1-0.1c0,0,0-0.1,0.1-0.1s0.1-0.1,0.2-0.1c4.8-4.8,11.8-6.1,17-3.3l8.8,4.8c1.7,0.9,3.7,1.4,5.6,1.4c2,0,4-0.5,5.8-1.4
		l31.6-15.8c1.7-0.9,2.4-3,1.6-4.7c-0.9-1.7-3-2.4-4.7-1.6l-31.6,15.8c-1.7,0.8-3.6,0.9-5,0.1l-8.8-4.8c-7.6-4.1-17.5-2.6-24.4,3.7
		l-39.6-3.8l-31-15.5c-1.7-0.9-3.8-0.2-4.7,1.6c-0.9,1.7-0.2,3.8,1.6,4.7l31.6,15.8c0.1,0,0.1,0,0.2,0.1c0.2,0.1,0.3,0.1,0.5,0.2
		c0.1,0,0.2,0,0.3,0.1c0.1,0,0.2,0,0.3,0.1l34.4,3.3l-27.1,27.1c-1.4,1.4-1.4,3.6,0,4.9c3.9,3.9,9,5.8,14.3,5.8c6,0,12.2-2.4,17-7.2
		l16.6-15.6l28.8,28.4l0,0l6.5,6.5c2.5,2.5,2.8,6.2,0.7,8.2c-0.9,0.9-2.3,1.4-3.8,1.3c-1.6-0.1-3.2-0.8-4.5-2.1
		c-1.4-1.4-3.6-1.4-4.9,0c-1.4,1.4-1.4,3.6,0,4.9c2.5,2.5,2.8,6.2,0.7,8.2c-0.9,0.9-2.3,1.4-3.8,1.3c-1.6-0.1-3.2-0.8-4.5-2.1l0,0
		l0,0c-1.4-1.4-3.6-1.4-4.9,0s-1.4,3.6,0,4.9c2.5,2.5,2.8,6.2,0.7,8.2c-0.9,0.9-2.3,1.4-3.8,1.3c-1.6-0.1-3.2-0.8-4.5-2.1
		c-1.4-1.4-3.6-1.4-4.9,0c-1.4,1.4-1.4,3.6,0,4.9c2.5,2.5,2.8,6.2,0.7,8.2c-0.9,0.9-2.3,1.4-3.8,1.3c-0.8,0-1.7-0.3-2.5-0.7l0.7-0.7
		c4.1-4.1,4.1-10.8,0-14.9l-2.5-2.5c-1.9-1.9-4.4-2.9-6.9-3.1c-0.1-2.5-1.1-5-3.1-6.9l-2.5-2.5c-1.9-1.9-4.4-2.9-6.9-3.1
		c-0.1-2.5-1.1-5-3.1-6.9l-2.5-2.5c-1.9-1.9-4.3-2.9-6.9-3.1c-0.1-2.5-1.1-5-3.1-6.9l-2.5-2.5c-4.1-4.1-10.8-4.1-14.9,0l0,0
		l-23.4-11.7c-1.7-0.9-3.8-0.2-4.7,1.6c-0.9,1.7-0.2,3.8,1.6,4.7l21.3,10.7l-3.4,3.4c-2,2-3.1,4.6-3.1,7.4s1.1,5.5,3.1,7.4l2.5,2.5
		c1.9,1.9,4.4,2.9,6.9,3.1c0.1,2.6,1.2,5,3.1,6.9l2.5,2.5l0,0c1.9,1.9,4.4,2.9,6.9,3.1c0.1,2.6,1.2,5,3.1,6.9l2.5,2.5l0,0
		c1.9,1.9,4.4,2.9,6.9,3.1c0.1,2.6,1.2,5,3.1,6.9l2.5,2.5l0,0c2.1,2.1,4.7,3.1,7.4,3.1c2.7,0,5.4-1,7.4-3.1l2.8-2.8
		c2.1,1.5,4.6,2.4,7.2,2.6c0.2,0,0.5,0,0.7,0c3.2,0,6.2-1.2,8.4-3.4c2.4-2.4,3.5-5.7,3.4-9c3.4,0.2,6.7-1,9.1-3.4s3.5-5.7,3.4-9
		c3.4,0.2,6.7-1,9.1-3.4s3.5-5.7,3.4-9c3.5,0.2,6.7-1,9.1-3.4c4-4,4.4-10.2,1.5-15.2l16.2-8.1c1.7-0.9,2.4-3,1.6-4.7
		C1523.9,1526.1,1521.8,1525.4,1520,1526.3z M1399.4,1552c-0.7-0.7-1-1.6-1-2.5s0.4-1.8,1-2.5l8.6-8.6c0.7-0.7,1.6-1,2.5-1
		s1.8,0.3,2.5,1l2.5,2.5c1.4,1.4,1.4,3.6,0,5l-8.6,8.6c-1.4,1.4-3.6,1.4-5,0L1399.4,1552z M1411.8,1564.5c-0.7-0.7-1-1.6-1-2.5
		s0.4-1.8,1-2.5l8.6-8.6c1.3-1.3,3.7-1.3,5,0l2.5,2.5c1.4,1.4,1.4,3.6,0,5l-8.6,8.6c-1.4,1.4-3.6,1.4-5,0L1411.8,1564.5z
		 M1424.3,1576.9c-0.7-0.7-1-1.6-1-2.5s0.4-1.8,1-2.5l8.6-8.6c1.4-1.4,3.6-1.4,5,0l2.5,2.5c1.4,1.4,1.4,3.6,0,5l-8.6,8.6
		c-1.4,1.4-3.6,1.4-5,0L1424.3,1576.9z M1439.2,1591.8l-2.5-2.5c-0.7-0.7-1-1.6-1-2.5s0.4-1.8,1-2.5l8.6-8.6c1.4-1.4,3.6-1.4,5,0
		l2.5,2.5c1.4,1.4,1.4,3.6,0,5l-8.6,8.6C1442.8,1593.2,1440.6,1593.2,1439.2,1591.8z"/>
</g>
<g id="Light-L">
	<path d="M1223.8,1527.2l-18.5,9.2l-4.5-4.5l0,0l0,0l-31.2-30.8c-0.1-0.1-0.1-0.1-0.2-0.1c-0.1-0.1-0.1-0.1-0.2-0.2
		c-0.1,0-0.2-0.1-0.2-0.1c-0.1,0-0.1-0.1-0.2-0.1s-0.2-0.1-0.3-0.1c-0.1,0-0.1,0-0.2-0.1c-0.1,0-0.2,0-0.3,0c-0.1,0-0.1,0-0.2,0
		s-0.2,0-0.3,0c-0.1,0-0.1,0-0.2,0s-0.2,0-0.3,0.1c-0.1,0-0.1,0-0.2,0.1c-0.1,0-0.2,0.1-0.2,0.1c-0.1,0-0.1,0.1-0.2,0.1
		s-0.1,0.1-0.2,0.2c-0.1,0-0.1,0.1-0.2,0.1l-19.1,18.1c-6,6-14.9,7.2-20.9,3.1l30.4-30.4l0.1-0.1l0.1-0.1c0.1,0,0.1-0.1,0.2-0.1
		c5.1-5.1,12.6-6.5,18.2-3.5l8.8,4.8c1.6,0.9,3.3,1.3,5.2,1.3c1.8,0,3.7-0.4,5.4-1.3l31.6-15.8c1.2-0.6,1.7-2.1,1.1-3.4
		c-0.6-1.2-2.1-1.7-3.4-1.1l-31.6,15.8c-2,1-4.2,1-5.9,0.1l-8.8-4.8c-7.4-4-17-2.4-23.6,3.9l-40.2-3.8l-31.2-15.6
		c-1.2-0.6-2.7-0.1-3.4,1.1c-0.6,1.2-0.1,2.7,1.1,3.4l31.6,15.8h0.1c0.1,0,0.2,0.1,0.3,0.1c0.1,0,0.2,0,0.2,0c0.1,0,0.1,0,0.2,0
		l36.5,3.5l-28.6,28.6c-1,1-1,2.6,0,3.5c3.7,3.7,8.5,5.5,13.6,5.5c5.7,0,11.7-2.3,16.2-6.9l17.3-16.3l29.5,29.1l6.5,6.5
		c2.9,2.9,3.2,7.2,0.7,9.6c-1.1,1.1-2.8,1.7-4.5,1.6c-1.9-0.1-3.7-0.9-5.1-2.4c-1-1-2.6-1-3.5,0c-1,1-1,2.6,0,3.5l0,0
		c2.9,2.9,3.2,7.2,0.7,9.6c-1.2,1.2-2.8,1.7-4.5,1.6c-1.9-0.1-3.7-0.9-5.1-2.4c-1-1-2.6-1-3.5,0c-1,1-1,2.6,0,3.5l0,0
		c2.9,2.9,3.2,7.2,0.7,9.6c-1.2,1.2-2.8,1.7-4.5,1.6c-1.9-0.1-3.7-0.9-5.1-2.4c-1-1-2.6-1-3.5,0c-1,1-1,2.6,0,3.5l0,0
		c2.9,2.9,3.2,7.2,0.7,9.6c-1.2,1.2-2.8,1.7-4.5,1.6c-1.4-0.1-2.8-0.6-4-1.5l1.6-1.6c1.8-1.8,2.8-4.2,2.8-6.7s-1-4.9-2.8-6.7
		l-2.5-2.5c-2-2-4.6-2.9-7.2-2.8c0-0.1,0-0.3,0-0.4c0-2.5-1-4.9-2.8-6.7l-2.5-2.5c-2-2-4.6-2.9-7.2-2.8c0-0.1,0-0.3,0-0.4
		c0-2.5-1-4.9-2.8-6.7l-2.5-2.5c-1.8-1.8-4.2-2.8-6.7-2.8c-0.1,0-0.3,0-0.4,0c0.1-2.6-0.8-5.2-2.8-7.2l-2.5-2.5
		c-3.7-3.7-9.8-3.7-13.5,0l-0.5,0.5l-24-12c-1.2-0.6-2.7-0.1-3.4,1.1c-0.6,1.2-0.1,2.7,1.1,3.4l22.5,11.3l-4.3,4.3
		c-3.7,3.7-3.7,9.8,0,13.5l2.5,2.5c1.9,1.9,4.3,2.8,6.7,2.8c0.1,0,0.3,0,0.4,0c-0.1,2.6,0.8,5.2,2.8,7.2l2.5,2.5l0,0
		c1.9,1.9,4.3,2.8,6.7,2.8c0.1,0,0.3,0,0.4,0c0,0.1,0,0.3,0,0.4c0,2.5,1,4.9,2.8,6.7l2.5,2.5c1.9,1.9,4.3,2.8,6.7,2.8
		c0.1,0,0.3,0,0.4,0c0,0.1,0,0.3,0,0.4c0,2.5,1,4.9,2.8,6.7l2.5,2.5c1.9,1.9,4.3,2.8,6.7,2.8s4.9-0.9,6.7-2.8l3.4-3.4
		c2.1,1.7,4.7,2.7,7.3,2.9c0.2,0,0.5,0,0.7,0c2.9,0,5.6-1.1,7.7-3.1c2.5-2.5,3.5-6,3-9.5c0.4,0.1,0.7,0.1,1.1,0.1
		c3.2,0.2,6.2-0.9,8.3-3.1c2.5-2.5,3.5-6,3-9.5c0.4,0.1,0.7,0.1,1.1,0.1c3.2,0.2,6.2-0.9,8.3-3.1c2.5-2.5,3.5-6,3-9.5
		c0.4,0.1,0.8,0.1,1.1,0.1c3.2,0.2,6.2-0.9,8.3-3.1c3.9-3.9,4.1-10.2,0.8-14.9l17.2-8.6c1.2-0.6,1.7-2.1,1.1-3.4
		C1226.5,1527.1,1225,1526.6,1223.8,1527.2z M1104.5,1555.2l-2.5-2.5c-1.8-1.8-1.8-4.6,0-6.4l8.6-8.6c0.9-0.9,2-1.3,3.2-1.3
		s2.3,0.4,3.2,1.3l2.5,2.5c1.8,1.8,1.8,4.6,0,6.4l-8.6,8.6C1109.1,1557,1106.2,1557,1104.5,1555.2z M1116.9,1567.7l-2.5-2.5
		c-1.8-1.8-1.8-4.6,0-6.4l8.6-8.6c0.9-0.9,2-1.3,3.2-1.3s2.3,0.5,3.2,1.3l2.5,2.5c0.9,0.9,1.3,2,1.3,3.2s-0.5,2.3-1.3,3.2l-8.6,8.6
		C1121.5,1569.4,1118.7,1569.4,1116.9,1567.7z M1129.3,1580.1l-2.5-2.5c-0.9-0.9-1.3-2-1.3-3.2s0.5-2.3,1.3-3.2l8.6-8.6
		c0.9-0.9,2-1.3,3.2-1.3s2.3,0.4,3.2,1.3l2.5,2.5c0.9,0.9,1.3,2,1.3,3.2s-0.5,2.3-1.3,3.2l-8.6,8.6
		C1134,1581.9,1131.1,1581.9,1129.3,1580.1z M1148.2,1592.5c-1.8,1.8-4.6,1.8-6.4,0l-2.5-2.5c-0.9-0.9-1.3-2-1.3-3.2
		s0.5-2.3,1.3-3.2l8.6-8.6c0.9-0.9,2-1.3,3.2-1.3s2.3,0.4,3.2,1.3l2.5,2.5c0.9,0.9,1.3,2,1.3,3.2s-0.5,2.3-1.3,3.2L1148.2,1592.5z"
		/>
</g>
<g id="Thin-L">
	<path d="M937.1,1527.6l-18.8,9.4l-4.7-4.7l0,0l0,0l-31.2-30.8l-0.1-0.1c-0.1,0-0.1-0.1-0.2-0.1c-0.1,0-0.1-0.1-0.2-0.1
		c-0.1,0-0.1-0.1-0.2-0.1c-0.1,0-0.1,0-0.2-0.1c-0.1,0-0.1,0-0.2,0c-0.1,0-0.1,0-0.2,0c-0.1,0-0.1,0-0.2,0c-0.1,0-0.2,0-0.2,0
		c-0.1,0-0.1,0-0.2,0c-0.1,0-0.1,0-0.2,0.1c-0.1,0-0.1,0-0.2,0c-0.1,0-0.1,0.1-0.2,0.1c-0.1,0-0.1,0-0.1,0.1c-0.1,0-0.1,0.1-0.2,0.1
		l-0.1,0.1l-19.1,18c-6.3,6.3-15.8,7.4-22,2.8l30.9-30.9c0,0,0-0.1,0.1-0.1l0.1-0.1c0.1,0,0.1-0.1,0.2-0.1c5.3-5.3,13-6.7,18.8-3.6
		l8.8,4.8c1.5,0.8,3.2,1.2,4.9,1.2s3.5-0.4,5.2-1.2l31.6-15.8c1-0.5,1.4-1.7,0.9-2.7s-1.7-1.4-2.7-0.9l-31.6,15.8
		c-2.1,1.1-4.5,1.1-6.4,0.1l-8.8-4.8c-7.2-3.9-16.7-2.3-23.2,3.9l-40.5-3.9l-31.3-15.6c-1-0.5-2.2-0.1-2.7,0.9s-0.1,2.2,0.9,2.7
		l31.6,15.8h0.1c0.1,0,0.2,0.1,0.3,0.1s0.1,0,0.2,0c0.1,0,0.1,0,0.2,0l37.6,3.6l-29.4,29.4c-0.8,0.8-0.8,2,0,2.8
		c3.6,3.6,8.3,5.3,13.2,5.3c5.6,0,11.4-2.3,15.9-6.8l17.7-16.7l29.8,29.4l6.5,6.5c3.1,3.1,3.4,7.7,0.7,10.3c-1.3,1.3-3,1.9-4.9,1.8
		c-2-0.1-3.9-1-5.4-2.5c-0.8-0.8-2-0.8-2.8,0s-0.8,2,0,2.8l0,0c3,3.1,3.4,7.7,0.7,10.3c-1.3,1.3-3,1.9-4.9,1.8c-2-0.1-3.9-1-5.4-2.5
		c-0.8-0.8-2-0.8-2.8,0s-0.8,2,0,2.8c3.1,3.1,3.4,7.7,0.7,10.3c-1.3,1.3-3,1.9-4.9,1.8c-2-0.1-3.9-1-5.4-2.5c-0.8-0.8-2-0.8-2.8,0
		s-0.8,2,0,2.8c3.1,3.1,3.4,7.7,0.7,10.3c-1.3,1.3-3,1.9-4.9,1.8c-1.7-0.1-3.4-0.8-4.8-1.9l2-2c1.7-1.7,2.6-4,2.6-6.4
		s-0.9-4.7-2.6-6.4l-2.5-2.5c-2-2-4.7-2.9-7.4-2.6c0-0.3,0.1-0.6,0.1-1c0-2.4-0.9-4.7-2.6-6.4l-2.5-2.5c-2-2-4.7-2.9-7.4-2.6
		c0.3-2.6-0.6-5.3-2.6-7.4l-2.5-2.5c-1.7-1.7-4-2.6-6.4-2.6c-0.3,0-0.7,0-1,0.1c0.3-2.6-0.6-5.3-2.6-7.4l-2.5-2.5
		c-3.5-3.5-9.2-3.5-12.8,0l-0.8,0.8l-24.3-12.2c-1-0.5-2.2-0.1-2.7,0.9s-0.1,2.2,0.9,2.7l23.2,11.6l-4.8,4.8
		c-3.5,3.5-3.5,9.2,0,12.8l2.5,2.5c1.8,1.8,4.1,2.6,6.4,2.6c0.3,0,0.6,0,1-0.1c-0.3,2.6,0.6,5.3,2.6,7.4l2.5,2.5l0,0
		c1.8,1.8,4.1,2.6,6.4,2.6c0.3,0,0.6,0,1-0.1c-0.3,2.6,0.6,5.3,2.6,7.4l2.5,2.5c1.8,1.8,4.1,2.6,6.4,2.6c0.3,0,0.6,0,1-0.1
		c-0.3,2.6,0.6,5.4,2.6,7.4l2.5,2.5c1.8,1.8,4.1,2.6,6.4,2.6s4.6-0.9,6.4-2.6l3.7-3.7c2.1,1.8,4.7,2.9,7.4,3.1c0.2,0,0.4,0,0.6,0
		c2.8,0,5.4-1,7.3-3c2.6-2.6,3.4-6.2,2.7-9.7c0.6,0.1,1.2,0.2,1.8,0.2c3.1,0.2,5.9-0.9,8-2.9c2.6-2.6,3.4-6.2,2.7-9.7
		c0.6,0.1,1.2,0.2,1.8,0.2c3.1,0.2,5.9-0.9,8-2.9c2.6-2.6,3.4-6.2,2.7-9.7c0.6,0.1,1.2,0.2,1.8,0.2c3.1,0.2,5.9-0.9,8-2.9
		c3.8-3.8,3.9-10.2,0.3-14.7l17.7-8.9c1-0.5,1.4-1.7,0.9-2.7C939.3,1527.5,938.1,1527.1,937.1,1527.6z M817.2,1555.6l-2.5-2.5
		c-2-2-2-5.2,0-7.1l8.6-8.6c2-2,5.2-2,7.1,0l2.5,2.5c2,2,2,5.2,0,7.1l-8.6,8.6C822.4,1557.6,819.2,1557.6,817.2,1555.6z M829.6,1568
		l-2.5-2.5c-2-2-2-5.2,0-7.1l8.6-8.6c0.9-1,2.2-1.5,3.6-1.5c1.3,0,2.6,0.5,3.6,1.5l2.5,2.5c2,2,2,5.2,0,7.1l-8.6,8.6
		C834.8,1570,831.6,1570,829.6,1568z M842.1,1580.4l-2.5-2.5c-2-2-2-5.2,0-7.1l8.6-8.6c1-1,2.3-1.5,3.6-1.5s2.6,0.5,3.6,1.5l2.5,2.5
		c1,1,1.5,2.2,1.5,3.6s-0.5,2.6-1.5,3.6l-8.6,8.6C847.2,1582.4,844,1582.4,842.1,1580.4z M861.6,1592.9c-2,2-5.2,2-7.1,0l-2.5-2.5
		c-2-2-2-5.2,0-7.1l8.6-8.6c1-1,2.3-1.5,3.6-1.5s2.6,0.5,3.6,1.5l2.5,2.5c1,1,1.5,2.2,1.5,3.6s-0.5,2.6-1.5,3.6L861.6,1592.9z"/>
</g>
<g id="Ultralight-L">
	<path d="M650.4,1528.1l-19.1,9.6l-5-5l0,0l0,0l-31.2-30.8c-0.1-0.1-0.2-0.1-0.2-0.2c-0.1-0.1-0.2-0.1-0.2-0.2
		c-0.1,0-0.2-0.1-0.3-0.1s-0.2,0-0.2,0c-0.1,0-0.2,0-0.3,0.1c-0.1,0-0.2,0-0.2,0c-0.1,0-0.2,0.1-0.3,0.2c-0.1,0-0.2,0.1-0.2,0.1
		l-19.1,18c-6.7,6.7-16.7,7.6-23.1,2.5l31.3-31.3l0.1-0.1c0,0,0-0.1,0.1-0.1s0.1-0.1,0.2-0.1c5.4-5.4,13.4-6.9,19.4-3.6l8.8,4.8
		c1.4,0.8,3,1.2,4.7,1.2s3.4-0.4,5-1.2l31.6-15.8c0.7-0.4,1-1.3,0.7-2c-0.4-0.7-1.3-1-2-0.7l-31.6,15.8c-2.3,1.1-4.8,1.2-6.9,0.1
		l-8.8-4.8c-7.1-3.9-16.4-2.2-22.8,4l-40.8-3.9l-31.3-15.7c-0.7-0.4-1.6-0.1-2,0.7c-0.4,0.7-0.1,1.6,0.7,2l31.6,15.8c0,0,0,0,0.1,0
		s0.1,0.1,0.2,0.1h0.1h0.1l38.6,3.7l-30.1,30.1c-0.3,0.3-0.4,0.7-0.4,1.1s0.2,0.8,0.4,1.1c3.5,3.5,8.1,5.2,12.9,5.2
		c5.5,0,11.2-2.2,15.5-6.6l18-17l30.2,29.8l0,0l6.5,6.5c3.2,3.2,3.6,8.2,0.7,11c-1.4,1.4-3.2,2-5.3,1.9s-4.2-1.1-5.8-2.7
		c-0.6-0.6-1.5-0.6-2.1,0s-0.6,1.5,0,2.1c3.2,3.2,3.6,8.2,0.7,11c-1.4,1.4-3.2,2-5.3,1.9s-4.2-1.1-5.8-2.7c-0.6-0.6-1.5-0.6-2.1,0
		s-0.6,1.5,0,2.1c3.2,3.2,3.6,8.2,0.7,11c-1.4,1.4-3.2,2-5.3,1.9s-4.2-1.1-5.8-2.7c-0.6-0.6-1.5-0.6-2.1,0s-0.6,1.5,0,2.1
		c3.2,3.2,3.6,8.2,0.7,11c-1.4,1.4-3.2,2-5.3,1.9c-2-0.1-3.9-1-5.5-2.4l2.4-2.4c3.3-3.3,3.3-8.7,0-12.1l-2.5-2.5
		c-2.1-2.1-4.9-2.8-7.6-2.3c0.5-2.7-0.3-5.5-2.3-7.6l-2.5-2.5c-2.1-2.1-4.9-2.8-7.6-2.3c0.5-2.7-0.3-5.5-2.3-7.6l-2.5-2.5
		c-1.6-1.6-3.8-2.5-6-2.5c-0.5,0-1.1,0.1-1.6,0.1c0.5-2.7-0.3-5.5-2.3-7.6l-2.5-2.5c-3.3-3.3-8.7-3.3-12.1,0l-1,1l-24.7-12.3
		c-0.7-0.4-1.6-0.1-2,0.7c-0.4,0.7-0.1,1.6,0.7,2l23.8,11.9l-5.3,5.3c-3.3,3.3-3.3,8.7,0,12.1l2.5,2.5c1.7,1.7,3.8,2.5,6,2.5
		c0.5,0,1-0.1,1.6-0.1c-0.5,2.7,0.3,5.5,2.3,7.6l2.5,2.5l0,0c1.7,1.7,3.8,2.5,6,2.5c0.5,0,1-0.1,1.6-0.1c-0.5,2.7,0.3,5.5,2.3,7.6
		l2.5,2.5c1.7,1.7,3.8,2.5,6,2.5c0.5,0,1-0.1,1.6-0.1c-0.5,2.7,0.3,5.5,2.3,7.6l2.5,2.5c1.7,1.7,3.8,2.5,6,2.5s4.4-0.8,6-2.5
		l4.1-4.1c2.1,1.9,4.7,3.1,7.4,3.3c0.2,0,0.4,0,0.6,0c2.7,0,5.1-1,7-2.8c2.6-2.6,3.4-6.5,2.4-10.1c0.8,0.2,1.6,0.4,2.5,0.4
		c2.9,0.2,5.6-0.8,7.6-2.8c2.6-2.6,3.4-6.5,2.4-10.1c0.8,0.2,1.6,0.4,2.5,0.4c2.9,0.2,5.6-0.8,7.6-2.8c2.6-2.6,3.4-6.5,2.4-10.1
		c0.8,0.2,1.6,0.4,2.5,0.4c2.9,0.2,5.6-0.8,7.6-2.8c3.8-3.8,3.7-10.1-0.1-14.6l18.3-9.1c0.7-0.4,1-1.3,0.7-2
		C652,1528,651.1,1527.7,650.4,1528.1z M529.9,1555.9l-2.5-2.5c-2.2-2.2-2.2-5.7,0-7.8l8.6-8.6c2.2-2.2,5.7-2.2,7.8,0l2.5,2.5
		c2.2,2.2,2.2,5.7,0,7.8l-8.6,8.6C535.6,1558.1,532.1,1558.1,529.9,1555.9z M542.4,1568.4l-2.5-2.5c-2.2-2.2-2.2-5.7,0-7.8l8.6-8.6
		c1-1,2.4-1.6,3.9-1.6s2.9,0.6,3.9,1.6l2.5,2.5c2.2,2.2,2.2,5.7,0,7.8l-8.6,8.6C548,1570.5,544.5,1570.5,542.4,1568.4z
		 M554.8,1580.8l-2.5-2.5c-2.2-2.2-2.2-5.7,0-7.8l8.6-8.6c2.2-2.2,5.7-2.2,7.8,0l2.5,2.5c2.2,2.2,2.2,5.7,0,7.8l-8.6,8.6
		C560.5,1583,556.9,1583,554.8,1580.8z M575,1593.2c-2.2,2.2-5.7,2.2-7.8,0l-2.5-2.5c-2.2-2.2-2.2-5.7,0-7.8l8.6-8.6
		c2.2-2.2,5.7-2.2,7.8,0l2.5,2.5c2.2,2.2,2.2,5.7,0,7.8L575,1593.2z"/>
</g>
<g id="Black-M">
	<path d="M3000,1092.7l-12.9,6.4l-2.1-2.1l0,0l0,0l-24.9-24.6c-0.1-0.1-0.2-0.2-0.3-0.3c-0.1-0.1-0.3-0.2-0.4-0.3
		c-0.1-0.1-0.3-0.2-0.4-0.2c-0.1-0.1-0.3-0.2-0.4-0.2c-0.1-0.1-0.3-0.1-0.5-0.1s-0.3-0.1-0.5-0.1s-0.3,0-0.5-0.1c-0.2,0-0.3,0-0.5,0
		s-0.3,0-0.5,0s-0.3,0-0.5,0s-0.3,0.1-0.5,0.1s-0.3,0.1-0.5,0.1c-0.2,0.1-0.3,0.1-0.5,0.2c-0.1,0.1-0.3,0.1-0.4,0.2
		c-0.1,0.1-0.3,0.2-0.4,0.3c-0.1,0.1-0.2,0.2-0.3,0.2l-15.3,14.4l-0.1,0.1c-2.6,2.6-6.1,3.8-9.2,3.5l21.1-21.1
		c0.1-0.1,0.1-0.1,0.1-0.2c0.1,0,0.1-0.1,0.2-0.1c3.1-3.1,7.7-4.1,11-2.3l7,3.8c1.7,0.9,3.6,1.4,5.6,1.4c1.9,0,3.9-0.5,5.7-1.4
		l25.3-12.6c2.5-1.2,3.5-4.2,2.2-6.7c-1.2-2.5-4.2-3.5-6.7-2.2l-25.3,12.6c-0.7,0.4-1.5,0.4-2,0.1l-7-3.8
		c-6.6-3.6-15.1-2.5-21.3,2.6l-30.3-2.9l-24.4-12.2c-2.5-1.2-5.5-0.2-6.7,2.2c-1.2,2.5-0.2,5.5,2.2,6.7l25.3,12.6
		c0.2,0.1,0.5,0.2,0.7,0.3c0.1,0,0.1,0,0.2,0c0.3,0.1,0.6,0.1,0.9,0.2l0,0l22.9,2.2l-18.4,18.4c-0.9,0.9-1.5,2.2-1.5,3.5
		s0.5,2.6,1.5,3.5c3.5,3.5,8.2,5.2,13,5.2c5.3,0,10.8-2.1,15.1-6.4l11.7-11l21.5,21.2l0,0l5.2,5.2c0.6,0.6,1,1.4,1,2.1
		c0,0.4,0,0.9-0.4,1.3s-1,0.5-1.3,0.4c-0.8,0-1.5-0.4-2.1-1c-2-2-5.1-2-7.1,0c-1,1-1.5,2.3-1.5,3.5s0.5,2.6,1.5,3.5
		c1.2,1.2,1.3,2.8,0.6,3.5c-0.4,0.4-1,0.4-1.3,0.4c-0.7,0-1.5-0.4-2.1-1c-2-2-5.1-2-7.1,0c-1,1-1.5,2.3-1.5,3.5s0.5,2.6,1.5,3.5
		c0.6,0.6,1,1.4,1,2.1c0,0.4,0,0.9-0.4,1.3s-1,0.4-1.3,0.4c-0.7,0-1.5-0.4-2.1-1c-1.9-1.9-5-1.9-7-0.1c-0.5-0.8-1.1-1.6-1.8-2.3
		c-1.9-1.9-4.2-3-6.6-3.4c-0.4-2.4-1.5-4.7-3.4-6.6s-4.2-3-6.6-3.4c-0.4-2.5-1.5-4.8-3.4-6.6c-1.9-1.9-4.2-3-6.6-3.4
		c-0.4-2.4-1.5-4.7-3.4-6.6c-2.3-2.3-5.3-3.5-8.5-3.5c-2.1,0-4.2,0.6-6,1.6l-17.7-8.8c-2.5-1.2-5.5-0.2-6.7,2.2
		c-1.2,2.5-0.2,5.5,2.2,6.7l14.3,7.2c-4.2,4.7-4.1,12,0.4,16.5l0,0c1.9,1.9,4.2,3,6.6,3.4c0.4,2.4,1.5,4.7,3.4,6.6l0,0
		c1.8,1.8,4.1,3,6.6,3.4c0.4,2.4,1.5,4.7,3.4,6.6l0,0c1.9,1.9,4.2,3,6.6,3.4c0.4,2.5,1.5,4.8,3.4,6.6l0,0c2.3,2.3,5.3,3.5,8.5,3.5
		s6.2-1.3,8.5-3.5l0,0c1.6,0.9,3.4,1.4,5.3,1.5c0.2,0,0.5,0,0.7,0c3.1,0,6.1-1.2,8.3-3.4c1.8-1.8,2.9-4.1,3.3-6.7
		c2.5-0.3,4.9-1.5,6.7-3.3c1.9-1.9,2.9-4.2,3.3-6.7c2.5-0.3,4.9-1.5,6.7-3.3c1.9-1.9,2.9-4.2,3.3-6.7c2.6-0.3,4.9-1.5,6.7-3.3
		c2.3-2.3,3.5-5.6,3.3-9c-0.1-1.3-0.4-2.6-0.8-3.8l11-5.5c2.5-1.2,3.5-4.2,2.2-6.7C3005.5,1092.5,3002.5,1091.5,3000,1092.7z
		 M2929.8,1134.6c-0.8,0.8-2.1,0.8-2.9,0c-0.8-0.8-0.8-2.1,0-2.9l4.9-4.9c0.8-0.8,2.1-0.8,2.9,0c0.8,0.8,0.8,2.1,0,2.9
		L2929.8,1134.6z M2918.4,1125.3c-0.3,0-0.9-0.1-1.4-0.6l0,0c-0.8-0.8-0.8-2.1,0-2.9l4.9-4.9c0.4-0.4,0.9-0.6,1.4-0.6s1,0.2,1.4,0.6
		c0.5,0.5,0.6,1.1,0.6,1.4s-0.1,0.9-0.6,1.4l-4.9,4.9C2919.3,1125.2,2918.7,1125.3,2918.4,1125.3z M2914.8,1107
		c0.8,0.8,0.8,2.1,0,2.9l-4.9,4.9c-0.8,0.8-2.1,0.8-2.9,0c-0.8-0.8-0.8-2.1,0-2.9l4.9-4.9c0.5-0.5,1.1-0.6,1.4-0.6
		C2913.7,1106.4,2914.3,1106.5,2914.8,1107z M2938.3,1145.1c-0.3,0-0.9-0.1-1.4-0.6l0,0c-0.5-0.5-0.6-1.1-0.6-1.4s0.1-0.9,0.6-1.4
		l4.9-4.9c0.4-0.4,0.9-0.6,1.4-0.6s1,0.2,1.4,0.6c0.8,0.8,0.8,2.1,0,2.9l-4.9,4.9C2939.2,1145.1,2938.6,1145.1,2938.3,1145.1z"/>
</g>
<g id="Heavy-M">
	<path d="M2709.4,1095.2c-1.1-2.2-3.8-3.1-6-2l-13.2,6.6l-2.3-2.3l0,0l0,0l-24.9-24.6c-0.1-0.1-0.2-0.2-0.3-0.2
		c-0.1-0.1-0.2-0.2-0.4-0.3c-0.1-0.1-0.3-0.1-0.4-0.2c-0.1-0.1-0.3-0.1-0.4-0.2c-0.1-0.1-0.3-0.1-0.4-0.1c-0.1,0-0.3-0.1-0.4-0.1
		c-0.1,0-0.3,0-0.4-0.1c-0.1,0-0.3,0-0.4,0c-0.1,0-0.3,0-0.4,0c-0.1,0-0.3,0-0.4,0c-0.1,0-0.3,0.1-0.4,0.1c-0.1,0-0.3,0.1-0.4,0.1
		c-0.1,0.1-0.3,0.1-0.4,0.2c-0.1,0.1-0.3,0.1-0.4,0.2c-0.1,0.1-0.3,0.2-0.4,0.3c-0.1,0.1-0.2,0.1-0.3,0.2l-15.3,14.4l-0.1,0.1
		c-3,3-7.1,4.2-10.6,3.4l21.8-21.8c0.1-0.1,0.1-0.1,0.1-0.2c0.1,0,0.1-0.1,0.2-0.1c3.3-3.3,8.1-4.3,11.6-2.3l7,3.8
		c1.6,0.9,3.5,1.3,5.3,1.3s3.7-0.4,5.4-1.3l25.3-12.6c2.2-1.1,3.1-3.8,2-6s-3.8-3.1-6-2l-25.3,12.6c-0.9,0.4-1.8,0.5-2.4,0.1l-7-3.8
		c-6.5-3.5-14.9-2.4-20.9,2.7l-30.6-2.9l-24.5-12.2c-2.2-1.1-4.9-0.2-6,2s-0.2,4.9,2,6l25.3,12.6c0.2,0.1,0.4,0.2,0.6,0.3h0.1
		c0.3,0.1,0.5,0.1,0.8,0.2l0,0l23.9,2.3l-19.1,19.1c-0.8,0.8-1.3,2-1.3,3.2s0.5,2.3,1.3,3.2c3.4,3.4,8,5.1,12.6,5.1
		c5.2,0,10.6-2.1,14.8-6.2l12.1-11.4l21.9,21.6l0,0l5.2,5.2c0.7,0.7,1.1,1.6,1.2,2.5c0,0.5,0,1.2-0.6,1.7c-0.5,0.5-1.2,0.6-1.7,0.6
		c-0.9,0-1.8-0.5-2.5-1.2c-1.8-1.8-4.6-1.8-6.4,0c-0.9,0.9-1.3,2-1.3,3.2s0.4,2.3,1.3,3.2c1.3,1.3,1.6,3.2,0.6,4.2
		c-0.6,0.6-1.3,0.6-1.7,0.6c-0.9,0-1.8-0.5-2.5-1.2c-1.8-1.8-4.6-1.8-6.4,0c-0.9,0.9-1.3,2-1.3,3.2s0.4,2.3,1.3,3.2
		c0.7,0.7,1.1,1.6,1.2,2.5c0,0.5,0,1.2-0.6,1.7c-0.6,0.6-1.3,0.6-1.7,0.6c-0.9,0-1.8-0.5-2.5-1.2c-1.8-1.8-4.6-1.8-6.4,0
		c-0.1,0.1-0.2,0.3-0.4,0.4c-0.5-1-1.2-2-2.1-2.8c-1.9-1.9-4.2-3-6.7-3.3c-0.3-2.4-1.4-4.8-3.3-6.7c-1.9-1.9-4.2-3-6.7-3.3
		c-0.3-2.4-1.4-4.8-3.3-6.7c-1.9-1.9-4.2-3-6.7-3.3c-0.3-2.4-1.4-4.8-3.3-6.7c-2.2-2.2-5.1-3.4-8.2-3.4c-2.1,0-4.2,0.6-6,1.7
		l-17.9-9c-2.2-1.1-4.9-0.2-6,2s-0.2,4.9,2,6l14.9,7.5l0,0c-4.5,4.5-4.5,11.8,0,16.3l0,0c1.9,1.9,4.2,3,6.7,3.3
		c0.3,2.4,1.4,4.8,3.3,6.7l0,0c1.8,1.8,4.2,3,6.7,3.3c0.3,2.4,1.4,4.8,3.3,6.7l0,0c1.9,1.9,4.2,2.9,6.7,3.3c0.3,2.5,1.4,4.9,3.3,6.7
		l0,0l0,0c2.2,2.2,5.1,3.4,8.2,3.4c3.1,0,6-1.2,8.2-3.4l0.3-0.3c1.7,0.9,3.5,1.5,5.4,1.6c0.2,0,0.4,0,0.7,0c3,0,5.9-1.2,7.9-3.2
		c1.9-1.9,2.9-4.3,3.2-6.8c2.6-0.3,5-1.4,6.8-3.2c1.9-1.9,2.9-4.3,3.2-6.8c2.6-0.3,5-1.4,6.8-3.2c1.8-1.8,2.9-4.2,3.2-6.8
		c2.6-0.2,5-1.3,6.8-3.2c2.2-2.2,3.4-5.3,3.2-8.6c-0.1-1.4-0.4-2.8-0.9-4l11.5-5.7C2709.6,1100.1,2710.5,1097.4,2709.4,1095.2z
		 M2609.1,1113.3c0-0.7,0.3-1.3,0.7-1.8l4.9-4.9c1-1,2.6-1,3.6,0c0.5,0.5,0.7,1.1,0.7,1.8s-0.3,1.3-0.7,1.8l-4.9,4.9
		c-1,1-2.6,1-3.6,0C2609.3,1114.6,2609.1,1114,2609.1,1113.3z M2619.8,1125c-0.5-0.5-0.7-1.1-0.7-1.8s0.3-1.3,0.7-1.8l4.9-4.9
		c0.5-0.5,1.1-0.7,1.8-0.7s1.3,0.3,1.8,0.7c0.5,0.5,0.7,1.1,0.7,1.8s-0.3,1.3-0.7,1.8l-4.9,4.9C2622.4,1126,2620.7,1126,2619.8,1125
		L2619.8,1125z M2629.7,1131.4l4.9-4.9c0.5-0.5,1.1-0.7,1.8-0.7s1.3,0.3,1.8,0.7c0.5,0.5,0.7,1.1,0.7,1.8s-0.3,1.3-0.7,1.8l-4.9,4.9
		c-1,1-2.6,1-3.6,0C2628.7,1134,2628.7,1132.4,2629.7,1131.4z M2639.7,1144.9L2639.7,1144.9c-0.5-0.5-0.7-1.1-0.7-1.8
		s0.3-1.3,0.7-1.8l4.9-4.9c0.5-0.5,1.1-0.7,1.8-0.7s1.3,0.3,1.8,0.7c0.5,0.5,0.7,1.1,0.7,1.8s-0.3,1.3-0.7,1.8l-4.9,4.9
		C2642.3,1145.9,2640.6,1145.9,2639.7,1144.9z M2657.5,1143c-0.3,0.3-0.6,0.4-0.9,0.5c0.6-1.1,0.9-2.3,1.1-3.5
		C2658.2,1141.1,2658.2,1142.3,2657.5,1143z"/>
</g>
<g id="Bold-M">
	<path d="M2406.7,1093.6l-13.5,6.7l-2.6-2.6l0,0l0,0l-24.9-24.6c-0.1-0.1-0.2-0.1-0.3-0.2s-0.2-0.2-0.3-0.3
		c-0.1-0.1-0.2-0.1-0.3-0.2s-0.2-0.1-0.3-0.2s-0.2-0.1-0.4-0.1c-0.1,0-0.2-0.1-0.4-0.1c-0.1,0-0.3,0-0.4,0c-0.1,0-0.2,0-0.4,0
		c-0.1,0-0.3,0-0.4,0c-0.1,0-0.2,0-0.4,0c-0.1,0-0.3,0.1-0.4,0.1c-0.1,0-0.2,0.1-0.4,0.1c-0.1,0-0.2,0.1-0.4,0.2
		c-0.1,0.1-0.2,0.1-0.3,0.2s-0.2,0.2-0.3,0.2c-0.1,0.1-0.2,0.1-0.3,0.2l-15.3,14.4l-0.1,0.1c-3.4,3.4-8.1,4.6-11.9,3.3l22.4-22.4
		c0,0,0.1-0.1,0.1-0.2l0,0c0.1,0,0.1-0.1,0.2-0.1c3.5-3.5,8.5-4.5,12.2-2.4l7,3.8c1.6,0.8,3.3,1.3,5.1,1.3s3.5-0.4,5.2-1.2
		l25.3-12.6c2-1,2.8-3.4,1.8-5.4s-3.4-2.8-5.4-1.8l-25.3,12.6c-1,0.5-2.1,0.5-2.9,0.1l-7-3.8c-6.4-3.5-14.6-2.3-20.5,2.8l-30.9-2.9
		l-24.6-12.3c-2-1-4.4-0.2-5.4,1.8s-0.2,4.4,1.8,5.4l25.3,12.6c0.1,0,0.1,0,0.2,0.1c0.2,0.1,0.4,0.2,0.6,0.2c0.1,0,0.2,0,0.4,0.1
		c0.1,0,0.2,0,0.3,0.1l25,2.4l-19.9,19.9c-0.8,0.8-1.2,1.8-1.2,2.8c0,1.1,0.4,2.1,1.2,2.8c3.3,3.3,7.7,5,12.3,5
		c5.1,0,10.3-2.1,14.4-6.1l12.4-11.7l22.2,21.9l5.2,5.2c0.8,0.8,1.3,1.8,1.3,2.8c0,0.5,0,1.4-0.7,2.1s-1.5,0.8-2.1,0.7
		c-1-0.1-2-0.5-2.8-1.3c-1.6-1.6-4.1-1.6-5.7,0c-0.8,0.8-1.2,1.8-1.2,2.8s0.4,2,1.2,2.8c1.5,1.5,1.8,3.7,0.6,4.9
		c-0.7,0.7-1.6,0.7-2.1,0.7c-1-0.1-2-0.5-2.8-1.3c-1.6-1.6-4.1-1.6-5.7,0c-0.8,0.8-1.2,1.8-1.2,2.8s0.4,2,1.2,2.8
		c1.5,1.5,1.8,3.7,0.6,4.9c-0.7,0.7-1.6,0.8-2.1,0.7c-1-0.1-2-0.5-2.8-1.3c-1.6-1.6-4.1-1.6-5.7,0c-0.3,0.3-0.6,0.7-0.8,1.1
		c-0.5-1.3-1.3-2.5-2.4-3.5c-1.9-1.9-4.3-2.9-6.8-3.2c-0.2-2.5-1.3-4.9-3.2-6.8s-4.3-2.9-6.8-3.2c-0.2-2.5-1.3-4.9-3.2-6.8
		s-4.3-2.9-6.8-3.2c-0.2-2.5-1.3-4.9-3.2-6.8c-2.1-2.1-4.9-3.2-7.8-3.2c-2.1,0-4.2,0.6-6,1.8l-18.2-9.1c-2-1-4.4-0.2-5.4,1.8
		s-0.2,4.4,1.8,5.4l15.5,7.8l-0.5,0.5c-4.3,4.3-4.3,11.3,0,15.6l0,0c1.9,1.9,4.3,2.9,6.8,3.2c0.2,2.5,1.3,4.9,3.2,6.8l0,0
		c1.8,1.8,4.2,2.9,6.8,3.2c0.2,2.5,1.3,4.9,3.2,6.8l0,0c1.9,1.9,4.3,2.9,6.8,3.2c0.2,2.6,1.3,4.9,3.2,6.8l0,0l0,0
		c2.1,2.1,4.9,3.2,7.8,3.2s5.7-1.1,7.8-3.2l0.6-0.6c1.7,1,3.6,1.6,5.5,1.7c0.2,0,0.4,0,0.6,0c2.9,0,5.6-1.1,7.6-3.1
		c1.9-1.9,2.9-4.3,3-6.9c2.6-0.2,5.1-1.2,6.9-3.1c1.8-1.8,2.9-4.3,3.1-6.9c2.6-0.2,5.1-1.2,6.9-3c1.9-1.9,2.9-4.3,3-6.9
		c2.6-0.2,5.1-1.2,6.9-3.1c2.1-2.1,3.2-5.1,3.1-8.2c-0.1-1.5-0.5-3-1.1-4.3l11.9-5.9c2-1,2.8-3.4,1.8-5.4
		C2411.1,1093.4,2408.7,1092.6,2406.7,1093.6z M2312.6,1111.1l4.9-4.9c1.1-1.1,3.1-1.1,4.3,0c1.2,1.2,1.2,3.1,0,4.3l-4.9,4.9
		c-1.2,1.2-3.1,1.2-4.3,0C2311.4,1114.3,2311.4,1112.3,2312.6,1111.1z M2322.5,1125.4c-1.2-1.2-1.2-3.1,0-4.3l4.9-4.9
		c0.6-0.6,1.4-0.9,2.1-0.9s1.6,0.3,2.1,0.9c1.2,1.2,1.2,3.1,0,4.3l-4.9,4.9C2325.7,1126.5,2323.7,1126.5,2322.5,1125.4
		L2322.5,1125.4z M2332.5,1131l4.9-4.9c1.2-1.2,3.1-1.2,4.3,0s1.2,3.1,0,4.3l-4.9,4.9c-1.2,1.2-3.1,1.2-4.3,0
		C2331.3,1134.1,2331.3,1132.2,2332.5,1131z M2342.4,1145.3L2342.4,1145.3c-0.6-0.6-0.9-1.3-0.9-2.1s0.3-1.6,0.9-2.1l4.9-4.9
		c0.6-0.6,1.4-0.9,2.1-0.9s1.6,0.3,2.1,0.9c1.2,1.2,1.2,3.1,0,4.3l-4.9,4.9C2345.6,1146.4,2343.6,1146.4,2342.4,1145.3z
		 M2361,1143.4c-0.7,0.7-1.6,0.8-2.1,0.7h-0.1c1-1.7,1.6-3.6,1.7-5.5C2361.9,1140.1,2362.1,1142.2,2361,1143.4z"/>
</g>
<g id="Semibold-M">
	<path d="M2109.8,1093.6l-13.5,6.7l-2.6-2.6l0,0l0,0l-24.9-24.6c-0.1-0.1-0.2-0.1-0.3-0.2s-0.2-0.2-0.3-0.3
		c-0.1-0.1-0.2-0.1-0.3-0.2s-0.2-0.1-0.3-0.2s-0.3-0.1-0.4-0.1c-0.1,0-0.2-0.1-0.4-0.1c-0.1,0-0.3,0-0.4,0c-0.1,0-0.2,0-0.4,0
		c-0.1,0-0.3,0-0.4,0c-0.1,0-0.2,0-0.4,0c-0.1,0-0.3,0.1-0.4,0.1c-0.1,0-0.2,0.1-0.4,0.1c-0.1,0-0.2,0.1-0.4,0.2
		c-0.1,0.1-0.2,0.1-0.3,0.2s-0.2,0.2-0.3,0.2c-0.1,0.1-0.2,0.1-0.3,0.2l-15.3,14.4l-0.1,0.1c-3.4,3.4-8.1,4.6-11.9,3.3l22.4-22.4
		c0,0,0.1-0.1,0.1-0.2l0,0c0.1,0,0.1-0.1,0.2-0.1c3.5-3.5,8.5-4.5,12.2-2.4l7,3.8c1.6,0.8,3.3,1.3,5.1,1.3s3.5-0.4,5.2-1.2
		l25.3-12.6c2-1,2.8-3.4,1.8-5.4s-3.4-2.8-5.4-1.8l-25.3,12.6c-1,0.5-2.1,0.5-2.9,0.1l-7-3.8c-6.4-3.5-14.6-2.3-20.5,2.8l-30.9-2.9
		l-24.6-12.3c-2-1-4.4-0.2-5.4,1.8s-0.2,4.4,1.8,5.4l25.3,12.6c0.1,0,0.1,0,0.2,0.1c0.2,0.1,0.4,0.2,0.6,0.2c0.1,0,0.2,0,0.4,0.1
		c0.1,0,0.2,0,0.3,0.1l25,2.4l-19.9,19.9c-0.8,0.8-1.2,1.8-1.2,2.8c0,1.1,0.4,2.1,1.2,2.8c3.3,3.3,7.7,5,12.3,5
		c5.1,0,10.3-2.1,14.4-6.1l12.4-11.7l22.2,21.9l5.2,5.2c0.8,0.8,1.3,1.8,1.3,2.8c0,0.5,0,1.4-0.7,2.1s-1.5,0.8-2.1,0.7
		c-1-0.1-2-0.5-2.8-1.3c-1.6-1.6-4.1-1.6-5.7,0c-0.8,0.8-1.2,1.8-1.2,2.8s0.4,2,1.2,2.8c1.5,1.5,1.8,3.7,0.6,4.9
		c-0.7,0.7-1.6,0.7-2.1,0.7c-1-0.1-2-0.5-2.8-1.3c-1.6-1.6-4.1-1.6-5.7,0c-0.8,0.8-1.2,1.8-1.2,2.8s0.4,2,1.2,2.8
		c1.5,1.5,1.8,3.7,0.6,4.9c-0.7,0.7-1.6,0.8-2.1,0.7c-1-0.1-2-0.5-2.8-1.3c-1.6-1.6-4.1-1.6-5.7,0c-0.3,0.3-0.6,0.7-0.8,1.1
		c-0.5-1.3-1.3-2.5-2.4-3.5c-1.9-1.9-4.3-2.9-6.8-3.2c-0.2-2.5-1.3-4.9-3.2-6.8s-4.3-2.9-6.8-3.2c-0.2-2.5-1.3-4.9-3.2-6.8
		c-1.9-1.9-4.3-2.9-6.8-3.2c-0.2-2.5-1.3-4.9-3.2-6.8c-2.1-2.1-4.9-3.2-7.8-3.2c-2.1,0-4.2,0.6-6,1.8l-18.2-9.1
		c-2-1-4.4-0.2-5.4,1.8s-0.2,4.4,1.8,5.4l15.5,7.8l-0.5,0.5c-4.3,4.3-4.3,11.3,0,15.6l0,0c1.9,1.9,4.3,2.9,6.8,3.2
		c0.2,2.5,1.3,4.9,3.2,6.8c1.8,1.8,4.2,2.9,6.8,3.2c0.2,2.5,1.3,4.9,3.2,6.8l0,0c1.9,1.9,4.3,2.9,6.8,3.2c0.2,2.6,1.3,4.9,3.2,6.8
		l0,0l0,0c2.1,2.1,4.9,3.2,7.8,3.2s5.7-1.1,7.8-3.2l0.6-0.6c1.7,1,3.6,1.6,5.5,1.7c0.2,0,0.4,0,0.6,0c2.9,0,5.6-1.1,7.6-3.1
		c1.9-1.9,2.9-4.3,3-6.9c2.6-0.2,5.1-1.2,6.9-3.1c1.8-1.8,2.9-4.3,3.1-6.9c2.6-0.2,5.1-1.2,6.9-3c1.9-1.9,2.9-4.3,3-6.9
		c2.6-0.2,5.1-1.2,6.9-3.1c2.1-2.1,3.2-5.1,3.1-8.2c-0.1-1.5-0.5-3-1.1-4.3l11.9-5.9c2-1,2.8-3.4,1.8-5.4
		C2114.2,1093.4,2111.8,1092.6,2109.8,1093.6z M2015.7,1111.1l4.9-4.9c1.1-1.1,3.1-1.1,4.3,0c1.2,1.2,1.2,3.1,0,4.3l-4.9,4.9
		c-1.2,1.2-3.1,1.2-4.3,0C2014.5,1114.3,2014.5,1112.3,2015.7,1111.1z M2025.7,1125.4c-1.2-1.2-1.2-3.1,0-4.3l4.9-4.9
		c0.6-0.6,1.4-0.9,2.1-0.9s1.6,0.3,2.1,0.9c1.2,1.2,1.2,3.1,0,4.3l-4.9,4.9C2028.8,1126.5,2026.8,1126.5,2025.7,1125.4
		L2025.7,1125.4z M2035.6,1131l4.9-4.9c1.2-1.2,3.1-1.2,4.3,0c1.2,1.2,1.2,3.1,0,4.3l-4.9,4.9c-1.2,1.2-3.1,1.2-4.3,0
		C2034.4,1134.1,2034.4,1132.2,2035.6,1131z M2045.5,1145.3L2045.5,1145.3c-0.6-0.6-0.9-1.3-0.9-2.1s0.3-1.6,0.9-2.1l4.9-4.9
		c0.6-0.6,1.4-0.9,2.1-0.9s1.6,0.3,2.1,0.9c1.2,1.2,1.2,3.1,0,4.3l-4.9,4.9C2048.7,1146.4,2046.7,1146.4,2045.5,1145.3z
		 M2064.1,1143.4c-0.7,0.7-1.6,0.8-2.1,0.7h-0.1c1-1.7,1.6-3.6,1.7-5.5C2065,1140.1,2065.2,1142.2,2064.1,1143.4z"/>
</g>
<g id="Medium-M">
	<path d="M1813,1093.6l-13.5,6.7l-2.6-2.6l0,0l0,0l-24.9-24.6c-0.1-0.1-0.2-0.1-0.3-0.2c-0.1-0.1-0.2-0.2-0.3-0.3
		c-0.1-0.1-0.2-0.1-0.3-0.2c-0.1-0.1-0.2-0.1-0.3-0.2c-0.1-0.1-0.3-0.1-0.4-0.1s-0.2-0.1-0.4-0.1c-0.1,0-0.3,0-0.4,0s-0.2,0-0.4,0
		c-0.1,0-0.3,0-0.4,0s-0.2,0-0.4,0c-0.1,0-0.3,0.1-0.4,0.1s-0.2,0.1-0.4,0.1c-0.1,0-0.2,0.1-0.4,0.2c-0.1,0.1-0.2,0.1-0.3,0.2
		c-0.1,0.1-0.2,0.2-0.3,0.2c-0.1,0.1-0.2,0.1-0.3,0.2l-15.3,14.4l-0.1,0.1c-3.4,3.4-8.1,4.6-11.9,3.3l22.4-22.4c0,0,0.1-0.1,0.1-0.2
		l0,0c0.1,0,0.1-0.1,0.2-0.1c3.5-3.5,8.5-4.5,12.2-2.4l7,3.8c1.6,0.8,3.3,1.3,5.1,1.3c1.8,0,3.5-0.4,5.2-1.2l25.3-12.6
		c2-1,2.8-3.4,1.8-5.4s-3.4-2.8-5.4-1.8l-25.3,12.6c-1,0.5-2.1,0.5-2.9,0.1l-7-3.8c-6.4-3.5-14.6-2.3-20.5,2.8l-30.9-2.9l-24.6-12.3
		c-2-1-4.4-0.2-5.4,1.8s-0.2,4.4,1.8,5.4l25.3,12.6c0.1,0,0.1,0,0.2,0.1c0.2,0.1,0.4,0.2,0.6,0.2c0.1,0,0.2,0,0.4,0.1
		c0.1,0,0.2,0,0.3,0.1l25,2.4l-19.9,19.9c-0.8,0.8-1.2,1.8-1.2,2.8c0,1.1,0.4,2.1,1.2,2.8c3.3,3.3,7.7,5,12.3,5
		c5.1,0,10.3-2.1,14.4-6.1l12.4-11.7l22.2,21.9l5.2,5.2c0.8,0.8,1.3,1.8,1.3,2.8c0,0.5,0,1.4-0.7,2.1s-1.5,0.8-2.1,0.7
		c-1-0.1-2-0.5-2.8-1.3c-1.6-1.6-4.1-1.6-5.7,0c-0.8,0.8-1.2,1.8-1.2,2.8s0.4,2,1.2,2.8c1.5,1.5,1.8,3.7,0.6,4.9
		c-0.7,0.7-1.6,0.7-2.1,0.7c-1-0.1-2-0.5-2.8-1.3c-1.6-1.6-4.1-1.6-5.7,0c-0.8,0.8-1.2,1.8-1.2,2.8s0.4,2,1.2,2.8
		c1.5,1.5,1.8,3.7,0.6,4.9c-0.7,0.7-1.6,0.8-2.1,0.7c-1-0.1-2-0.5-2.8-1.3c-1.6-1.6-4.1-1.6-5.7,0c-0.3,0.3-0.6,0.7-0.8,1.1
		c-0.5-1.3-1.3-2.5-2.4-3.5c-1.9-1.9-4.3-2.9-6.8-3.2c-0.2-2.5-1.3-4.9-3.2-6.8c-1.9-1.9-4.3-2.9-6.8-3.2c-0.2-2.5-1.3-4.9-3.2-6.8
		c-1.9-1.9-4.3-2.9-6.8-3.2c-0.2-2.5-1.3-4.9-3.2-6.8c-2.1-2.1-4.9-3.2-7.8-3.2c-2.1,0-4.2,0.6-6,1.8l-18.2-9.1
		c-2-1-4.4-0.2-5.4,1.8s-0.2,4.4,1.8,5.4l15.5,7.8l-0.5,0.5c-4.3,4.3-4.3,11.3,0,15.6l0,0c1.9,1.9,4.3,2.9,6.8,3.2
		c0.2,2.5,1.3,4.9,3.2,6.8l0,0c1.8,1.8,4.2,2.9,6.8,3.2c0.2,2.5,1.3,4.9,3.2,6.8l0,0c1.9,1.9,4.3,2.9,6.8,3.2
		c0.2,2.6,1.3,4.9,3.2,6.8l0,0l0,0c2.1,2.1,4.9,3.2,7.8,3.2s5.7-1.1,7.8-3.2l0.6-0.6c1.7,1,3.6,1.6,5.5,1.7c0.2,0,0.4,0,0.6,0
		c2.9,0,5.6-1.1,7.6-3.1c1.9-1.9,2.9-4.3,3-6.9c2.6-0.2,5.1-1.2,6.9-3.1c1.8-1.8,2.9-4.3,3.1-6.9c2.6-0.2,5.1-1.2,6.9-3
		c1.9-1.9,2.9-4.3,3-6.9c2.6-0.2,5.1-1.2,6.9-3.1c2.1-2.1,3.2-5.1,3.1-8.2c-0.1-1.5-0.5-3-1.1-4.3l11.9-5.9c2-1,2.8-3.4,1.8-5.4
		C1817.3,1093.4,1814.9,1092.6,1813,1093.6z M1718.8,1111.1l4.9-4.9c1.1-1.1,3.1-1.1,4.3,0c1.2,1.2,1.2,3.1,0,4.3l-4.9,4.9
		c-1.2,1.2-3.1,1.2-4.3,0C1717.7,1114.3,1717.7,1112.3,1718.8,1111.1z M1728.8,1125.4c-1.2-1.2-1.2-3.1,0-4.3l4.9-4.9
		c0.6-0.6,1.4-0.9,2.1-0.9s1.6,0.3,2.1,0.9c1.2,1.2,1.2,3.1,0,4.3l-4.9,4.9C1731.9,1126.5,1729.9,1126.5,1728.8,1125.4
		L1728.8,1125.4z M1738.7,1131l4.9-4.9c1.2-1.2,3.1-1.2,4.3,0c1.2,1.2,1.2,3.1,0,4.3l-4.9,4.9c-1.2,1.2-3.1,1.2-4.3,0
		C1737.6,1134.1,1737.6,1132.2,1738.7,1131z M1748.7,1145.3L1748.7,1145.3c-0.6-0.6-0.9-1.3-0.9-2.1s0.3-1.6,0.9-2.1l4.9-4.9
		c0.6-0.6,1.4-0.9,2.1-0.9s1.6,0.3,2.1,0.9c1.2,1.2,1.2,3.1,0,4.3l-4.9,4.9C1751.8,1146.4,1749.8,1146.4,1748.7,1145.3z
		 M1767.2,1143.4c-0.7,0.7-1.6,0.8-2.1,0.7h-0.1c1-1.7,1.6-3.6,1.7-5.5C1768.1,1140.1,1768.3,1142.2,1767.2,1143.4z"/>
</g>
<g id="Regular-M">
	<path d="M1510.4,1095.6c-0.9-1.7-3-2.4-4.7-1.6l-13.8,6.9l-2.8-2.8l0,0l0,0l-24.9-24.6c-0.1-0.1-0.2-0.1-0.2-0.2
		c-0.1-0.1-0.2-0.2-0.3-0.2c-0.1-0.1-0.2-0.1-0.3-0.2c-0.1-0.1-0.2-0.1-0.3-0.2c-0.1,0-0.2-0.1-0.3-0.1c-0.1,0-0.2-0.1-0.3-0.1
		c-0.1,0-0.2,0-0.3,0c-0.1,0-0.2,0-0.3,0c-0.1,0-0.2,0-0.3,0c-0.1,0-0.2,0-0.3,0c-0.1,0-0.2,0.1-0.3,0.1c-0.1,0-0.2,0.1-0.3,0.1
		c-0.1,0-0.2,0.1-0.3,0.2c-0.1,0.1-0.2,0.1-0.3,0.2c-0.1,0.1-0.2,0.1-0.3,0.2c-0.1,0.1-0.2,0.1-0.2,0.2l-15.3,14.4c0,0,0,0-0.1,0.1
		c-3.8,3.8-9.1,4.9-13.2,3.2l22.9-22.9l0.1-0.1l0,0c0,0,0.1-0.1,0.2-0.1c3.6-3.6,8.9-4.6,12.8-2.5l7,3.8c1.5,0.8,3.1,1.2,4.8,1.2
		c1.7,0,3.4-0.4,5-1.2l25.3-12.6c1.7-0.9,2.4-3,1.6-4.7c-0.9-1.7-3-2.4-4.7-1.6l-25.3,12.6c-1.2,0.6-2.4,0.6-3.4,0.1l-7-3.8
		c-6.3-3.4-14.4-2.2-20.1,2.8l-31.2-3l-24.7-12.3c-1.7-0.9-3.8-0.2-4.7,1.6c-0.9,1.7-0.2,3.8,1.6,4.7l25.3,12.6c0.1,0,0.1,0,0.2,0.1
		c0.2,0.1,0.3,0.1,0.5,0.2c0.1,0,0.2,0,0.3,0.1c0.1,0,0.2,0,0.3,0.1l26,2.5l-20.6,20.6c-1.4,1.4-1.4,3.6,0,4.9
		c3.2,3.2,7.5,4.8,11.9,4.8c5,0,10.1-2,14.1-6l12.8-12l22.5,22.3l5.2,5.2c0.9,0.9,1.4,2,1.5,3.1c0,0.6,0,1.6-0.9,2.5
		c-0.8,0.8-1.9,0.9-2.5,0.9c-1.1-0.1-2.2-0.6-3.1-1.5c-1.4-1.4-3.6-1.4-4.9,0c-1.4,1.4-1.4,3.6,0,4.9c0.9,0.9,1.4,2,1.5,3.1
		c0,0.6,0,1.6-0.9,2.5c-0.6,0.6-1.5,0.9-2.5,0.9c-1.1-0.1-2.2-0.6-3.1-1.5c-1.4-1.4-3.6-1.4-4.9,0c-1.4,1.4-1.4,3.6,0,4.9
		c1.7,1.7,2,4.2,0.6,5.6c-0.6,0.6-1.5,0.9-2.5,0.9c-1.1-0.1-2.2-0.6-3.1-1.5c-1.4-1.4-3.6-1.4-4.9,0c-0.8,0.8-1.1,1.8-1,2.8
		c-0.4-2-1.4-3.8-2.8-5.2c-1.9-1.9-4.4-2.9-6.9-3.1c-0.1-2.5-1.1-5-3.1-6.9c-1.9-1.9-4.4-2.9-6.9-3.1c-0.1-2.5-1.1-5-3.1-6.9
		c-1.9-1.9-4.4-2.9-6.9-3.1c-0.1-2.6-1.2-5-3.1-6.9c-2-2-4.6-3.1-7.4-3.1c-2.1,0-4.2,0.6-5.9,1.8l-18.4-9.2
		c-1.7-0.9-3.8-0.2-4.7,1.6c-0.9,1.7-0.2,3.8,1.6,4.7l16.2,8.1l-1,1c-2,2-3.1,4.6-3.1,7.4s1.1,5.5,3.1,7.4l0,0
		c1.9,1.9,4.4,2.9,6.9,3.1c0.1,2.5,1.1,5,3.1,6.9c1.9,1.9,4.3,2.9,6.9,3.1c0.1,2.6,1.2,5,3.1,6.9s4.4,2.9,6.9,3.1
		c0.1,2.6,1.2,5,3.1,6.9c2,2,4.6,3.1,7.4,3.1s5.5-1.1,7.4-3.1l0.8-0.8c1.7,1.1,3.6,1.7,5.6,1.8c0.2,0,0.4,0,0.6,0
		c2.7,0,5.3-1,7.2-2.9c1.9-1.9,2.9-4.4,2.9-7c2.7,0,5.2-1.1,7-2.9c1.9-1.9,2.9-4.4,2.9-7c2.7,0,5.2-1.1,7-2.9c1.9-1.9,2.9-4.3,2.9-7
		c2.7,0,5.2-1.1,7-2.9c2-2,3.1-4.8,2.9-7.8c-0.1-1.6-0.5-3.1-1.2-4.6l12.3-6.2C1510.5,1099.4,1511.2,1097.3,1510.4,1095.6z
		 M1411,1110.8l4.9-4.9c1.3-1.3,3.7-1.3,5,0c0.7,0.7,1,1.6,1,2.5s-0.4,1.8-1,2.5l-4.9,4.9c-1.4,1.4-3.6,1.4-5,0l0,0
		C1409.6,1114.4,1409.6,1112.2,1411,1110.8z M1420.9,1120.7l4.9-4.9l0,0c0.7-0.7,1.6-1,2.5-1s1.8,0.3,2.5,1c1.4,1.4,1.4,3.6,0,5
		l-4.9,4.9c-1.3,1.3-3.7,1.3-5,0C1419.6,1124.4,1419.6,1122.1,1420.9,1120.7z M1430.9,1135.7c-0.7-0.7-1-1.6-1-2.5s0.4-1.8,1-2.5
		l4.9-4.9c0.7-0.7,1.6-1,2.5-1l0,0c0.9,0,1.8,0.4,2.5,1c1.4,1.4,1.4,3.6,0,5l-4.9,4.9l0,0C1434.5,1137,1432.3,1137,1430.9,1135.7
		L1430.9,1135.7z M1440.8,1145.6L1440.8,1145.6c-0.7-0.7-1-1.6-1-2.5s0.4-1.8,1-2.5l4.9-4.9c0.7-0.7,1.6-1,2.5-1s1.8,0.3,2.5,1
		c1.4,1.4,1.4,3.6,0,5l-4.9,4.9C1444.5,1146.9,1442.2,1146.9,1440.8,1145.6z M1460.1,1143.7c-0.6,0.6-1.5,0.9-2.5,0.9
		c-0.3,0-0.6-0.1-0.9-0.2c1.3-1.8,2-3.9,2-6.2c0-0.6-0.1-1.2-0.2-1.7c0.2,0.6,0.4,1.1,0.9,1.6l0,0
		C1461.2,1139.8,1461.4,1142.3,1460.1,1143.7z"/>
</g>
<g id="Light-M">
	<path d="M1209.4,1094.9l-14.5,7.2l-3.3-3.3l0,0l0,0l-24.9-24.6c-0.1-0.1-0.1-0.1-0.2-0.1c-0.1-0.1-0.1-0.1-0.2-0.2
		c-0.1,0-0.1-0.1-0.2-0.1s-0.1-0.1-0.2-0.1s-0.1,0-0.2-0.1c-0.1,0-0.2-0.1-0.2-0.1c-0.1,0-0.2,0-0.2,0c-0.1,0-0.2,0-0.2,0
		c-0.1,0-0.2,0-0.2,0c-0.1,0-0.2,0-0.2,0c-0.1,0-0.2,0-0.2,0.1c-0.1,0-0.2,0-0.2,0.1c-0.1,0-0.2,0.1-0.2,0.1c-0.1,0-0.1,0.1-0.2,0.1
		s-0.1,0.1-0.2,0.2c-0.1,0-0.1,0.1-0.2,0.1l-15.3,14.5c-4.5,4.5-11,5.5-15.5,2.7l23.9-23.9l0.1-0.1l0.1-0.1l0.1-0.1
		c3.9-3.9,9.7-5,13.9-2.7l7,3.8c1.3,0.7,2.8,1.1,4.4,1.1s3.1-0.4,4.5-1.1l25.3-12.6c1.2-0.6,1.7-2.1,1.1-3.4
		c-0.6-1.2-2.1-1.7-3.4-1.1l-25.3,12.6c-1.4,0.7-3,0.8-4.3,0.1l-7-3.8c-6-3.3-13.8-2-19.3,3l-31.8-3l-24.9-12.4
		c-1.2-0.6-2.7-0.1-3.4,1.1c-0.6,1.2-0.1,2.7,1.1,3.4l25.3,12.6h0.1c0.1,0.1,0.2,0.1,0.4,0.1c0.1,0,0.1,0,0.2,0s0.1,0,0.2,0
		l28.2,2.7l-22.1,22.1c-1,1-1,2.6,0,3.5c3,3,7.1,4.5,11.2,4.5c4.7,0,9.6-1.9,13.3-5.7l13.5-12.7l23.2,22.9l5.2,5.2
		c1,1.1,1.7,2.4,1.7,3.8c0.1,1.3-0.3,2.4-1.2,3.2c-0.8,0.8-2,1.2-3.2,1.2c-1.4-0.1-2.7-0.7-3.8-1.8c-1-1-2.6-1-3.5,0
		c-1,1-1,2.6,0,3.5c1.1,1.1,1.7,2.4,1.8,3.8c0.1,1.3-0.3,2.4-1.2,3.2c-0.8,0.8-2,1.2-3.2,1.2c-1.4-0.1-2.7-0.7-3.8-1.8
		c-1-1-2.6-1-3.5,0c-1,1-1,2.6,0,3.5c2.1,2.1,2.4,5.2,0.6,7c-0.8,0.8-2,1.2-3.2,1.2c-1.4-0.1-2.7-0.7-3.8-1.8c-1-1-2.6-1-3.5,0
		c-1,1-1,2.6,0,3.5c2.1,2.1,2.4,5.2,0.6,7c-0.8,0.8-2,1.2-3.2,1.2c-0.9,0-1.7-0.3-2.5-0.8c1.7-1.8,2.6-4.1,2.6-6.6s-1-4.9-2.8-6.7
		c-2-2-4.6-2.9-7.2-2.8c0-0.1,0-0.3,0-0.4c0-2.5-1-4.9-2.8-6.7c-2-2-4.6-2.9-7.2-2.8c0.1-2.6-0.8-5.2-2.8-7.2s-4.6-2.9-7.2-2.8
		c0.1-2.6-0.8-5.2-2.8-7.2c-1.8-1.8-4.2-2.8-6.7-2.8c-2.1,0-4.2,0.7-5.8,2l-19-9.5c-1.2-0.6-2.7-0.1-3.4,1.1
		c-0.6,1.2-0.1,2.7,1.1,3.4l17.4,8.7l-2,2c-1.8,1.8-2.8,4.2-2.8,6.7s1,4.9,2.8,6.7c1.9,1.9,4.3,2.8,6.7,2.8c0.1,0,0.3,0,0.4,0
		c0,0.1,0,0.3,0,0.4c0,2.5,1,4.9,2.8,6.7l0,0c1.8,1.8,4.2,2.8,6.7,2.8c0.1,0,0.3,0,0.4,0c0,0.1,0,0.3,0,0.4c0,2.5,1,4.9,2.8,6.7
		c1.9,1.9,4.3,2.8,6.7,2.8c0.1,0,0.3,0,0.4,0c-0.1,2.6,0.8,5.2,2.8,7.2c1.8,1.8,4.2,2.8,6.7,2.8s4.9-1,6.7-2.8l1.4-1.4
		c1.7,1.3,3.7,2,5.8,2.1c0.2,0,0.4,0,0.6,0c2.5,0,4.8-0.9,6.5-2.6c2-2,2.8-4.7,2.6-7.3c0.1,0,0.2,0,0.3,0c2.7,0.1,5.2-0.8,7.1-2.6
		c2-2,2.8-4.7,2.6-7.3c0.1,0,0.2,0,0.3,0c2.7,0.2,5.2-0.8,7.1-2.6c1.8-1.8,2.8-4.3,2.6-7.1c0-0.1,0-0.2,0-0.3c0.1,0,0.2,0,0.3,0
		c2.7,0.1,5.2-0.8,7-2.6c1.8-1.8,2.8-4.3,2.6-7.1c-0.1-1.8-0.7-3.5-1.6-5l13.3-6.6c1.2-0.6,1.7-2.1,1.1-3.4
		C1212.2,1094.8,1210.7,1094.3,1209.4,1094.9z M1113.6,1116.5c-0.9-0.9-1.3-2-1.3-3.2s0.5-2.3,1.3-3.2l4.9-4.9
		c0.9-0.9,2-1.3,3.2-1.3s2.3,0.5,3.2,1.3c1.8,1.8,1.8,4.6,0,6.4l-4.9,4.9C1118.2,1118.3,1115.3,1118.3,1113.6,1116.5z
		 M1126.7,1127.8c-1.2,0-2.3-0.5-3.2-1.3l0,0c-0.9-0.9-1.3-2-1.3-3.2s0.5-2.3,1.3-3.2l4.9-4.9c0.9-0.9,2-1.3,3.2-1.3
		s2.3,0.4,3.2,1.3c1.8,1.8,1.8,4.6,0,6.4l-4.9,4.9C1129.1,1127.3,1127.9,1127.8,1126.7,1127.8z M1133.5,1136.4
		c-0.9-0.9-1.3-2-1.3-3.2s0.5-2.3,1.3-3.2l4.9-4.9c0.9-0.9,2-1.3,3.2-1.3l0,0c1.2,0,2.3,0.5,3.2,1.3c0.9,0.9,1.3,2,1.3,3.2
		s-0.5,2.3-1.3,3.2l-4.9,4.9C1138.1,1138.1,1135.2,1138.1,1133.5,1136.4z M1146.6,1147.6c-1.2,0-2.3-0.5-3.2-1.3l0,0
		c-1.8-1.8-1.8-4.6,0-6.4l4.9-4.9c0.9-0.9,2-1.3,3.2-1.3s2.3,0.4,3.2,1.3c0.9,0.9,1.3,2,1.3,3.2s-0.5,2.3-1.3,3.2l-4.9,4.9
		C1148.9,1147.2,1147.8,1147.6,1146.6,1147.6z"/>
</g>
<g id="Thin-M">
	<path d="M922.7,1095.4l-14.8,7.4l-3.6-3.6l0,0l0,0l-24.9-24.6l-0.1-0.1c-0.1,0-0.1-0.1-0.2-0.1c-0.1,0-0.1-0.1-0.2-0.1
		c-0.1,0-0.1-0.1-0.2-0.1c-0.1,0-0.1,0-0.2-0.1c-0.1,0-0.1,0-0.2,0c-0.1,0-0.1,0-0.2,0c-0.1,0-0.1,0-0.2,0c-0.1,0-0.1,0-0.2,0
		c-0.1,0-0.1,0-0.2,0c-0.1,0-0.1,0-0.2,0.1c-0.1,0-0.1,0-0.2,0c-0.1,0-0.1,0.1-0.2,0.1c-0.1,0-0.1,0.1-0.2,0.1
		c-0.1,0-0.1,0.1-0.2,0.1l-0.1,0.1l-15.3,14.4c-4.8,4.8-11.9,5.7-16.7,2.5l24.3-24.3c0,0,0-0.1,0.1-0.1l0.1-0.1l0.1-0.1
		c4.1-4.1,10.1-5.2,14.5-2.8l7,3.8c1.3,0.7,2.7,1,4.1,1c1.5,0,2.9-0.3,4.3-1l25.3-12.6c1-0.5,1.4-1.7,0.9-2.7s-1.7-1.4-2.7-0.9
		l-25.3,12.6c-1.6,0.8-3.4,0.8-4.7,0.1l-7-3.8c-5.9-3.2-13.6-1.9-18.9,3.1l-32.2-3.1l-24.9-12.5c-1-0.5-2.2-0.1-2.7,0.9
		s-0.1,2.2,0.9,2.7l25.3,12.6h0.1c0.1,0,0.2,0.1,0.3,0.1s0.1,0,0.2,0c0.1,0,0.1,0,0.2,0l29.2,2.8l-22.9,22.9c-0.8,0.8-0.8,2,0,2.8
		c2.9,2.9,6.8,4.4,10.9,4.4c4.6,0,9.3-1.9,13-5.5l13.9-13.1l23.6,23.3l5.2,5.2c1.1,1.1,1.8,2.6,1.9,4.1c0.1,1.4-0.4,2.7-1.3,3.6
		c-0.9,0.9-2.2,1.4-3.6,1.3c-1.5-0.1-2.9-0.8-4.1-1.9c-0.8-0.8-2-0.8-2.8,0s-0.8,2,0,2.8c1.1,1.1,1.8,2.6,1.9,4.1
		c0.1,1.4-0.4,2.7-1.3,3.6c-0.9,0.9-2.2,1.4-3.6,1.3c-1.5-0.1-2.9-0.8-4.1-1.9l0,0c-0.8-0.8-2-0.8-2.8,0s-0.8,2,0,2.8l0,0
		c1.1,1.1,1.8,2.6,1.9,4.1c0.1,1.4-0.4,2.7-1.3,3.6c-0.9,0.9-2.2,1.4-3.6,1.3c-1.5-0.1-2.9-0.8-4.1-1.9l0,0c-0.8-0.8-2-0.8-2.8,0
		s-0.8,2,0,2.8l0,0c1.1,1.1,1.8,2.6,1.9,4.1c0.1,1.4-0.4,2.7-1.3,3.6c-0.9,0.9-2.2,1.4-3.6,1.3c-1.1-0.1-2.3-0.5-3.2-1.2l0.3-0.3
		c1.7-1.7,2.6-4,2.6-6.4s-0.9-4.7-2.6-6.4c-2-2-4.7-2.9-7.4-2.6c0-0.3,0.1-0.6,0.1-1c0-2.4-0.9-4.7-2.6-6.4c-2-2-4.7-2.9-7.4-2.6
		c0-0.3,0.1-0.6,0.1-1c0-2.4-0.9-4.7-2.6-6.4c-2-2-4.7-2.9-7.4-2.6c0.3-2.6-0.6-5.3-2.6-7.4c-1.7-1.7-4-2.6-6.4-2.6
		c-2.1,0-4.1,0.7-5.8,2.1l-19.3-9.6c-1-0.5-2.2-0.1-2.7,0.9s-0.1,2.2,0.9,2.7l18,9l-2.5,2.5c-1.7,1.7-2.6,4-2.6,6.4s0.9,4.7,2.6,6.4
		c1.8,1.8,4.1,2.6,6.4,2.6c0.3,0,0.6,0,1-0.1c0,0.3-0.1,0.6-0.1,1c0,2.4,0.9,4.7,2.6,6.4c1.7,1.7,4,2.6,6.4,2.6c0.3,0,0.7,0,1-0.1
		c-0.3,2.6,0.6,5.3,2.6,7.4c1.8,1.8,4.1,2.6,6.4,2.6c0.3,0,0.6,0,1-0.1c-0.3,2.6,0.6,5.3,2.6,7.4c1.7,1.7,4,2.6,6.4,2.6
		s4.7-0.9,6.4-2.6l1.7-1.7c1.7,1.4,3.7,2.2,5.8,2.3c0.2,0,0.4,0,0.5,0c2.4,0,4.5-0.9,6.1-2.5c2-2,2.8-4.8,2.4-7.6
		c0.3,0,0.6,0.1,0.9,0.1c2.6,0.1,4.9-0.7,6.7-2.5c1.7-1.7,2.6-4.1,2.5-6.7c0-0.3,0-0.6-0.1-0.9c0.3,0,0.6,0.1,0.9,0.1
		c2.6,0.1,4.9-0.7,6.7-2.5c1.7-1.7,2.6-4.1,2.5-6.7c0-0.3,0-0.6-0.1-0.9c0.3,0,0.6,0.1,0.9,0.1c2.6,0.1,4.9-0.7,6.7-2.5
		c1.7-1.7,2.6-4.1,2.5-6.7c-0.1-1.9-0.8-3.7-1.9-5.3l13.8-6.9c1-0.5,1.4-1.7,0.9-2.7C924.9,1095.3,923.7,1094.9,922.7,1095.4z
		 M826.3,1116.8c-1-1-1.5-2.2-1.5-3.6s0.5-2.6,1.5-3.6l4.9-4.9c0.9-1,2.2-1.5,3.6-1.5c1.3,0,2.6,0.5,3.6,1.5c2,2,2,5.2,0,7.1
		l-4.9,4.9C831.4,1118.8,828.3,1118.8,826.3,1116.8z M839.8,1128.3c-1.3,0-2.6-0.5-3.6-1.5l0,0c-1-1-1.5-2.2-1.5-3.6
		s0.5-2.6,1.5-3.6l4.9-4.9c1-1,2.3-1.5,3.6-1.5s2.6,0.5,3.6,1.5s1.5,2.2,1.5,3.6s-0.5,2.6-1.5,3.6l-4.9,4.9
		C842.4,1127.7,841.1,1128.3,839.8,1128.3z M846.2,1136.7c-2-2-2-5.2,0-7.1l4.9-4.9c1-0.9,2.2-1.5,3.6-1.5l0,0
		c1.3,0,2.6,0.5,3.6,1.5s1.5,2.2,1.5,3.6s-0.5,2.6-1.5,3.6l-4.9,4.9C851.3,1138.7,848.1,1138.7,846.2,1136.7z M859.7,1148.1
		c-1.3,0-2.6-0.5-3.6-1.5l0,0c-2-2-2-5.2,0-7.1l4.9-4.9c1-1,2.3-1.5,3.6-1.5s2.6,0.5,3.6,1.5s1.5,2.2,1.5,3.6s-0.5,2.6-1.5,3.6
		l-4.9,4.9C862.3,1147.6,861,1148.1,859.7,1148.1z"/>
</g>
<g id="Ultralight-M">
	<path d="M636,1095.8l-15.1,7.6l-3.8-3.8l0,0l0,0l-24.9-24.6c-0.1-0.1-0.2-0.1-0.2-0.2c-0.1-0.1-0.2-0.1-0.2-0.2
		c-0.1,0-0.2,0-0.3-0.1c-0.1,0-0.2,0-0.3,0s-0.2,0-0.3,0.1c-0.1,0-0.2,0-0.3,0.1c-0.1,0-0.2,0.1-0.3,0.2c-0.1,0-0.2,0.1-0.2,0.1
		l-15.3,14.4c-5.1,5.1-12.8,6-17.8,2.2l24.8-24.8l0.1-0.1l0,0c0.1,0,0.1-0.1,0.2-0.1c4.2-4.2,10.5-5.4,15.1-2.9l7,3.8
		c1.2,0.6,2.5,1,3.9,1s2.8-0.3,4.1-1l25.3-12.6c0.7-0.4,1-1.3,0.7-2c-0.4-0.7-1.3-1-2-0.7l-25.3,12.6c-1.7,0.9-3.7,0.9-5.2,0.1
		l-7-3.8c-5.8-3.1-13.3-1.8-18.5,3.2l-32.5-3.1l-25-12.5c-0.7-0.4-1.6-0.1-2,0.7c-0.4,0.7-0.1,1.6,0.7,2l25.3,12.6c0,0,0,0,0.1,0
		s0.1,0.1,0.2,0.1h0.1h0.1l30.3,2.9l-23.6,23.6c-0.6,0.6-0.6,1.5,0,2.1c2.8,2.8,6.4,4.2,10.5,4.2c0.3,0,0.6,0,0.9,0
		c4.3-0.2,8.5-2.2,11.7-5.4l14.2-13.4l23.9,23.6l0,0l5.2,5.2c1.2,1.2,1.9,2.8,2,4.4s-0.4,3-1.4,4s-2.4,1.5-4,1.5
		c-1.6-0.1-3.2-0.8-4.4-2l0,0c-0.6-0.6-1.5-0.6-2.1,0s-0.6,1.5,0,2.1l0,0c1.2,1.2,2,2.8,2,4.4c0.1,1.6-0.4,3-1.5,4
		c-1,1-2.5,1.5-4,1.4c-1.6-0.1-3.2-0.8-4.4-2l0,0c-0.6-0.6-1.5-0.6-2.1,0s-0.6,1.5,0,2.1l0,0c2.5,2.5,2.7,6.3,0.6,8.4
		c-1,1-2.4,1.5-4,1.4s-3.2-0.8-4.4-2l0,0c-0.6-0.6-1.5-0.6-2.1,0s-0.6,1.5,0,2.1l0,0c2.5,2.5,2.7,6.3,0.6,8.4c-1,1-2.4,1.5-4,1.4
		c-1.4-0.1-2.8-0.6-3.9-1.6l0.7-0.7c3.3-3.3,3.3-8.7,0-12.1c-2.1-2.1-4.9-2.8-7.6-2.3c0.5-2.7-0.3-5.5-2.3-7.6
		c-2.1-2.1-4.9-2.8-7.6-2.3c0.1-0.5,0.1-1,0.1-1.6c0-2.3-0.9-4.4-2.5-6c-2.1-2.1-4.9-2.8-7.6-2.3c0.1-0.5,0.1-1,0.1-1.6
		c0-2.3-0.9-4.4-2.5-6s-3.8-2.5-6-2.5c-2.1,0-4.1,0.8-5.7,2.2l-19.6-9.8c-0.7-0.4-1.6-0.1-2,0.7c-0.4,0.7-0.1,1.6,0.7,2l18.6,9.3
		l-3,3c-1.6,1.6-2.5,3.8-2.5,6s0.9,4.4,2.5,6c1.7,1.7,3.8,2.5,6,2.5c0.5,0,1-0.1,1.6-0.1c-0.5,2.7,0.3,5.5,2.3,7.6
		c1.6,1.6,3.8,2.5,6,2.5c0.5,0,1.1-0.1,1.6-0.1c-0.5,2.7,0.3,5.5,2.3,7.6c1.7,1.7,3.8,2.5,6,2.5c0.5,0,1-0.1,1.6-0.1
		c-0.5,2.7,0.3,5.5,2.3,7.6c1.6,1.6,3.8,2.5,6,2.5c2.3,0,4.4-0.9,6-2.5l2.1-2.1c1.7,1.5,3.7,2.4,5.9,2.5c0.2,0,0.3,0,0.5,0
		c2.2,0,4.3-0.8,5.8-2.3c1.6-1.6,2.5-3.9,2.3-6.3c0-0.5-0.1-1-0.2-1.5c0.5,0.1,1,0.2,1.5,0.2c2.4,0.1,4.7-0.7,6.3-2.3
		c2.1-2.1,2.7-5,2.1-7.8c0.5,0.1,1,0.2,1.6,0.2c2.4,0.1,4.7-0.7,6.3-2.3c1.6-1.6,2.5-3.9,2.3-6.3c0-0.5-0.1-1-0.2-1.5
		c0.5,0.1,1,0.2,1.6,0.2c2.4,0.1,4.7-0.7,6.3-2.3c1.6-1.6,2.5-3.9,2.3-6.3c-0.1-2-0.9-3.9-2.1-5.5l14.3-7.1c0.7-0.4,1-1.3,0.7-2
		C637.7,1095.8,636.8,1095.5,636,1095.8z M539,1117.2c-1-1-1.6-2.4-1.6-3.9s0.6-2.9,1.6-3.9l4.9-4.9c1-1,2.4-1.6,3.9-1.6
		s2.9,0.6,3.9,1.6s1.6,2.4,1.6,3.9s-0.6,2.9-1.6,3.9l-4.9,4.9C544.7,1119.4,541.2,1119.4,539,1117.2z M552.9,1128.8
		c-1.5,0-2.9-0.6-3.9-1.6c-2.2-2.2-2.2-5.7,0-7.8l4.9-4.9c1.1-1.1,2.5-1.6,3.9-1.6s2.8,0.5,3.9,1.6c1,1,1.6,2.4,1.6,3.9
		s-0.6,2.9-1.6,3.9l-4.9,4.9C555.7,1128.2,554.4,1128.8,552.9,1128.8z M558.9,1137.1c-2.2-2.2-2.2-5.7,0-7.8l4.9-4.9
		c2.2-2.2,5.7-2.2,7.8,0c2.2,2.2,2.2,5.7,0,7.8l-4.9,4.9C564.6,1139.2,561.1,1139.2,558.9,1137.1z M576.7,1147c-1,1-2.4,1.6-3.9,1.6
		s-2.9-0.6-3.9-1.6c-2.2-2.2-2.2-5.7,0-7.8l4.9-4.9c1.1-1.1,2.5-1.6,3.9-1.6s2.8,0.5,3.9,1.6c2.2,2.2,2.2,5.7,0,7.8L576.7,1147z"/>
</g>
<g id="Black-S">
	<path d="M2988.5,653.6l-9.7,4.8l-1.1-1.1l0,0l0,0l-20-19.7c-0.1-0.1-0.2-0.2-0.3-0.3s-0.3-0.2-0.4-0.3c-0.1-0.1-0.3-0.2-0.4-0.2
		c-0.1-0.1-0.3-0.2-0.4-0.2c-0.2-0.1-0.3-0.1-0.5-0.2c-0.1,0-0.3-0.1-0.4-0.1c-0.2,0-0.3,0-0.5-0.1c-0.2,0-0.3,0-0.5,0s-0.3,0-0.5,0
		s-0.3,0-0.5,0s-0.3,0.1-0.5,0.1c-0.1,0-0.3,0.1-0.4,0.1c-0.2,0.1-0.3,0.1-0.5,0.2c-0.1,0.1-0.3,0.1-0.4,0.2
		c-0.1,0.1-0.3,0.2-0.4,0.3c-0.1,0.1-0.2,0.2-0.3,0.2l-12.2,11.5l-0.1,0.1c-1.2,1.2-2.6,2-4.1,2.3l15-15l0.1-0.1l0.1-0.1
		c2.2-2.2,5.4-2.9,7.6-1.6l5.6,3.1c1.5,0.8,3.2,1.2,4.9,1.2s3.4-0.4,5-1.2l20.2-10.1c2.5-1.2,3.5-4.2,2.2-6.7
		c-1.2-2.5-4.2-3.5-6.7-2.2l-20.2,10.1c-0.3,0.2-0.6,0.1-0.6,0.1l-5.6-3.1c-5.5-3-12.6-2.2-17.8,1.9l-23.7-2.3l-19.4-9.7
		c-2.5-1.2-5.5-0.2-6.7,2.2c-1.2,2.5-0.2,5.5,2.2,6.7l20.2,10.1c0.2,0.1,0.5,0.2,0.7,0.3c0.1,0,0.1,0,0.2,0c0.3,0.1,0.6,0.1,0.9,0.2
		l0,0l16.2,1.5l-13.2,13.2c-1.8,1.8-1.9,4.6-0.4,6.5c-0.5-0.1-1-0.1-1.5-0.1c-1.7,0-3.3,0.4-4.8,1.2l-13.7-6.8
		c-2.5-1.2-5.5-0.2-6.7,2.2c-1.2,2.5-0.2,5.5,2.2,6.7l10.4,5.2c-2.9,4.1-2.5,9.9,1.2,13.6c1.5,1.5,3.2,2.4,5.1,2.8
		c0.4,1.9,1.4,3.7,2.8,5.1c1.4,1.4,3.2,2.4,5.1,2.8c0.4,1.9,1.4,3.7,2.8,5.1c1.5,1.5,3.2,2.4,5.1,2.8c0.4,1.9,1.4,3.7,2.8,5.1
		c2.1,2.1,4.8,3.1,7.5,3.1c2.5,0,5-0.9,7-2.6c1.3,0.6,2.6,0.9,4,1c0.2,0,0.4,0,0.6,0c2.8,0,5.4-1.1,7.3-3c1.4-1.4,2.4-3.2,2.8-5.2
		c2-0.4,3.8-1.4,5.2-2.8s2.4-3.2,2.8-5.2c2-0.4,3.8-1.4,5.2-2.8c1.5-1.5,2.4-3.3,2.8-5.2c2-0.4,3.8-1.3,5.2-2.8
		c2.7-2.7,3.6-6.7,2.5-10.4l8.1-4c2.5-1.2,3.5-4.2,2.2-6.7C2994,653.4,2991,652.3,2988.5,653.6z M2935.6,682.3
		c0.2,0,0.3,0.1,0.4,0.2c0.1,0.1,0.2,0.3,0.2,0.4s-0.1,0.3-0.2,0.4l-3.9,3.9c-0.2,0.2-0.6,0.2-0.9,0c-0.1-0.1-0.2-0.3-0.2-0.4
		c0-0.2,0.1-0.3,0.2-0.4l3.9-3.9C2935.2,682.4,2935.4,682.3,2935.6,682.3z M2927.6,674.4c0.2,0,0.3,0.1,0.4,0.2
		c0.1,0.1,0.2,0.3,0.2,0.4c0,0.2-0.1,0.3-0.2,0.4l-3.9,3.9c-0.2,0.2-0.6,0.2-0.9,0c-0.1-0.1-0.2-0.3-0.2-0.4c0-0.2,0.1-0.3,0.2-0.4
		l3.9-3.9C2927.3,674.4,2927.4,674.4,2927.6,674.4z M2915.3,671.4c-0.1-0.1-0.2-0.3-0.2-0.4s0.1-0.3,0.2-0.4l3.9-3.9
		c0.1-0.1,0.3-0.2,0.4-0.2s0.3,0.1,0.4,0.2c0.1,0.1,0.2,0.3,0.2,0.4c0,0.2-0.1,0.3-0.2,0.4l-3.9,3.9
		C2916,671.6,2915.6,671.6,2915.3,671.4z M2939.2,695.2c-0.1-0.1-0.2-0.3-0.2-0.4s0.1-0.3,0.2-0.4l3.9-3.9c0.1-0.1,0.3-0.2,0.4-0.2
		s0.3,0.1,0.4,0.2c0.1,0.1,0.2,0.3,0.2,0.4c0,0.2-0.1,0.3-0.2,0.4l-1.4,1.4l0,0l0,0l-2.5,2.5
		C2939.8,695.5,2939.4,695.5,2939.2,695.2z M2975.3,669.9c0,0-0.2,0.1-0.3,0.1c-0.2,0-0.6-0.1-1.1-0.5l0,0c-2-2-5.1-2-7.1,0
		s-2,5.1,0,7.1l0,0c0.6,0.6,0.6,1.2,0.5,1.4c0,0-0.1,0.1-0.3,0.1s-0.6-0.1-1.1-0.5l0,0c-2-2-5.1-2-7.1,0s-2,5.1,0,7.1l0,0
		c0.4,0.4,0.5,0.9,0.5,1.1c0,0.2,0,0.3-0.1,0.3c0,0-0.1,0.1-0.3,0.1s-0.6-0.1-1.1-0.5l0,0c-1.6-1.6-4.1-1.9-6.1-0.8
		c-0.3-0.4-0.6-0.8-1-1.1c-1.4-1.4-3.2-2.4-5.1-2.8c-0.4-1.9-1.4-3.7-2.8-5.1c-1.4-1.4-3.2-2.4-5.1-2.8c-0.4-1.9-1.4-3.7-2.8-5.1
		c-1.5-1.5-3.2-2.4-5.1-2.8c-0.3-1.3-0.8-2.5-1.6-3.7c1.4,0.4,2.8,0.6,4.3,0.6c0.3,0,0.6,0,1,0c4.4-0.2,8.6-2.2,11.8-5.4l8.7-8.2
		l16.5,16.3l0,0l4.1,4.1C2975.5,669.1,2975.4,669.8,2975.3,669.9z"/>
</g>
<g id="Heavy-S">
	<path d="M2691.9,654l-10,5l-1.4-1.4l0,0l0,0l-20-19.7c-0.1-0.1-0.2-0.2-0.3-0.2c-0.1-0.1-0.2-0.2-0.4-0.3c-0.1-0.1-0.3-0.1-0.4-0.2
		c-0.1-0.1-0.3-0.1-0.4-0.2c-0.1-0.1-0.3-0.1-0.4-0.1c-0.1,0-0.3-0.1-0.4-0.1c-0.1,0-0.3,0-0.4-0.1c-0.1,0-0.3,0-0.4,0
		c-0.1,0-0.3,0-0.4,0c-0.1,0-0.3,0-0.4,0c-0.1,0-0.3,0.1-0.4,0.1c-0.1,0-0.3,0.1-0.4,0.1c-0.1,0.1-0.3,0.1-0.4,0.2
		c-0.1,0.1-0.3,0.1-0.4,0.2c-0.1,0.1-0.2,0.2-0.4,0.3c-0.1,0.1-0.2,0.1-0.3,0.2l-12.2,11.5l-0.1,0.1c-1.6,1.6-3.6,2.5-5.7,2.7h-0.1
		l16.1-16.1l0.1-0.1l0.1-0.1c2.4-2.4,5.7-3.1,8.2-1.7l5.6,3.1c1.4,0.8,3,1.2,4.7,1.2c1.6,0,3.2-0.4,4.8-1.1l20.2-10.1
		c2.2-1.1,3.1-3.8,2-6s-3.8-3.1-6-2l-20.2,10.1c-0.5,0.2-0.9,0.2-1.1,0.1l-5.6-3.1c-5.4-3-12.4-2.1-17.4,2l-24-2.3l-19.5-9.7
		c-2.2-1.1-4.9-0.2-6,2s-0.2,4.9,2,6l20.2,10.1c0.2,0.1,0.4,0.2,0.6,0.3h0.1c0.3,0.1,0.5,0.1,0.8,0.2l0,0l17.2,1.6l-14,14
		c-1.8,1.8-1.8,4.6,0,6.4c0.2,0.2,0.5,0.5,0.7,0.7c-2.6-0.8-5.5-0.6-7.9,0.7l-13.9-7c-2.2-1.1-4.9-0.2-6,2s-0.2,4.9,2,6l10.9,5.5
		c-3.1,4-2.9,9.8,0.8,13.4c1.5,1.5,3.3,2.4,5.2,2.8c0.4,1.9,1.3,3.7,2.8,5.2s3.3,2.4,5.2,2.8c0.4,1.9,1.3,3.7,2.8,5.2
		s3.3,2.4,5.2,2.8c0.4,1.9,1.3,3.7,2.8,5.2c2,2,4.6,3,7.2,3c2.5,0,5-0.9,6.9-2.7c1.3,0.6,2.7,1,4.1,1.1c0.2,0,0.4,0,0.6,0
		c2.6,0,5.2-1,7-2.8c1.4-1.4,2.4-3.3,2.7-5.3c2-0.3,3.8-1.3,5.3-2.7c1.4-1.4,2.4-3.3,2.7-5.3c2-0.3,3.8-1.3,5.3-2.7
		c1.5-1.5,2.4-3.3,2.7-5.3c2-0.3,3.8-1.3,5.3-2.7c2.7-2.7,3.5-6.7,2.3-10.3l8.4-4.2c2.2-1.1,3.1-3.8,2-6
		C2696.8,653.8,2694.1,652.9,2691.9,654z M2623.6,667.8l-3.9,3.9c-0.4,0.4-1.2,0.4-1.6,0c-0.4-0.4-0.4-1.2,0-1.6l3.9-3.9
		c0.2-0.2,0.5-0.3,0.8-0.3s0.6,0.1,0.8,0.3C2624,666.7,2624,667.4,2623.6,667.8z M2638.7,681.8c0.3,0,0.6,0.1,0.8,0.3
		c0.4,0.4,0.4,1.2,0,1.6l-3.9,3.9c-0.4,0.4-1.2,0.4-1.6,0c-0.4-0.4-0.4-1.2,0-1.6l3.9-3.9C2638.1,681.9,2638.4,681.8,2638.7,681.8z
		 M2630.7,673.9c0.3,0,0.6,0.1,0.8,0.3c0.4,0.4,0.4,1.2,0,1.6l-3.9,3.9c-0.3,0.3-0.6,0.3-0.8,0.3s-0.5-0.1-0.8-0.3
		c-0.3-0.3-0.3-0.6-0.3-0.8s0.1-0.5,0.3-0.8l3.9-3.9C2630.2,674,2630.4,673.9,2630.7,673.9z M2642,695.6c-0.4-0.4-0.4-1.2,0-1.6
		l3.9-3.9c0.3-0.3,0.6-0.3,0.8-0.3s0.5,0.1,0.8,0.3c0.3,0.3,0.3,0.6,0.3,0.8s-0.1,0.5-0.3,0.8l-1.4,1.4l0,0l0,0l-2.5,2.5
		C2643.1,696,2642.4,696,2642,695.6z M2678.8,670.2c-0.2,0.2-0.5,0.2-0.7,0.2c-0.5,0-1-0.3-1.4-0.7l0,0c-1.8-1.8-4.6-1.8-6.4,0
		s-1.8,4.6,0,6.4l0,0c0.4,0.4,0.6,0.9,0.7,1.4c0,0.2,0,0.5-0.2,0.7s-0.5,0.2-0.7,0.2c-0.5,0-1-0.3-1.4-0.7l0,0
		c-1.8-1.8-4.6-1.8-6.4,0s-1.8,4.6,0,6.4l0,0c0.4,0.4,0.6,0.9,0.7,1.4c0,0.2,0,0.5-0.2,0.7s-0.5,0.2-0.7,0.2c-0.5,0-1-0.3-1.4-0.7
		l0,0c-1.6-1.6-4.1-1.7-5.8-0.4c-0.4-0.5-0.8-1-1.2-1.5c-1.5-1.5-3.3-2.4-5.2-2.8c-0.4-1.9-1.3-3.7-2.8-5.2s-3.3-2.4-5.2-2.8
		c-0.4-1.9-1.3-3.7-2.8-5.2s-3.3-2.4-5.2-2.8c-0.4-1.9-1.3-3.6-2.7-5.1c1.8,0.7,3.8,1.1,5.8,1.1c0.3,0,0.6,0,0.9,0
		c4.3-0.2,8.3-2.1,11.5-5.2l9-8.5l16.9,16.7l4.2,4.2C2679.1,668.9,2679.1,669.9,2678.8,670.2z"/>
</g>
<g id="Bold-S">
	<path d="M2395.2,654.5l-10.3,5.1l-1.6-1.6l0,0l0,0l-20-19.7c-0.1-0.1-0.2-0.1-0.3-0.2c-0.1-0.1-0.2-0.2-0.3-0.3s-0.2-0.1-0.3-0.2
		c-0.1-0.1-0.2-0.1-0.3-0.2c-0.1-0.1-0.3-0.1-0.4-0.1c-0.1,0-0.2-0.1-0.4-0.1c-0.1,0-0.3,0-0.4,0c-0.1,0-0.2,0-0.4,0
		c-0.1,0-0.3,0-0.4,0c-0.1,0-0.2,0-0.4,0c-0.1,0-0.3,0.1-0.4,0.1c-0.1,0-0.2,0.1-0.4,0.1c-0.1,0-0.2,0.1-0.4,0.2
		c-0.1,0.1-0.2,0.1-0.3,0.2c-0.1,0.1-0.2,0.2-0.3,0.2c-0.1,0.1-0.2,0.1-0.3,0.2l-12.2,11.5l-0.1,0.1c-1.7,1.7-3.8,2.7-6,2.8
		c-0.5,0-0.9,0-1.3,0l16.9-16.9l0.1-0.1l0.1-0.1c2.5-2.5,6.1-3.3,8.8-1.8l5.6,3.1c1.4,0.7,2.9,1.1,4.4,1.1s3.1-0.4,4.5-1.1
		l20.2-10.1c2-1,2.8-3.4,1.8-5.4s-3.4-2.8-5.4-1.8l-20.2,10.1c-0.6,0.3-1.2,0.3-1.6,0.1l-5.6-3.1c-5.3-2.9-12.1-2-17.1,2.1
		l-24.3-2.3l-19.6-9.8c-2-1-4.4-0.2-5.4,1.8s-0.2,4.4,1.8,5.4l20.2,10.1c0.1,0,0.1,0,0.2,0.1c0.2,0.1,0.4,0.2,0.6,0.2
		c0.1,0,0.2,0,0.4,0.1c0.1,0,0.2,0,0.3,0.1l18.3,1.7l-14.7,14.7c-1.6,1.6-1.6,4.1,0,5.7c2.7,2.7,6.4,4.2,10.4,4.2c0.3,0,0.6,0,0.9,0
		c4.1-0.2,8.1-2,11.2-5.1l9.4-8.8l17.2,17l4.2,4.2c1,1,1,2.2,0.5,2.8c-0.3,0.3-0.8,0.4-1.1,0.3c-0.6,0-1.2-0.3-1.7-0.8l0,0
		c-1.6-1.6-4.1-1.6-5.7,0s-1.6,4.1,0,5.7l0,0c0.9,0.9,1.1,2.2,0.5,2.8c-0.3,0.3-0.8,0.4-1.1,0.3c-0.6,0-1.2-0.3-1.7-0.8l0,0
		c-1.6-1.6-4.1-1.6-5.7,0s-1.6,4.1,0,5.7l0,0c0.5,0.5,0.8,1.1,0.8,1.7c0,0.3,0,0.7-0.3,1.1c-0.3,0.3-0.8,0.4-1.1,0.3
		c-0.6,0-1.2-0.3-1.7-0.8l0,0c-1.5-1.5-4-1.6-5.6-0.1c-0.4-0.7-0.9-1.3-1.4-1.9c-1.5-1.5-3.3-2.4-5.3-2.7c-0.3-1.9-1.2-3.8-2.7-5.3
		s-3.3-2.4-5.3-2.7c-0.3-1.9-1.2-3.8-2.7-5.3s-3.3-2.4-5.3-2.7c-0.3-2-1.2-3.8-2.7-5.3c-1.8-1.8-4.2-2.8-6.8-2.8
		c-1.7,0-3.4,0.5-4.8,1.3l-14.1-7.1c-2-1-4.4-0.2-5.4,1.8s-0.2,4.4,1.8,5.4l11.5,5.7c-1.6,1.8-2.5,4-2.5,6.4c0,2.6,1,5,2.8,6.8
		c1.4,1.4,3.3,2.4,5.3,2.7c0.3,1.9,1.2,3.8,2.7,5.3s3.3,2.4,5.3,2.7c0.3,2,1.2,3.8,2.7,5.3s3.3,2.4,5.3,2.7c0.3,1.9,1.2,3.8,2.7,5.3
		c1.9,1.9,4.3,2.8,6.8,2.8s4.9-0.9,6.8-2.8l0,0c1.3,0.7,2.7,1.1,4.2,1.2c0.2,0,0.4,0,0.5,0c2.5,0,4.9-1,6.6-2.7
		c1.4-1.4,2.3-3.3,2.6-5.3c2-0.3,3.9-1.2,5.3-2.6c1.4-1.4,2.3-3.3,2.6-5.3c2-0.3,3.9-1.2,5.3-2.6c1.5-1.5,2.3-3.4,2.6-5.3
		c2-0.3,3.9-1.2,5.4-2.6c2.7-2.7,3.3-6.7,2-10.2l8.8-4.4c2-1,2.8-3.4,1.8-5.4C2399.6,654.3,2397.2,653.5,2395.2,654.5z M2339.1,688
		c-0.4,0.4-0.9,0.5-1.1,0.5c-0.3,0-0.7-0.1-1.1-0.5c-0.6-0.6-0.6-1.7,0-2.3l3.9-3.9c0.3-0.3,0.7-0.5,1.1-0.5c0.4,0,0.8,0.2,1.1,0.5
		c0.6,0.6,0.6,1.7,0,2.3L2339.1,688z M2328.8,680c-0.6-0.6-0.6-1.7,0-2.3l3.9-3.9c0.4-0.4,0.9-0.5,1.1-0.5s0.7,0.1,1.1,0.5
		c0.6,0.6,0.6,1.7,0,2.3l-3.9,3.9C2330.5,680.7,2329.4,680.7,2328.8,680z M2327.1,665.9c0.6,0.6,0.6,1.7,0,2.3l-3.9,3.9
		c-0.4,0.4-0.9,0.5-1.1,0.5s-0.7-0.1-1.1-0.5c-0.6-0.6-0.6-1.7,0-2.3l3.9-3.9c0.3-0.3,0.7-0.5,1.1-0.5S2326.7,665.6,2327.1,665.9z
		 M2345.9,696.4c-0.3,0-0.7-0.1-1.1-0.5c-0.6-0.6-0.6-1.7,0-2.3l3.9-3.9c0.3-0.3,0.7-0.5,1.1-0.5s0.8,0.2,1.1,0.5
		c0.6,0.6,0.6,1.7,0,2.3l-3.9,3.9C2346.6,696.4,2346.1,696.4,2345.9,696.4z"/>
</g>
<g id="Semibold-S">
	<path d="M2098.4,654.5l-10.3,5.1l-1.6-1.6l0,0l0,0l-20-19.7c-0.1-0.1-0.2-0.1-0.3-0.2c-0.1-0.1-0.2-0.2-0.3-0.3s-0.2-0.1-0.3-0.2
		c-0.1-0.1-0.2-0.1-0.3-0.2c-0.1-0.1-0.3-0.1-0.4-0.1c-0.1,0-0.2-0.1-0.4-0.1c-0.1,0-0.3,0-0.4-0.1c-0.1,0-0.2,0-0.4,0
		c-0.1,0-0.3,0-0.4,0c-0.1,0-0.2,0-0.4,0c-0.1,0-0.3,0.1-0.4,0.1c-0.1,0-0.2,0.1-0.4,0.1c-0.1,0-0.2,0.1-0.4,0.2
		c-0.1,0.1-0.2,0.1-0.3,0.2c-0.1,0.1-0.2,0.2-0.3,0.2c-0.1,0.1-0.2,0.1-0.3,0.2l-12.2,11.5l-0.1,0.1c-1.7,1.7-3.8,2.7-6,2.8
		c-0.5,0-0.9,0-1.3,0l16.9-16.9l0.1-0.1l0.1-0.1c2.5-2.5,6.1-3.3,8.8-1.8l5.6,3.1c1.4,0.7,2.9,1.1,4.4,1.1s3.1-0.4,4.5-1.1
		l20.2-10.1c2-1,2.8-3.4,1.8-5.4s-3.4-2.8-5.4-1.8l-20.2,10.1c-0.6,0.3-1.2,0.3-1.6,0.1l-5.6-3.1c-5.3-2.9-12.1-2-17.1,2.1
		l-24.3-2.3l-19.6-9.8c-2-1-4.4-0.2-5.4,1.8s-0.2,4.4,1.8,5.4l20.2,10.1c0.1,0,0.1,0,0.2,0.1c0.2,0.1,0.4,0.2,0.6,0.2
		c0.1,0,0.2,0,0.4,0.1c0.1,0,0.2,0,0.3,0.1l18.3,1.7l-14.7,14.7c-1.6,1.6-1.6,4.1,0,5.7c2.7,2.7,6.4,4.2,10.4,4.2c0.3,0,0.6,0,0.9,0
		c4.1-0.2,8.1-2,11.2-5.1l9.4-8.8l17.2,17l4.2,4.2c1,1,1,2.2,0.5,2.8c-0.3,0.3-0.8,0.4-1.1,0.3c-0.6,0-1.2-0.3-1.7-0.8l0,0
		c-1.6-1.6-4.1-1.6-5.7,0s-1.6,4.1,0,5.7l0,0c0.9,0.9,1.1,2.2,0.5,2.8c-0.3,0.3-0.8,0.4-1.1,0.3c-0.6,0-1.2-0.3-1.7-0.8l0,0
		c-1.6-1.6-4.1-1.6-5.7,0s-1.6,4.1,0,5.7l0,0c0.5,0.5,0.8,1.1,0.8,1.7c0,0.3,0,0.7-0.3,1.1c-0.3,0.3-0.8,0.4-1.1,0.3
		c-0.6,0-1.2-0.3-1.7-0.8l0,0c-1.5-1.5-4-1.6-5.6-0.1c-0.4-0.7-0.9-1.3-1.4-1.9c-1.4-1.4-3.3-2.4-5.3-2.7c-0.3-1.9-1.2-3.8-2.7-5.3
		s-3.3-2.4-5.3-2.7c-0.3-2-1.2-3.8-2.7-5.3c-1.4-1.4-3.3-2.4-5.3-2.7c-0.3-1.9-1.2-3.8-2.7-5.3c-3.1-3.1-7.9-3.6-11.6-1.5l-14.2-7.1
		c-2-1-4.4-0.2-5.4,1.8s-0.2,4.4,1.8,5.4l11.5,5.7c-3.4,3.8-3.3,9.6,0.4,13.2c1.5,1.5,3.3,2.4,5.3,2.7c0.3,2,1.2,3.8,2.7,5.3
		c1.4,1.4,3.3,2.4,5.3,2.7c0.3,2,1.2,3.8,2.7,5.3s3.3,2.4,5.3,2.7c0.3,2,1.2,3.8,2.7,5.3c1.8,1.8,4.2,2.8,6.8,2.8c2.6,0,5-1,6.8-2.8
		l0,0c1.3,0.7,2.7,1.1,4.2,1.2c0.2,0,0.4,0,0.5,0c2.5,0,4.9-1,6.6-2.7c1.4-1.4,2.3-3.3,2.6-5.3c2-0.3,3.9-1.2,5.3-2.6
		c1.4-1.4,2.3-3.3,2.6-5.3c2-0.3,3.9-1.2,5.3-2.6c1.5-1.5,2.3-3.4,2.6-5.3c2-0.3,3.9-1.2,5.4-2.6c2.7-2.7,3.3-6.7,2-10.2l8.8-4.4
		c2-1,2.8-3.4,1.8-5.4C2102.7,654.3,2100.3,653.5,2098.4,654.5z M2042.2,688c-0.4,0.4-0.9,0.5-1.1,0.5c-0.3,0-0.7-0.1-1.1-0.5
		c-0.6-0.6-0.6-1.7,0-2.3l3.9-3.9c0.3-0.3,0.7-0.5,1.1-0.5s0.8,0.2,1.1,0.5c0.6,0.6,0.6,1.7,0,2.3L2042.2,688z M2031.9,680
		c-0.6-0.6-0.6-1.7,0-2.3l3.9-3.9c0.4-0.4,0.9-0.5,1.1-0.5s0.7,0.1,1.1,0.5c0.6,0.6,0.6,1.7,0,2.3l-3.9,3.9
		C2033.6,680.7,2032.6,680.7,2031.9,680z M2030.2,665.9c0.6,0.6,0.6,1.7,0,2.3l-3.9,3.9c-0.4,0.4-0.9,0.5-1.1,0.5s-0.7-0.1-1.1-0.5
		c-0.6-0.6-0.6-1.7,0-2.3l3.9-3.9c0.3-0.3,0.7-0.5,1.1-0.5S2029.9,665.6,2030.2,665.9z M2049,696.4c-0.3,0-0.7-0.1-1.1-0.5
		c-0.6-0.6-0.6-1.7,0-2.3l3.9-3.9c0.3-0.3,0.7-0.5,1.1-0.5s0.8,0.2,1.1,0.5c0.6,0.6,0.6,1.7,0,2.3l-3.9,3.9
		C2049.7,696.4,2049.2,696.4,2049,696.4z"/>
</g>
<g id="Medium-S">
	<path d="M1801.5,654.5l-10.3,5.1l-1.6-1.6l0,0l0,0l-20-19.7c-0.1-0.1-0.2-0.1-0.3-0.2c-0.1-0.1-0.2-0.2-0.3-0.3
		c-0.1-0.1-0.2-0.1-0.3-0.2c-0.1-0.1-0.2-0.1-0.3-0.2c-0.1-0.1-0.3-0.1-0.4-0.1s-0.2-0.1-0.4-0.1c-0.1,0-0.3,0-0.4,0s-0.2,0-0.4,0
		c-0.1,0-0.3,0-0.4,0s-0.2,0-0.4,0c-0.1,0-0.3,0.1-0.4,0.1s-0.2,0.1-0.4,0.1c-0.1,0-0.2,0.1-0.4,0.2c-0.1,0.1-0.2,0.1-0.3,0.2
		c-0.1,0.1-0.2,0.2-0.3,0.2c-0.1,0.1-0.2,0.1-0.3,0.2l-12.2,11.5l-0.1,0.1c-1.7,1.7-3.8,2.7-6,2.8c-0.5,0-0.9,0-1.3,0l16.9-16.9
		l0.1-0.1l0.1-0.1c2.5-2.5,6.1-3.3,8.8-1.8l5.6,3.1c1.4,0.7,2.9,1.1,4.4,1.1s3.1-0.4,4.5-1.1l20.2-10.1c2-1,2.8-3.4,1.8-5.4
		s-3.4-2.8-5.4-1.8l-20.2,10.1c-0.6,0.3-1.2,0.3-1.6,0.1l-5.6-3.1c-5.3-2.9-12.1-2-17.1,2.1l-24.3-2.3l-19.6-9.8
		c-2-1-4.4-0.2-5.4,1.8s-0.2,4.4,1.8,5.4l20.2,10.1c0.1,0,0.1,0,0.2,0.1c0.2,0.1,0.4,0.2,0.6,0.2c0.1,0,0.2,0,0.4,0.1
		c0.1,0,0.2,0,0.3,0.1l18.3,1.7l-14.7,14.7c-1.6,1.6-1.6,4.1,0,5.7c2.7,2.7,6.4,4.2,10.4,4.2c0.3,0,0.6,0,0.9,0
		c4.1-0.2,8.1-2,11.2-5.1l9.4-8.8l17.2,17l4.2,4.2c1,1,1,2.2,0.5,2.8c-0.3,0.3-0.8,0.4-1.1,0.3c-0.6,0-1.2-0.3-1.7-0.8l0,0
		c-1.6-1.6-4.1-1.6-5.7,0s-1.6,4.1,0,5.7l0,0c0.9,0.9,1.1,2.2,0.5,2.8c-0.3,0.3-0.8,0.4-1.1,0.3c-0.6,0-1.2-0.3-1.7-0.8l0,0
		c-1.6-1.6-4.1-1.6-5.7,0s-1.6,4.1,0,5.7l0,0c0.5,0.5,0.8,1.1,0.8,1.7c0,0.3,0,0.7-0.3,1.1c-0.3,0.3-0.8,0.4-1.1,0.3
		c-0.6,0-1.2-0.3-1.7-0.8l0,0c-1.5-1.5-4-1.6-5.6-0.1c-0.4-0.7-0.9-1.3-1.4-1.9c-1.5-1.5-3.3-2.4-5.3-2.7c-0.3-1.9-1.2-3.8-2.7-5.3
		s-3.3-2.4-5.3-2.7c-0.3-1.9-1.2-3.8-2.7-5.3s-3.3-2.4-5.3-2.7c-0.3-2-1.2-3.8-2.7-5.3c-1.8-1.8-4.2-2.8-6.8-2.8
		c-1.7,0-3.4,0.5-4.8,1.3l-14.1-7.1c-2-1-4.4-0.2-5.4,1.8s-0.2,4.4,1.8,5.4l11.5,5.7c-1.6,1.8-2.5,4-2.5,6.4c0,2.6,1,5,2.8,6.8
		c1.4,1.4,3.3,2.4,5.3,2.7c0.3,1.9,1.2,3.8,2.7,5.3s3.3,2.4,5.3,2.7c0.3,2,1.2,3.8,2.7,5.3s3.3,2.4,5.3,2.7c0.3,1.9,1.2,3.8,2.7,5.3
		c1.9,1.9,4.3,2.8,6.8,2.8s4.9-0.9,6.8-2.8l0,0c1.3,0.7,2.7,1.1,4.2,1.2c0.2,0,0.4,0,0.5,0c2.5,0,4.9-1,6.6-2.7
		c1.4-1.4,2.3-3.3,2.6-5.3c2-0.3,3.9-1.2,5.3-2.6c1.4-1.4,2.3-3.3,2.6-5.3c2-0.3,3.9-1.2,5.3-2.6c1.5-1.5,2.3-3.4,2.6-5.3
		c2-0.3,3.9-1.2,5.4-2.6c2.7-2.7,3.3-6.7,2-10.2l8.8-4.4c2-1,2.8-3.4,1.8-5.4C1805.9,654.3,1803.5,653.5,1801.5,654.5z M1745.3,688
		c-0.4,0.4-0.9,0.5-1.1,0.5c-0.3,0-0.7-0.1-1.1-0.5c-0.6-0.6-0.6-1.7,0-2.3l3.9-3.9c0.3-0.3,0.7-0.5,1.1-0.5s0.8,0.2,1.1,0.5
		c0.6,0.6,0.6,1.7,0,2.3L1745.3,688z M1735.1,680c-0.6-0.6-0.6-1.7,0-2.3l3.9-3.9c0.4-0.4,0.9-0.5,1.1-0.5s0.7,0.1,1.1,0.5
		c0.6,0.6,0.6,1.7,0,2.3l-3.9,3.9C1736.7,680.7,1735.7,680.7,1735.1,680z M1733.3,665.9c0.6,0.6,0.6,1.7,0,2.3l-3.9,3.9
		c-0.4,0.4-0.9,0.5-1.1,0.5s-0.7-0.1-1.1-0.5c-0.6-0.6-0.6-1.7,0-2.3l3.9-3.9c0.3-0.3,0.7-0.5,1.1-0.5S1733,665.6,1733.3,665.9z
		 M1752.1,696.4c-0.3,0-0.7-0.1-1.1-0.5c-0.6-0.6-0.6-1.7,0-2.3l3.9-3.9c0.3-0.3,0.7-0.5,1.1-0.5s0.8,0.2,1.1,0.5
		c0.6,0.6,0.6,1.7,0,2.3l-3.9,3.9C1752.9,696.4,1752.4,696.4,1752.1,696.4z"/>
</g>
<g id="Regular-S">
	<path d="M1494.2,654.9l-10.6,5.3l-1.9-1.9l0,0l0,0l-20-19.7c-0.1-0.1-0.2-0.1-0.2-0.2c-0.1-0.1-0.2-0.2-0.3-0.2
		c-0.1-0.1-0.2-0.1-0.3-0.2c-0.1-0.1-0.2-0.1-0.3-0.2c-0.1,0-0.2-0.1-0.3-0.1c-0.1,0-0.2-0.1-0.3-0.1c-0.1,0-0.2,0-0.3,0
		c-0.1,0-0.2,0-0.3,0c-0.1,0-0.2,0-0.3,0c-0.1,0-0.2,0-0.3,0c-0.1,0-0.2,0.1-0.3,0.1c-0.1,0-0.2,0.1-0.3,0.1c-0.1,0-0.2,0.1-0.3,0.1
		c-0.1,0.1-0.2,0.1-0.3,0.2c-0.1,0.1-0.2,0.1-0.3,0.2c-0.1,0.1-0.2,0.1-0.2,0.2l-12.2,11.5c0,0,0,0-0.1,0.1c-1.8,1.8-4,2.8-6.3,2.9
		c-0.8,0-1.6,0-2.4-0.2l17.5-17.5l0.1-0.1l0.1-0.1c2.7-2.7,6.5-3.4,9.4-1.9l5.6,3.1c1.3,0.7,2.7,1.1,4.2,1.1s2.9-0.3,4.3-1
		l20.2-10.1c1.7-0.9,2.4-3,1.6-4.7c-0.9-1.7-3-2.4-4.7-1.6l-20.4,10c-0.7,0.4-1.5,0.4-2,0.1l-5.6-3.1c-5.2-2.8-11.9-1.9-16.7,2.2
		l-24.5-2.3l-19.6-9.8c-1.7-0.9-3.8-0.2-4.7,1.6c-0.9,1.7-0.2,3.8,1.6,4.7l20.2,10.1c0.1,0,0.1,0,0.2,0.1c0.2,0.1,0.3,0.1,0.5,0.2
		c0.1,0,0.2,0,0.3,0.1c0.1,0,0.2,0,0.3,0.1l19.4,1.8l-15.5,15.5c-1.4,1.4-1.4,3.6,0,4.9c2.6,2.6,6.2,4.1,10,4.1c0.3,0,0.6,0,0.9,0
		c4-0.2,7.9-2,10.9-4.9l9.7-9.2l17.5,17.3l0,0l4.2,4.2c0.6,0.6,0.9,1.3,1,2c0,0.4,0,1-0.5,1.4c-0.4,0.4-1,0.5-1.4,0.5
		c-0.7,0-1.5-0.4-2-1c-1.4-1.4-3.6-1.4-5,0c-0.7,0.7-1,1.6-1,2.5s0.3,1.8,1,2.5c1.1,1.1,1.3,2.7,0.5,3.5c-0.5,0.5-1.1,0.5-1.4,0.5
		c-0.7,0-1.5-0.4-2-1c-1.4-1.4-3.6-1.4-5,0c-0.7,0.7-1,1.6-1,2.5s0.3,1.8,1,2.5c1.1,1.1,1.3,2.7,0.5,3.5c-0.5,0.5-1.1,0.5-1.4,0.5
		c-0.7,0-1.4-0.4-2-1l0,0l0,0c-1.4-1.4-3.6-1.4-4.9,0c-0.1,0.1-0.3,0.3-0.4,0.5c-0.4-0.9-1-1.7-1.7-2.4c-1.5-1.5-3.3-2.4-5.4-2.6
		c-0.2-2-1.1-3.9-2.6-5.4s-3.3-2.4-5.4-2.6c-0.2-2-1.1-3.9-2.6-5.4s-3.4-2.4-5.4-2.6c-0.2-2-1.1-3.9-2.6-5.4c-1.7-1.7-4-2.7-6.5-2.7
		c-1.7,0-3.4,0.5-4.8,1.4l-14.4-7.2c-1.7-0.9-3.8-0.2-4.7,1.6c-0.9,1.7-0.2,3.8,1.6,4.7l12.1,6l-0.1,0.1c-1.7,1.7-2.7,4-2.7,6.5
		s0.9,4.7,2.7,6.5c1.5,1.5,3.4,2.4,5.4,2.6c0.2,2,1.1,3.9,2.6,5.4s3.3,2.4,5.4,2.6c0.2,2,1.1,3.9,2.6,5.4s3.4,2.4,5.4,2.6
		c0.2,2,1.1,3.9,2.6,5.4c1.8,1.8,4.1,2.7,6.5,2.7c2.3,0,4.7-0.9,6.5-2.7l0.3-0.3c1.3,0.8,2.8,1.2,4.3,1.3c0.2,0,0.3,0,0.5,0
		c2.4,0,4.6-0.9,6.3-2.5c1.5-1.5,2.3-3.4,2.5-5.4c2.1-0.2,4-1.1,5.5-2.5c1.4-1.4,2.3-3.4,2.5-5.4c2.1-0.2,4-1.1,5.4-2.5
		c1.5-1.5,2.3-3.4,2.5-5.4c2.1-0.2,4-1,5.5-2.5c2.6-2.6,3.2-6.6,1.8-10.1l9.2-4.6c1.7-0.9,2.4-3,1.6-4.7
		C1498,654.8,1495.9,654.1,1494.2,654.9z M1418.6,670.9c0-0.6,0.2-1.1,0.6-1.5l3.9-3.9c0.4-0.4,0.9-0.6,1.5-0.6s1.1,0.2,1.5,0.6
		c0.4,0.4,0.6,0.9,0.6,1.5s-0.2,1.1-0.6,1.5l-3.9,3.9c-0.8,0.8-2.2,0.8-3,0C1418.9,672,1418.6,671.5,1418.6,670.9z M1426.6,678.9
		c0-0.6,0.2-1.1,0.6-1.5l3.9-3.9c0.4-0.4,0.9-0.6,1.5-0.6s1.1,0.2,1.5,0.6c0.4,0.4,0.6,0.9,0.6,1.5s-0.2,1.1-0.6,1.5l-3.9,3.9
		c-0.8,0.8-2.2,0.8-3,0C1426.8,680,1426.6,679.5,1426.6,678.9z M1434.5,686.9c0-0.6,0.2-1.1,0.6-1.5l3.9-3.9
		c0.4-0.4,0.9-0.6,1.5-0.6s1.1,0.2,1.5,0.6c0.4,0.4,0.6,0.9,0.6,1.5s-0.2,1.1-0.6,1.5l-3.9,3.9c-0.8,0.8-2.2,0.8-3,0
		C1434.8,688,1434.5,687.4,1434.5,686.9z M1443.1,696.3c-0.4-0.4-0.6-0.9-0.6-1.5s0.2-1.1,0.6-1.5l3.9-3.9c0.4-0.4,0.9-0.6,1.5-0.6
		s1.1,0.2,1.5,0.6c0.4,0.4,0.6,0.9,0.6,1.5s-0.2,1.1-0.6,1.5l-3.9,3.9C1445.3,697.1,1443.9,697.1,1443.1,696.3z M1457.5,694.8
		c-0.3,0.3-0.7,0.4-1,0.5c0.6-1,0.9-2.1,1-3.3C1458.2,693,1458.2,694.1,1457.5,694.8z"/>
</g>
<g id="Light-S">
	<path d="M1201.3,656.9c-0.6-1.2-2.1-1.7-3.4-1.1l-11.3,5.6l-2.4-2.4l0,0l0,0l-20-19.7c-0.1-0.1-0.1-0.1-0.2-0.1
		c-0.1-0.1-0.1-0.1-0.2-0.2c-0.1,0-0.1-0.1-0.2-0.1s-0.1-0.1-0.2-0.1s-0.2-0.1-0.2-0.1c-0.1,0-0.2-0.1-0.2-0.1c-0.1,0-0.2,0-0.2,0
		c-0.1,0-0.2,0-0.2,0c-0.1,0-0.2,0-0.2,0c-0.1,0-0.2,0-0.2,0c-0.1,0-0.2,0-0.2,0.1c-0.1,0-0.2,0-0.2,0.1c-0.1,0-0.2,0.1-0.2,0.1
		c-0.1,0-0.1,0.1-0.2,0.1s-0.1,0.1-0.2,0.2c-0.1,0-0.1,0.1-0.2,0.1l-12.3,11.6c-3.2,3.2-7.8,4.1-11.3,2.4l18.7-18.7l0.1-0.1l0,0
		l0.1-0.1c3-3,7.3-3.8,10.6-2.1l5.6,3.1c1.1,0.6,2.4,0.9,3.7,0.9c1.3,0,2.6-0.3,3.9-0.9l20.2-10.1c1.2-0.6,1.7-2.1,1.1-3.4
		c-0.6-1.2-2.1-1.7-3.4-1.1l-20.2,10.1c-1,0.5-2.1,0.5-3,0.1l-5.6-3.1c-4.9-2.7-11.3-1.7-15.8,2.3l-25.2-2.4l-19.8-9.9
		c-1.2-0.6-2.7-0.1-3.4,1.1c-0.6,1.2-0.1,2.7,1.1,3.4l20.2,10.1h0.1c0.1,0.1,0.2,0.1,0.4,0.1c0.1,0,0.1,0,0.2,0s0.1,0,0.2,0l21.5,2
		l-17,17c-1,1-1,2.6,0,3.5c2.5,2.5,5.9,3.8,9.3,3.8c3.9,0,7.9-1.6,11-4.7l10.5-9.9l18.2,18l0,0l4.2,4.2c1.5,1.5,1.7,3.7,0.5,4.9
		c-0.6,0.6-1.3,0.8-2.2,0.8c-1-0.1-1.9-0.5-2.7-1.3c-1-1-2.6-1-3.5,0c-0.5,0.5-0.7,1.1-0.7,1.8s0.2,1.3,0.7,1.8
		c0.8,0.8,1.2,1.7,1.3,2.7c0,0.9-0.2,1.7-0.8,2.2c-0.6,0.6-1.3,0.8-2.2,0.8c-1-0.1-1.9-0.5-2.7-1.3c-1-1-2.6-1-3.5,0
		c-0.5,0.5-0.7,1.1-0.7,1.8s0.2,1.3,0.7,1.8c1.5,1.5,1.7,3.7,0.5,4.9c-0.6,0.6-1.3,0.8-2.2,0.8c-1-0.1-1.9-0.5-2.7-1.3l0,0l0,0
		c-1-1-2.6-1-3.5,0c-1,1-1,2.6,0,3.5l0,0l0,0c0.8,0.8,1.2,1.7,1.2,2.7c0,0.9-0.2,1.7-0.8,2.2c-0.6,0.6-1.3,0.8-2.2,0.8
		c-0.4,0-0.8-0.1-1.2-0.3c2.6-3.2,2.4-7.9-0.6-10.8c-1.5-1.5-3.6-2.3-5.6-2.4c0-2-0.8-4-2.4-5.6c-1.5-1.5-3.6-2.3-5.6-2.4
		c0-2-0.8-4-2.4-5.6c-1.5-1.5-3.6-2.3-5.6-2.4c0-2-0.8-4-2.4-5.6c-2.8-2.8-7.3-3.1-10.5-0.9l-14.9-7.5c-1.2-0.6-2.7-0.1-3.4,1.1
		c-0.6,1.2-0.1,2.7,1.1,3.4l13.3,6.7l-1.1,1.1c-3.2,3.2-3.2,8.3,0,11.5c1.5,1.5,3.6,2.3,5.6,2.4c0,2,0.8,4,2.4,5.6
		c1.5,1.5,3.6,2.3,5.6,2.4c0,2,0.8,4,2.4,5.6c1.5,1.5,3.6,2.3,5.6,2.4c0,2,0.8,4,2.4,5.6s3.7,2.4,5.7,2.4c2.1,0,4.2-0.8,5.7-2.4
		l0.8-0.8c1.4,0.9,2.9,1.5,4.5,1.6c0.2,0,0.3,0,0.5,0c2.1,0,4.1-0.8,5.6-2.3s2.3-3.5,2.2-5.7c2.2,0,4.2-0.8,5.7-2.3s2.3-3.5,2.2-5.7
		c2.1,0.1,4.2-0.8,5.7-2.3s2.3-3.5,2.3-5.7c2.2,0,4.2-0.8,5.7-2.3c1.6-1.6,2.4-3.7,2.2-6c-0.1-1.3-0.5-2.6-1.1-3.8l10.1-5.1
		C1201.4,659.7,1201.9,658.2,1201.3,656.9z M1121.8,668.7l3.9-3.9c0.6-0.6,1.4-0.9,2.2-0.9s1.6,0.3,2.2,0.9c1.2,1.2,1.2,3.2,0,4.4
		l-3.9,3.9c-1.2,1.2-3.2,1.2-4.4,0C1120.6,671.9,1120.6,670,1121.8,668.7z M1129.8,676.7l3.9-3.9c0.6-0.6,1.4-0.9,2.2-0.9
		c0.8,0,1.6,0.3,2.2,0.9c1.2,1.2,1.2,3.2,0,4.4l-3.9,3.9c-1.2,1.2-3.2,1.2-4.4,0C1128.6,679.9,1128.6,677.9,1129.8,676.7z
		 M1137.7,684.6l3.9-3.9c0.6-0.6,1.4-0.9,2.2-0.9c0.8,0,1.6,0.3,2.2,0.9c1.2,1.2,1.2,3.2,0,4.4l-3.9,3.9c-1.2,1.2-3.2,1.2-4.4,0
		C1136.5,687.8,1136.5,685.9,1137.7,684.6z M1145.7,697c-1.2-1.2-1.2-3.2,0-4.4l3.9-3.9c0.6-0.6,1.4-0.9,2.2-0.9s1.6,0.3,2.2,0.9
		c1.2,1.2,1.2,3.2,0,4.4l-3.9,3.9C1148.9,698.2,1146.9,698.2,1145.7,697z"/>
</g>
<g id="Thin-S">
	<path d="M911.2,656.3l-11.6,5.8l-2.7-2.7l0,0l0,0l-20-19.7l-0.1-0.1c-0.1,0-0.1-0.1-0.2-0.1c-0.1,0-0.1-0.1-0.2-0.1
		c-0.1,0-0.1-0.1-0.2-0.1c-0.1,0-0.1,0-0.2-0.1c-0.1,0-0.1,0-0.2,0c-0.1,0-0.1,0-0.2,0c-0.1,0-0.1,0-0.2,0c-0.1,0-0.1,0-0.2,0
		c-0.1,0-0.1,0-0.2,0c-0.1,0-0.1,0-0.2,0.1c-0.1,0-0.1,0-0.2,0.1c-0.1,0-0.1,0.1-0.2,0.1c-0.1,0-0.1,0.1-0.2,0.1
		c-0.1,0-0.1,0.1-0.2,0.1l-0.1,0.1L862,651.2c-3.6,3.6-8.8,4.4-12.4,2.2l19.1-19.1c0,0,0-0.1,0.1-0.1c0,0,0,0,0.1-0.1l0.1-0.1
		c3.1-3.1,7.7-4,11.2-2.2l5.6,3.1c1.1,0.6,2.3,0.9,3.5,0.9s2.5-0.3,3.6-0.9l20.2-10.1c1-0.5,1.4-1.7,0.9-2.7s-1.7-1.4-2.7-0.9
		L891,631.4c-1.2,0.6-2.4,0.6-3.4,0.1l-5.6-3.1c-4.8-2.6-11.1-1.6-15.4,2.4l-25.5-2.4l-19.9-9.9c-1-0.5-2.2-0.1-2.7,0.9
		s-0.1,2.2,0.9,2.7l20.2,10.1h0.1c0.1,0,0.2,0.1,0.3,0.1s0.1,0,0.2,0c0.1,0,0.1,0,0.2,0l22.5,2.1l-17.7,17.7c-0.8,0.8-0.8,2,0,2.8
		c2.4,2.4,5.7,3.6,9,3.6c3.8,0,7.7-1.5,10.7-4.5l10.8-10.2l18.6,18.4l4.2,4.2c0.8,0.8,1.3,1.9,1.4,3c0.1,1-0.3,1.9-0.9,2.6
		c-0.7,0.7-1.6,1-2.6,0.9c-1.1-0.1-2.2-0.6-3-1.4c-0.8-0.8-2-0.8-2.8,0s-0.8,2,0,2.8s1.3,1.9,1.4,3c0.1,1-0.3,1.9-0.9,2.6
		c-0.7,0.7-1.6,1-2.6,0.9c-1.1-0.1-2.2-0.6-3-1.4l0,0c-0.8-0.8-2-0.8-2.8,0s-0.8,2,0,2.8l0,0c0.8,0.8,1.3,1.9,1.4,3
		c0.1,1-0.3,1.9-0.9,2.6c-0.7,0.7-1.6,1-2.6,0.9c-1.1-0.1-2.2-0.6-3-1.4c-0.8-0.8-2-0.8-2.8,0c-0.4,0.4-0.6,0.9-0.6,1.4
		s0.2,1,0.6,1.4c0.8,0.8,1.3,1.9,1.4,3c0.1,1-0.3,1.9-0.9,2.6c-0.7,0.7-1.6,1-2.6,0.9c-0.7,0-1.3-0.3-2-0.6c2.8-3,2.8-7.7-0.1-10.6
		c-1.6-1.6-3.7-2.3-5.7-2.2c0.1-2.1-0.6-4.2-2.2-5.7c-1.6-1.6-3.7-2.3-5.7-2.2c0.1-2.1-0.6-4.2-2.2-5.7c-1.6-1.6-3.7-2.3-5.7-2.2
		c0.1-2.1-0.6-4.2-2.2-5.7c-2.7-2.7-7.1-2.9-10-0.6l-15.2-7.6c-1-0.5-2.2-0.1-2.7,0.9s-0.1,2.2,0.9,2.7l13.9,7l-1.6,1.6
		c-3,3-3,7.8,0,10.8c1.5,1.5,3.4,2.2,5.4,2.2c0.1,0,0.2,0,0.3,0c-0.1,2.1,0.6,4.2,2.2,5.7c1.5,1.5,3.4,2.2,5.4,2.2
		c0.1,0,0.2,0,0.3,0c-0.1,2.1,0.6,4.2,2.2,5.7c1.5,1.5,3.4,2.2,5.4,2.2c0.1,0,0.2,0,0.4,0c-0.1,2.1,0.6,4.2,2.2,5.7
		c1.5,1.5,3.4,2.2,5.4,2.2s3.9-0.7,5.4-2.2l1.1-1.1c1.4,1,3,1.6,4.6,1.7c0.2,0,0.3,0,0.5,0c2,0,3.8-0.7,5.2-2.1
		c1.5-1.5,2.2-3.5,2.1-5.6c0-0.1,0-0.2,0-0.2c0.1,0,0.2,0,0.2,0c2.2,0.1,4.2-0.6,5.6-2.1c1.5-1.5,2.2-3.5,2.1-5.6c0-0.1,0-0.2,0-0.2
		c0.1,0,0.2,0,0.2,0c2.2,0.1,4.2-0.6,5.6-2.1c1.5-1.5,2.2-3.5,2.1-5.6c0-0.1,0-0.2,0-0.2c0.1,0,0.2,0,0.2,0c2.2,0.1,4.2-0.6,5.6-2.1
		c1.5-1.5,2.2-3.5,2.1-5.6c-0.1-1.4-0.5-2.8-1.3-4l10.6-5.3c1-0.5,1.4-1.7,0.9-2.7C913.4,656.2,912.2,655.8,911.2,656.3z
		 M834.6,673.5c-1.4-1.4-1.4-3.7,0-5.1l3.9-3.9c0.7-0.7,1.6-1.1,2.6-1.1c0.9,0,1.9,0.4,2.6,1.1c1.4,1.4,1.4,3.7,0,5.1l-3.9,3.9
		C838.3,674.9,836,674.9,834.6,673.5z M842.5,681.5c-1.4-1.4-1.4-3.7,0-5.1l3.9-3.9c0.7-0.7,1.6-1.1,2.6-1.1c0.9,0,1.9,0.4,2.6,1.1
		c1.4,1.4,1.4,3.7,0,5.1l-3.9,3.9C846.2,682.9,843.9,682.9,842.5,681.5z M850.5,689.4c-1.4-1.4-1.4-3.7,0-5.1l3.9-3.9
		c0.7-0.7,1.6-1.1,2.6-1.1s1.9,0.4,2.6,1.1c1.4,1.4,1.4,3.7,0,5.1l-3.9,3.9C854.2,690.8,851.9,690.8,850.5,689.4z M858.4,697.4
		c-1.4-1.4-1.4-3.7,0-5.1l3.9-3.9c0.7-0.7,1.6-1.1,2.6-1.1c0.9,0,1.9,0.4,2.6,1.1c1.4,1.4,1.4,3.7,0,5.1l-1.4,1.4l0,0l0,0l-2.5,2.5
		C862.1,698.8,859.8,698.8,858.4,697.4z"/>
</g>
<g id="Ultralight-S">
	<path d="M624.5,656.7l-11.9,5.9l-2.9-2.9l0,0l0,0l-20-19.7c-0.1-0.1-0.2-0.1-0.2-0.2c-0.1-0.1-0.2-0.1-0.2-0.2
		c-0.1,0-0.2,0-0.3-0.1c-0.1,0-0.2,0-0.3,0s-0.2,0-0.3,0s-0.2,0-0.3,0.1c-0.1,0-0.2,0.1-0.3,0.2c-0.1,0-0.2,0.1-0.2,0.1l-12.3,11.6
		c-2.1,2.1-4.8,3.4-7.6,3.5c-2.2,0.1-4.3-0.4-5.9-1.6l19.6-19.6l0.1-0.1l0.1-0.1c3.3-3.3,8.1-4.2,11.8-2.2l5.6,3.1
		c1,0.5,2.1,0.8,3.2,0.8c1.1,0,2.3-0.3,3.4-0.8l20.2-10.1c0.7-0.4,1-1.3,0.7-2c-0.4-0.7-1.3-1-2-0.7l-20.2,10.1
		c-1.3,0.7-2.8,0.7-3.9,0.1l-5.6-3.1c-4.7-2.5-10.8-1.5-15,2.5l-25.8-2.5l-20-10c-0.7-0.4-1.6-0.1-2,0.7c-0.4,0.7-0.1,1.6,0.7,2
		l20.2,10.1c0,0,0,0,0.1,0s0.1,0.1,0.2,0.1h0.1h0.1L577,634l-18.5,18.5c-0.6,0.6-0.6,1.5,0,2.1c2.3,2.3,5.3,3.5,8.6,3.5
		c0.3,0,0.5,0,0.8,0c3.6-0.2,7-1.8,9.6-4.4l11.2-10.5l18.9,18.7l0,0l4.2,4.2c1.9,1.9,2.1,4.7,0.5,6.3c-0.8,0.8-1.8,1.1-3,1.1
		c-1.2-0.1-2.4-0.6-3.3-1.5c-0.6-0.6-1.5-0.6-2.1,0s-0.6,1.5,0,2.1c0.9,0.9,1.5,2.1,1.5,3.3c0.1,1.2-0.3,2.2-1.1,3s-1.8,1.1-3,1.1
		c-1.2-0.1-2.4-0.6-3.3-1.5c-0.6-0.6-1.5-0.6-2.1,0c-0.3,0.3-0.4,0.7-0.4,1.1s0.1,0.8,0.4,1.1c1.9,1.9,2.1,4.7,0.5,6.3
		c-0.8,0.8-1.8,1.1-3,1.1c-1.2-0.1-2.4-0.6-3.3-1.5c-0.6-0.6-1.5-0.6-2.1,0s-0.6,1.5,0,2.1c1.9,1.9,2.1,4.7,0.5,6.3
		c-0.8,0.8-1.8,1.1-3,1.1c-1-0.1-1.9-0.4-2.7-1l0.3-0.3c2.8-2.8,2.8-7.3,0-10.1c-1.6-1.6-3.8-2.3-5.9-2c0.3-2.1-0.4-4.3-2-5.9
		c-1.6-1.6-3.8-2.3-5.9-2c0.3-2.1-0.4-4.3-2-5.9c-1.6-1.6-3.8-2.3-5.9-2c0.3-2.1-0.4-4.3-2-5.9c-2.6-2.6-6.8-2.8-9.6-0.4l-15.5-7.7
		c-0.7-0.4-1.6-0.1-2,0.7c-0.4,0.7-0.1,1.6,0.7,2l14.5,7.3l-2.1,2.1c-2.8,2.8-2.8,7.3,0,10.1c1.3,1.3,3.1,2.1,5,2.1
		c0.3,0,0.6,0,0.9-0.1c-0.3,2.1,0.4,4.3,2,5.9c1.4,1.4,3.2,2.1,5,2.1c0.3,0,0.6,0,0.9-0.1c-0.3,2.1,0.4,4.3,2,5.9
		c1.4,1.4,3.2,2.1,5,2.1c0.3,0,0.6,0,0.9-0.1c-0.3,2.1,0.4,4.3,2,5.9c1.4,1.4,3.2,2.1,5,2.1s3.6-0.7,5-2.1l1.4-1.4
		c1.4,1.1,3,1.8,4.7,1.9c0.1,0,0.3,0,0.4,0c1.9,0,3.6-0.7,4.8-2c1.6-1.6,2.2-3.9,1.8-6.1c0.3,0,0.6,0.1,0.8,0.1
		c2,0.1,3.9-0.6,5.3-1.9c1.6-1.6,2.2-3.9,1.8-6.1c0.3,0,0.6,0.1,0.8,0.1c2,0.1,3.9-0.6,5.3-1.9c1.4-1.4,2.1-3.2,1.9-5.3
		c0-0.3,0-0.6-0.1-0.8c0.3,0,0.6,0.1,0.8,0.1c2,0.1,3.9-0.6,5.3-2c1.4-1.4,2.1-3.2,1.9-5.3c-0.1-1.5-0.6-3-1.5-4.3l11.1-5.6
		c0.7-0.4,1-1.3,0.7-2C626.2,656.6,625.3,656.3,624.5,656.7z M550.2,675.1c-1.1,0-2.1-0.4-2.9-1.2c-1.6-1.6-1.6-4.2,0-5.8l3.9-3.9
		c0.8-0.8,1.9-1.2,2.9-1.2c1.1,0,2.1,0.4,2.9,1.2c1.6,1.6,1.6,4.2,0,5.8l-3.9,3.9C552.3,674.6,551.3,675.1,550.2,675.1z
		 M555.2,681.8l-1.1,1.1L555.2,681.8c-1.6-1.6-1.6-4.2,0-5.8l3.9-3.9c1.6-1.6,4.2-1.6,5.8,0s1.6,4.2,0,5.8l-3.9,3.9
		C559.5,683.4,556.9,683.4,555.2,681.8z M563.2,689.8c-1.6-1.6-1.6-4.2,0-5.8l3.9-3.9c0.8-0.8,1.8-1.2,2.9-1.2s2.1,0.4,2.9,1.2
		s1.2,1.8,1.2,2.9s-0.4,2.1-1.2,2.9l-3.9,3.9C567.4,691.4,564.8,691.4,563.2,689.8z M571.2,697.7c-1.6-1.6-1.6-4.2,0-5.8l3.9-3.9
		c0.8-0.8,1.9-1.2,2.9-1.2c1.1,0,2.1,0.4,2.9,1.2c1.6,1.6,1.6,4.2,0,5.8l-3.9,3.9C575.4,699.3,572.8,699.3,571.2,697.7z"/>
</g>
</svg>
