<?xml version="1.0" encoding="utf-8"?>
<!-- Generator: Adobe Illustrator 24.1.3, SVG Export Plug-In . SVG Version: 6.00 Build 0)  -->
<svg version="1.1" id="Capa_1" xmlns="http://www.w3.org/2000/svg" xmlns:xlink="http://www.w3.org/1999/xlink" x="0px" y="0px"
	 viewBox="0 0 3300 2200" style="enable-background:new 0 0 3300 2200;" xml:space="preserve">
<style type="text/css">
	.st0{fill:#FFFFFF;}
	.st1{fill:none;stroke:#000000;stroke-width:0.5;}
	.st2{font-family:'Arial-BoldMT';}
	.st3{font-size:12px;}
	.st4{font-family:'ArialMT';}
	.st5{opacity:0.4;fill:#00AEEF;enable-background:new    ;}
	.st6{fill:#27AAE1;}
	.st7{fill:none;stroke:#27AAE1;stroke-width:0.577;}
</style>
<g id="Notes">
	<rect id="artboard" class="st0" width="3300" height="2200"/>
	<line class="st1" x1="263" y1="292" x2="3036" y2="292"/>
	<text transform="matrix(1 0 0 1 263 322)" class="st2 st3">Weight/Scale Variations</text>
	<text transform="matrix(1 0 0 1 536.0362 322)" class="st4 st3">Ultralight</text>
	<text transform="matrix(1 0 0 1 844.7501 322)" class="st4 st3">Thin</text>
	<text transform="matrix(1 0 0 1 1140.1193 322)" class="st4 st3">Light</text>
	<text transform="matrix(1 0 0 1 1428.8282 322)" class="st4 st3">Regular</text>
	<text transform="matrix(1 0 0 1 1725.2202 322)" class="st4 st3">Medium</text>
	<text transform="matrix(1 0 0 1 2018.2563 322)" class="st4 st3">Semibold</text>
	<text transform="matrix(1 0 0 1 2327.9712 322)" class="st4 st3">Bold</text>
	<text transform="matrix(1 0 0 1 2619.6831 322)" class="st4 st3">Heavy</text>
	<text transform="matrix(1 0 0 1 2918.728 322)" class="st4 st3">Black</text>
	<line class="st1" x1="263" y1="1903" x2="3036" y2="1903"/>
	<g transform="matrix(1 0 0 1 263 1933)">
		<path d="M9.2,0.8c4.3,0,7.9-3.6,7.9-7.9c0-4.3-3.6-7.9-7.9-7.9c-4.3,0-7.9,3.6-7.9,7.9C1.4-2.7,5,0.8,9.2,0.8z M9.2-0.7
			c-3.5,0-6.4-2.8-6.4-6.4c0-3.6,2.8-6.4,6.4-6.4c3.6,0,6.4,2.8,6.4,6.4C15.7-3.5,12.8-0.7,9.2-0.7z M9.2-3.4c0.5,0,0.7-0.3,0.7-0.8
			v-2.1h2.2C12.7-6.3,13-6.6,13-7c0-0.5-0.3-0.7-0.8-0.7H10V-10c0-0.5-0.3-0.8-0.7-0.8S8.5-10.5,8.5-10v2.2H6.3
			C5.8-7.8,5.4-7.5,5.4-7c0,0.5,0.4,0.7,0.8,0.7h2.2v2.1C8.5-3.8,8.8-3.4,9.2-3.4z"/>
	</g>
	<g transform="matrix(1 0 0 1 281.506 1933)">
		<path d="M11.7,2.9c5.4,0,10-4.5,10-10c0-5.4-4.5-10-10-10c-5.4,0-10,4.5-10,10C1.7-1.6,6.3,2.9,11.7,2.9z M11.7,1.3
			c-4.6,0-8.3-3.7-8.3-8.3c0-4.6,3.7-8.3,8.3-8.3c4.6,0,8.3,3.7,8.3,8.3C20-2.4,16.3,1.3,11.7,1.3z M11.7-2.4c0.5,0,0.8-0.4,0.8-0.9
			v-2.9h3.1c0.5,0,0.9-0.3,0.9-0.8c0-0.5-0.4-0.8-0.9-0.8h-3.1v-3.1c0-0.6-0.3-0.9-0.8-0.9c-0.5,0-0.8,0.4-0.8,0.9v3.1h-3
			C7.3-7.9,6.9-7.6,6.9-7c0,0.5,0.4,0.8,0.9,0.8h3v2.9C10.9-2.8,11.2-2.4,11.7-2.4z"/>
	</g>
	<g transform="matrix(1 0 0 1 304.924 1933)">
		<path d="M15,5.7c7,0,12.7-5.8,12.7-12.7c0-7-5.8-12.7-12.7-12.7C8-19.8,2.3-14,2.3-7C2.3-0.1,8,5.7,15,5.7z M15,3.9
			C8.9,3.9,4.1-1,4.1-7c0-6,4.8-10.9,10.9-10.9c6,0,10.9,4.9,10.9,10.9C25.9-1,21,3.9,15,3.9z M15-1.1c0.6,0,0.9-0.4,0.9-1v-4.1h4.2
			c0.6,0,1-0.3,1-0.9c0-0.6-0.4-0.9-1-0.9h-4.2v-4.2c0-0.6-0.4-1-0.9-1c-0.6,0-0.9,0.4-0.9,1v4.2H9.8c-0.6,0-1,0.3-1,0.9
			c0,0.6,0.4,0.9,1,0.9h4.2v4.1C14.1-1.5,14.4-1.1,15-1.1z"/>
	</g>
	<text transform="matrix(1 0 0 1 263 1953)" class="st2 st3">Design Variations</text>
	<text transform="matrix(1 0 0 1 263 1971)" class="st4 st3">Symbols are supported in up to nine weights and three scales.</text>
	<text transform="matrix(1 0 0 1 263 1989)" class="st4 st3">For optimal layout with text and other symbols, vertically align</text>
	<text transform="matrix(1 0 0 1 263 2007)" class="st4 st3">symbols with the adjacent text.</text>
	<rect x="776" y="1919" class="st5" width="3" height="14"/>
	<g transform="matrix(1 0 0 1 779 1933)">
		<path d="M10.5,0h1.8L7.2-14.1H5.4L0.2,0h1.8l1.4-4h5.6L10.5,0z M6.3-12L6.3-12l2.3,6.4H4L6.3-12z"/>
	</g>
	<rect x="791.6" y="1919" class="st5" width="3" height="14"/>
	<text transform="matrix(1 0 0 1 776 1953)" class="st2 st3">Margins</text>
	<text transform="matrix(1 0 0 1 776 1971)" class="st4 st3">Leading and trailing margins on the left and right side of each symbol</text>
	<text transform="matrix(1 0 0 1 776 1989)" class="st4 st3">can be adjusted by modifying the width of the blue rectangles.</text>
	<text transform="matrix(1 0 0 1 776 2007)" class="st4 st3">Modifications are automatically applied proportionally to all</text>
	<text transform="matrix(1 0 0 1 776 2025)" class="st4 st3">scales and weights.</text>
	<g transform="matrix(1 0 0 1 1289 1933)">
		<path d="M2.8,3.1l1.5,1.5c0.8,0.8,1.8,0.8,2.7-0.2L17.3-6.7c0.4,0.3,0.8,0.3,1.3,0.2l1-0.2L20.3-6l0,0.5C20.2-5,20.4-4.5,20.8-4
			l0.8,0.8c0.5,0.5,1.2,0.5,1.6,0.1l3.3-3.3c0.5-0.5,0.5-1.1,0-1.6l-0.8-0.8c-0.5-0.5-0.9-0.7-1.4-0.6l-0.5,0.1l-0.7-0.7l0.3-1.1
			c0.1-0.6,0-1-0.6-1.6l-2.4-2.4c-3.5-3.5-8.1-3.4-11.2-0.3c-0.4,0.4-0.5,1-0.2,1.4c0.2,0.4,0.7,0.6,1.4,0.4c1.5-0.4,3-0.3,4.5,0.7
			l-0.6,1.6c-0.2,0.6-0.2,1.1,0,1.5L3,0.4C2.1,1.3,2,2.3,2.8,3.1z M10.7-15.1c2.7-2,6-1.7,8.4,0.7l2.6,2.6c0.2,0.2,0.3,0.4,0.2,0.7
			l-0.4,1.6L23.1-8L24-8c0.3,0,0.4,0,0.6,0.2l0.6,0.6l-2.8,2.7l-0.6-0.6c-0.2-0.2-0.2-0.3-0.2-0.6l0.1-1l-1.6-1.6l-1.6,0.3
			c-0.3,0.1-0.4,0.1-0.7-0.2l-2.2-2.2c-0.2-0.2-0.3-0.4-0.1-0.7l0.9-2.3c-1.6-1.5-3.7-2.4-5.8-1.7c-0.1,0-0.2,0-0.2,0
			C10.6-15,10.6-15.1,10.7-15.1z M4.1,2.4c-0.5-0.5-0.3-0.8,0-1.1l11-10.1l1.2,1.2L6.2,3.3c-0.3,0.3-0.7,0.4-1.1,0L4.1,2.4z"/>
	</g>
	<text transform="matrix(1 0 0 1 1289 1953)" class="st2 st3">Exporting</text>
	<text transform="matrix(1 0 0 1 1289 1971)" class="st4 st3">Symbols should be outlined when exporting to ensure the</text>
	<text transform="matrix(1 0 0 1 1289 1989)" class="st4 st3">design is preserved when submitting to Xcode.</text>
	<text id="template-version" transform="matrix(1 0 0 1 2958.8496 1933)" class="st4 st3">Template v.1.0</text>
	<text transform="matrix(1 0 0 1 2851.2305 1951)" class="st4 st3">Generated from hand.thumbsup.fill</text>
	<text transform="matrix(1 0 0 1 2921.9238 1969)" class="st4 st3">Typeset at 100 points</text>
	<text transform="matrix(1 0 0 1 263 726)" class="st4 st3">Small</text>
	<text transform="matrix(1 0 0 1 263 1156)" class="st4 st3">Medium</text>
	<text transform="matrix(1 0 0 1 263 1586)" class="st4 st3">Large</text>
</g>
<g id="Guides">
	<g id="H-reference" transform="matrix(1 0 0 1 339 696)">
		<path class="st6" d="M54.9,0h2.7L30.6-70.5h-2.5L1,0h2.7l9.3-24.5h32.8L54.9,0z M29.2-67.1h0.2l15.4,40.4h-31L29.2-67.1z"/>
	</g>
	<line id="Baseline-S" class="st7" x1="263" y1="696" x2="3036" y2="696"/>
	<line id="Capline-S" class="st7" x1="263" y1="625.5" x2="3036" y2="625.5"/>
	<g id="H-reference_1_" transform="matrix(1 0 0 1 339 1126)">
		<path class="st6" d="M54.9,0h2.7L30.6-70.5h-2.5L1,0h2.7l9.3-24.5h32.8L54.9,0z M29.2-67.1h0.2l15.4,40.4h-31L29.2-67.1z"/>
	</g>
	<line id="Baseline-M" class="st7" x1="263" y1="1126" x2="3036" y2="1126"/>
	<line id="Capline-M" class="st7" x1="263" y1="1055.5" x2="3036" y2="1055.5"/>
	<g id="H-reference_2_" transform="matrix(1 0 0 1 339 1556)">
		<path class="st6" d="M54.9,0h2.7L30.6-70.5h-2.5L1,0h2.7l9.3-24.5h32.8L54.9,0z M29.2-67.1h0.2l15.4,40.4h-31L29.2-67.1z"/>
	</g>
	<line id="Baseline-L" class="st7" x1="263" y1="1556" x2="3036" y2="1556"/>
	<line id="Capline-L" class="st7" x1="263" y1="1485.5" x2="3036" y2="1485.5"/>
	<rect id="left-margin" x="1392.4" y="1030.8" class="st5" width="8.7" height="119.3"/>
	<rect id="right-margin" x="1498.5" y="1030.8" class="st5" width="8.7" height="119.3"/>
</g>
<g id="Black-L">
	<path d="M3002,1538.8c-1.3,1.3-3.1,1.9-5,1.8c-2-0.1-4-1-5.6-2.6c-0.7-0.7-1.9-0.7-2.6,0c-0.4,0.4-0.5,0.8-0.5,1.3
		c0,0.5,0.2,0.9,0.5,1.3c3.1,3.1,3.5,7.9,0.7,10.6c-1.3,1.3-3.1,1.9-5,1.8c-2-0.1-4-1-5.5-2.6c-0.7-0.7-1.9-0.7-2.6,0
		c-0.7,0.7-0.7,1.9,0,2.6c1.6,1.5,2.5,3.5,2.6,5.5c0.1,2-0.5,3.8-1.8,5c-1.3,1.3-3.1,2-5,1.8c-2-0.1-4-1-5.6-2.6
		c-0.7-0.7-1.9-0.7-2.6,0c-0.4,0.4-0.5,0.8-0.5,1.3s0.2,0.9,0.5,1.3c1.5,1.5,2.4,3.5,2.6,5.6c0.1,2-0.5,3.8-1.8,5
		c-1.3,1.3-3.1,1.9-5,1.8c-1.8-0.1-3.5-0.8-5-2.1l0.9-0.9c4.1-4.2,4.1-10.9,0-15.1c-2-2-4.7-3.1-7.5-3.1c-0.7,0-1.4,0.1-2,0.2
		c0.6-3.3-0.3-7-2.9-9.5c-2.6-2.6-6.2-3.6-9.5-2.9c0.1-0.7,0.2-1.3,0.2-2c0-2.9-1.1-5.5-3.1-7.5c-2.6-2.6-6.2-3.6-9.5-2.9
		c0.6-3.4-0.3-7-2.9-9.5c-2-2-4.7-3.1-7.5-3.1c-2.7,0-5.2,1-7.1,2.7l-24.6-12.3c-0.3-0.1-0.6-0.2-0.8-0.2v-51l30.9,15.4
		c0,0,0.1,0,0.1,0c0.1,0,0.2,0.1,0.3,0.1c0,0,0.1,0,0.2,0c0,0,0.1,0,0.1,0l0.2,0l37.9,3.6l-29.7,29.7c-0.7,0.7-0.7,1.9,0,2.6
		c3.4,3.4,8.1,5.3,13.1,5.3c0.4,0,0.8,0,1.2,0c5.4-0.3,10.7-2.7,14.7-6.7l17.9-16.8l30,29.6c0,0,0,0,0,0.1h0l5.7,5.7
		c0.1,0.1,0.1,0.2,0.2,0.2l0.6,0.6c1.5,1.6,2.4,3.5,2.6,5.6C3003.9,1535.7,3003.2,1537.5,3002,1538.8z"/>
	<path d="M3021.9,1463.2v51c-0.3,0-0.6,0.1-0.8,0.2l-19,9.5l-4.8-4.8c0,0,0,0-0.1-0.1l-31.2-30.8c0,0,0,0,0-0.1
		c-0.1-0.1-0.2-0.2-0.3-0.2c-0.1-0.1-0.2-0.1-0.3-0.2c-0.1,0-0.3-0.1-0.4-0.1c-0.1,0-0.2,0-0.3,0c-0.1,0-0.3,0-0.4,0.1
		c-0.1,0-0.2,0-0.3,0.1c-0.1,0-0.2,0.1-0.3,0.2c-0.1,0-0.1,0.1-0.2,0.1c0,0,0,0-0.1,0l0,0l-19.1,18c-3.4,3.4-7.8,5.4-12.3,5.7
		c-3.8,0.2-7.3-0.8-10.1-3l31.1-31.1c0,0,0.1-0.1,0.1-0.2c0,0,0,0,0,0c0.1-0.1,0.1-0.1,0.2-0.1c5.3-5.3,13.1-6.8,19-3.6l8.8,4.8
		c1.5,0.8,3.1,1.2,4.9,1.2s3.5-0.4,5.1-1.2L3021.9,1463.2z"/>
	<path d="M2940.3,1560l-6.1,6.1c-2.7,2.7-7.1,2.7-9.9,0c-1.3-1.3-2-3.1-2-4.9c0-1.9,0.7-3.6,2-4.9l6.1-6.1c1.4-1.4,3.1-2,4.9-2
		s3.6,0.7,4.9,2C2943,1552.8,2943,1557.2,2940.3,1560z"/>
	<path d="M2915.4,1535l-6.1,6.1c-1.3,1.3-3.1,2-4.9,2c-1.9,0-3.6-0.7-4.9-2s-2-3.1-2-4.9c0-1.9,0.7-3.6,2-4.9l6.1-6.1
		c1.3-1.3,3.1-2,4.9-2c1.9,0,3.6,0.7,4.9,2C2918.1,1527.9,2918.1,1532.3,2915.4,1535z"/>
	<path d="M2929.9,1542.6c0,1.9-0.7,3.6-2,4.9l-6.1,6.1c-1.3,1.3-3.1,2-4.9,2c-1.9,0-3.6-0.7-4.9-2c-2.7-2.7-2.7-7.1,0-9.9l6.1-6.1
		c2.7-2.7,7.1-2.7,9.9,0C2929.2,1539,2929.9,1540.7,2929.9,1542.6z"/>
	<path d="M2952.8,1572.4l-2.2,2.2l-3.9,3.9c-1.3,1.3-3.1,2-4.9,2c-1.9,0-3.6-0.7-4.9-2c-2.7-2.7-2.7-7.1,0-9.9l6.1-6.1
		c1.3-1.3,3.1-2,4.9-2c1.9,0,3.6,0.7,4.9,2C2955.5,1565.3,2955.5,1569.7,2952.8,1572.4z"/>
</g>
<g id="Heavy-L">
	<path d="M2704.9,1538.8c-1.3,1.3-3.1,1.9-5,1.8c-2-0.1-4-1-5.6-2.6c-0.7-0.7-1.9-0.7-2.6,0c-0.4,0.4-0.5,0.8-0.5,1.3
		c0,0.5,0.2,0.9,0.5,1.3c3.1,3.1,3.5,7.9,0.7,10.6c-1.3,1.3-3.1,1.9-5,1.8c-2-0.1-4-1-5.5-2.6c-0.7-0.7-1.9-0.7-2.6,0
		c-0.7,0.7-0.7,1.9,0,2.6c1.6,1.5,2.5,3.5,2.6,5.5c0.1,2-0.5,3.8-1.8,5c-1.3,1.3-3.1,2-5,1.8c-2-0.1-4-1-5.6-2.6
		c-0.7-0.7-1.9-0.7-2.6,0c-0.4,0.4-0.5,0.8-0.5,1.3s0.2,0.9,0.5,1.3c1.5,1.5,2.4,3.5,2.6,5.6c0.1,2-0.5,3.8-1.8,5
		c-1.3,1.3-3.1,1.9-5,1.8c-1.8-0.1-3.5-0.8-5-2.1l0.9-0.9c4.1-4.2,4.1-10.9,0-15.1c-2-2-4.7-3.1-7.5-3.1c-0.7,0-1.4,0.1-2,0.2
		c0.6-3.3-0.3-7-2.9-9.5c-2.6-2.6-6.2-3.6-9.5-2.9c0.1-0.7,0.2-1.3,0.2-2c0-2.9-1.1-5.5-3.1-7.5c-2.6-2.6-6.2-3.6-9.5-2.9
		c0.6-3.4-0.3-7-2.9-9.5c-2-2-4.7-3.1-7.5-3.1c-2.7,0-5.2,1-7.1,2.7l-24.6-12.3c-0.3-0.1-0.6-0.2-0.8-0.2v-51l30.9,15.4
		c0,0,0.1,0,0.1,0c0.1,0,0.2,0.1,0.3,0.1c0,0,0.1,0,0.2,0c0,0,0.1,0,0.1,0l0.2,0l37.9,3.6l-29.7,29.7c-0.7,0.7-0.7,1.9,0,2.6
		c3.4,3.4,8.1,5.3,13.1,5.3c0.4,0,0.8,0,1.2,0c5.4-0.3,10.7-2.7,14.7-6.7l17.9-16.8l30,29.6c0,0,0,0,0,0.1h0l5.7,5.7
		c0.1,0.1,0.1,0.2,0.2,0.2l0.6,0.6c1.5,1.6,2.4,3.5,2.6,5.6C2706.8,1535.7,2706.1,1537.5,2704.9,1538.8z"/>
	<path d="M2724.8,1463.2v51c-0.3,0-0.6,0.1-0.8,0.2l-19,9.5l-4.8-4.8c0,0,0,0-0.1-0.1l-31.2-30.8c0,0,0,0,0-0.1
		c-0.1-0.1-0.2-0.2-0.3-0.2c-0.1-0.1-0.2-0.1-0.3-0.2c-0.1,0-0.3-0.1-0.4-0.1c-0.1,0-0.2,0-0.3,0c-0.1,0-0.3,0-0.4,0.1
		c-0.1,0-0.2,0-0.3,0.1c-0.1,0-0.2,0.1-0.3,0.2c-0.1,0-0.1,0.1-0.2,0.1c0,0,0,0-0.1,0l0,0l-19.1,18c-3.4,3.4-7.8,5.4-12.3,5.7
		c-3.8,0.2-7.3-0.8-10.1-3l31.1-31.1c0,0,0.1-0.1,0.1-0.2c0,0,0,0,0,0c0.1-0.1,0.1-0.1,0.2-0.1c5.3-5.3,13.1-6.8,19-3.6l8.8,4.8
		c1.5,0.8,3.1,1.2,4.9,1.2s3.5-0.4,5.1-1.2L2724.8,1463.2z"/>
	<path d="M2643.2,1560l-6.1,6.1c-2.7,2.7-7.1,2.7-9.9,0c-1.3-1.3-2-3.1-2-4.9c0-1.9,0.7-3.6,2-4.9l6.1-6.1c1.4-1.4,3.1-2,4.9-2
		c1.8,0,3.6,0.7,4.9,2C2645.9,1552.8,2645.9,1557.2,2643.2,1560z"/>
	<path d="M2618.3,1535l-6.1,6.1c-1.3,1.3-3.1,2-4.9,2c-1.9,0-3.6-0.7-4.9-2c-1.3-1.3-2-3.1-2-4.9c0-1.9,0.7-3.6,2-4.9l6.1-6.1
		c1.3-1.3,3.1-2,4.9-2c1.9,0,3.6,0.7,4.9,2C2621,1527.9,2621,1532.3,2618.3,1535z"/>
	<path d="M2632.8,1542.6c0,1.9-0.7,3.6-2,4.9l-6.1,6.1c-1.3,1.3-3.1,2-4.9,2c-1.9,0-3.6-0.7-4.9-2c-2.7-2.7-2.7-7.1,0-9.9l6.1-6.1
		c2.7-2.7,7.1-2.7,9.9,0C2632.1,1539,2632.8,1540.7,2632.8,1542.6z"/>
	<path d="M2655.7,1572.4l-2.2,2.2l-3.9,3.9c-1.3,1.3-3.1,2-4.9,2s-3.6-0.7-4.9-2c-2.7-2.7-2.7-7.1,0-9.9l6.1-6.1
		c1.3-1.3,3.1-2,4.9-2c1.9,0,3.6,0.7,4.9,2C2658.4,1565.3,2658.4,1569.7,2655.7,1572.4z"/>
</g>
<g id="Bold-L">
	<path d="M2407.7,1538.8c-1.3,1.3-3.1,1.9-5,1.8c-2-0.1-4-1-5.6-2.6c-0.7-0.7-1.9-0.7-2.6,0c-0.4,0.4-0.5,0.8-0.5,1.3
		c0,0.5,0.2,0.9,0.5,1.3c3.1,3.1,3.5,7.9,0.7,10.6c-1.3,1.3-3.1,1.9-5,1.8c-2-0.1-4-1-5.5-2.6c-0.7-0.7-1.9-0.7-2.6,0
		c-0.7,0.7-0.7,1.9,0,2.6c1.6,1.5,2.5,3.5,2.6,5.5c0.1,2-0.5,3.8-1.8,5c-1.3,1.3-3.1,2-5,1.8c-2-0.1-4-1-5.6-2.6
		c-0.7-0.7-1.9-0.7-2.6,0c-0.4,0.4-0.5,0.8-0.5,1.3s0.2,0.9,0.5,1.3c1.5,1.5,2.4,3.5,2.6,5.6c0.1,2-0.5,3.8-1.8,5
		c-1.3,1.3-3.1,1.9-5,1.8c-1.8-0.1-3.5-0.8-5-2.1l0.9-0.9c4.1-4.2,4.1-10.9,0-15.1c-2-2-4.7-3.1-7.5-3.1c-0.7,0-1.4,0.1-2,0.2
		c0.6-3.3-0.3-7-2.9-9.5c-2.6-2.6-6.2-3.6-9.5-2.9c0.1-0.7,0.2-1.3,0.2-2c0-2.9-1.1-5.5-3.1-7.5c-2.6-2.6-6.2-3.6-9.5-2.9
		c0.6-3.4-0.3-7-2.9-9.5c-2-2-4.7-3.1-7.5-3.1c-2.7,0-5.2,1-7.1,2.7l-24.6-12.3c-0.3-0.1-0.6-0.2-0.8-0.2v-51l30.9,15.4
		c0,0,0.1,0,0.1,0c0.1,0,0.2,0.1,0.3,0.1c0,0,0.1,0,0.2,0c0,0,0.1,0,0.1,0l0.2,0l37.9,3.6l-29.7,29.7c-0.7,0.7-0.7,1.9,0,2.6
		c3.4,3.4,8.1,5.3,13.1,5.3c0.4,0,0.8,0,1.2,0c5.4-0.3,10.7-2.7,14.7-6.7l17.9-16.8l30,29.6c0,0,0,0,0,0.1h0l5.7,5.7
		c0.1,0.1,0.1,0.2,0.2,0.2l0.6,0.6c1.5,1.6,2.4,3.5,2.6,5.6C2409.7,1535.7,2409,1537.5,2407.7,1538.8z"/>
	<path d="M2427.7,1463.2v51c-0.3,0-0.6,0.1-0.8,0.2l-19,9.5l-4.8-4.8c0,0,0,0-0.1-0.1l-31.2-30.8c0,0,0,0,0-0.1
		c-0.1-0.1-0.2-0.2-0.3-0.2c-0.1-0.1-0.2-0.1-0.3-0.2c-0.1,0-0.3-0.1-0.4-0.1c-0.1,0-0.2,0-0.3,0c-0.1,0-0.3,0-0.4,0.1
		c-0.1,0-0.2,0-0.3,0.1c-0.1,0-0.2,0.1-0.3,0.2c-0.1,0-0.1,0.1-0.2,0.1c0,0,0,0-0.1,0l0,0l-19.1,18c-3.4,3.4-7.8,5.4-12.3,5.7
		c-3.8,0.2-7.3-0.8-10.1-3l31.1-31.1c0,0,0.1-0.1,0.1-0.2c0,0,0,0,0,0c0.1-0.1,0.1-0.1,0.2-0.1c5.3-5.3,13.1-6.8,19-3.6l8.8,4.8
		c1.5,0.8,3.1,1.2,4.9,1.2s3.5-0.4,5.1-1.2L2427.7,1463.2z"/>
	<path d="M2346.1,1560l-6.1,6.1c-2.7,2.7-7.1,2.7-9.9,0c-1.3-1.3-2-3.1-2-4.9c0-1.9,0.7-3.6,2-4.9l6.1-6.1c1.4-1.4,3.1-2,4.9-2
		s3.6,0.7,4.9,2C2348.8,1552.8,2348.8,1557.2,2346.1,1560z"/>
	<path d="M2321.2,1535l-6.1,6.1c-1.3,1.3-3.1,2-4.9,2c-1.9,0-3.6-0.7-4.9-2s-2-3.1-2-4.9c0-1.9,0.7-3.6,2-4.9l6.1-6.1
		c1.3-1.3,3.1-2,4.9-2c1.9,0,3.6,0.7,4.9,2C2323.9,1527.9,2323.9,1532.3,2321.2,1535z"/>
	<path d="M2335.7,1542.6c0,1.9-0.7,3.6-2,4.9l-6.1,6.1c-1.3,1.3-3.1,2-4.9,2c-1.9,0-3.6-0.7-4.9-2c-2.7-2.7-2.7-7.1,0-9.9l6.1-6.1
		c2.7-2.7,7.1-2.7,9.9,0C2335,1539,2335.7,1540.7,2335.7,1542.6z"/>
	<path d="M2358.6,1572.4l-2.2,2.2l-3.9,3.9c-1.3,1.3-3.1,2-4.9,2c-1.9,0-3.6-0.7-4.9-2c-2.7-2.7-2.7-7.1,0-9.9l6.1-6.1
		c1.3-1.3,3.1-2,4.9-2c1.9,0,3.6,0.7,4.9,2C2361.3,1565.3,2361.3,1569.7,2358.6,1572.4z"/>
</g>
<g id="Semibold-L">
	<path d="M2110.6,1538.8c-1.3,1.3-3.1,1.9-5,1.8c-2-0.1-4-1-5.6-2.6c-0.7-0.7-1.9-0.7-2.6,0c-0.4,0.4-0.5,0.8-0.5,1.3
		c0,0.5,0.2,0.9,0.5,1.3c3.1,3.1,3.5,7.9,0.7,10.6c-1.3,1.3-3.1,1.9-5,1.8c-2-0.1-4-1-5.5-2.6c-0.7-0.7-1.9-0.7-2.6,0
		c-0.7,0.7-0.7,1.9,0,2.6c1.6,1.5,2.5,3.5,2.6,5.5c0.1,2-0.5,3.8-1.8,5c-1.3,1.3-3.1,2-5,1.8c-2-0.1-4-1-5.6-2.6
		c-0.7-0.7-1.9-0.7-2.6,0c-0.4,0.4-0.5,0.8-0.5,1.3s0.2,0.9,0.5,1.3c1.5,1.5,2.4,3.5,2.6,5.6c0.1,2-0.5,3.8-1.8,5
		c-1.3,1.3-3.1,1.9-5,1.8c-1.8-0.1-3.5-0.8-5-2.1l0.9-0.9c4.1-4.2,4.1-10.9,0-15.1c-2-2-4.7-3.1-7.5-3.1c-0.7,0-1.4,0.1-2,0.2
		c0.6-3.3-0.3-7-2.9-9.5c-2.6-2.6-6.2-3.6-9.5-2.9c0.1-0.7,0.2-1.3,0.2-2c0-2.9-1.1-5.5-3.1-7.5c-2.6-2.6-6.2-3.6-9.5-2.9
		c0.6-3.4-0.3-7-2.9-9.5c-2-2-4.7-3.1-7.5-3.1c-2.7,0-5.2,1-7.1,2.7l-24.6-12.3c-0.3-0.1-0.6-0.2-0.8-0.2v-51l30.9,15.4
		c0,0,0.1,0,0.1,0c0.1,0,0.2,0.1,0.3,0.1c0,0,0.1,0,0.2,0c0,0,0.1,0,0.1,0l0.2,0l37.9,3.6l-29.7,29.7c-0.7,0.7-0.7,1.9,0,2.6
		c3.4,3.4,8.1,5.3,13.1,5.3c0.4,0,0.8,0,1.2,0c5.4-0.3,10.7-2.7,14.7-6.7l17.9-16.8l30,29.6c0,0,0,0,0,0.1h0l5.7,5.7
		c0.1,0.1,0.1,0.2,0.2,0.2l0.6,0.6c1.5,1.6,2.4,3.5,2.6,5.6C2112.6,1535.7,2111.9,1537.5,2110.6,1538.8z"/>
	<path d="M2130.6,1463.2v51c-0.3,0-0.6,0.1-0.8,0.2l-19,9.5l-4.8-4.8c0,0,0,0-0.1-0.1l-31.2-30.8c0,0,0,0,0-0.1
		c-0.1-0.1-0.2-0.2-0.3-0.2c-0.1-0.1-0.2-0.1-0.3-0.2c-0.1,0-0.3-0.1-0.4-0.1c-0.1,0-0.2,0-0.3,0c-0.1,0-0.3,0-0.4,0.1
		c-0.1,0-0.2,0-0.3,0.1c-0.1,0-0.2,0.1-0.3,0.2c-0.1,0-0.1,0.1-0.2,0.1c0,0,0,0-0.1,0l0,0l-19.1,18c-3.4,3.4-7.8,5.4-12.3,5.7
		c-3.8,0.2-7.3-0.8-10.1-3l31.1-31.1c0,0,0.1-0.1,0.1-0.2c0,0,0,0,0,0c0.1-0.1,0.1-0.1,0.2-0.1c5.3-5.3,13.1-6.8,19-3.6l8.8,4.8
		c1.5,0.8,3.1,1.2,4.9,1.2c1.7,0,3.5-0.4,5.1-1.2L2130.6,1463.2z"/>
	<path d="M2049,1560l-6.1,6.1c-2.7,2.7-7.1,2.7-9.9,0c-1.3-1.3-2-3.1-2-4.9c0-1.9,0.7-3.6,2-4.9l6.1-6.1c1.4-1.4,3.1-2,4.9-2
		s3.6,0.7,4.9,2C2051.7,1552.8,2051.7,1557.2,2049,1560z"/>
	<path d="M2024.1,1535l-6.1,6.1c-1.3,1.3-3.1,2-4.9,2c-1.9,0-3.6-0.7-4.9-2c-1.3-1.3-2-3.1-2-4.9c0-1.9,0.7-3.6,2-4.9l6.1-6.1
		c1.3-1.3,3.1-2,4.9-2c1.9,0,3.6,0.7,4.9,2C2026.8,1527.9,2026.8,1532.3,2024.1,1535z"/>
	<path d="M2038.6,1542.6c0,1.9-0.7,3.6-2,4.9l-6.1,6.1c-1.3,1.3-3.1,2-4.9,2c-1.9,0-3.6-0.7-4.9-2c-2.7-2.7-2.7-7.1,0-9.9l6.1-6.1
		c2.7-2.7,7.1-2.7,9.9,0C2037.9,1539,2038.6,1540.7,2038.6,1542.6z"/>
	<path d="M2061.5,1572.4l-2.2,2.2l-3.9,3.9c-1.3,1.3-3.1,2-4.9,2c-1.9,0-3.6-0.7-4.9-2c-2.7-2.7-2.7-7.1,0-9.9l6.1-6.1
		c1.3-1.3,3.1-2,4.9-2c1.9,0,3.6,0.7,4.9,2C2064.2,1565.3,2064.2,1569.7,2061.5,1572.4z"/>
</g>
<g id="Medium-L">
	<path d="M1813.5,1538.8c-1.3,1.3-3.1,1.9-5,1.8c-2-0.1-4-1-5.6-2.6c-0.7-0.7-1.9-0.7-2.6,0c-0.4,0.4-0.5,0.8-0.5,1.3
		c0,0.5,0.2,0.9,0.5,1.3c3.1,3.1,3.5,7.9,0.7,10.6c-1.3,1.3-3.1,1.9-5,1.8c-2-0.1-4-1-5.5-2.6c-0.7-0.7-1.9-0.7-2.6,0
		c-0.7,0.7-0.7,1.9,0,2.6c1.6,1.5,2.5,3.5,2.6,5.5c0.1,2-0.5,3.8-1.8,5c-1.3,1.3-3.1,2-5,1.8c-2-0.1-4-1-5.6-2.6
		c-0.7-0.7-1.9-0.7-2.6,0c-0.4,0.4-0.5,0.8-0.5,1.3s0.2,0.9,0.5,1.3c1.5,1.5,2.4,3.5,2.6,5.6c0.1,2-0.5,3.8-1.8,5
		c-1.3,1.3-3.1,1.9-5,1.8c-1.8-0.1-3.5-0.8-5-2.1l0.9-0.9c4.1-4.2,4.1-10.9,0-15.1c-2-2-4.7-3.1-7.5-3.1c-0.7,0-1.4,0.1-2,0.2
		c0.6-3.3-0.3-7-2.9-9.5c-2.6-2.6-6.2-3.6-9.5-2.9c0.1-0.7,0.2-1.3,0.2-2c0-2.9-1.1-5.5-3.1-7.5c-2.6-2.6-6.2-3.6-9.5-2.9
		c0.6-3.4-0.3-7-2.9-9.5c-2-2-4.7-3.1-7.5-3.1c-2.7,0-5.2,1-7.1,2.7l-24.6-12.3c-0.3-0.1-0.6-0.2-0.8-0.2v-51l30.9,15.4
		c0,0,0.1,0,0.1,0c0.1,0,0.2,0.1,0.3,0.1c0,0,0.1,0,0.2,0c0,0,0.1,0,0.1,0l0.2,0l37.9,3.6l-29.7,29.7c-0.7,0.7-0.7,1.9,0,2.6
		c3.4,3.4,8.1,5.3,13.1,5.3c0.4,0,0.8,0,1.2,0c5.4-0.3,10.7-2.7,14.7-6.7l17.9-16.8l30,29.6c0,0,0,0,0,0.1h0l5.7,5.7
		c0.1,0.1,0.1,0.2,0.2,0.2l0.6,0.6c1.5,1.6,2.4,3.5,2.6,5.6C1815.5,1535.7,1814.8,1537.5,1813.5,1538.8z"/>
	<path d="M1833.5,1463.2v51c-0.3,0-0.6,0.1-0.8,0.2l-19,9.5l-4.8-4.8c0,0,0,0-0.1-0.1l-31.2-30.8c0,0,0,0,0-0.1
		c-0.1-0.1-0.2-0.2-0.3-0.2c-0.1-0.1-0.2-0.1-0.3-0.2c-0.1,0-0.3-0.1-0.4-0.1c-0.1,0-0.2,0-0.3,0c-0.1,0-0.3,0-0.4,0.1
		c-0.1,0-0.2,0-0.3,0.1c-0.1,0-0.2,0.1-0.3,0.2c-0.1,0-0.1,0.1-0.2,0.1c0,0,0,0-0.1,0l0,0l-19.1,18c-3.4,3.4-7.8,5.4-12.3,5.7
		c-3.8,0.2-7.3-0.8-10.1-3l31.1-31.1c0,0,0.1-0.1,0.1-0.2c0,0,0,0,0,0c0.1-0.1,0.1-0.1,0.2-0.1c5.3-5.3,13.1-6.8,19-3.6l8.8,4.8
		c1.5,0.8,3.1,1.2,4.9,1.2c1.7,0,3.5-0.4,5.1-1.2L1833.5,1463.2z"/>
	<path d="M1751.9,1560l-6.1,6.1c-2.7,2.7-7.1,2.7-9.9,0c-1.3-1.3-2-3.1-2-4.9c0-1.9,0.7-3.6,2-4.9l6.1-6.1c1.4-1.4,3.1-2,4.9-2
		c1.8,0,3.6,0.7,4.9,2C1754.6,1552.8,1754.6,1557.2,1751.9,1560z"/>
	<path d="M1727,1535l-6.1,6.1c-1.3,1.3-3.1,2-4.9,2c-1.9,0-3.6-0.7-4.9-2c-1.3-1.3-2-3.1-2-4.9c0-1.9,0.7-3.6,2-4.9l6.1-6.1
		c1.3-1.3,3.1-2,4.9-2c1.9,0,3.6,0.7,4.9,2C1729.7,1527.9,1729.7,1532.3,1727,1535z"/>
	<path d="M1741.5,1542.6c0,1.9-0.7,3.6-2,4.9l-6.1,6.1c-1.3,1.3-3.1,2-4.9,2c-1.9,0-3.6-0.7-4.9-2c-2.7-2.7-2.7-7.1,0-9.9l6.1-6.1
		c2.7-2.7,7.1-2.7,9.9,0C1740.8,1539,1741.5,1540.7,1741.5,1542.6z"/>
	<path d="M1764.4,1572.4l-2.2,2.2l-3.9,3.9c-1.3,1.3-3.1,2-4.9,2s-3.6-0.7-4.9-2c-2.7-2.7-2.7-7.1,0-9.9l6.1-6.1
		c1.3-1.3,3.1-2,4.9-2c1.9,0,3.6,0.7,4.9,2C1767.1,1565.3,1767.1,1569.7,1764.4,1572.4z"/>
</g>
<g id="Regular-L">
	<path d="M1516.4,1538.8c-1.3,1.3-3.1,1.9-5,1.8c-2-0.1-4-1-5.6-2.6c-0.7-0.7-1.9-0.7-2.6,0c-0.4,0.4-0.5,0.8-0.5,1.3
		c0,0.5,0.2,0.9,0.5,1.3c3.1,3.1,3.5,7.9,0.7,10.6c-1.3,1.3-3.1,1.9-5,1.8c-2-0.1-4-1-5.5-2.6c-0.7-0.7-1.9-0.7-2.6,0
		c-0.7,0.7-0.7,1.9,0,2.6c1.6,1.5,2.5,3.5,2.6,5.5c0.1,2-0.5,3.8-1.8,5c-1.3,1.3-3.1,2-5,1.8c-2-0.1-4-1-5.6-2.6
		c-0.7-0.7-1.9-0.7-2.6,0c-0.4,0.4-0.5,0.8-0.5,1.3s0.2,0.9,0.5,1.3c1.5,1.5,2.4,3.5,2.6,5.6c0.1,2-0.5,3.8-1.8,5
		c-1.3,1.3-3.1,1.9-5,1.8c-1.8-0.1-3.5-0.8-5-2.1l0.9-0.9c4.1-4.2,4.1-10.9,0-15.1c-2-2-4.7-3.1-7.5-3.1c-0.7,0-1.4,0.1-2,0.2
		c0.6-3.3-0.3-7-2.9-9.5c-2.6-2.6-6.2-3.6-9.5-2.9c0.1-0.7,0.2-1.3,0.2-2c0-2.9-1.1-5.5-3.1-7.5c-2.6-2.6-6.2-3.6-9.5-2.9
		c0.6-3.4-0.3-7-2.9-9.5c-2-2-4.7-3.1-7.5-3.1c-2.7,0-5.2,1-7.1,2.7l-24.6-12.3c-0.3-0.1-0.6-0.2-0.8-0.2v-51l30.9,15.4
		c0,0,0.1,0,0.1,0c0.1,0,0.2,0.1,0.3,0.1c0,0,0.1,0,0.2,0c0,0,0.1,0,0.1,0l0.2,0l37.9,3.6l-29.7,29.7c-0.7,0.7-0.7,1.9,0,2.6
		c3.4,3.4,8.1,5.3,13.1,5.3c0.4,0,0.8,0,1.2,0c5.4-0.3,10.7-2.7,14.7-6.7l17.9-16.8l30,29.6c0,0,0,0,0,0.1h0l5.7,5.7
		c0.1,0.1,0.1,0.2,0.2,0.2l0.6,0.6c1.5,1.6,2.4,3.5,2.6,5.6C1518.4,1535.7,1517.7,1537.5,1516.4,1538.8z"/>
	<path d="M1536.4,1463.2v51c-0.3,0-0.6,0.1-0.8,0.2l-19,9.5l-4.8-4.8c0,0,0,0-0.1-0.1l-31.2-30.8c0,0,0,0,0-0.1
		c-0.1-0.1-0.2-0.2-0.3-0.2c-0.1-0.1-0.2-0.1-0.3-0.2c-0.1,0-0.3-0.1-0.4-0.1c-0.1,0-0.2,0-0.3,0c-0.1,0-0.3,0-0.4,0.1
		c-0.1,0-0.2,0-0.3,0.1c-0.1,0-0.2,0.1-0.3,0.2c-0.1,0-0.1,0.1-0.2,0.1c0,0,0,0-0.1,0l0,0l-19.1,18c-3.4,3.4-7.8,5.4-12.3,5.7
		c-3.8,0.2-7.3-0.8-10.1-3l31.1-31.1c0,0,0.1-0.1,0.1-0.2c0,0,0,0,0,0c0.1-0.1,0.1-0.1,0.2-0.1c5.3-5.3,13.1-6.8,19-3.6l8.8,4.8
		c1.5,0.8,3.1,1.2,4.9,1.2c1.7,0,3.5-0.4,5.1-1.2L1536.4,1463.2z"/>
	<path d="M1454.8,1560l-6.1,6.1c-2.7,2.7-7.1,2.7-9.9,0c-1.3-1.3-2-3.1-2-4.9c0-1.9,0.7-3.6,2-4.9l6.1-6.1c1.4-1.4,3.1-2,4.9-2
		c1.8,0,3.6,0.7,4.9,2C1457.5,1552.8,1457.5,1557.2,1454.8,1560z"/>
	<path d="M1429.9,1535l-6.1,6.1c-1.3,1.3-3.1,2-4.9,2c-1.9,0-3.6-0.7-4.9-2c-1.3-1.3-2-3.1-2-4.9c0-1.9,0.7-3.6,2-4.9l6.1-6.1
		c1.3-1.3,3.1-2,4.9-2c1.9,0,3.6,0.7,4.9,2C1432.6,1527.9,1432.6,1532.3,1429.9,1535z"/>
	<path d="M1444.4,1542.6c0,1.9-0.7,3.6-2,4.9l-6.1,6.1c-1.3,1.3-3.1,2-4.9,2c-1.9,0-3.6-0.7-4.9-2c-2.7-2.7-2.7-7.1,0-9.9l6.1-6.1
		c2.7-2.7,7.1-2.7,9.9,0C1443.7,1539,1444.4,1540.7,1444.4,1542.6z"/>
	<path d="M1467.3,1572.4l-2.2,2.2l-3.9,3.9c-1.3,1.3-3.1,2-4.9,2s-3.6-0.7-4.9-2c-2.7-2.7-2.7-7.1,0-9.9l6.1-6.1
		c1.3-1.3,3.1-2,4.9-2c1.9,0,3.6,0.7,4.9,2C1470,1565.3,1470,1569.7,1467.3,1572.4z"/>
</g>
<g id="Light-L">
	<path d="M1219.3,1538.8c-1.3,1.3-3.1,1.9-5,1.8c-2-0.1-4-1-5.6-2.6c-0.7-0.7-1.9-0.7-2.6,0c-0.4,0.4-0.5,0.8-0.5,1.3
		c0,0.5,0.2,0.9,0.5,1.3c3.1,3.1,3.5,7.9,0.7,10.6c-1.3,1.3-3.1,1.9-5,1.8c-2-0.1-4-1-5.5-2.6c-0.7-0.7-1.9-0.7-2.6,0
		c-0.7,0.7-0.7,1.9,0,2.6c1.6,1.5,2.5,3.5,2.6,5.5c0.1,2-0.5,3.8-1.8,5c-1.3,1.3-3.1,2-5,1.8c-2-0.1-4-1-5.6-2.6
		c-0.7-0.7-1.9-0.7-2.6,0c-0.4,0.4-0.5,0.8-0.5,1.3s0.2,0.9,0.5,1.3c1.5,1.5,2.4,3.5,2.6,5.6c0.1,2-0.5,3.8-1.8,5
		c-1.3,1.3-3.1,1.9-5,1.8c-1.8-0.1-3.5-0.8-5-2.1l0.9-0.9c4.1-4.2,4.1-10.9,0-15.1c-2-2-4.7-3.1-7.5-3.1c-0.7,0-1.4,0.1-2,0.2
		c0.6-3.3-0.3-7-2.9-9.5c-2.6-2.6-6.2-3.6-9.5-2.9c0.1-0.7,0.2-1.3,0.2-2c0-2.9-1.1-5.5-3.1-7.5c-2.6-2.6-6.2-3.6-9.5-2.9
		c0.6-3.4-0.3-7-2.9-9.5c-2-2-4.7-3.1-7.5-3.1c-2.7,0-5.2,1-7.1,2.7l-24.6-12.3c-0.3-0.1-0.6-0.2-0.8-0.2v-51l30.9,15.4
		c0,0,0.1,0,0.1,0c0.1,0,0.2,0.1,0.3,0.1c0,0,0.1,0,0.2,0c0,0,0.1,0,0.1,0l0.2,0l37.9,3.6l-29.7,29.7c-0.7,0.7-0.7,1.9,0,2.6
		c3.4,3.4,8.1,5.3,13.1,5.3c0.4,0,0.8,0,1.2,0c5.4-0.3,10.7-2.7,14.7-6.7l17.9-16.8l30,29.6c0,0,0,0,0,0.1h0l5.7,5.7
		c0.1,0.1,0.1,0.2,0.2,0.2l0.6,0.6c1.5,1.6,2.4,3.5,2.6,5.6C1221.3,1535.7,1220.6,1537.5,1219.3,1538.8z"/>
	<path d="M1239.3,1463.2v51c-0.3,0-0.6,0.1-0.8,0.2l-19,9.5l-4.8-4.8c0,0,0,0-0.1-0.1l-31.2-30.8c0,0,0,0,0-0.1
		c-0.1-0.1-0.2-0.2-0.3-0.2c-0.1-0.1-0.2-0.1-0.3-0.2c-0.1,0-0.3-0.1-0.4-0.1c-0.1,0-0.2,0-0.3,0c-0.1,0-0.3,0-0.4,0.1
		c-0.1,0-0.2,0-0.3,0.1c-0.1,0-0.2,0.1-0.3,0.2c-0.1,0-0.1,0.1-0.2,0.1c0,0,0,0-0.1,0l0,0l-19.1,18c-3.4,3.4-7.8,5.4-12.3,5.7
		c-3.8,0.2-7.3-0.8-10.1-3l31.1-31.1c0,0,0.1-0.1,0.1-0.2c0,0,0,0,0,0c0.1-0.1,0.1-0.1,0.2-0.1c5.3-5.3,13.1-6.8,19-3.6l8.8,4.8
		c1.5,0.8,3.1,1.2,4.9,1.2c1.7,0,3.5-0.4,5.1-1.2L1239.3,1463.2z"/>
	<path d="M1157.7,1560l-6.1,6.1c-2.7,2.7-7.1,2.7-9.9,0c-1.3-1.3-2-3.1-2-4.9c0-1.9,0.7-3.6,2-4.9l6.1-6.1c1.4-1.4,3.1-2,4.9-2
		c1.8,0,3.6,0.7,4.9,2C1160.4,1552.8,1160.4,1557.2,1157.7,1560z"/>
	<path d="M1132.8,1535l-6.1,6.1c-1.3,1.3-3.1,2-4.9,2c-1.9,0-3.6-0.7-4.9-2c-1.3-1.3-2-3.1-2-4.9c0-1.9,0.7-3.6,2-4.9l6.1-6.1
		c1.3-1.3,3.1-2,4.9-2c1.9,0,3.6,0.7,4.9,2C1135.5,1527.9,1135.5,1532.3,1132.8,1535z"/>
	<path d="M1147.3,1542.6c0,1.9-0.7,3.6-2,4.9l-6.1,6.1c-1.3,1.3-3.1,2-4.9,2c-1.9,0-3.6-0.7-4.9-2c-2.7-2.7-2.7-7.1,0-9.9l6.1-6.1
		c2.7-2.7,7.1-2.7,9.9,0C1146.6,1539,1147.3,1540.7,1147.3,1542.6z"/>
	<path d="M1170.2,1572.4l-2.2,2.2l-3.9,3.9c-1.3,1.3-3.1,2-4.9,2s-3.6-0.7-4.9-2c-2.7-2.7-2.7-7.1,0-9.9l6.1-6.1
		c1.3-1.3,3.1-2,4.9-2c1.9,0,3.6,0.7,4.9,2C1172.9,1565.3,1172.9,1569.7,1170.2,1572.4z"/>
</g>
<g id="Thin-L">
	<path d="M922.2,1538.8c-1.3,1.3-3.1,1.9-5,1.8c-2-0.1-4-1-5.6-2.6c-0.7-0.7-1.9-0.7-2.6,0c-0.4,0.4-0.5,0.8-0.5,1.3
		c0,0.5,0.2,0.9,0.5,1.3c3.1,3.1,3.5,7.9,0.7,10.6c-1.3,1.3-3.1,1.9-5,1.8c-2-0.1-4-1-5.5-2.6c-0.7-0.7-1.9-0.7-2.6,0
		c-0.7,0.7-0.7,1.9,0,2.6c1.6,1.5,2.5,3.5,2.6,5.5c0.1,2-0.5,3.8-1.8,5c-1.3,1.3-3.1,2-5,1.8c-2-0.1-4-1-5.6-2.6
		c-0.7-0.7-1.9-0.7-2.6,0c-0.4,0.4-0.5,0.8-0.5,1.3s0.2,0.9,0.5,1.3c1.5,1.5,2.4,3.5,2.6,5.6c0.1,2-0.5,3.8-1.8,5
		c-1.3,1.3-3.1,1.9-5,1.8c-1.8-0.1-3.5-0.8-5-2.1l0.9-0.9c4.1-4.2,4.1-10.9,0-15.1c-2-2-4.7-3.1-7.5-3.1c-0.7,0-1.4,0.1-2,0.2
		c0.6-3.3-0.3-7-2.9-9.5c-2.6-2.6-6.2-3.6-9.5-2.9c0.1-0.7,0.2-1.3,0.2-2c0-2.9-1.1-5.5-3.1-7.5c-2.6-2.6-6.2-3.6-9.5-2.9
		c0.6-3.4-0.3-7-2.9-9.5c-2-2-4.7-3.1-7.5-3.1c-2.7,0-5.2,1-7.1,2.7l-24.6-12.3c-0.3-0.1-0.6-0.2-0.8-0.2v-51l30.9,15.4
		c0,0,0.1,0,0.1,0c0.1,0,0.2,0.1,0.3,0.1c0,0,0.1,0,0.2,0c0,0,0.1,0,0.1,0l0.2,0l37.9,3.6l-29.7,29.7c-0.7,0.7-0.7,1.9,0,2.6
		c3.4,3.4,8.1,5.3,13.1,5.3c0.4,0,0.8,0,1.2,0c5.4-0.3,10.7-2.7,14.7-6.7l17.9-16.8l30,29.6c0,0,0,0,0,0.1h0l5.7,5.7
		c0.1,0.1,0.1,0.2,0.2,0.2l0.6,0.6c1.5,1.6,2.4,3.5,2.6,5.6C924.2,1535.7,923.5,1537.5,922.2,1538.8z"/>
	<path d="M942.2,1463.2v51c-0.3,0-0.6,0.1-0.8,0.2l-19,9.5l-4.8-4.8c0,0,0,0-0.1-0.1l-31.2-30.8c0,0,0,0,0-0.1
		c-0.1-0.1-0.2-0.2-0.3-0.2c-0.1-0.1-0.2-0.1-0.3-0.2c-0.1,0-0.3-0.1-0.4-0.1c-0.1,0-0.2,0-0.3,0c-0.1,0-0.3,0-0.4,0.1
		c-0.1,0-0.2,0-0.3,0.1c-0.1,0-0.2,0.1-0.3,0.2c-0.1,0-0.1,0.1-0.2,0.1c0,0,0,0-0.1,0l0,0l-19.1,18c-3.4,3.4-7.8,5.4-12.3,5.7
		c-3.8,0.2-7.3-0.8-10.1-3l31.1-31.1c0,0,0.1-0.1,0.1-0.2c0,0,0,0,0,0c0.1-0.1,0.1-0.1,0.2-0.1c5.3-5.3,13.1-6.8,19-3.6l8.8,4.8
		c1.5,0.8,3.1,1.2,4.9,1.2c1.7,0,3.5-0.4,5.1-1.2L942.2,1463.2z"/>
	<path d="M860.6,1560l-6.1,6.1c-2.7,2.7-7.1,2.7-9.9,0c-1.3-1.3-2-3.1-2-4.9c0-1.9,0.7-3.6,2-4.9l6.1-6.1c1.4-1.4,3.1-2,4.9-2
		s3.6,0.7,4.9,2C863.3,1552.8,863.3,1557.2,860.6,1560z"/>
	<path d="M835.7,1535l-6.1,6.1c-1.3,1.3-3.1,2-4.9,2c-1.9,0-3.6-0.7-4.9-2s-2-3.1-2-4.9c0-1.9,0.7-3.6,2-4.9l6.1-6.1
		c1.3-1.3,3.1-2,4.9-2c1.9,0,3.6,0.7,4.9,2C838.4,1527.9,838.4,1532.3,835.7,1535z"/>
	<path d="M850.2,1542.6c0,1.9-0.7,3.6-2,4.9l-6.1,6.1c-1.3,1.3-3.1,2-4.9,2c-1.9,0-3.6-0.7-4.9-2c-2.7-2.7-2.7-7.1,0-9.9l6.1-6.1
		c2.7-2.7,7.1-2.7,9.9,0C849.4,1539,850.2,1540.7,850.2,1542.6z"/>
	<path d="M873.1,1572.4l-2.2,2.2l-3.9,3.9c-1.3,1.3-3.1,2-4.9,2c-1.9,0-3.6-0.7-4.9-2c-2.7-2.7-2.7-7.1,0-9.9l6.1-6.1
		c1.3-1.3,3.1-2,4.9-2c1.9,0,3.6,0.7,4.9,2C875.8,1565.3,875.8,1569.7,873.1,1572.4z"/>
</g>
<g id="Ultralight-L">
	<path d="M625.1,1538.8c-1.3,1.3-3.1,1.9-5,1.8c-2-0.1-4-1-5.6-2.6c-0.7-0.7-1.9-0.7-2.6,0c-0.4,0.4-0.5,0.8-0.5,1.3
		c0,0.5,0.2,0.9,0.5,1.3c3.1,3.1,3.5,7.9,0.7,10.6c-1.3,1.3-3.1,1.9-5,1.8c-2-0.1-4-1-5.5-2.6c-0.7-0.7-1.9-0.7-2.6,0
		c-0.7,0.7-0.7,1.9,0,2.6c1.6,1.5,2.5,3.5,2.6,5.5c0.1,2-0.5,3.8-1.8,5c-1.3,1.3-3.1,2-5,1.8c-2-0.1-4-1-5.6-2.6
		c-0.7-0.7-1.9-0.7-2.6,0c-0.4,0.4-0.5,0.8-0.5,1.3s0.2,0.9,0.5,1.3c1.5,1.5,2.4,3.5,2.6,5.6c0.1,2-0.5,3.8-1.8,5
		c-1.3,1.3-3.1,1.9-5,1.8c-1.8-0.1-3.5-0.8-5-2.1l0.9-0.9c4.1-4.2,4.1-10.9,0-15.1c-2-2-4.7-3.1-7.5-3.1c-0.7,0-1.4,0.1-2,0.2
		c0.6-3.3-0.3-7-2.9-9.5c-2.6-2.6-6.2-3.6-9.5-2.9c0.1-0.7,0.2-1.3,0.2-2c0-2.9-1.1-5.5-3.1-7.5c-2.6-2.6-6.2-3.6-9.5-2.9
		c0.6-3.4-0.3-7-2.9-9.5c-2-2-4.7-3.1-7.5-3.1c-2.7,0-5.2,1-7.1,2.7l-24.6-12.3c-0.3-0.1-0.6-0.2-0.8-0.2v-51l30.9,15.4
		c0,0,0.1,0,0.1,0c0.1,0,0.2,0.1,0.3,0.1c0,0,0.1,0,0.2,0c0,0,0.1,0,0.1,0l0.2,0l37.9,3.6l-29.7,29.7c-0.7,0.7-0.7,1.9,0,2.6
		c3.4,3.4,8.1,5.3,13.1,5.3c0.4,0,0.8,0,1.2,0c5.4-0.3,10.7-2.7,14.7-6.7l17.9-16.8l30,29.6c0,0,0,0,0,0.1h0l5.7,5.7
		c0.1,0.1,0.1,0.2,0.2,0.2l0.6,0.6c1.5,1.6,2.4,3.5,2.6,5.6C627.1,1535.7,626.4,1537.5,625.1,1538.8z"/>
	<path d="M645.1,1463.2v51c-0.3,0-0.6,0.1-0.8,0.2l-19,9.5l-4.8-4.8c0,0,0,0-0.1-0.1l-31.2-30.8c0,0,0,0,0-0.1
		c-0.1-0.1-0.2-0.2-0.3-0.2c-0.1-0.1-0.2-0.1-0.3-0.2c-0.1,0-0.3-0.1-0.4-0.1c-0.1,0-0.2,0-0.3,0c-0.1,0-0.3,0-0.4,0.1
		c-0.1,0-0.2,0-0.3,0.1c-0.1,0-0.2,0.1-0.3,0.2c-0.1,0-0.1,0.1-0.2,0.1c0,0,0,0-0.1,0l0,0l-19.1,18c-3.4,3.4-7.8,5.4-12.3,5.7
		c-3.8,0.2-7.3-0.8-10.1-3l31.1-31.1c0,0,0.1-0.1,0.1-0.2c0,0,0,0,0,0c0.1-0.1,0.1-0.1,0.2-0.1c5.3-5.3,13.1-6.8,19-3.6l8.8,4.8
		c1.5,0.8,3.1,1.2,4.9,1.2s3.5-0.4,5.1-1.2L645.1,1463.2z"/>
	<path d="M563.5,1560l-6.1,6.1c-2.7,2.7-7.1,2.7-9.9,0c-1.3-1.3-2-3.1-2-4.9c0-1.9,0.7-3.6,2-4.9l6.1-6.1c1.4-1.4,3.1-2,4.9-2
		s3.6,0.7,4.9,2C566.2,1552.8,566.2,1557.2,563.5,1560z"/>
	<path d="M538.6,1535l-6.1,6.1c-1.3,1.3-3.1,2-4.9,2c-1.9,0-3.6-0.7-4.9-2c-1.3-1.3-2-3.1-2-4.9c0-1.9,0.7-3.6,2-4.9l6.1-6.1
		c1.3-1.3,3.1-2,4.9-2c1.9,0,3.6,0.7,4.9,2C541.3,1527.9,541.3,1532.3,538.6,1535z"/>
	<path d="M553.1,1542.6c0,1.9-0.7,3.6-2,4.9l-6.1,6.1c-1.3,1.3-3.1,2-4.9,2c-1.9,0-3.6-0.7-4.9-2c-2.7-2.7-2.7-7.1,0-9.9l6.1-6.1
		c2.7-2.7,7.1-2.7,9.9,0C552.3,1539,553.1,1540.7,553.1,1542.6z"/>
	<path d="M576,1572.4l-2.2,2.2l-3.9,3.9c-1.3,1.3-3.1,2-4.9,2c-1.9,0-3.6-0.7-4.9-2c-2.7-2.7-2.7-7.1,0-9.9l6.1-6.1
		c1.3-1.3,3.1-2,4.9-2c1.9,0,3.6,0.7,4.9,2C578.7,1565.3,578.7,1569.7,576,1572.4z"/>
</g>
<g id="Black-M">
	<path d="M2967.9,1105.6c-1,1-2.5,1.6-4,1.5c-1.6-0.1-3.2-0.8-4.4-2.1c-0.6-0.6-1.5-0.6-2.1,0c-0.3,0.3-0.4,0.7-0.4,1
		c0,0.4,0.1,0.8,0.4,1c2.5,2.5,2.8,6.3,0.6,8.5c-1,1-2.5,1.6-4,1.5c-1.6-0.1-3.2-0.8-4.4-2c-0.6-0.6-1.5-0.6-2.1,0
		c-0.6,0.6-0.6,1.5,0,2.1c1.2,1.2,2,2.8,2.1,4.4c0.1,1.6-0.4,3-1.5,4c-1,1-2.5,1.6-4,1.5c-1.6-0.1-3.2-0.8-4.4-2.1
		c-0.6-0.6-1.5-0.6-2.1,0c-0.3,0.3-0.4,0.7-0.4,1s0.1,0.8,0.4,1c1.2,1.2,2,2.8,2.1,4.4c0.1,1.6-0.4,3-1.5,4c-1,1-2.4,1.5-4,1.5
		c-1.4-0.1-2.8-0.7-4-1.6l0.7-0.7c3.3-3.3,3.3-8.7,0-12.1c-1.6-1.6-3.8-2.5-6-2.5c-0.5,0-1.1,0-1.6,0.1c0.5-2.7-0.3-5.6-2.3-7.6
		c-2.1-2.1-5-2.8-7.6-2.3c0.1-0.5,0.1-1.1,0.1-1.6c0-2.3-0.9-4.4-2.5-6c-2.1-2.1-5-2.9-7.6-2.3c0.5-2.7-0.3-5.6-2.3-7.6
		c-1.6-1.6-3.8-2.5-6-2.5c-2.1,0-4.1,0.8-5.7,2.2l-19.7-9.8c-0.2-0.1-0.4-0.2-0.7-0.2v-40.8l24.7,12.3c0,0,0,0,0.1,0
		c0.1,0,0.1,0.1,0.2,0.1c0,0,0.1,0,0.1,0c0,0,0.1,0,0.1,0l0.1,0l30.3,2.9l-23.8,23.8c-0.6,0.6-0.6,1.5,0,2.1
		c2.8,2.7,6.5,4.2,10.5,4.2c0.3,0,0.6,0,0.9,0c4.4-0.2,8.5-2.2,11.7-5.4l14.3-13.5l24,23.7c0,0,0,0,0,0h0l4.5,4.5
		c0.1,0.1,0.1,0.1,0.2,0.2l0.5,0.5c1.2,1.2,2,2.8,2.1,4.4C2969.5,1103.1,2968.9,1104.5,2967.9,1105.6z"/>
	<path d="M2983.9,1045.1v40.8c-0.2,0-0.4,0-0.7,0.2l-15.2,7.6l-3.8-3.8c0,0,0,0,0-0.1l-25-24.6c0,0,0,0,0,0
		c-0.1-0.1-0.2-0.1-0.3-0.2c-0.1,0-0.1-0.1-0.2-0.2c-0.1,0-0.2,0-0.3-0.1c-0.1,0-0.2,0-0.2,0c-0.1,0-0.2,0-0.3,0c-0.1,0-0.2,0-0.2,0
		c-0.1,0-0.2,0.1-0.3,0.2c-0.1,0-0.1,0.1-0.2,0.1c0,0,0,0,0,0l0,0l-15.3,14.4c-2.7,2.7-6.2,4.3-9.9,4.5c-3,0.2-5.9-0.7-8.1-2.4
		l24.9-24.9c0,0,0-0.1,0.1-0.1c0,0,0,0,0,0c0.1,0,0.1-0.1,0.2-0.1c4.3-4.3,10.5-5.4,15.2-2.9l7,3.8c1.2,0.6,2.5,1,3.9,1
		s2.8-0.3,4.1-1L2983.9,1045.1z"/>
	<path d="M2918.6,1122.5l-4.9,4.9c-2.2,2.2-5.7,2.2-7.9,0c-1.1-1.1-1.6-2.5-1.6-3.9c0-1.5,0.6-2.9,1.6-3.9l4.9-4.9
		c1.1-1.1,2.5-1.6,3.9-1.6c1.4,0,2.9,0.5,3.9,1.6C2920.8,1116.8,2920.8,1120.4,2918.6,1122.5z"/>
	<path d="M2898.6,1102.6l-4.9,4.9c-1.1,1.1-2.5,1.6-3.9,1.6c-1.5,0-2.9-0.6-3.9-1.6c-1.1-1.1-1.6-2.5-1.6-3.9c0-1.5,0.6-2.9,1.6-3.9
		l4.9-4.9c1.1-1.1,2.5-1.6,3.9-1.6c1.5,0,2.9,0.6,3.9,1.6C2900.8,1096.9,2900.8,1100.4,2898.6,1102.6z"/>
	<path d="M2910.3,1108.6c0,1.5-0.6,2.9-1.6,3.9l-4.9,4.9c-1.1,1.1-2.5,1.6-3.9,1.6c-1.5,0-2.9-0.6-3.9-1.6c-2.2-2.2-2.2-5.7,0-7.9
		l4.9-4.9c2.2-2.2,5.7-2.2,7.9,0C2909.7,1105.7,2910.3,1107.1,2910.3,1108.6z"/>
	<path d="M2928.6,1132.5l-1.8,1.8l-3.1,3.1c-1.1,1.1-2.5,1.6-3.9,1.6c-1.5,0-2.9-0.6-3.9-1.6c-2.2-2.2-2.2-5.7,0-7.9l4.9-4.9
		c1.1-1.1,2.5-1.6,3.9-1.6c1.5,0,2.9,0.6,3.9,1.6C2930.7,1126.8,2930.7,1130.3,2928.6,1132.5z"/>
</g>
<g id="Heavy-M">
	<path d="M2673.8,1105.6c-1,1-2.5,1.6-4,1.5c-1.6-0.1-3.2-0.8-4.4-2.1c-0.6-0.6-1.5-0.6-2.1,0c-0.3,0.3-0.4,0.7-0.4,1
		c0,0.4,0.1,0.8,0.4,1c2.5,2.5,2.8,6.3,0.6,8.5c-1,1-2.5,1.6-4,1.5c-1.6-0.1-3.2-0.8-4.4-2c-0.6-0.6-1.5-0.6-2.1,0
		c-0.6,0.6-0.6,1.5,0,2.1c1.2,1.2,2,2.8,2.1,4.4c0.1,1.6-0.4,3-1.5,4c-1,1-2.5,1.6-4,1.5c-1.6-0.1-3.2-0.8-4.4-2.1
		c-0.6-0.6-1.5-0.6-2.1,0c-0.3,0.3-0.4,0.7-0.4,1s0.1,0.8,0.4,1c1.2,1.2,2,2.8,2.1,4.4c0.1,1.6-0.4,3-1.5,4c-1,1-2.4,1.5-4,1.5
		c-1.4-0.1-2.8-0.7-4-1.6l0.7-0.7c3.3-3.3,3.3-8.7,0-12.1c-1.6-1.6-3.8-2.5-6-2.5c-0.5,0-1.1,0-1.6,0.1c0.5-2.7-0.3-5.6-2.3-7.6
		c-2.1-2.1-5-2.8-7.6-2.3c0.1-0.5,0.1-1.1,0.1-1.6c0-2.3-0.9-4.4-2.5-6c-2.1-2.1-5-2.9-7.6-2.3c0.5-2.7-0.3-5.6-2.3-7.6
		c-1.6-1.6-3.8-2.5-6-2.5c-2.1,0-4.1,0.8-5.7,2.2l-19.7-9.8c-0.2-0.1-0.4-0.2-0.7-0.2v-40.8l24.7,12.3c0,0,0,0,0.1,0
		c0.1,0,0.1,0.1,0.2,0.1c0,0,0.1,0,0.1,0c0,0,0.1,0,0.1,0l0.1,0l30.3,2.9l-23.8,23.8c-0.6,0.6-0.6,1.5,0,2.1
		c2.8,2.7,6.5,4.2,10.5,4.2c0.3,0,0.6,0,0.9,0c4.4-0.2,8.5-2.2,11.7-5.4l14.3-13.5l24,23.7c0,0,0,0,0,0h0l4.5,4.5
		c0.1,0.1,0.1,0.1,0.2,0.2l0.5,0.5c1.2,1.2,2,2.8,2.1,4.4C2675.3,1103.1,2674.8,1104.5,2673.8,1105.6z"/>
	<path d="M2689.7,1045.1v40.8c-0.2,0-0.4,0-0.7,0.2l-15.2,7.6l-3.8-3.8c0,0,0,0,0-0.1l-25-24.6c0,0,0,0,0,0
		c-0.1-0.1-0.2-0.1-0.3-0.2c-0.1,0-0.1-0.1-0.2-0.2c-0.1,0-0.2,0-0.3-0.1c-0.1,0-0.2,0-0.2,0c-0.1,0-0.2,0-0.3,0c-0.1,0-0.2,0-0.2,0
		c-0.1,0-0.2,0.1-0.3,0.2c-0.1,0-0.1,0.1-0.2,0.1c0,0,0,0,0,0l0,0l-15.3,14.4c-2.7,2.7-6.2,4.3-9.9,4.5c-3,0.2-5.9-0.7-8.1-2.4
		l24.9-24.9c0,0,0-0.1,0.1-0.1c0,0,0,0,0,0c0.1,0,0.1-0.1,0.2-0.1c4.3-4.3,10.5-5.4,15.2-2.9l7,3.8c1.2,0.6,2.5,1,3.9,1
		s2.8-0.3,4.1-1L2689.7,1045.1z"/>
	<path d="M2624.5,1122.5l-4.9,4.9c-2.2,2.2-5.7,2.2-7.9,0c-1.1-1.1-1.6-2.5-1.6-3.9c0-1.5,0.6-2.9,1.6-3.9l4.9-4.9
		c1.1-1.1,2.5-1.6,3.9-1.6c1.4,0,2.9,0.5,3.9,1.6C2626.6,1116.8,2626.6,1120.4,2624.5,1122.5z"/>
	<path d="M2604.5,1102.6l-4.9,4.9c-1.1,1.1-2.5,1.6-3.9,1.6c-1.5,0-2.9-0.6-3.9-1.6c-1.1-1.1-1.6-2.5-1.6-3.9c0-1.5,0.6-2.9,1.6-3.9
		l4.9-4.9c1.1-1.1,2.5-1.6,3.9-1.6c1.5,0,2.9,0.6,3.9,1.6C2606.7,1096.9,2606.7,1100.4,2604.5,1102.6z"/>
	<path d="M2616.1,1108.6c0,1.5-0.6,2.9-1.6,3.9l-4.9,4.9c-1.1,1.1-2.5,1.6-3.9,1.6c-1.5,0-2.9-0.6-3.9-1.6c-2.2-2.2-2.2-5.7,0-7.9
		l4.9-4.9c2.2-2.2,5.7-2.2,7.9,0C2615.5,1105.7,2616.1,1107.1,2616.1,1108.6z"/>
	<path d="M2634.4,1132.5l-1.8,1.8l-3.1,3.1c-1.1,1.1-2.5,1.6-3.9,1.6c-1.5,0-2.9-0.6-3.9-1.6c-2.2-2.2-2.2-5.7,0-7.9l4.9-4.9
		c1.1-1.1,2.5-1.6,3.9-1.6c1.5,0,2.9,0.6,3.9,1.6C2636.6,1126.8,2636.6,1130.3,2634.4,1132.5z"/>
</g>
<g id="Bold-M">
	<path d="M2379.6,1105.6c-1,1-2.5,1.6-4,1.5c-1.6-0.1-3.2-0.8-4.4-2.1c-0.6-0.6-1.5-0.6-2.1,0c-0.3,0.3-0.4,0.7-0.4,1
		c0,0.4,0.1,0.8,0.4,1c2.5,2.5,2.8,6.3,0.6,8.5c-1,1-2.5,1.6-4,1.5c-1.6-0.1-3.2-0.8-4.4-2c-0.6-0.6-1.5-0.6-2.1,0
		c-0.6,0.6-0.6,1.5,0,2.1c1.2,1.2,2,2.8,2.1,4.4c0.1,1.6-0.4,3-1.5,4c-1,1-2.5,1.6-4,1.5c-1.6-0.1-3.2-0.8-4.4-2.1
		c-0.6-0.6-1.5-0.6-2.1,0c-0.3,0.3-0.4,0.7-0.4,1s0.1,0.8,0.4,1c1.2,1.2,2,2.8,2.1,4.4c0.1,1.6-0.4,3-1.5,4c-1,1-2.4,1.5-4,1.5
		c-1.4-0.1-2.8-0.7-4-1.6l0.7-0.7c3.3-3.3,3.3-8.7,0-12.1c-1.6-1.6-3.8-2.5-6-2.5c-0.5,0-1.1,0-1.6,0.1c0.5-2.7-0.3-5.6-2.3-7.6
		c-2.1-2.1-5-2.8-7.6-2.3c0.1-0.5,0.1-1.1,0.1-1.6c0-2.3-0.9-4.4-2.5-6c-2.1-2.1-5-2.9-7.6-2.3c0.5-2.7-0.3-5.6-2.3-7.6
		c-1.6-1.6-3.8-2.5-6-2.5c-2.1,0-4.1,0.8-5.7,2.2l-19.7-9.8c-0.2-0.1-0.4-0.2-0.7-0.2v-40.8l24.7,12.3c0,0,0,0,0.1,0
		c0.1,0,0.1,0.1,0.2,0.1c0,0,0.1,0,0.1,0c0,0,0.1,0,0.1,0l0.1,0l30.3,2.9l-23.8,23.8c-0.6,0.6-0.6,1.5,0,2.1
		c2.8,2.7,6.5,4.2,10.5,4.2c0.3,0,0.6,0,0.9,0c4.4-0.2,8.5-2.2,11.7-5.4l14.3-13.5l24,23.7c0,0,0,0,0,0h0l4.5,4.5
		c0.1,0.1,0.1,0.1,0.2,0.2l0.5,0.5c1.2,1.2,2,2.8,2.1,4.4C2381.2,1103.1,2380.6,1104.5,2379.6,1105.6z"/>
	<path d="M2395.6,1045.1v40.8c-0.2,0-0.4,0-0.7,0.2l-15.2,7.6l-3.8-3.8c0,0,0,0,0-0.1l-25-24.6c0,0,0,0,0,0
		c-0.1-0.1-0.2-0.1-0.3-0.2c-0.1,0-0.1-0.1-0.2-0.2c-0.1,0-0.2,0-0.3-0.1c-0.1,0-0.2,0-0.2,0c-0.1,0-0.2,0-0.3,0c-0.1,0-0.2,0-0.2,0
		c-0.1,0-0.2,0.1-0.3,0.2c-0.1,0-0.1,0.1-0.2,0.1c0,0,0,0,0,0l0,0l-15.3,14.4c-2.7,2.7-6.2,4.3-9.9,4.5c-3,0.2-5.9-0.7-8.1-2.4
		l24.9-24.9c0,0,0-0.1,0.1-0.1c0,0,0,0,0,0c0.1,0,0.1-0.1,0.2-0.1c4.3-4.3,10.5-5.4,15.2-2.9l7,3.8c1.2,0.6,2.5,1,3.9,1
		s2.8-0.3,4.1-1L2395.6,1045.1z"/>
	<path d="M2330.3,1122.5l-4.9,4.9c-2.2,2.2-5.7,2.2-7.9,0c-1.1-1.1-1.6-2.5-1.6-3.9c0-1.5,0.6-2.9,1.6-3.9l4.9-4.9
		c1.1-1.1,2.5-1.6,3.9-1.6c1.4,0,2.9,0.5,3.9,1.6C2332.5,1116.8,2332.5,1120.4,2330.3,1122.5z"/>
	<path d="M2310.4,1102.6l-4.9,4.9c-1.1,1.1-2.5,1.6-3.9,1.6c-1.5,0-2.9-0.6-3.9-1.6c-1.1-1.1-1.6-2.5-1.6-3.9c0-1.5,0.6-2.9,1.6-3.9
		l4.9-4.9c1.1-1.1,2.5-1.6,3.9-1.6c1.5,0,2.9,0.6,3.9,1.6C2312.5,1096.9,2312.5,1100.4,2310.4,1102.6z"/>
	<path d="M2322,1108.6c0,1.5-0.6,2.9-1.6,3.9l-4.9,4.9c-1.1,1.1-2.5,1.6-3.9,1.6c-1.5,0-2.9-0.6-3.9-1.6c-2.2-2.2-2.2-5.7,0-7.9
		l4.9-4.9c2.2-2.2,5.7-2.2,7.9,0C2321.4,1105.7,2322,1107.1,2322,1108.6z"/>
	<path d="M2340.3,1132.5l-1.8,1.8l-3.1,3.1c-1.1,1.1-2.5,1.6-3.9,1.6c-1.5,0-2.9-0.6-3.9-1.6c-2.2-2.2-2.2-5.7,0-7.9l4.9-4.9
		c1.1-1.1,2.5-1.6,3.9-1.6c1.5,0,2.9,0.6,3.9,1.6C2342.5,1126.8,2342.5,1130.3,2340.3,1132.5z"/>
</g>
<g id="Semibold-M">
	<path d="M2085.5,1105.6c-1,1-2.5,1.6-4,1.5c-1.6-0.1-3.2-0.8-4.4-2.1c-0.6-0.6-1.5-0.6-2.1,0c-0.3,0.3-0.4,0.7-0.4,1
		c0,0.4,0.1,0.8,0.4,1c2.5,2.5,2.8,6.3,0.6,8.5c-1,1-2.5,1.6-4,1.5c-1.6-0.1-3.2-0.8-4.4-2c-0.6-0.6-1.5-0.6-2.1,0
		c-0.6,0.6-0.6,1.5,0,2.1c1.2,1.2,2,2.8,2.1,4.4c0.1,1.6-0.4,3-1.5,4c-1,1-2.5,1.6-4,1.5c-1.6-0.1-3.2-0.8-4.4-2.1
		c-0.6-0.6-1.5-0.6-2.1,0c-0.3,0.3-0.4,0.7-0.4,1s0.1,0.8,0.4,1c1.2,1.2,2,2.8,2.1,4.4c0.1,1.6-0.4,3-1.5,4c-1,1-2.4,1.5-4,1.5
		c-1.4-0.1-2.8-0.7-4-1.6l0.7-0.7c3.3-3.3,3.3-8.7,0-12.1c-1.6-1.6-3.8-2.5-6-2.5c-0.5,0-1.1,0-1.6,0.1c0.5-2.7-0.3-5.6-2.3-7.6
		c-2.1-2.1-5-2.8-7.6-2.3c0.1-0.5,0.1-1.1,0.1-1.6c0-2.3-0.9-4.4-2.5-6c-2.1-2.1-5-2.9-7.6-2.3c0.5-2.7-0.3-5.6-2.3-7.6
		c-1.6-1.6-3.8-2.5-6-2.5c-2.1,0-4.1,0.8-5.7,2.2l-19.7-9.8c-0.2-0.1-0.4-0.2-0.7-0.2v-40.8l24.7,12.3c0,0,0,0,0.1,0
		c0.1,0,0.1,0.1,0.2,0.1c0,0,0.1,0,0.1,0c0,0,0.1,0,0.1,0l0.1,0l30.3,2.9l-23.8,23.8c-0.6,0.6-0.6,1.5,0,2.1
		c2.8,2.7,6.5,4.2,10.5,4.2c0.3,0,0.6,0,0.9,0c4.4-0.2,8.5-2.2,11.7-5.4l14.3-13.5l24,23.7c0,0,0,0,0,0h0l4.5,4.5
		c0.1,0.1,0.1,0.1,0.2,0.2l0.5,0.5c1.2,1.2,2,2.8,2.1,4.4C2087,1103.1,2086.5,1104.5,2085.5,1105.6z"/>
	<path d="M2101.5,1045.1v40.8c-0.2,0-0.4,0-0.7,0.2l-15.2,7.6l-3.8-3.8c0,0,0,0,0-0.1l-25-24.6c0,0,0,0,0,0
		c-0.1-0.1-0.2-0.1-0.3-0.2c-0.1,0-0.1-0.1-0.2-0.2c-0.1,0-0.2,0-0.3-0.1c-0.1,0-0.2,0-0.2,0c-0.1,0-0.2,0-0.3,0c-0.1,0-0.2,0-0.2,0
		c-0.1,0-0.2,0.1-0.3,0.2c-0.1,0-0.1,0.1-0.2,0.1c0,0,0,0,0,0l0,0l-15.3,14.4c-2.7,2.7-6.2,4.3-9.9,4.5c-3,0.2-5.9-0.7-8.1-2.4
		l24.9-24.9c0,0,0-0.1,0.1-0.1c0,0,0,0,0,0c0.1,0,0.1-0.1,0.2-0.1c4.3-4.3,10.5-5.4,15.2-2.9l7,3.8c1.2,0.6,2.5,1,3.9,1
		s2.8-0.3,4.1-1L2101.5,1045.1z"/>
	<path d="M2036.2,1122.5l-4.9,4.9c-2.2,2.2-5.7,2.2-7.9,0c-1.1-1.1-1.6-2.5-1.6-3.9c0-1.5,0.6-2.9,1.6-3.9l4.9-4.9
		c1.1-1.1,2.5-1.6,3.9-1.6c1.4,0,2.9,0.5,3.9,1.6C2038.3,1116.8,2038.3,1120.4,2036.2,1122.5z"/>
	<path d="M2016.2,1102.6l-4.9,4.9c-1.1,1.1-2.5,1.6-3.9,1.6c-1.5,0-2.9-0.6-3.9-1.6c-1.1-1.1-1.6-2.5-1.6-3.9c0-1.5,0.6-2.9,1.6-3.9
		l4.9-4.9c1.1-1.1,2.5-1.6,3.9-1.6c1.5,0,2.9,0.6,3.9,1.6C2018.4,1096.9,2018.4,1100.4,2016.2,1102.6z"/>
	<path d="M2027.8,1108.6c0,1.5-0.6,2.9-1.6,3.9l-4.9,4.9c-1.1,1.1-2.5,1.6-3.9,1.6c-1.5,0-2.9-0.6-3.9-1.6c-2.2-2.2-2.2-5.7,0-7.9
		l4.9-4.9c2.2-2.2,5.7-2.2,7.9,0C2027.2,1105.7,2027.8,1107.1,2027.8,1108.6z"/>
	<path d="M2046.1,1132.5l-1.8,1.8l-3.1,3.1c-1.1,1.1-2.5,1.6-3.9,1.6c-1.5,0-2.9-0.6-3.9-1.6c-2.2-2.2-2.2-5.7,0-7.9l4.9-4.9
		c1.1-1.1,2.5-1.6,3.9-1.6c1.5,0,2.9,0.6,3.9,1.6C2048.3,1126.8,2048.3,1130.3,2046.1,1132.5z"/>
</g>
<g id="Medium-M">
	<path d="M1791.3,1105.6c-1,1-2.5,1.6-4,1.5c-1.6-0.1-3.2-0.8-4.4-2.1c-0.6-0.6-1.5-0.6-2.1,0c-0.3,0.3-0.4,0.7-0.4,1
		c0,0.4,0.1,0.8,0.4,1c2.5,2.5,2.8,6.3,0.6,8.5c-1,1-2.5,1.6-4,1.5c-1.6-0.1-3.2-0.8-4.4-2c-0.6-0.6-1.5-0.6-2.1,0
		c-0.6,0.6-0.6,1.5,0,2.1c1.2,1.2,2,2.8,2.1,4.4c0.1,1.6-0.4,3-1.5,4c-1,1-2.5,1.6-4,1.5c-1.6-0.1-3.2-0.8-4.4-2.1
		c-0.6-0.6-1.5-0.6-2.1,0c-0.3,0.3-0.4,0.7-0.4,1s0.1,0.8,0.4,1c1.2,1.2,2,2.8,2.1,4.4c0.1,1.6-0.4,3-1.5,4c-1,1-2.4,1.5-4,1.5
		c-1.4-0.1-2.8-0.7-4-1.6l0.7-0.7c3.3-3.3,3.3-8.7,0-12.1c-1.6-1.6-3.8-2.5-6-2.5c-0.5,0-1.1,0-1.6,0.1c0.5-2.7-0.3-5.6-2.3-7.6
		c-2.1-2.1-5-2.8-7.6-2.3c0.1-0.5,0.1-1.1,0.1-1.6c0-2.3-0.9-4.4-2.5-6c-2.1-2.1-5-2.9-7.6-2.3c0.5-2.7-0.3-5.6-2.3-7.6
		c-1.6-1.6-3.8-2.5-6-2.5c-2.1,0-4.1,0.8-5.7,2.2l-19.7-9.8c-0.2-0.1-0.4-0.2-0.7-0.2v-40.8l24.7,12.3c0,0,0,0,0.1,0
		c0.1,0,0.1,0.1,0.2,0.1c0,0,0.1,0,0.1,0c0,0,0.1,0,0.1,0l0.1,0l30.3,2.9l-23.8,23.8c-0.6,0.6-0.6,1.5,0,2.1
		c2.8,2.7,6.5,4.2,10.5,4.2c0.3,0,0.6,0,0.9,0c4.4-0.2,8.5-2.2,11.7-5.4l14.3-13.5l24,23.7c0,0,0,0,0,0h0l4.5,4.5
		c0.1,0.1,0.1,0.1,0.2,0.2l0.5,0.5c1.2,1.2,2,2.8,2.1,4.4C1792.9,1103.1,1792.4,1104.5,1791.3,1105.6z"/>
	<path d="M1807.3,1045.1v40.8c-0.2,0-0.4,0-0.7,0.2l-15.2,7.6l-3.8-3.8c0,0,0,0,0-0.1l-25-24.6c0,0,0,0,0,0
		c-0.1-0.1-0.2-0.1-0.3-0.2c-0.1,0-0.1-0.1-0.2-0.2c-0.1,0-0.2,0-0.3-0.1c-0.1,0-0.2,0-0.2,0c-0.1,0-0.2,0-0.3,0c-0.1,0-0.2,0-0.2,0
		c-0.1,0-0.2,0.1-0.3,0.2c-0.1,0-0.1,0.1-0.2,0.1c0,0,0,0,0,0l0,0l-15.3,14.4c-2.7,2.7-6.2,4.3-9.9,4.5c-3,0.2-5.9-0.7-8.1-2.4
		l24.9-24.9c0,0,0-0.1,0.1-0.1c0,0,0,0,0,0c0.1,0,0.1-0.1,0.2-0.1c4.3-4.3,10.5-5.4,15.2-2.9l7,3.8c1.2,0.6,2.5,1,3.9,1
		s2.8-0.3,4.1-1L1807.3,1045.1z"/>
	<path d="M1742,1122.5l-4.9,4.9c-2.2,2.2-5.7,2.2-7.9,0c-1.1-1.1-1.6-2.5-1.6-3.9c0-1.5,0.6-2.9,1.6-3.9l4.9-4.9
		c1.1-1.1,2.5-1.6,3.9-1.6c1.4,0,2.9,0.5,3.9,1.6C1744.2,1116.8,1744.2,1120.4,1742,1122.5z"/>
	<path d="M1722.1,1102.6l-4.9,4.9c-1.1,1.1-2.5,1.6-3.9,1.6c-1.5,0-2.9-0.6-3.9-1.6c-1.1-1.1-1.6-2.5-1.6-3.9c0-1.5,0.6-2.9,1.6-3.9
		l4.9-4.9c1.1-1.1,2.5-1.6,3.9-1.6c1.5,0,2.9,0.6,3.9,1.6C1724.2,1096.9,1724.2,1100.4,1722.1,1102.6z"/>
	<path d="M1733.7,1108.6c0,1.5-0.6,2.9-1.6,3.9l-4.9,4.9c-1.1,1.1-2.5,1.6-3.9,1.6c-1.5,0-2.9-0.6-3.9-1.6c-2.2-2.2-2.2-5.7,0-7.9
		l4.9-4.9c2.2-2.2,5.7-2.2,7.9,0C1733.1,1105.7,1733.7,1107.1,1733.7,1108.6z"/>
	<path d="M1752,1132.5l-1.8,1.8l-3.1,3.1c-1.1,1.1-2.5,1.6-3.9,1.6c-1.5,0-2.9-0.6-3.9-1.6c-2.2-2.2-2.2-5.7,0-7.9l4.9-4.9
		c1.1-1.1,2.5-1.6,3.9-1.6c1.5,0,2.9,0.6,3.9,1.6C1754.2,1126.8,1754.2,1130.3,1752,1132.5z"/>
</g>
<g id="Regular-M">
	<path d="M1497.2,1105.6c-1,1-2.5,1.6-4,1.5c-1.6-0.1-3.2-0.8-4.4-2.1c-0.6-0.6-1.5-0.6-2.1,0c-0.3,0.3-0.4,0.7-0.4,1
		c0,0.4,0.1,0.8,0.4,1c2.5,2.5,2.8,6.3,0.6,8.5c-1,1-2.5,1.6-4,1.5c-1.6-0.1-3.2-0.8-4.4-2c-0.6-0.6-1.5-0.6-2.1,0
		c-0.6,0.6-0.6,1.5,0,2.1c1.2,1.2,2,2.8,2.1,4.4c0.1,1.6-0.4,3-1.5,4c-1,1-2.5,1.6-4,1.5c-1.6-0.1-3.2-0.8-4.4-2.1
		c-0.6-0.6-1.5-0.6-2.1,0c-0.3,0.3-0.4,0.7-0.4,1s0.1,0.8,0.4,1c1.2,1.2,2,2.8,2.1,4.4c0.1,1.6-0.4,3-1.5,4c-1,1-2.4,1.5-4,1.5
		c-1.4-0.1-2.8-0.7-4-1.6l0.7-0.7c3.3-3.3,3.3-8.7,0-12.1c-1.6-1.6-3.8-2.5-6-2.5c-0.5,0-1.1,0-1.6,0.1c0.5-2.7-0.3-5.6-2.3-7.6
		c-2.1-2.1-5-2.8-7.6-2.3c0.1-0.5,0.1-1.1,0.1-1.6c0-2.3-0.9-4.4-2.5-6c-2.1-2.1-5-2.9-7.6-2.3c0.5-2.7-0.3-5.6-2.3-7.6
		c-1.6-1.6-3.8-2.5-6-2.5c-2.1,0-4.1,0.8-5.7,2.2l-19.7-9.8c-0.2-0.1-0.4-0.2-0.7-0.2v-40.8l24.7,12.3c0,0,0,0,0.1,0
		c0.1,0,0.1,0.1,0.2,0.1c0,0,0.1,0,0.1,0c0,0,0.1,0,0.1,0l0.1,0l30.3,2.9l-23.8,23.8c-0.6,0.6-0.6,1.5,0,2.1
		c2.8,2.7,6.5,4.2,10.5,4.2c0.3,0,0.6,0,0.9,0c4.4-0.2,8.5-2.2,11.7-5.4l14.3-13.5l24,23.7c0,0,0,0,0,0h0l4.5,4.5
		c0.1,0.1,0.1,0.1,0.2,0.2l0.5,0.5c1.2,1.2,2,2.8,2.1,4.4C1498.7,1103.1,1498.2,1104.5,1497.2,1105.6z"/>
	<path d="M1513.2,1045.1v40.8c-0.2,0-0.4,0-0.7,0.2l-15.2,7.6l-3.8-3.8c0,0,0,0,0-0.1l-25-24.6c0,0,0,0,0,0
		c-0.1-0.1-0.2-0.1-0.3-0.2c-0.1,0-0.1-0.1-0.2-0.2c-0.1,0-0.2,0-0.3-0.1c-0.1,0-0.2,0-0.2,0c-0.1,0-0.2,0-0.3,0c-0.1,0-0.2,0-0.2,0
		c-0.1,0-0.2,0.1-0.3,0.2c-0.1,0-0.1,0.1-0.2,0.1c0,0,0,0,0,0l0,0l-15.3,14.4c-2.7,2.7-6.2,4.3-9.9,4.5c-3,0.2-5.9-0.7-8.1-2.4
		l24.9-24.9c0,0,0-0.1,0.1-0.1c0,0,0,0,0,0c0.1,0,0.1-0.1,0.2-0.1c4.3-4.3,10.5-5.4,15.2-2.9l7,3.8c1.2,0.6,2.5,1,3.9,1
		s2.8-0.3,4.1-1L1513.2,1045.1z"/>
	<path d="M1447.9,1122.5l-4.9,4.9c-2.2,2.2-5.7,2.2-7.9,0c-1.1-1.1-1.6-2.5-1.6-3.9c0-1.5,0.6-2.9,1.6-3.9l4.9-4.9
		c1.1-1.1,2.5-1.6,3.9-1.6c1.4,0,2.9,0.5,3.9,1.6C1450,1116.8,1450,1120.4,1447.9,1122.5z"/>
	<path d="M1427.9,1102.6l-4.9,4.9c-1.1,1.1-2.5,1.6-3.9,1.6c-1.5,0-2.9-0.6-3.9-1.6c-1.1-1.1-1.6-2.5-1.6-3.9c0-1.5,0.6-2.9,1.6-3.9
		l4.9-4.9c1.1-1.1,2.5-1.6,3.9-1.6c1.5,0,2.9,0.6,3.9,1.6C1430.1,1096.9,1430.1,1100.4,1427.9,1102.6z"/>
	<path d="M1439.5,1108.6c0,1.5-0.6,2.9-1.6,3.9l-4.9,4.9c-1.1,1.1-2.5,1.6-3.9,1.6c-1.5,0-2.9-0.6-3.9-1.6c-2.2-2.2-2.2-5.7,0-7.9
		l4.9-4.9c2.2-2.2,5.7-2.2,7.9,0C1438.9,1105.7,1439.5,1107.1,1439.5,1108.6z"/>
	<path d="M1457.8,1132.5l-1.8,1.8l-3.1,3.1c-1.1,1.1-2.5,1.6-3.9,1.6c-1.5,0-2.9-0.6-3.9-1.6c-2.2-2.2-2.2-5.7,0-7.9l4.9-4.9
		c1.1-1.1,2.5-1.6,3.9-1.6c1.5,0,2.9,0.6,3.9,1.6C1460,1126.8,1460,1130.3,1457.8,1132.5z"/>
</g>
<g id="Light-M">
	<path d="M1203,1105.6c-1,1-2.5,1.6-4,1.5c-1.6-0.1-3.2-0.8-4.4-2.1c-0.6-0.6-1.5-0.6-2.1,0c-0.3,0.3-0.4,0.7-0.4,1
		c0,0.4,0.1,0.8,0.4,1c2.5,2.5,2.8,6.3,0.6,8.5c-1,1-2.5,1.6-4,1.5c-1.6-0.1-3.2-0.8-4.4-2c-0.6-0.6-1.5-0.6-2.1,0
		c-0.6,0.6-0.6,1.5,0,2.1c1.2,1.2,2,2.8,2.1,4.4c0.1,1.6-0.4,3-1.5,4c-1,1-2.5,1.6-4,1.5c-1.6-0.1-3.2-0.8-4.4-2.1
		c-0.6-0.6-1.5-0.6-2.1,0c-0.3,0.3-0.4,0.7-0.4,1s0.1,0.8,0.4,1c1.2,1.2,2,2.8,2.1,4.4c0.1,1.6-0.4,3-1.5,4c-1,1-2.4,1.5-4,1.5
		c-1.4-0.1-2.8-0.7-4-1.6l0.7-0.7c3.3-3.3,3.3-8.7,0-12.1c-1.6-1.6-3.8-2.5-6-2.5c-0.5,0-1.1,0-1.6,0.1c0.5-2.7-0.3-5.6-2.3-7.6
		c-2.1-2.1-5-2.8-7.6-2.3c0.1-0.5,0.1-1.1,0.1-1.6c0-2.3-0.9-4.4-2.5-6c-2.1-2.1-5-2.9-7.6-2.3c0.5-2.7-0.3-5.6-2.3-7.6
		c-1.6-1.6-3.8-2.5-6-2.5c-2.1,0-4.1,0.8-5.7,2.2l-19.7-9.8c-0.2-0.1-0.4-0.2-0.7-0.2v-40.8l24.7,12.3c0,0,0,0,0.1,0
		c0.1,0,0.1,0.1,0.2,0.1c0,0,0.1,0,0.1,0c0,0,0.1,0,0.1,0l0.1,0l30.3,2.9l-23.8,23.8c-0.6,0.6-0.6,1.5,0,2.1
		c2.8,2.7,6.5,4.2,10.5,4.2c0.3,0,0.6,0,0.9,0c4.4-0.2,8.5-2.2,11.7-5.4l14.3-13.5l24,23.7c0,0,0,0,0,0h0l4.5,4.5
		c0.1,0.1,0.1,0.1,0.2,0.2l0.5,0.5c1.2,1.2,2,2.8,2.1,4.4C1204.6,1103.1,1204.1,1104.5,1203,1105.6z"/>
	<path d="M1219,1045.1v40.8c-0.2,0-0.4,0-0.7,0.2l-15.2,7.6l-3.8-3.8c0,0,0,0,0-0.1l-25-24.6c0,0,0,0,0,0c-0.1-0.1-0.2-0.1-0.3-0.2
		c-0.1,0-0.1-0.1-0.2-0.2c-0.1,0-0.2,0-0.3-0.1c-0.1,0-0.2,0-0.2,0c-0.1,0-0.2,0-0.3,0c-0.1,0-0.2,0-0.2,0c-0.1,0-0.2,0.1-0.3,0.2
		c-0.1,0-0.1,0.1-0.2,0.1c0,0,0,0,0,0l0,0l-15.3,14.4c-2.7,2.7-6.2,4.3-9.9,4.5c-3,0.2-5.9-0.7-8.1-2.4l24.9-24.9c0,0,0-0.1,0.1-0.1
		c0,0,0,0,0,0c0.1,0,0.1-0.1,0.2-0.1c4.3-4.3,10.5-5.4,15.2-2.9l7,3.8c1.2,0.6,2.5,1,3.9,1s2.8-0.3,4.1-1L1219,1045.1z"/>
	<path d="M1153.7,1122.5l-4.9,4.9c-2.2,2.2-5.7,2.2-7.9,0c-1.1-1.1-1.6-2.5-1.6-3.9c0-1.5,0.6-2.9,1.6-3.9l4.9-4.9
		c1.1-1.1,2.5-1.6,3.9-1.6c1.4,0,2.9,0.5,3.9,1.6C1155.9,1116.8,1155.9,1120.4,1153.7,1122.5z"/>
	<path d="M1133.8,1102.6l-4.9,4.9c-1.1,1.1-2.5,1.6-3.9,1.6c-1.5,0-2.9-0.6-3.9-1.6c-1.1-1.1-1.6-2.5-1.6-3.9c0-1.5,0.6-2.9,1.6-3.9
		l4.9-4.9c1.1-1.1,2.5-1.6,3.9-1.6c1.5,0,2.9,0.6,3.9,1.6C1135.9,1096.9,1135.9,1100.4,1133.8,1102.6z"/>
	<path d="M1145.4,1108.6c0,1.5-0.6,2.9-1.6,3.9l-4.9,4.9c-1.1,1.1-2.5,1.6-3.9,1.6c-1.5,0-2.9-0.6-3.9-1.6c-2.2-2.2-2.2-5.7,0-7.9
		l4.9-4.9c2.2-2.2,5.7-2.2,7.9,0C1144.8,1105.7,1145.4,1107.1,1145.4,1108.6z"/>
	<path d="M1163.7,1132.5l-1.8,1.8l-3.1,3.1c-1.1,1.1-2.5,1.6-3.9,1.6s-2.9-0.6-3.9-1.6c-2.2-2.2-2.2-5.7,0-7.9l4.9-4.9
		c1.1-1.1,2.5-1.6,3.9-1.6c1.5,0,2.9,0.6,3.9,1.6C1165.9,1126.8,1165.9,1130.3,1163.7,1132.5z"/>
</g>
<g id="Thin-M">
	<path d="M908.9,1105.6c-1,1-2.5,1.6-4,1.5c-1.6-0.1-3.2-0.8-4.4-2.1c-0.6-0.6-1.5-0.6-2.1,0c-0.3,0.3-0.4,0.7-0.4,1
		c0,0.4,0.1,0.8,0.4,1c2.5,2.5,2.8,6.3,0.6,8.5c-1,1-2.5,1.6-4,1.5c-1.6-0.1-3.2-0.8-4.4-2c-0.6-0.6-1.5-0.6-2.1,0
		c-0.6,0.6-0.6,1.5,0,2.1c1.2,1.2,2,2.8,2.1,4.4c0.1,1.6-0.4,3-1.5,4c-1,1-2.5,1.6-4,1.5c-1.6-0.1-3.2-0.8-4.4-2.1
		c-0.6-0.6-1.5-0.6-2.1,0c-0.3,0.3-0.4,0.7-0.4,1s0.1,0.8,0.4,1c1.2,1.2,2,2.8,2.1,4.4c0.1,1.6-0.4,3-1.5,4c-1,1-2.4,1.5-4,1.5
		c-1.4-0.1-2.8-0.7-4-1.6l0.7-0.7c3.3-3.3,3.3-8.7,0-12.1c-1.6-1.6-3.8-2.5-6-2.5c-0.5,0-1.1,0-1.6,0.1c0.5-2.7-0.3-5.6-2.3-7.6
		c-2.1-2.1-5-2.8-7.6-2.3c0.1-0.5,0.1-1.1,0.1-1.6c0-2.3-0.9-4.4-2.5-6c-2.1-2.1-5-2.9-7.6-2.3c0.5-2.7-0.3-5.6-2.3-7.6
		c-1.6-1.6-3.8-2.5-6-2.5c-2.1,0-4.1,0.8-5.7,2.2l-19.7-9.8c-0.2-0.1-0.4-0.2-0.7-0.2v-40.8l24.7,12.3c0,0,0,0,0.1,0
		c0.1,0,0.1,0.1,0.2,0.1c0,0,0.1,0,0.1,0c0,0,0.1,0,0.1,0l0.1,0l30.3,2.9l-23.8,23.8c-0.6,0.6-0.6,1.5,0,2.1
		c2.8,2.7,6.5,4.2,10.5,4.2c0.3,0,0.6,0,0.9,0c4.4-0.2,8.5-2.2,11.7-5.4l14.3-13.5l24,23.7c0,0,0,0,0,0h0l4.5,4.5
		c0.1,0.1,0.1,0.1,0.2,0.2l0.5,0.5c1.2,1.2,2,2.8,2.1,4.4C910.4,1103.1,909.9,1104.5,908.9,1105.6z"/>
	<path d="M924.9,1045.1v40.8c-0.2,0-0.4,0-0.7,0.2l-15.2,7.6l-3.8-3.8c0,0,0,0,0-0.1l-25-24.6c0,0,0,0,0,0c-0.1-0.1-0.2-0.1-0.3-0.2
		c-0.1,0-0.1-0.1-0.2-0.2c-0.1,0-0.2,0-0.3-0.1c-0.1,0-0.2,0-0.2,0c-0.1,0-0.2,0-0.3,0c-0.1,0-0.2,0-0.2,0c-0.1,0-0.2,0.1-0.3,0.2
		c-0.1,0-0.1,0.1-0.2,0.1c0,0,0,0,0,0l0,0l-15.3,14.4c-2.7,2.7-6.2,4.3-9.9,4.5c-3,0.2-5.9-0.7-8.1-2.4l24.9-24.9c0,0,0-0.1,0.1-0.1
		c0,0,0,0,0,0c0.1,0,0.1-0.1,0.2-0.1c4.3-4.3,10.5-5.4,15.2-2.9l7,3.8c1.2,0.6,2.5,1,3.9,1c1.4,0,2.8-0.3,4.1-1L924.9,1045.1z"/>
	<path d="M859.6,1122.5l-4.9,4.9c-2.2,2.2-5.7,2.2-7.9,0c-1.1-1.1-1.6-2.5-1.6-3.9c0-1.5,0.6-2.9,1.6-3.9l4.9-4.9
		c1.1-1.1,2.5-1.6,3.9-1.6s2.9,0.5,3.9,1.6C861.7,1116.8,861.7,1120.4,859.6,1122.5z"/>
	<path d="M839.6,1102.6l-4.9,4.9c-1.1,1.1-2.5,1.6-3.9,1.6c-1.5,0-2.9-0.6-3.9-1.6c-1.1-1.1-1.6-2.5-1.6-3.9c0-1.5,0.6-2.9,1.6-3.9
		l4.9-4.9c1.1-1.1,2.5-1.6,3.9-1.6c1.5,0,2.9,0.6,3.9,1.6C841.8,1096.9,841.8,1100.4,839.6,1102.6z"/>
	<path d="M851.2,1108.6c0,1.5-0.6,2.9-1.6,3.9l-4.9,4.9c-1.1,1.1-2.5,1.6-3.9,1.6c-1.5,0-2.9-0.6-3.9-1.6c-2.2-2.2-2.2-5.7,0-7.9
		l4.9-4.9c2.2-2.2,5.7-2.2,7.9,0C850.6,1105.7,851.2,1107.1,851.2,1108.6z"/>
	<path d="M869.5,1132.5l-1.8,1.8l-3.1,3.1c-1.1,1.1-2.5,1.6-3.9,1.6c-1.5,0-2.9-0.6-3.9-1.6c-2.2-2.2-2.2-5.7,0-7.9l4.9-4.9
		c1.1-1.1,2.5-1.6,3.9-1.6c1.5,0,2.9,0.6,3.9,1.6C871.7,1126.8,871.7,1130.3,869.5,1132.5z"/>
</g>
<g id="Ultralight-M">
	<path d="M614.7,1105.6c-1,1-2.5,1.6-4,1.5c-1.6-0.1-3.2-0.8-4.4-2.1c-0.6-0.6-1.5-0.6-2.1,0c-0.3,0.3-0.4,0.7-0.4,1
		c0,0.4,0.1,0.8,0.4,1c2.5,2.5,2.8,6.3,0.6,8.5c-1,1-2.5,1.6-4,1.5c-1.6-0.1-3.2-0.8-4.4-2c-0.6-0.6-1.5-0.6-2.1,0
		c-0.6,0.6-0.6,1.5,0,2.1c1.2,1.2,2,2.8,2.1,4.4c0.1,1.6-0.4,3-1.5,4c-1,1-2.5,1.6-4,1.5c-1.6-0.1-3.2-0.8-4.4-2.1
		c-0.6-0.6-1.5-0.6-2.1,0c-0.3,0.3-0.4,0.7-0.4,1s0.1,0.8,0.4,1c1.2,1.2,2,2.8,2.1,4.4c0.1,1.6-0.4,3-1.5,4c-1,1-2.4,1.5-4,1.5
		c-1.4-0.1-2.8-0.7-4-1.6l0.7-0.7c3.3-3.3,3.3-8.7,0-12.1c-1.6-1.6-3.8-2.5-6-2.5c-0.5,0-1.1,0-1.6,0.1c0.5-2.7-0.3-5.6-2.3-7.6
		c-2.1-2.1-5-2.8-7.6-2.3c0.1-0.5,0.1-1.1,0.1-1.6c0-2.3-0.9-4.4-2.5-6c-2.1-2.1-5-2.9-7.6-2.3c0.5-2.7-0.3-5.6-2.3-7.6
		c-1.6-1.6-3.8-2.5-6-2.5c-2.1,0-4.1,0.8-5.7,2.2l-19.7-9.8c-0.2-0.1-0.4-0.2-0.7-0.2v-40.8l24.7,12.3c0,0,0,0,0.1,0
		c0.1,0,0.1,0.1,0.2,0.1c0,0,0.1,0,0.1,0c0,0,0.1,0,0.1,0l0.1,0l30.3,2.9l-23.8,23.8c-0.6,0.6-0.6,1.5,0,2.1
		c2.8,2.7,6.5,4.2,10.5,4.2c0.3,0,0.6,0,0.9,0c4.4-0.2,8.5-2.2,11.7-5.4l14.3-13.5l24,23.7c0,0,0,0,0,0h0l4.5,4.5
		c0.1,0.1,0.1,0.1,0.2,0.2l0.5,0.5c1.2,1.2,2,2.8,2.1,4.4C616.3,1103.1,615.8,1104.5,614.7,1105.6z"/>
	<path d="M630.7,1045.1v40.8c-0.2,0-0.4,0-0.7,0.2l-15.2,7.6l-3.8-3.8c0,0,0,0,0-0.1l-25-24.6c0,0,0,0,0,0c-0.1-0.1-0.2-0.1-0.3-0.2
		c-0.1,0-0.1-0.1-0.2-0.2c-0.1,0-0.2,0-0.3-0.1c-0.1,0-0.2,0-0.2,0c-0.1,0-0.2,0-0.3,0c-0.1,0-0.2,0-0.2,0c-0.1,0-0.2,0.1-0.3,0.2
		c-0.1,0-0.1,0.1-0.2,0.1c0,0,0,0,0,0l0,0l-15.3,14.4c-2.7,2.7-6.2,4.3-9.9,4.5c-3,0.2-5.9-0.7-8.1-2.4l24.9-24.9c0,0,0-0.1,0.1-0.1
		c0,0,0,0,0,0c0.1,0,0.1-0.1,0.2-0.1c4.3-4.3,10.5-5.4,15.2-2.9l7,3.8c1.2,0.6,2.5,1,3.9,1c1.4,0,2.8-0.3,4.1-1L630.7,1045.1z"/>
	<path d="M565.4,1122.5l-4.9,4.9c-2.2,2.2-5.7,2.2-7.9,0c-1.1-1.1-1.6-2.5-1.6-3.9c0-1.5,0.6-2.9,1.6-3.9l4.9-4.9
		c1.1-1.1,2.5-1.6,3.9-1.6s2.9,0.5,3.9,1.6C567.6,1116.8,567.6,1120.4,565.4,1122.5z"/>
	<path d="M545.5,1102.6l-4.9,4.9c-1.1,1.1-2.5,1.6-3.9,1.6c-1.5,0-2.9-0.6-3.9-1.6c-1.1-1.1-1.6-2.5-1.6-3.9c0-1.5,0.6-2.9,1.6-3.9
		l4.9-4.9c1.1-1.1,2.5-1.6,3.9-1.6c1.5,0,2.9,0.6,3.9,1.6C547.6,1096.9,547.6,1100.4,545.5,1102.6z"/>
	<path d="M557.1,1108.6c0,1.5-0.6,2.9-1.6,3.9l-4.9,4.9c-1.1,1.1-2.5,1.6-3.9,1.6c-1.5,0-2.9-0.6-3.9-1.6c-2.2-2.2-2.2-5.7,0-7.9
		l4.9-4.9c2.2-2.2,5.7-2.2,7.9,0C556.5,1105.7,557.1,1107.1,557.1,1108.6z"/>
	<path d="M575.4,1132.5l-1.8,1.8l-3.1,3.1c-1.1,1.1-2.5,1.6-3.9,1.6c-1.5,0-2.9-0.6-3.9-1.6c-2.2-2.2-2.2-5.7,0-7.9l4.9-4.9
		c1.1-1.1,2.5-1.6,3.9-1.6c1.5,0,2.9,0.6,3.9,1.6C577.6,1126.8,577.6,1130.3,575.4,1132.5z"/>
</g>
<g id="Black-S">
	<g>
		<path d="M2995.8,672.9c-0.8,0.8-1.8,1.2-3,1.1c-1.2-0.1-2.4-0.6-3.3-1.5c-0.4-0.4-1.1-0.4-1.6,0c-0.2,0.2-0.3,0.5-0.3,0.8
			c0,0.3,0.1,0.6,0.3,0.8c1.9,1.9,2.1,4.7,0.4,6.4c-0.8,0.8-1.9,1.2-3,1.1c-1.2-0.1-2.4-0.6-3.3-1.5c-0.4-0.4-1.1-0.4-1.6,0
			c-0.4,0.4-0.4,1.1,0,1.6c0.9,0.9,1.5,2.1,1.5,3.3c0.1,1.2-0.3,2.3-1.1,3c-0.8,0.8-1.8,1.2-3,1.1c-1.2-0.1-2.4-0.6-3.3-1.5
			c-0.4-0.4-1.1-0.4-1.6,0c-0.2,0.2-0.3,0.5-0.3,0.8s0.1,0.6,0.3,0.8c0.9,0.9,1.5,2.1,1.5,3.3c0.1,1.2-0.3,2.3-1.1,3
			c-0.8,0.8-1.8,1.2-3,1.1c-1.1-0.1-2.1-0.5-3-1.2l0.5-0.5c2.5-2.5,2.5-6.5,0-9c-1.2-1.2-2.8-1.9-4.5-1.9c-0.4,0-0.8,0-1.2,0.1
			c0.4-2-0.2-4.2-1.8-5.7c-1.6-1.6-3.7-2.1-5.7-1.8c0.1-0.4,0.1-0.8,0.1-1.2c0-1.7-0.7-3.3-1.9-4.5c-1.6-1.6-3.7-2.1-5.7-1.8
			c0.4-2-0.2-4.2-1.8-5.7c-1.2-1.2-2.8-1.9-4.5-1.9c-1.6,0-3.1,0.6-4.3,1.6l-14.7-7.4c-0.2-0.1-0.3-0.1-0.5-0.1v-30.6l18.5,9.2
			c0,0,0,0,0.1,0c0.1,0,0.1,0,0.2,0.1c0,0,0.1,0,0.1,0c0,0,0.1,0,0.1,0l0.1,0l22.7,2.2l-17.8,17.8c-0.4,0.4-0.4,1.1,0,1.6
			c2.1,2.1,4.8,3.2,7.9,3.2c0.2,0,0.5,0,0.7,0c3.3-0.2,6.4-1.6,8.8-4l10.7-10.1l18,17.7c0,0,0,0,0,0h0l3.4,3.4
			c0,0.1,0.1,0.1,0.1,0.1l0.4,0.4c0.9,0.9,1.5,2.1,1.5,3.3C2997,671.1,2996.6,672.1,2995.8,672.9z"/>
	</g>
	<g>
		<path d="M3007.8,627.5v30.6c-0.2,0-0.3,0-0.5,0.1l-11.4,5.7l-2.9-2.9c0,0,0,0,0,0l-18.7-18.5c0,0,0,0,0,0
			c-0.1-0.1-0.1-0.1-0.2-0.1c-0.1,0-0.1-0.1-0.2-0.1c-0.1,0-0.2,0-0.2-0.1c-0.1,0-0.1,0-0.2,0c-0.1,0-0.2,0-0.2,0
			c-0.1,0-0.1,0-0.2,0c-0.1,0-0.1,0.1-0.2,0.1c0,0-0.1,0.1-0.1,0.1c0,0,0,0,0,0l0,0l-11.5,10.8c-2,2-4.7,3.3-7.4,3.4
			c-2.3,0.1-4.4-0.5-6.1-1.8l18.7-18.7c0,0,0-0.1,0.1-0.1c0,0,0,0,0,0c0,0,0.1-0.1,0.1-0.1c3.2-3.2,7.9-4.1,11.4-2.2l5.3,2.9
			c0.9,0.5,1.9,0.7,2.9,0.7s2.1-0.2,3.1-0.7L3007.8,627.5z"/>
	</g>
	<g>
		<path d="M2958.9,685.6l-3.7,3.7c-1.6,1.6-4.3,1.6-5.9,0c-0.8-0.8-1.2-1.8-1.2-3c0-1.1,0.4-2.2,1.2-3l3.7-3.7
			c0.8-0.8,1.9-1.2,3-1.2c1.1,0,2.1,0.4,3,1.2C2960.5,681.3,2960.5,684,2958.9,685.6z"/>
	</g>
	<g>
		<path d="M2943.9,670.7l-3.7,3.7c-0.8,0.8-1.8,1.2-3,1.2c-1.1,0-2.2-0.4-3-1.2c-0.8-0.8-1.2-1.8-1.2-3c0-1.1,0.4-2.2,1.2-3l3.7-3.7
			c0.8-0.8,1.8-1.2,3-1.2c1.1,0,2.2,0.4,3,1.2C2945.5,666.4,2945.5,669,2943.9,670.7z"/>
	</g>
	<g>
		<path d="M2952.6,675.2c0,1.1-0.4,2.2-1.2,3l-3.7,3.7c-0.8,0.8-1.8,1.2-3,1.2c-1.1,0-2.2-0.4-3-1.2c-1.6-1.6-1.6-4.3,0-5.9l3.7-3.7
			c1.6-1.6,4.3-1.6,5.9,0C2952.2,673,2952.6,674.1,2952.6,675.2z"/>
	</g>
	<g>
		<path d="M2966.3,693.1l-1.3,1.3l-2.3,2.3c-0.8,0.8-1.8,1.2-3,1.2c-1.1,0-2.2-0.4-3-1.2c-1.6-1.6-1.6-4.3,0-5.9l3.7-3.7
			c0.8-0.8,1.8-1.2,3-1.2c1.1,0,2.2,0.4,3,1.2C2968,688.8,2968,691.5,2966.3,693.1z"/>
	</g>
</g>
<g id="Heavy-S">
	<g>
		<path d="M2696.3,672.9c-0.8,0.8-1.8,1.2-3,1.1c-1.2-0.1-2.4-0.6-3.3-1.5c-0.4-0.4-1.1-0.4-1.6,0c-0.2,0.2-0.3,0.5-0.3,0.8
			c0,0.3,0.1,0.6,0.3,0.8c1.9,1.9,2.1,4.7,0.4,6.4c-0.8,0.8-1.9,1.2-3,1.1c-1.2-0.1-2.4-0.6-3.3-1.5c-0.4-0.4-1.1-0.4-1.6,0
			c-0.4,0.4-0.4,1.1,0,1.6c0.9,0.9,1.5,2.1,1.5,3.3c0.1,1.2-0.3,2.3-1.1,3c-0.8,0.8-1.8,1.2-3,1.1c-1.2-0.1-2.4-0.6-3.3-1.5
			c-0.4-0.4-1.1-0.4-1.6,0c-0.2,0.2-0.3,0.5-0.3,0.8s0.1,0.6,0.3,0.8c0.9,0.9,1.5,2.1,1.5,3.3c0.1,1.2-0.3,2.3-1.1,3
			c-0.8,0.8-1.8,1.2-3,1.1c-1.1-0.1-2.1-0.5-3-1.2l0.5-0.5c2.5-2.5,2.5-6.5,0-9c-1.2-1.2-2.8-1.9-4.5-1.9c-0.4,0-0.8,0-1.2,0.1
			c0.4-2-0.2-4.2-1.8-5.7c-1.6-1.6-3.7-2.1-5.7-1.8c0.1-0.4,0.1-0.8,0.1-1.2c0-1.7-0.7-3.3-1.9-4.5c-1.6-1.6-3.7-2.1-5.7-1.8
			c0.4-2-0.2-4.2-1.8-5.7c-1.2-1.2-2.8-1.9-4.5-1.9c-1.6,0-3.1,0.6-4.3,1.6l-14.7-7.4c-0.2-0.1-0.3-0.1-0.5-0.1v-30.6l18.5,9.2
			c0,0,0,0,0.1,0c0.1,0,0.1,0,0.2,0.1c0,0,0.1,0,0.1,0c0,0,0.1,0,0.1,0l0.1,0l22.7,2.2l-17.8,17.8c-0.4,0.4-0.4,1.1,0,1.6
			c2.1,2.1,4.8,3.2,7.9,3.2c0.2,0,0.5,0,0.7,0c3.3-0.2,6.4-1.6,8.8-4l10.7-10.1l18,17.7c0,0,0,0,0,0h0l3.4,3.4
			c0,0.1,0.1,0.1,0.1,0.1l0.4,0.4c0.9,0.9,1.5,2.1,1.5,3.3C2697.4,671.1,2697,672.1,2696.3,672.9z"/>
	</g>
	<g>
		<path d="M2708.3,627.5v30.6c-0.2,0-0.3,0-0.5,0.1l-11.4,5.7l-2.9-2.9c0,0,0,0,0,0l-18.7-18.5c0,0,0,0,0,0
			c-0.1-0.1-0.1-0.1-0.2-0.1c-0.1,0-0.1-0.1-0.2-0.1c-0.1,0-0.2,0-0.2-0.1c-0.1,0-0.1,0-0.2,0c-0.1,0-0.2,0-0.2,0
			c-0.1,0-0.1,0-0.2,0c-0.1,0-0.1,0.1-0.2,0.1c0,0-0.1,0.1-0.1,0.1c0,0,0,0,0,0l0,0l-11.5,10.8c-2,2-4.7,3.3-7.4,3.4
			c-2.3,0.1-4.4-0.5-6.1-1.8l18.7-18.7c0,0,0-0.1,0.1-0.1c0,0,0,0,0,0c0,0,0.1-0.1,0.1-0.1c3.2-3.2,7.9-4.1,11.4-2.2l5.3,2.9
			c0.9,0.5,1.9,0.7,2.9,0.7c1,0,2.1-0.2,3.1-0.7L2708.3,627.5z"/>
	</g>
	<g>
		<path d="M2659.3,685.6l-3.7,3.7c-1.6,1.6-4.3,1.6-5.9,0c-0.8-0.8-1.2-1.8-1.2-3c0-1.1,0.4-2.2,1.2-3l3.7-3.7
			c0.8-0.8,1.9-1.2,3-1.2s2.1,0.4,3,1.2C2660.9,681.3,2660.9,684,2659.3,685.6z"/>
	</g>
	<g>
		<path d="M2644.3,670.7l-3.7,3.7c-0.8,0.8-1.8,1.2-3,1.2c-1.1,0-2.2-0.4-3-1.2s-1.2-1.8-1.2-3c0-1.1,0.4-2.2,1.2-3l3.7-3.7
			c0.8-0.8,1.8-1.2,3-1.2c1.1,0,2.2,0.4,3,1.2C2645.9,666.4,2645.9,669,2644.3,670.7z"/>
	</g>
	<g>
		<path d="M2653,675.2c0,1.1-0.4,2.2-1.2,3l-3.7,3.7c-0.8,0.8-1.8,1.2-3,1.2c-1.1,0-2.2-0.4-3-1.2c-1.6-1.6-1.6-4.3,0-5.9l3.7-3.7
			c1.6-1.6,4.3-1.6,5.9,0C2652.6,673,2653,674.1,2653,675.2z"/>
	</g>
	<g>
		<path d="M2666.8,693.1l-1.3,1.3l-2.3,2.3c-0.8,0.8-1.8,1.2-3,1.2c-1.1,0-2.2-0.4-3-1.2c-1.6-1.6-1.6-4.3,0-5.9l3.7-3.7
			c0.8-0.8,1.8-1.2,3-1.2c1.1,0,2.2,0.4,3,1.2C2668.4,688.8,2668.4,691.5,2666.8,693.1z"/>
	</g>
</g>
<g id="Bold-S">
	<g>
		<path d="M2396.7,672.9c-0.8,0.8-1.8,1.2-3,1.1c-1.2-0.1-2.4-0.6-3.3-1.5c-0.4-0.4-1.1-0.4-1.6,0c-0.2,0.2-0.3,0.5-0.3,0.8
			c0,0.3,0.1,0.6,0.3,0.8c1.9,1.9,2.1,4.7,0.4,6.4c-0.8,0.8-1.9,1.2-3,1.1c-1.2-0.1-2.4-0.6-3.3-1.5c-0.4-0.4-1.1-0.4-1.6,0
			c-0.4,0.4-0.4,1.1,0,1.6c0.9,0.9,1.5,2.1,1.5,3.3c0.1,1.2-0.3,2.3-1.1,3c-0.8,0.8-1.8,1.2-3,1.1c-1.2-0.1-2.4-0.6-3.3-1.5
			c-0.4-0.4-1.1-0.4-1.6,0c-0.2,0.2-0.3,0.5-0.3,0.8s0.1,0.6,0.3,0.8c0.9,0.9,1.5,2.1,1.5,3.3c0.1,1.2-0.3,2.3-1.1,3
			c-0.8,0.8-1.8,1.2-3,1.1c-1.1-0.1-2.1-0.5-3-1.2l0.5-0.5c2.5-2.5,2.5-6.5,0-9c-1.2-1.2-2.8-1.9-4.5-1.9c-0.4,0-0.8,0-1.2,0.1
			c0.4-2-0.2-4.2-1.8-5.7c-1.6-1.6-3.7-2.1-5.7-1.8c0.1-0.4,0.1-0.8,0.1-1.2c0-1.7-0.7-3.3-1.9-4.5c-1.6-1.6-3.7-2.1-5.7-1.8
			c0.4-2-0.2-4.2-1.8-5.7c-1.2-1.2-2.8-1.9-4.5-1.9c-1.6,0-3.1,0.6-4.3,1.6l-14.7-7.4c-0.2-0.1-0.3-0.1-0.5-0.1v-30.6l18.5,9.2
			c0,0,0,0,0.1,0c0.1,0,0.1,0,0.2,0.1c0,0,0.1,0,0.1,0c0,0,0.1,0,0.1,0l0.1,0l22.7,2.2l-17.8,17.8c-0.4,0.4-0.4,1.1,0,1.6
			c2.1,2.1,4.8,3.2,7.9,3.2c0.2,0,0.5,0,0.7,0c3.3-0.2,6.4-1.6,8.8-4l10.7-10.1l18,17.7c0,0,0,0,0,0h0l3.4,3.4
			c0,0.1,0.1,0.1,0.1,0.1l0.4,0.4c0.9,0.9,1.5,2.1,1.5,3.3C2397.9,671.1,2397.5,672.1,2396.7,672.9z"/>
	</g>
	<g>
		<path d="M2408.7,627.5v30.6c-0.2,0-0.3,0-0.5,0.1l-11.4,5.7l-2.9-2.9c0,0,0,0,0,0l-18.7-18.5c0,0,0,0,0,0
			c-0.1-0.1-0.1-0.1-0.2-0.1c-0.1,0-0.1-0.1-0.2-0.1c-0.1,0-0.2,0-0.2-0.1c-0.1,0-0.1,0-0.2,0c-0.1,0-0.2,0-0.2,0
			c-0.1,0-0.1,0-0.2,0c-0.1,0-0.1,0.1-0.2,0.1c0,0-0.1,0.1-0.1,0.1c0,0,0,0,0,0l0,0l-11.5,10.8c-2,2-4.7,3.3-7.4,3.4
			c-2.3,0.1-4.4-0.5-6.1-1.8l18.7-18.7c0,0,0-0.1,0.1-0.1c0,0,0,0,0,0c0,0,0.1-0.1,0.1-0.1c3.2-3.2,7.9-4.1,11.4-2.2l5.3,2.9
			c0.9,0.5,1.9,0.7,2.9,0.7s2.1-0.2,3.1-0.7L2408.7,627.5z"/>
	</g>
	<g>
		<path d="M2359.7,685.6l-3.7,3.7c-1.6,1.6-4.3,1.6-5.9,0c-0.8-0.8-1.2-1.8-1.2-3c0-1.1,0.4-2.2,1.2-3l3.7-3.7
			c0.8-0.8,1.9-1.2,3-1.2s2.1,0.4,3,1.2C2361.3,681.3,2361.3,684,2359.7,685.6z"/>
	</g>
	<g>
		<path d="M2344.7,670.7l-3.7,3.7c-0.8,0.8-1.8,1.2-3,1.2c-1.1,0-2.2-0.4-3-1.2c-0.8-0.8-1.2-1.8-1.2-3c0-1.1,0.4-2.2,1.2-3l3.7-3.7
			c0.8-0.8,1.8-1.2,3-1.2c1.1,0,2.2,0.4,3,1.2C2346.4,666.4,2346.4,669,2344.7,670.7z"/>
	</g>
	<g>
		<path d="M2353.4,675.2c0,1.1-0.4,2.2-1.2,3l-3.7,3.7c-0.8,0.8-1.8,1.2-3,1.2c-1.1,0-2.2-0.4-3-1.2c-1.6-1.6-1.6-4.3,0-5.9l3.7-3.7
			c1.6-1.6,4.3-1.6,5.9,0C2353,673,2353.4,674.1,2353.4,675.2z"/>
	</g>
	<g>
		<path d="M2367.2,693.1l-1.3,1.3l-2.3,2.3c-0.8,0.8-1.8,1.2-3,1.2c-1.1,0-2.2-0.4-3-1.2c-1.6-1.6-1.6-4.3,0-5.9l3.7-3.7
			c0.8-0.8,1.8-1.2,3-1.2c1.1,0,2.2,0.4,3,1.2C2368.8,688.8,2368.8,691.5,2367.2,693.1z"/>
	</g>
</g>
<g id="Semibold-S">
	<g>
		<path d="M2097.1,672.9c-0.8,0.8-1.8,1.2-3,1.1c-1.2-0.1-2.4-0.6-3.3-1.5c-0.4-0.4-1.1-0.4-1.6,0c-0.2,0.2-0.3,0.5-0.3,0.8
			c0,0.3,0.1,0.6,0.3,0.8c1.9,1.9,2.1,4.7,0.4,6.4c-0.8,0.8-1.9,1.2-3,1.1c-1.2-0.1-2.4-0.6-3.3-1.5c-0.4-0.4-1.1-0.4-1.6,0
			c-0.4,0.4-0.4,1.1,0,1.6c0.9,0.9,1.5,2.1,1.5,3.3c0.1,1.2-0.3,2.3-1.1,3c-0.8,0.8-1.8,1.2-3,1.1c-1.2-0.1-2.4-0.6-3.3-1.5
			c-0.4-0.4-1.1-0.4-1.6,0c-0.2,0.2-0.3,0.5-0.3,0.8s0.1,0.6,0.3,0.8c0.9,0.9,1.5,2.1,1.5,3.3c0.1,1.2-0.3,2.3-1.1,3
			c-0.8,0.8-1.8,1.2-3,1.1c-1.1-0.1-2.1-0.5-3-1.2l0.5-0.5c2.5-2.5,2.5-6.5,0-9c-1.2-1.2-2.8-1.9-4.5-1.9c-0.4,0-0.8,0-1.2,0.1
			c0.4-2-0.2-4.2-1.8-5.7c-1.6-1.6-3.7-2.1-5.7-1.8c0.1-0.4,0.1-0.8,0.1-1.2c0-1.7-0.7-3.3-1.9-4.5c-1.6-1.6-3.7-2.1-5.7-1.8
			c0.4-2-0.2-4.2-1.8-5.7c-1.2-1.2-2.8-1.9-4.5-1.9c-1.6,0-3.1,0.6-4.3,1.6l-14.7-7.4c-0.2-0.1-0.3-0.1-0.5-0.1v-30.6l18.5,9.2
			c0,0,0,0,0.1,0c0.1,0,0.1,0,0.2,0.1c0,0,0.1,0,0.1,0c0,0,0.1,0,0.1,0l0.1,0l22.7,2.2l-17.8,17.8c-0.4,0.4-0.4,1.1,0,1.6
			c2.1,2.1,4.8,3.2,7.9,3.2c0.2,0,0.5,0,0.7,0c3.3-0.2,6.4-1.6,8.8-4l10.7-10.1l18,17.7c0,0,0,0,0,0h0l3.4,3.4
			c0,0.1,0.1,0.1,0.1,0.1l0.4,0.4c0.9,0.9,1.5,2.1,1.5,3.3C2098.3,671.1,2097.9,672.1,2097.1,672.9z"/>
	</g>
	<g>
		<path d="M2109.1,627.5v30.6c-0.2,0-0.3,0-0.5,0.1l-11.4,5.7l-2.9-2.9c0,0,0,0,0,0l-18.7-18.5c0,0,0,0,0,0
			c-0.1-0.1-0.1-0.1-0.2-0.1c-0.1,0-0.1-0.1-0.2-0.1c-0.1,0-0.2,0-0.2-0.1c-0.1,0-0.1,0-0.2,0c-0.1,0-0.2,0-0.2,0
			c-0.1,0-0.1,0-0.2,0c-0.1,0-0.1,0.1-0.2,0.1c0,0-0.1,0.1-0.1,0.1c0,0,0,0,0,0l0,0l-11.5,10.8c-2,2-4.7,3.3-7.4,3.4
			c-2.3,0.1-4.4-0.5-6.1-1.8l18.7-18.7c0,0,0-0.1,0.1-0.1c0,0,0,0,0,0c0,0,0.1-0.1,0.1-0.1c3.2-3.2,7.9-4.1,11.4-2.2l5.3,2.9
			c0.9,0.5,1.9,0.7,2.9,0.7s2.1-0.2,3.1-0.7L2109.1,627.5z"/>
	</g>
	<g>
		<path d="M2060.1,685.6l-3.7,3.7c-1.6,1.6-4.3,1.6-5.9,0c-0.8-0.8-1.2-1.8-1.2-3c0-1.1,0.4-2.2,1.2-3l3.7-3.7
			c0.8-0.8,1.9-1.2,3-1.2c1.1,0,2.1,0.4,3,1.2C2061.8,681.3,2061.8,684,2060.1,685.6z"/>
	</g>
	<g>
		<path d="M2045.2,670.7l-3.7,3.7c-0.8,0.8-1.8,1.2-3,1.2c-1.1,0-2.2-0.4-3-1.2s-1.2-1.8-1.2-3c0-1.1,0.4-2.2,1.2-3l3.7-3.7
			c0.8-0.8,1.8-1.2,3-1.2c1.1,0,2.2,0.4,3,1.2C2046.8,666.4,2046.8,669,2045.2,670.7z"/>
	</g>
	<g>
		<path d="M2053.9,675.2c0,1.1-0.4,2.2-1.2,3l-3.7,3.7c-0.8,0.8-1.8,1.2-3,1.2c-1.1,0-2.2-0.4-3-1.2c-1.6-1.6-1.6-4.3,0-5.9l3.7-3.7
			c1.6-1.6,4.3-1.6,5.9,0C2053.4,673,2053.9,674.1,2053.9,675.2z"/>
	</g>
	<g>
		<path d="M2067.6,693.1l-1.3,1.3l-2.3,2.3c-0.8,0.8-1.8,1.2-3,1.2s-2.2-0.4-3-1.2c-1.6-1.6-1.6-4.3,0-5.9l3.7-3.7
			c0.8-0.8,1.8-1.2,3-1.2c1.1,0,2.2,0.4,3,1.2C2069.2,688.8,2069.2,691.5,2067.6,693.1z"/>
	</g>
</g>
<g id="Medium-S">
	<g>
		<path d="M1797.5,672.9c-0.8,0.8-1.8,1.2-3,1.1c-1.2-0.1-2.4-0.6-3.3-1.5c-0.4-0.4-1.1-0.4-1.6,0c-0.2,0.2-0.3,0.5-0.3,0.8
			c0,0.3,0.1,0.6,0.3,0.8c1.9,1.9,2.1,4.7,0.4,6.4c-0.8,0.8-1.9,1.2-3,1.1c-1.2-0.1-2.4-0.6-3.3-1.5c-0.4-0.4-1.1-0.4-1.6,0
			c-0.4,0.4-0.4,1.1,0,1.6c0.9,0.9,1.5,2.1,1.5,3.3c0.1,1.2-0.3,2.3-1.1,3c-0.8,0.8-1.8,1.2-3,1.1c-1.2-0.1-2.4-0.6-3.3-1.5
			c-0.4-0.4-1.1-0.4-1.6,0c-0.2,0.2-0.3,0.5-0.3,0.8s0.1,0.6,0.3,0.8c0.9,0.9,1.5,2.1,1.5,3.3c0.1,1.2-0.3,2.3-1.1,3
			c-0.8,0.8-1.8,1.2-3,1.1c-1.1-0.1-2.1-0.5-3-1.2l0.5-0.5c2.5-2.5,2.5-6.5,0-9c-1.2-1.2-2.8-1.9-4.5-1.9c-0.4,0-0.8,0-1.2,0.1
			c0.4-2-0.2-4.2-1.8-5.7c-1.6-1.6-3.7-2.1-5.7-1.8c0.1-0.4,0.1-0.8,0.1-1.2c0-1.7-0.7-3.3-1.9-4.5c-1.6-1.6-3.7-2.1-5.7-1.8
			c0.4-2-0.2-4.2-1.8-5.7c-1.2-1.2-2.8-1.9-4.5-1.9c-1.6,0-3.1,0.6-4.3,1.6l-14.7-7.4c-0.2-0.1-0.3-0.1-0.5-0.1v-30.6l18.5,9.2
			c0,0,0,0,0.1,0c0.1,0,0.1,0,0.2,0.1c0,0,0.1,0,0.1,0c0,0,0.1,0,0.1,0l0.1,0l22.7,2.2l-17.8,17.8c-0.4,0.4-0.4,1.1,0,1.6
			c2.1,2.1,4.8,3.2,7.9,3.2c0.2,0,0.5,0,0.7,0c3.3-0.2,6.4-1.6,8.8-4l10.7-10.1l18,17.7c0,0,0,0,0,0h0l3.4,3.4
			c0,0.1,0.1,0.1,0.1,0.1l0.4,0.4c0.9,0.9,1.5,2.1,1.5,3.3C1798.7,671.1,1798.3,672.1,1797.5,672.9z"/>
	</g>
	<g>
		<path d="M1809.5,627.5v30.6c-0.2,0-0.3,0-0.5,0.1l-11.4,5.7l-2.9-2.9c0,0,0,0,0,0l-18.7-18.5c0,0,0,0,0,0
			c-0.1-0.1-0.1-0.1-0.2-0.1c-0.1,0-0.1-0.1-0.2-0.1c-0.1,0-0.2,0-0.2-0.1c-0.1,0-0.1,0-0.2,0c-0.1,0-0.2,0-0.2,0
			c-0.1,0-0.1,0-0.2,0c-0.1,0-0.1,0.1-0.2,0.1c0,0-0.1,0.1-0.1,0.1c0,0,0,0,0,0l0,0l-11.5,10.8c-2,2-4.7,3.3-7.4,3.4
			c-2.3,0.1-4.4-0.5-6.1-1.8l18.7-18.7c0,0,0-0.1,0.1-0.1c0,0,0,0,0,0c0,0,0.1-0.1,0.1-0.1c3.2-3.2,7.9-4.1,11.4-2.2l5.3,2.9
			c0.9,0.5,1.9,0.7,2.9,0.7c1,0,2.1-0.2,3.1-0.7L1809.5,627.5z"/>
	</g>
	<g>
		<path d="M1760.6,685.6l-3.7,3.7c-1.6,1.6-4.3,1.6-5.9,0c-0.8-0.8-1.2-1.8-1.2-3c0-1.1,0.4-2.2,1.2-3l3.7-3.7
			c0.8-0.8,1.9-1.2,3-1.2c1.1,0,2.1,0.4,3,1.2C1762.2,681.3,1762.2,684,1760.6,685.6z"/>
	</g>
	<g>
		<path d="M1745.6,670.7l-3.7,3.7c-0.8,0.8-1.8,1.2-3,1.2c-1.1,0-2.2-0.4-3-1.2c-0.8-0.8-1.2-1.8-1.2-3c0-1.1,0.4-2.2,1.2-3l3.7-3.7
			c0.8-0.8,1.8-1.2,3-1.2c1.1,0,2.2,0.4,3,1.2C1747.2,666.4,1747.2,669,1745.6,670.7z"/>
	</g>
	<g>
		<path d="M1754.3,675.2c0,1.1-0.4,2.2-1.2,3l-3.7,3.7c-0.8,0.8-1.8,1.2-3,1.2c-1.1,0-2.2-0.4-3-1.2c-1.6-1.6-1.6-4.3,0-5.9l3.7-3.7
			c1.6-1.6,4.3-1.6,5.9,0C1753.9,673,1754.3,674.1,1754.3,675.2z"/>
	</g>
	<g>
		<path d="M1768,693.1l-1.3,1.3l-2.3,2.3c-0.8,0.8-1.8,1.2-3,1.2c-1.1,0-2.2-0.4-3-1.2c-1.6-1.6-1.6-4.3,0-5.9l3.7-3.7
			c0.8-0.8,1.8-1.2,3-1.2c1.1,0,2.2,0.4,3,1.2C1769.7,688.8,1769.7,691.5,1768,693.1z"/>
	</g>
</g>
<g id="Regular-S">
	<g>
		<path d="M1498,672.9c-0.8,0.8-1.8,1.2-3,1.1c-1.2-0.1-2.4-0.6-3.3-1.5c-0.4-0.4-1.1-0.4-1.6,0c-0.2,0.2-0.3,0.5-0.3,0.8
			c0,0.3,0.1,0.6,0.3,0.8c1.9,1.9,2.1,4.7,0.4,6.4c-0.8,0.8-1.9,1.2-3,1.1c-1.2-0.1-2.4-0.6-3.3-1.5c-0.4-0.4-1.1-0.4-1.6,0
			c-0.4,0.4-0.4,1.1,0,1.6c0.9,0.9,1.5,2.1,1.5,3.3c0.1,1.2-0.3,2.3-1.1,3c-0.8,0.8-1.8,1.2-3,1.1c-1.2-0.1-2.4-0.6-3.3-1.5
			c-0.4-0.4-1.1-0.4-1.6,0c-0.2,0.2-0.3,0.5-0.3,0.8s0.1,0.6,0.3,0.8c0.9,0.9,1.5,2.1,1.5,3.3c0.1,1.2-0.3,2.3-1.1,3
			c-0.8,0.8-1.8,1.2-3,1.1c-1.1-0.1-2.1-0.5-3-1.2l0.5-0.5c2.5-2.5,2.5-6.5,0-9c-1.2-1.2-2.8-1.9-4.5-1.9c-0.4,0-0.8,0-1.2,0.1
			c0.4-2-0.2-4.2-1.8-5.7c-1.6-1.6-3.7-2.1-5.7-1.8c0.1-0.4,0.1-0.8,0.1-1.2c0-1.7-0.7-3.3-1.9-4.5c-1.6-1.6-3.7-2.1-5.7-1.8
			c0.4-2-0.2-4.2-1.8-5.7c-1.2-1.2-2.8-1.9-4.5-1.9c-1.6,0-3.1,0.6-4.3,1.6l-14.7-7.4c-0.2-0.1-0.3-0.1-0.5-0.1v-30.6l18.5,9.2
			c0,0,0,0,0.1,0c0.1,0,0.1,0,0.2,0.1c0,0,0.1,0,0.1,0c0,0,0.1,0,0.1,0l0.1,0l22.7,2.2l-17.8,17.8c-0.4,0.4-0.4,1.1,0,1.6
			c2.1,2.1,4.8,3.2,7.9,3.2c0.2,0,0.5,0,0.7,0c3.3-0.2,6.4-1.6,8.8-4l10.7-10.1l18,17.7c0,0,0,0,0,0h0l3.4,3.4
			c0,0.1,0.1,0.1,0.1,0.1l0.4,0.4c0.9,0.9,1.5,2.1,1.5,3.3C1499.1,671.1,1498.7,672.1,1498,672.9z"/>
	</g>
	<g>
		<path d="M1510,627.5v30.6c-0.2,0-0.3,0-0.5,0.1l-11.4,5.7l-2.9-2.9c0,0,0,0,0,0l-18.7-18.5c0,0,0,0,0,0c-0.1-0.1-0.1-0.1-0.2-0.1
			c-0.1,0-0.1-0.1-0.2-0.1c-0.1,0-0.2,0-0.2-0.1c-0.1,0-0.1,0-0.2,0c-0.1,0-0.2,0-0.2,0c-0.1,0-0.1,0-0.2,0c-0.1,0-0.1,0.1-0.2,0.1
			c0,0-0.1,0.1-0.1,0.1c0,0,0,0,0,0l0,0l-11.5,10.8c-2,2-4.7,3.3-7.4,3.4c-2.3,0.1-4.4-0.5-6.1-1.8l18.7-18.7c0,0,0-0.1,0.1-0.1
			c0,0,0,0,0,0c0,0,0.1-0.1,0.1-0.1c3.2-3.2,7.9-4.1,11.4-2.2l5.3,2.9c0.9,0.5,1.9,0.7,2.9,0.7s2.1-0.2,3.1-0.7L1510,627.5z"/>
	</g>
	<g>
		<path d="M1461,685.6l-3.7,3.7c-1.6,1.6-4.3,1.6-5.9,0c-0.8-0.8-1.2-1.8-1.2-3c0-1.1,0.4-2.2,1.2-3l3.7-3.7c0.8-0.8,1.9-1.2,3-1.2
			c1.1,0,2.1,0.4,3,1.2C1462.6,681.3,1462.6,684,1461,685.6z"/>
	</g>
	<g>
		<path d="M1446,670.7l-3.7,3.7c-0.8,0.8-1.8,1.2-3,1.2c-1.1,0-2.2-0.4-3-1.2s-1.2-1.8-1.2-3c0-1.1,0.4-2.2,1.2-3l3.7-3.7
			c0.8-0.8,1.8-1.2,3-1.2c1.1,0,2.2,0.4,3,1.2C1447.7,666.4,1447.7,669,1446,670.7z"/>
	</g>
	<g>
		<path d="M1454.7,675.2c0,1.1-0.4,2.2-1.2,3l-3.7,3.7c-0.8,0.8-1.8,1.2-3,1.2c-1.1,0-2.2-0.4-3-1.2c-1.6-1.6-1.6-4.3,0-5.9l3.7-3.7
			c1.6-1.6,4.3-1.6,5.9,0C1454.3,673,1454.7,674.1,1454.7,675.2z"/>
	</g>
	<g>
		<path d="M1468.5,693.1l-1.3,1.3l-2.3,2.3c-0.8,0.8-1.8,1.2-3,1.2s-2.2-0.4-3-1.2c-1.6-1.6-1.6-4.3,0-5.9l3.7-3.7
			c0.8-0.8,1.8-1.2,3-1.2c1.1,0,2.2,0.4,3,1.2C1470.1,688.8,1470.1,691.5,1468.5,693.1z"/>
	</g>
</g>
<g id="Light-S">
	<g>
		<path d="M1198.4,672.9c-0.8,0.8-1.8,1.2-3,1.1c-1.2-0.1-2.4-0.6-3.3-1.5c-0.4-0.4-1.1-0.4-1.6,0c-0.2,0.2-0.3,0.5-0.3,0.8
			c0,0.3,0.1,0.6,0.3,0.8c1.9,1.9,2.1,4.7,0.4,6.4c-0.8,0.8-1.9,1.2-3,1.1c-1.2-0.1-2.4-0.6-3.3-1.5c-0.4-0.4-1.1-0.4-1.6,0
			c-0.4,0.4-0.4,1.1,0,1.6c0.9,0.9,1.5,2.1,1.5,3.3c0.1,1.2-0.3,2.3-1.1,3c-0.8,0.8-1.8,1.2-3,1.1c-1.2-0.1-2.4-0.6-3.3-1.5
			c-0.4-0.4-1.1-0.4-1.6,0c-0.2,0.2-0.3,0.5-0.3,0.8s0.1,0.6,0.3,0.8c0.9,0.9,1.5,2.1,1.5,3.3c0.1,1.2-0.3,2.3-1.1,3
			c-0.8,0.8-1.8,1.2-3,1.1c-1.1-0.1-2.1-0.5-3-1.2l0.5-0.5c2.5-2.5,2.5-6.5,0-9c-1.2-1.2-2.8-1.9-4.5-1.9c-0.4,0-0.8,0-1.2,0.1
			c0.4-2-0.2-4.2-1.8-5.7c-1.6-1.6-3.7-2.1-5.7-1.8c0.1-0.4,0.1-0.8,0.1-1.2c0-1.7-0.7-3.3-1.9-4.5c-1.6-1.6-3.7-2.1-5.7-1.8
			c0.4-2-0.2-4.2-1.8-5.7c-1.2-1.2-2.8-1.9-4.5-1.9c-1.6,0-3.1,0.6-4.3,1.6l-14.7-7.4c-0.2-0.1-0.3-0.1-0.5-0.1v-30.6l18.5,9.2
			c0,0,0,0,0.1,0c0.1,0,0.1,0,0.2,0.1c0,0,0.1,0,0.1,0c0,0,0.1,0,0.1,0l0.1,0l22.7,2.2l-17.8,17.8c-0.4,0.4-0.4,1.1,0,1.6
			c2.1,2.1,4.8,3.2,7.9,3.2c0.2,0,0.5,0,0.7,0c3.3-0.2,6.4-1.6,8.8-4l10.7-10.1l18,17.7c0,0,0,0,0,0h0l3.4,3.4
			c0,0.1,0.1,0.1,0.1,0.1l0.4,0.4c0.9,0.9,1.5,2.1,1.5,3.3C1199.6,671.1,1199.2,672.1,1198.4,672.9z"/>
	</g>
	<g>
		<path d="M1210.4,627.5v30.6c-0.2,0-0.3,0-0.5,0.1l-11.4,5.7l-2.9-2.9c0,0,0,0,0,0l-18.7-18.5c0,0,0,0,0,0
			c-0.1-0.1-0.1-0.1-0.2-0.1c-0.1,0-0.1-0.1-0.2-0.1c-0.1,0-0.2,0-0.2-0.1c-0.1,0-0.1,0-0.2,0c-0.1,0-0.2,0-0.2,0
			c-0.1,0-0.1,0-0.2,0c-0.1,0-0.1,0.1-0.2,0.1c0,0-0.1,0.1-0.1,0.1c0,0,0,0,0,0l0,0l-11.5,10.8c-2,2-4.7,3.3-7.4,3.4
			c-2.3,0.1-4.4-0.5-6.1-1.8l18.7-18.7c0,0,0-0.1,0.1-0.1c0,0,0,0,0,0c0,0,0.1-0.1,0.1-0.1c3.2-3.2,7.9-4.1,11.4-2.2l5.3,2.9
			c0.9,0.5,1.9,0.7,2.9,0.7c1,0,2.1-0.2,3.1-0.7L1210.4,627.5z"/>
	</g>
	<g>
		<path d="M1161.4,685.6l-3.7,3.7c-1.6,1.6-4.3,1.6-5.9,0c-0.8-0.8-1.2-1.8-1.2-3c0-1.1,0.4-2.2,1.2-3l3.7-3.7
			c0.8-0.8,1.9-1.2,3-1.2c1.1,0,2.1,0.4,3,1.2C1163,681.3,1163,684,1161.4,685.6z"/>
	</g>
	<g>
		<path d="M1146.4,670.7l-3.7,3.7c-0.8,0.8-1.8,1.2-3,1.2c-1.1,0-2.2-0.4-3-1.2c-0.8-0.8-1.2-1.8-1.2-3c0-1.1,0.4-2.2,1.2-3l3.7-3.7
			c0.8-0.8,1.8-1.2,3-1.2c1.1,0,2.2,0.4,3,1.2C1148.1,666.4,1148.1,669,1146.4,670.7z"/>
	</g>
	<g>
		<path d="M1155.2,675.2c0,1.1-0.4,2.2-1.2,3l-3.7,3.7c-0.8,0.8-1.8,1.2-3,1.2c-1.1,0-2.2-0.4-3-1.2c-1.6-1.6-1.6-4.3,0-5.9l3.7-3.7
			c1.6-1.6,4.3-1.6,5.9,0C1154.7,673,1155.2,674.1,1155.2,675.2z"/>
	</g>
	<g>
		<path d="M1168.9,693.1l-1.3,1.3l-2.3,2.3c-0.8,0.8-1.8,1.2-3,1.2c-1.1,0-2.2-0.4-3-1.2c-1.6-1.6-1.6-4.3,0-5.9l3.7-3.7
			c0.8-0.8,1.8-1.2,3-1.2c1.1,0,2.2,0.4,3,1.2C1170.5,688.8,1170.5,691.5,1168.9,693.1z"/>
	</g>
</g>
<g id="Thin-S">
	<g>
		<path d="M898.8,672.9c-0.8,0.8-1.8,1.2-3,1.1c-1.2-0.1-2.4-0.6-3.3-1.5c-0.4-0.4-1.1-0.4-1.6,0c-0.2,0.2-0.3,0.5-0.3,0.8
			c0,0.3,0.1,0.6,0.3,0.8c1.9,1.9,2.1,4.7,0.4,6.4c-0.8,0.8-1.9,1.2-3,1.1c-1.2-0.1-2.4-0.6-3.3-1.5c-0.4-0.4-1.1-0.4-1.6,0
			c-0.4,0.4-0.4,1.1,0,1.6c0.9,0.9,1.5,2.1,1.5,3.3c0.1,1.2-0.3,2.3-1.1,3c-0.8,0.8-1.8,1.2-3,1.1c-1.2-0.1-2.4-0.6-3.3-1.5
			c-0.4-0.4-1.1-0.4-1.6,0c-0.2,0.2-0.3,0.5-0.3,0.8s0.1,0.6,0.3,0.8c0.9,0.9,1.5,2.1,1.5,3.3c0.1,1.2-0.3,2.3-1.1,3
			c-0.8,0.8-1.8,1.2-3,1.1c-1.1-0.1-2.1-0.5-3-1.2l0.5-0.5c2.5-2.5,2.5-6.5,0-9c-1.2-1.2-2.8-1.9-4.5-1.9c-0.4,0-0.8,0-1.2,0.1
			c0.4-2-0.2-4.2-1.8-5.7c-1.6-1.6-3.7-2.1-5.7-1.8c0.1-0.4,0.1-0.8,0.1-1.2c0-1.7-0.7-3.3-1.9-4.5c-1.6-1.6-3.7-2.1-5.7-1.8
			c0.4-2-0.2-4.2-1.8-5.7c-1.2-1.2-2.8-1.9-4.5-1.9c-1.6,0-3.1,0.6-4.3,1.6l-14.7-7.4c-0.2-0.1-0.3-0.1-0.5-0.1v-30.6l18.5,9.2
			c0,0,0,0,0.1,0c0.1,0,0.1,0,0.2,0.1c0,0,0.1,0,0.1,0c0,0,0.1,0,0.1,0l0.1,0l22.7,2.2l-17.8,17.8c-0.4,0.4-0.4,1.1,0,1.6
			c2.1,2.1,4.8,3.2,7.9,3.2c0.2,0,0.5,0,0.7,0c3.3-0.2,6.4-1.6,8.8-4l10.7-10.1l18,17.7c0,0,0,0,0,0h0l3.4,3.4
			c0,0.1,0.1,0.1,0.1,0.1l0.4,0.4c0.9,0.9,1.5,2.1,1.5,3.3C900,671.1,899.6,672.1,898.8,672.9z"/>
	</g>
	<g>
		<path d="M910.8,627.5v30.6c-0.2,0-0.3,0-0.5,0.1l-11.4,5.7l-2.9-2.9c0,0,0,0,0,0l-18.7-18.5c0,0,0,0,0,0c-0.1-0.1-0.1-0.1-0.2-0.1
			c-0.1,0-0.1-0.1-0.2-0.1c-0.1,0-0.2,0-0.2-0.1c-0.1,0-0.1,0-0.2,0c-0.1,0-0.2,0-0.2,0c-0.1,0-0.1,0-0.2,0c-0.1,0-0.1,0.1-0.2,0.1
			c0,0-0.1,0.1-0.1,0.1c0,0,0,0,0,0l0,0l-11.5,10.8c-2,2-4.7,3.3-7.4,3.4c-2.3,0.1-4.4-0.5-6.1-1.8l18.7-18.7c0,0,0-0.1,0.1-0.1
			c0,0,0,0,0,0c0,0,0.1-0.1,0.1-0.1c3.2-3.2,7.9-4.1,11.4-2.2l5.3,2.9c0.9,0.5,1.9,0.7,2.9,0.7c1,0,2.1-0.2,3.1-0.7L910.8,627.5z"/>
	</g>
	<g>
		<path d="M861.8,685.6l-3.7,3.7c-1.6,1.6-4.3,1.6-5.9,0c-0.8-0.8-1.2-1.8-1.2-3c0-1.1,0.4-2.2,1.2-3l3.7-3.7c0.8-0.8,1.9-1.2,3-1.2
			s2.1,0.4,3,1.2C863.5,681.3,863.5,684,861.8,685.6z"/>
	</g>
	<g>
		<path d="M846.9,670.7l-3.7,3.7c-0.8,0.8-1.8,1.2-3,1.2c-1.1,0-2.2-0.4-3-1.2s-1.2-1.8-1.2-3c0-1.1,0.4-2.2,1.2-3l3.7-3.7
			c0.8-0.8,1.8-1.2,3-1.2c1.1,0,2.2,0.4,3,1.2C848.5,666.4,848.5,669,846.9,670.7z"/>
	</g>
	<g>
		<path d="M855.6,675.2c0,1.1-0.4,2.2-1.2,3l-3.7,3.7c-0.8,0.8-1.8,1.2-3,1.2c-1.1,0-2.2-0.4-3-1.2c-1.6-1.6-1.6-4.3,0-5.9l3.7-3.7
			c1.6-1.6,4.3-1.6,5.9,0C855.1,673,855.6,674.1,855.6,675.2z"/>
	</g>
	<g>
		<path d="M869.3,693.1l-1.3,1.3l-2.3,2.3c-0.8,0.8-1.8,1.2-3,1.2c-1.1,0-2.2-0.4-3-1.2c-1.6-1.6-1.6-4.3,0-5.9l3.7-3.7
			c0.8-0.8,1.8-1.2,3-1.2c1.1,0,2.2,0.4,3,1.2C870.9,688.8,870.9,691.5,869.3,693.1z"/>
	</g>
</g>
<g id="Ultralight-S">
	<g>
		<path d="M599.2,670.8c-0.8,0.8-1.8,1.2-3,1.1c-1.2-0.1-2.4-0.6-3.3-1.5c-0.4-0.4-1.1-0.4-1.6,0c-0.2,0.2-0.3,0.5-0.3,0.8
			c0,0.3,0.1,0.6,0.3,0.8c1.9,1.9,2.1,4.7,0.4,6.4c-0.8,0.8-1.9,1.2-3,1.1c-1.2-0.1-2.4-0.6-3.3-1.5c-0.4-0.4-1.1-0.4-1.6,0
			c-0.4,0.4-0.4,1.1,0,1.6c0.9,0.9,1.5,2.1,1.5,3.3c0.1,1.2-0.3,2.3-1.1,3c-0.8,0.8-1.8,1.2-3,1.1c-1.2-0.1-2.4-0.6-3.3-1.5
			c-0.4-0.4-1.1-0.4-1.6,0c-0.2,0.2-0.3,0.5-0.3,0.8s0.1,0.6,0.3,0.8c0.9,0.9,1.5,2.1,1.5,3.3c0.1,1.2-0.3,2.3-1.1,3
			c-0.8,0.8-1.8,1.2-3,1.1c-1.1-0.1-2.1-0.5-3-1.2l0.5-0.5c2.5-2.5,2.5-6.5,0-9c-1.2-1.2-2.8-1.9-4.5-1.9c-0.4,0-0.8,0-1.2,0.1
			c0.4-2-0.2-4.2-1.8-5.7c-1.6-1.6-3.7-2.1-5.7-1.8c0.1-0.4,0.1-0.8,0.1-1.2c0-1.7-0.7-3.3-1.9-4.5c-1.6-1.6-3.7-2.1-5.7-1.8
			c0.4-2-0.2-4.2-1.8-5.7c-1.2-1.2-2.8-1.9-4.5-1.9c-1.6,0-3.1,0.6-4.3,1.6l-14.7-7.4c-0.2-0.1-0.3-0.1-0.5-0.1v-30.6l18.5,9.2
			c0,0,0,0,0.1,0c0.1,0,0.1,0,0.2,0.1c0,0,0.1,0,0.1,0c0,0,0.1,0,0.1,0l0.1,0l22.7,2.2l-17.8,17.8c-0.4,0.4-0.4,1.1,0,1.6
			c2.1,2.1,4.8,3.2,7.9,3.2c0.2,0,0.5,0,0.7,0c3.3-0.2,6.4-1.6,8.8-4l10.7-10.1l18,17.7c0,0,0,0,0,0h0l3.4,3.4
			c0,0.1,0.1,0.1,0.1,0.1l0.4,0.4c0.9,0.9,1.5,2.1,1.5,3.3C600.4,669,600,670,599.2,670.8z"/>
	</g>
	<g>
		<path d="M611.2,625.5v30.6c-0.2,0-0.3,0-0.5,0.1l-11.4,5.7l-2.9-2.9c0,0,0,0,0,0l-18.7-18.5c0,0,0,0,0,0c-0.1-0.1-0.1-0.1-0.2-0.1
			c-0.1,0-0.1-0.1-0.2-0.1c-0.1,0-0.2,0-0.2-0.1c-0.1,0-0.1,0-0.2,0c-0.1,0-0.2,0-0.2,0c-0.1,0-0.1,0-0.2,0c-0.1,0-0.1,0.1-0.2,0.1
			c0,0-0.1,0.1-0.1,0.1c0,0,0,0,0,0l0,0l-11.5,10.8c-2,2-4.7,3.3-7.4,3.4c-2.3,0.1-4.4-0.5-6.1-1.8l18.7-18.7c0,0,0-0.1,0.1-0.1
			c0,0,0,0,0,0c0,0,0.1-0.1,0.1-0.1c3.2-3.2,7.9-4.1,11.4-2.2l5.3,2.9c0.9,0.5,1.9,0.7,2.9,0.7c1,0,2.1-0.2,3.1-0.7L611.2,625.5z"/>
	</g>
	<g>
		<path d="M562.3,683.5l-3.7,3.7c-1.6,1.6-4.3,1.6-5.9,0c-0.8-0.8-1.2-1.8-1.2-3c0-1.1,0.4-2.2,1.2-3l3.7-3.7c0.8-0.8,1.9-1.2,3-1.2
			s2.1,0.4,3,1.2C563.9,679.3,563.9,681.9,562.3,683.5z"/>
	</g>
	<g>
		<path d="M547.3,668.6l-3.7,3.7c-0.8,0.8-1.8,1.2-3,1.2c-1.1,0-2.2-0.4-3-1.2c-0.8-0.8-1.2-1.8-1.2-3c0-1.1,0.4-2.2,1.2-3l3.7-3.7
			c0.8-0.8,1.8-1.2,3-1.2c1.1,0,2.2,0.4,3,1.2C548.9,664.3,548.9,667,547.3,668.6z"/>
	</g>
	<g>
		<path d="M556,673.1c0,1.1-0.4,2.2-1.2,3l-3.7,3.7c-0.8,0.8-1.8,1.2-3,1.2c-1.1,0-2.2-0.4-3-1.2c-1.6-1.6-1.6-4.3,0-5.9l3.7-3.7
			c1.6-1.6,4.3-1.6,5.9,0C555.6,670.9,556,672,556,673.1z"/>
	</g>
	<g>
		<path d="M569.7,691l-1.3,1.3l-2.3,2.3c-0.8,0.8-1.8,1.2-3,1.2c-1.1,0-2.2-0.4-3-1.2c-1.6-1.6-1.6-4.3,0-5.9l3.7-3.7
			c0.8-0.8,1.8-1.2,3-1.2c1.1,0,2.2,0.4,3,1.2C571.4,686.7,571.4,689.4,569.7,691z"/>
	</g>
</g>
</svg>
