<?xml version="1.0" encoding="utf-8"?>
<!-- Generator: Adobe Illustrator 24.1.3, SVG Export Plug-In . SVG Version: 6.00 Build 0)  -->
<svg version="1.1" id="Capa_1" xmlns="http://www.w3.org/2000/svg" xmlns:xlink="http://www.w3.org/1999/xlink" x="0px" y="0px"
	 viewBox="0 0 3300 2200" style="enable-background:new 0 0 3300 2200;" xml:space="preserve">
<style type="text/css">
	.st0{fill:#FFFFFF;}
	.st1{fill:none;stroke:#000000;stroke-width:0.5;}
	.st2{font-family:'Arial-BoldMT';}
	.st3{font-size:12px;}
	.st4{font-family:'ArialMT';}
	.st5{opacity:0.4;fill:#00AEEF;enable-background:new    ;}
	.st6{fill:#27AAE1;}
	.st7{fill:none;stroke:#27AAE1;stroke-width:0.577;}
</style>
<g id="Notes">
	<rect id="artboard" class="st0" width="3300" height="2200"/>
	<line class="st1" x1="263" y1="292" x2="3036" y2="292"/>
	<text transform="matrix(1 0 0 1 263 322)" class="st2 st3">Weight/Scale Variations</text>
	<text transform="matrix(1 0 0 1 536.0362 322)" class="st4 st3">Ultralight</text>
	<text transform="matrix(1 0 0 1 844.7501 322)" class="st4 st3">Thin</text>
	<text transform="matrix(1 0 0 1 1140.1193 322)" class="st4 st3">Light</text>
	<text transform="matrix(1 0 0 1 1428.8282 322)" class="st4 st3">Regular</text>
	<text transform="matrix(1 0 0 1 1725.2202 322)" class="st4 st3">Medium</text>
	<text transform="matrix(1 0 0 1 2018.2563 322)" class="st4 st3">Semibold</text>
	<text transform="matrix(1 0 0 1 2327.9712 322)" class="st4 st3">Bold</text>
	<text transform="matrix(1 0 0 1 2619.6831 322)" class="st4 st3">Heavy</text>
	<text transform="matrix(1 0 0 1 2918.728 322)" class="st4 st3">Black</text>
	<line class="st1" x1="263" y1="1903" x2="3036" y2="1903"/>
	<g transform="matrix(1 0 0 1 263 1933)">
		<path d="M9.2,0.8c4.3,0,7.9-3.6,7.9-7.9c0-4.3-3.6-7.9-7.9-7.9c-4.3,0-7.9,3.6-7.9,7.9C1.4-2.7,5,0.8,9.2,0.8z M9.2-0.7
			c-3.5,0-6.4-2.8-6.4-6.4c0-3.6,2.8-6.4,6.4-6.4c3.6,0,6.4,2.8,6.4,6.4C15.7-3.5,12.8-0.7,9.2-0.7z M9.2-3.4c0.5,0,0.7-0.3,0.7-0.8
			v-2.1h2.2C12.7-6.3,13-6.6,13-7c0-0.5-0.3-0.7-0.8-0.7H10V-10c0-0.5-0.3-0.8-0.7-0.8S8.5-10.5,8.5-10v2.2H6.3
			C5.8-7.8,5.4-7.5,5.4-7c0,0.5,0.4,0.7,0.8,0.7h2.2v2.1C8.5-3.8,8.8-3.4,9.2-3.4z"/>
	</g>
	<g transform="matrix(1 0 0 1 281.506 1933)">
		<path d="M11.7,2.9c5.4,0,10-4.5,10-10c0-5.4-4.5-10-10-10c-5.4,0-10,4.5-10,10C1.7-1.6,6.3,2.9,11.7,2.9z M11.7,1.3
			c-4.6,0-8.3-3.7-8.3-8.3c0-4.6,3.7-8.3,8.3-8.3c4.6,0,8.3,3.7,8.3,8.3C20-2.4,16.3,1.3,11.7,1.3z M11.7-2.4c0.5,0,0.8-0.4,0.8-0.9
			v-2.9h3.1c0.5,0,0.9-0.3,0.9-0.8c0-0.5-0.4-0.8-0.9-0.8h-3.1v-3.1c0-0.6-0.3-0.9-0.8-0.9c-0.5,0-0.8,0.4-0.8,0.9v3.1h-3
			C7.3-7.9,6.9-7.6,6.9-7c0,0.5,0.4,0.8,0.9,0.8h3v2.9C10.9-2.8,11.2-2.4,11.7-2.4z"/>
	</g>
	<g transform="matrix(1 0 0 1 304.924 1933)">
		<path d="M15,5.7c7,0,12.7-5.8,12.7-12.7c0-7-5.8-12.7-12.7-12.7C8-19.8,2.3-14,2.3-7C2.3-0.1,8,5.7,15,5.7z M15,3.9
			C8.9,3.9,4.1-1,4.1-7c0-6,4.8-10.9,10.9-10.9c6,0,10.9,4.9,10.9,10.9C25.9-1,21,3.9,15,3.9z M15-1.1c0.6,0,0.9-0.4,0.9-1v-4.1h4.2
			c0.6,0,1-0.3,1-0.9c0-0.6-0.4-0.9-1-0.9h-4.2v-4.2c0-0.6-0.4-1-0.9-1c-0.6,0-0.9,0.4-0.9,1v4.2H9.8c-0.6,0-1,0.3-1,0.9
			c0,0.6,0.4,0.9,1,0.9h4.2v4.1C14.1-1.5,14.4-1.1,15-1.1z"/>
	</g>
	<text transform="matrix(1 0 0 1 263 1953)" class="st2 st3">Design Variations</text>
	<text transform="matrix(1 0 0 1 263 1971)" class="st4 st3">Symbols are supported in up to nine weights and three scales.</text>
	<text transform="matrix(1 0 0 1 263 1989)" class="st4 st3">For optimal layout with text and other symbols, vertically align</text>
	<text transform="matrix(1 0 0 1 263 2007)" class="st4 st3">symbols with the adjacent text.</text>
	<rect x="776" y="1919" class="st5" width="3" height="14"/>
	<g transform="matrix(1 0 0 1 779 1933)">
		<path d="M10.5,0h1.8L7.2-14.1H5.4L0.2,0h1.8l1.4-4h5.6L10.5,0z M6.3-12L6.3-12l2.3,6.4H4L6.3-12z"/>
	</g>
	<rect x="791.6" y="1919" class="st5" width="3" height="14"/>
	<text transform="matrix(1 0 0 1 776 1953)" class="st2 st3">Margins</text>
	<text transform="matrix(1 0 0 1 776 1971)" class="st4 st3">Leading and trailing margins on the left and right side of each symbol</text>
	<text transform="matrix(1 0 0 1 776 1989)" class="st4 st3">can be adjusted by modifying the width of the blue rectangles.</text>
	<text transform="matrix(1 0 0 1 776 2007)" class="st4 st3">Modifications are automatically applied proportionally to all</text>
	<text transform="matrix(1 0 0 1 776 2025)" class="st4 st3">scales and weights.</text>
	<g transform="matrix(1 0 0 1 1289 1933)">
		<path d="M2.8,3.1l1.5,1.5c0.8,0.8,1.8,0.8,2.7-0.2L17.3-6.7c0.4,0.3,0.8,0.3,1.3,0.2l1-0.2L20.3-6l0,0.5C20.2-5,20.4-4.5,20.8-4
			l0.8,0.8c0.5,0.5,1.2,0.5,1.6,0.1l3.3-3.3c0.5-0.5,0.5-1.1,0-1.6l-0.8-0.8c-0.5-0.5-0.9-0.7-1.4-0.6l-0.5,0.1l-0.7-0.7l0.3-1.1
			c0.1-0.6,0-1-0.6-1.6l-2.4-2.4c-3.5-3.5-8.1-3.4-11.2-0.3c-0.4,0.4-0.5,1-0.2,1.4c0.2,0.4,0.7,0.6,1.4,0.4c1.5-0.4,3-0.3,4.5,0.7
			l-0.6,1.6c-0.2,0.6-0.2,1.1,0,1.5L3,0.4C2.1,1.3,2,2.3,2.8,3.1z M10.7-15.1c2.7-2,6-1.7,8.4,0.7l2.6,2.6c0.2,0.2,0.3,0.4,0.2,0.7
			l-0.4,1.6L23.1-8L24-8c0.3,0,0.4,0,0.6,0.2l0.6,0.6l-2.8,2.7l-0.6-0.6c-0.2-0.2-0.2-0.3-0.2-0.6l0.1-1l-1.6-1.6l-1.6,0.3
			c-0.3,0.1-0.4,0.1-0.7-0.2l-2.2-2.2c-0.2-0.2-0.3-0.4-0.1-0.7l0.9-2.3c-1.6-1.5-3.7-2.4-5.8-1.7c-0.1,0-0.2,0-0.2,0
			C10.6-15,10.6-15.1,10.7-15.1z M4.1,2.4c-0.5-0.5-0.3-0.8,0-1.1l11-10.1l1.2,1.2L6.2,3.3c-0.3,0.3-0.7,0.4-1.1,0L4.1,2.4z"/>
	</g>
	<text transform="matrix(1 0 0 1 1289 1953)" class="st2 st3">Exporting</text>
	<text transform="matrix(1 0 0 1 1289 1971)" class="st4 st3">Symbols should be outlined when exporting to ensure the</text>
	<text transform="matrix(1 0 0 1 1289 1989)" class="st4 st3">design is preserved when submitting to Xcode.</text>
	<text id="template-version" transform="matrix(1 0 0 1 2958.8496 1933)" class="st4 st3">Template v.1.0</text>
	<text transform="matrix(1 0 0 1 2901.2637 1951)" class="st4 st3">Generated from house.fill</text>
	<text transform="matrix(1 0 0 1 2921.9238 1969)" class="st4 st3">Typeset at 100 points</text>
	<text transform="matrix(1 0 0 1 263 726)" class="st4 st3">Small</text>
	<text transform="matrix(1 0 0 1 263 1156)" class="st4 st3">Medium</text>
	<text transform="matrix(1 0 0 1 263 1586)" class="st4 st3">Large</text>
</g>
<g id="Guides">
	<g id="H-reference" transform="matrix(1 0 0 1 339 696)">
		<path class="st6" d="M54.9,0h2.7L30.6-70.5h-2.5L1,0h2.7l9.3-24.5h32.8L54.9,0z M29.2-67.1h0.2l15.4,40.4h-31L29.2-67.1z"/>
	</g>
	<line id="Baseline-S" class="st7" x1="263" y1="696" x2="3036" y2="696"/>
	<line id="Capline-S" class="st7" x1="263" y1="625.5" x2="3036" y2="625.5"/>
	<g id="H-reference_1_" transform="matrix(1 0 0 1 339 1126)">
		<path class="st6" d="M54.9,0h2.7L30.6-70.5h-2.5L1,0h2.7l9.3-24.5h32.8L54.9,0z M29.2-67.1h0.2l15.4,40.4h-31L29.2-67.1z"/>
	</g>
	<line id="Baseline-M" class="st7" x1="263" y1="1126" x2="3036" y2="1126"/>
	<line id="Capline-M" class="st7" x1="263" y1="1055.5" x2="3036" y2="1055.5"/>
	<g id="H-reference_2_" transform="matrix(1 0 0 1 339 1556)">
		<path class="st6" d="M54.9,0h2.7L30.6-70.5h-2.5L1,0h2.7l9.3-24.5h32.8L54.9,0z M29.2-67.1h0.2l15.4,40.4h-31L29.2-67.1z"/>
	</g>
	<line id="Baseline-L" class="st7" x1="263" y1="1556" x2="3036" y2="1556"/>
	<line id="Capline-L" class="st7" x1="263" y1="1485.5" x2="3036" y2="1485.5"/>
	<rect id="left-margin" x="1380.4" y="1030.8" class="st5" width="12.5" height="119.3"/>
	<rect id="right-margin" x="1506.9" y="1030.8" class="st5" width="12.5" height="119.3"/>
</g>
<g id="Symbols">
	<g id="Black-L" transform="matrix(1 0 0 1 2831.86 1556)">
		<path d="M130.4-96.2l-15.7-14.3c-4.1-3.7-8.3-5.5-13.2-5.5c-4.8,0-9.1,1.9-13.1,5.5L19.9-48c-3.2,2.9-3.8,5.6-3.8,8.3
			c0,5.3,4.3,9.5,10.1,9.5c3,0,5.7-1.2,7.9-3.2l66.4-60.9c0.3-0.3,0.6-0.5,1.1-0.5c0.4,0,0.9,0.1,1.2,0.4l66.4,61
			c2.2,2,4.9,3.2,7.9,3.2c5.8,0,10.1-4.2,10.1-9.5c0-2.7-0.6-5.3-3.8-8.3l-26.1-23.8L130.4-96.2z M42.8,13.6
			c0,10.2,7.1,16.7,18.1,16.7h23.3v-47.5c0-3.1,2.1-5.2,5.2-5.2h24.4c3.1,0,5.1,2.1,5.1,5.2v47.5h23.4c11,0,18.1-6.6,18.1-16.7
			v-43.9l-57.7-52.8c-0.3-0.3-0.7-0.5-1.1-0.5c-0.4,0-0.8,0.1-1.2,0.5L42.8-30.3V13.6z"/>
	</g>
	<g id="Heavy-L" transform="matrix(1 0 0 1 2538.25 1556)">
		<path d="M128.6-91.7l-18.5-16.9c-3.6-3.3-7.5-4.8-11.8-4.8c-4.2,0-8.2,1.6-11.7,4.8L19.4-47.1c-2.7,2.4-3.3,4.7-3.3,7.1
			c0,4.6,3.8,8.2,8.8,8.2c2.6,0,5-1.1,6.9-2.9L97-94.4c0.4-0.4,0.8-0.6,1.4-0.6c0.5,0,1,0.1,1.5,0.5l65.2,59.9
			c1.9,1.8,4.2,2.9,6.9,2.9c5,0,8.8-3.6,8.8-8.2c0-2.4-0.6-4.7-3.3-7.1l-24.8-22.7L128.6-91.7z M40.6,13.4c0,9.7,6.6,15.9,16.9,15.9
			h23.9v-46.8c0-3,2.1-5,5.1-5h23.9c3,0,5,2,5,5v46.8h24c10.4,0,16.9-6.2,16.9-15.9v-45L99.9-83c-0.4-0.4-0.9-0.6-1.4-0.6
			c-0.5,0-1,0.2-1.5,0.7L40.6-31.4V13.4z"/>
	</g>
	<g id="Bold-L" transform="matrix(1 0 0 1 2245.01 1556)">
		<path d="M126.7-86.5l-21.6-19.8c-3.1-2.8-6.4-4.2-10.2-4.2c-3.7,0-7,1.4-10.1,4.2L18.8-46c-2.1,2-2.7,3.8-2.7,5.9
			c0,3.9,3.2,6.8,7.3,6.8c2.2,0,4.2-1,5.9-2.5l64-58.5c0.5-0.5,1.1-0.7,1.8-0.7c0.6,0,1.2,0.2,1.8,0.7l63.9,58.5
			c1.7,1.5,3.6,2.5,5.9,2.5c4.2,0,7.3-2.9,7.3-6.8c0-2.1-0.6-4-2.7-5.9l-23.4-21.4L126.7-86.5z M38.1,13.2c0,9.2,6.1,14.9,15.7,14.9
			h24.6v-46.1c0-2.9,2-4.8,4.9-4.8h23.5c2.9,0,4.8,1.9,4.8,4.8v46.1h24.6c9.7,0,15.7-5.8,15.7-14.9v-46.1l-55.1-50
			c-0.5-0.5-1.2-0.8-1.8-0.8c-0.6,0-1.3,0.2-1.9,0.8l-55,50.2V13.2z"/>
	</g>
	<g id="Semibold-L" transform="matrix(1 0 0 1 1950.69 1556)">
		<path d="M125.4-83l-23.8-21.7c-2.7-2.5-5.8-3.8-9-3.8c-3.2,0-6.3,1.3-8.9,3.8L18.4-45.3c-1.7,1.6-2.3,3.1-2.3,5.1
			c0,3.4,2.7,5.8,6.3,5.8c2,0,3.7-0.9,5.1-2.2l63.1-57.7c0.6-0.6,1.3-0.9,2-0.9c0.7,0,1.4,0.3,2.1,0.9l63,57.7
			c1.5,1.4,3.1,2.2,5.1,2.2c3.6,0,6.3-2.4,6.3-5.8c0-2-0.6-3.5-2.3-5.1l-22.6-20.6L125.4-83z M36.4,13c0,8.9,5.7,14.3,14.9,14.3h25
			v-45.6c0-2.9,1.9-4.7,4.8-4.7h23.1c2.9,0,4.7,1.8,4.7,4.7v45.6h25c9.2,0,14.8-5.4,14.8-14.3v-46.9l-54.2-49
			c-0.7-0.6-1.4-0.9-2.1-0.9s-1.4,0.3-2.1,0.9l-54,49.4V13z"/>
	</g>
	<g id="Medium-L" transform="matrix(1 0 0 1 1655.78 1556)">
		<path d="M124.4-80.3l-25.4-23.2c-2.4-2.3-5.3-3.4-8.2-3.4c-2.9,0-5.7,1.1-8.1,3.4L18.1-44.7c-1.4,1.3-2,2.6-2,4.4c0,3,2.4,5,5.5,5
			c1.8,0,3.3-0.8,4.6-2.1l62.5-57c0.7-0.7,1.4-1,2.1-1c0.8,0,1.5,0.3,2.2,0.9l62.4,57c1.3,1.2,2.8,2.1,4.6,2.1c3.1,0,5.5-2.1,5.5-5
			c0-1.8-0.6-3.1-2-4.4l-21.8-19.9L124.4-80.3z M35.1,12.9c0,8.6,5.4,13.8,14.2,13.8h25.3v-45.2c0-2.8,1.9-4.6,4.7-4.6h22.9
			c2.8,0,4.6,1.8,4.6,4.6v45.2h25.3c8.8,0,14.2-5.2,14.2-13.8v-47.5L92.9-82.8c-0.7-0.6-1.5-1-2.2-1c-0.8,0-1.6,0.3-2.3,1L35.1-34.1
			V12.9z"/>
	</g>
	<g id="Regular-L" transform="matrix(1 0 0 1 1361.44 1556)">
		<path d="M123-76.8l-27.6-25.2c-2.1-2-4.6-2.9-7.1-2.9c-2.5,0-4.9,1-7,2.9L17.7-43.9c-1,0.9-1.6,2-1.6,3.6c0,2.5,2,4.1,4.5,4.1
			c1.6,0,2.8-0.7,3.9-1.8L86-94.3c0.7-0.7,1.6-1,2.4-1c0.8,0,1.6,0.3,2.4,1l61.5,56.2c1.1,1.1,2.3,1.8,3.9,1.8
			c2.5,0,4.5-1.6,4.5-4.1c0-1.6-0.6-2.6-1.6-3.6l-20.9-19L123-76.8z M33.4,12.8c0,8.3,5,13.2,13.4,13.2h25.8v-44.7
			c0-2.7,1.8-4.5,4.5-4.5h22.6c2.7,0,4.5,1.8,4.5,4.5V26H130c8.4,0,13.4-4.9,13.4-13.2v-48.3L90.8-82.7c-0.8-0.8-1.7-1.1-2.5-1.1
			c-0.9,0-1.7,0.3-2.5,1.2L33.4-34.9V12.8z"/>
	</g>
	<g id="Light-L" transform="matrix(1 0 0 1 1066.44 1556)">
		<path d="M124.3-71.6l-31.2-28.6c-1.9-1.8-4.2-2.6-6.4-2.6c-2.2,0-4.4,0.9-6.3,2.6l-63,57.6c-0.8,0.7-1.2,1.5-1.2,2.7
			c0,1.8,1.5,3,3.4,3c1.2,0,2.1-0.6,3-1.4l61.7-56.3c0.9-0.8,1.8-1.1,2.7-1.1c0.9,0,1.8,0.4,2.6,1.1L151-38.2
			c0.8,0.8,1.7,1.4,2.9,1.4c1.9,0,3.4-1.2,3.4-3c0-1.2-0.4-2-1.2-2.7l-19.7-17.9L124.3-71.6z M32.5,13.8c0,7.7,4.6,12.2,12.4,12.2
			H71v-44.6c0-2.5,1.7-4.1,4.2-4.1h23.2c2.5,0,4.1,1.6,4.1,4.1V26h26.1c7.8,0,12.4-4.5,12.4-12.2v-51.3L89.6-83.3
			c-1-0.9-2.1-1.4-3-1.4c-1,0-2,0.4-3,1.4l-51,46.8V13.8z"/>
	</g>
	<g id="Thin-L" transform="matrix(1 0 0 1 771.974 1556)">
		<path d="M125.9-64.7l-35.9-33c-1.7-1.5-3.6-2.3-5.6-2.3c-1.9,0-3.7,0.8-5.4,2.3l-62.3,57c-0.5,0.4-0.7,0.9-0.7,1.6
			c0,1,0.7,1.7,1.9,1.7c0.8,0,1.3-0.3,1.8-0.8l61.9-56.5c1-0.9,2-1.3,3-1.3c1,0,2,0.5,2.8,1.3l61.9,56.5c0.5,0.5,0.9,0.8,1.8,0.8
			c1.1,0,1.9-0.7,1.9-1.7c0-0.7-0.2-1.1-0.7-1.6l-18-16.5L125.9-64.7z M31.3,15c0,6.9,4.1,11,11,11h26.7v-44.4
			c0-2.2,1.4-3.6,3.6-3.6h23.9c2.1,0,3.6,1.4,3.6,3.6V26h26.7c6.9,0,11-4.1,11-11v-55.2l-49.8-44c-1.3-1.2-2.5-1.7-3.7-1.7
			c-1.2,0-2.4,0.5-3.7,1.7L31.3-38.6V15z"/>
	</g>
	<g id="Ultralight-L" transform="matrix(1 0 0 1 476.41 1556)">
		<path d="M126.7-61.2L88.3-96.5c-1.6-1.4-3.3-2.1-5.1-2.1c-1.7,0-3.4,0.7-4.9,2.1L16.5-39.8c-0.3,0.3-0.4,0.6-0.4,1
			c0,0.5,0.4,1,1.1,1c0.6,0,0.8-0.3,1.2-0.6l62-56.6c1-0.9,2.1-1.3,3.1-1.3c1,0,2.1,0.5,2.9,1.3l62,56.6c0.3,0.3,0.5,0.6,1.1,0.6
			c0.7,0,1.1-0.5,1.1-1c0-0.4-0.1-0.7-0.4-1L133-55.5L126.7-61.2z M30.7,15.7c0,6.4,3.8,10.3,10.3,10.3h26.9v-44.3
			c0-2,1.3-3.3,3.3-3.3h24.3c2,0,3.3,1.3,3.3,3.3V26h26.9c6.4,0,10.3-3.9,10.3-10.3v-57.2L87.1-84.6c-1.4-1.3-2.7-1.9-4-1.9
			c-1.4,0-2.7,0.6-4.1,1.9L30.7-39.7V15.7z"/>
	</g>
	<g id="Black-M" transform="matrix(1 0 0 1 2851.44 1126)">
		<path d="M104-85.9l-10.3-9.4c-3.7-3.3-7.4-4.9-11.9-4.9c-4.3,0-8.1,1.6-11.7,4.9L15.9-45.7c-3.1,2.8-3.5,5.2-3.5,7.4
			c0,4.6,3.9,8.5,9,8.5c2.6,0,5-1,6.9-2.7l53-48.8c0.1-0.1,0.3-0.2,0.6-0.2c0.1,0,0.5,0.1,0.6,0.2l53,48.9c1.9,1.8,4.3,2.7,6.9,2.7
			c5.2,0,9-3.9,9-8.5c0-2.2-0.3-4.6-3.5-7.4L126.9-65L104-85.9z M35.6,3.5c0,8.1,6,13.6,14.9,13.6h17.5v-37.6c0-2.4,1.7-4,4.1-4
			h19.7c2.4,0,4,1.6,4,4V17h17.6c8.9,0,14.9-5.5,14.9-13.6v-34.2l-45.6-42C82.5-72.9,82.3-73,82-73c-0.3,0-0.5,0.1-0.7,0.3l-45.7,42
			V3.5z"/>
	</g>
	<g id="Heavy-M" transform="matrix(1 0 0 1 2557.69 1126)">
		<path d="M101.8-82.2L89.4-93.6c-3.2-2.9-6.6-4.3-10.4-4.3c-3.8,0-7.2,1.4-10.3,4.3L15.4-45c-2.6,2.3-3,4.4-3,6.4
			c0,4.1,3.4,7.4,7.9,7.4c2.3,0,4.4-0.9,6.1-2.5l51.8-47.5c0.2-0.2,0.5-0.4,0.8-0.4c0.3,0,0.7,0.1,0.9,0.3l51.8,47.6
			c1.7,1.6,3.8,2.5,6.1,2.5c4.5,0,7.9-3.3,7.9-7.4c0-2.1-0.4-4.1-3-6.4l-20.1-18.4L101.8-82.2z M33.5,3c0,7.8,5.5,12.9,14,12.9h18.1
			V-21c0-2.4,1.6-3.9,4-3.9h19.1c2.4,0,3.9,1.5,3.9,3.9v36.9h18.1c8.4,0,14-5.1,14-12.9v-34.6L79.9-72.5c-0.2-0.2-0.6-0.4-0.9-0.4
			c-0.4,0-0.7,0.1-1,0.4l-44.6,41V3z"/>
	</g>
	<g id="Bold-M" transform="matrix(1 0 0 1 2264.25 1126)">
		<path d="M99.3-78.2L84.5-91.7c-2.7-2.4-5.6-3.7-8.8-3.7c-3.2,0-6.1,1.2-8.8,3.7l-52,47.5c-2,1.8-2.4,3.5-2.4,5.3
			c0,3.5,2.8,6.2,6.6,6.2c2,0,3.7-0.9,5.2-2.2l50.3-46.1c0.3-0.3,0.7-0.5,1.2-0.5c0.4,0,0.8,0.1,1.2,0.5L127.2-35
			c1.4,1.3,3.2,2.2,5.2,2.2c3.7,0,6.6-2.6,6.6-6.2c0-1.9-0.5-3.5-2.5-5.3l-19-17.4L99.3-78.2z M31.1,2.4c0,7.4,5,12.2,12.9,12.2
			h18.7v-36.1c0-2.3,1.5-3.9,3.9-3.9H85c2.3,0,3.8,1.5,3.8,3.9v36.1h18.7c7.9,0,12.9-4.7,12.9-12.2v-35L76.9-72.2
			c-0.4-0.3-0.8-0.5-1.2-0.5c-0.4,0-0.9,0.2-1.2,0.5L31.1-32.4V2.4z"/>
	</g>
	<g id="Semibold-M" transform="matrix(1 0 0 1 1969.83 1126)">
		<path d="M97.7-75.3l-16.5-15c-2.3-2.1-5-3.2-7.8-3.2s-5.4,1-7.7,3.2L14.6-43.7c-1.6,1.5-2.1,2.8-2.1,4.5c0,3.1,2.5,5.3,5.7,5.3
			c1.8,0,3.3-0.8,4.5-2L72.1-81c0.4-0.4,0.9-0.6,1.4-0.6s1,0.1,1.4,0.6l49.3,45.1c1.3,1.2,2.8,2,4.6,2c3.2,0,5.7-2.2,5.7-5.3
			c0-1.7-0.5-3.1-2.1-4.5l-18.2-16.7L97.7-75.3z M29.3,2.1c0,7.2,4.7,11.7,12.2,11.7h19.1v-35.6c0-2.3,1.5-3.8,3.9-3.8h18
			c2.3,0,3.8,1.5,3.8,3.8v35.6h19c7.6,0,12.3-4.4,12.3-11.7v-35.3L74.8-72c-0.4-0.4-0.9-0.6-1.4-0.6c-0.4,0-0.9,0.2-1.4,0.6L29.3-33
			V2.1z"/>
	</g>
	<g id="Medium-M" transform="matrix(1 0 0 1 1674.83 1126)">
		<path d="M96.3-73.2L78.7-89.4c-2.1-2-4.4-2.9-6.9-2.9c-2.5,0-4.8,1-6.9,2.9l-50.5,46c-1.3,1.2-1.8,2.4-1.8,4c0,2.7,2.2,4.6,5,4.6
			c1.6,0,2.9-0.7,4.1-1.9L70.2-81c0.5-0.4,1-0.6,1.5-0.6s1.1,0.2,1.6,0.6l48.6,44.4c1.1,1.1,2.5,1.9,4.1,1.9c2.8,0,5-1.9,5-4.6
			c0-1.6-0.5-2.8-1.8-4l-17.7-16.1L96.3-73.2z M28.1,1.8c0,7,4.4,11.2,11.7,11.2h19.4v-35.2c0-2.3,1.5-3.8,3.8-3.8h17.7
			c2.3,0,3.8,1.5,3.8,3.8V13h19.3c7.3,0,11.7-4.2,11.7-11.2v-35.5L73.1-71.9c-0.4-0.4-1-0.6-1.5-0.6c-0.5,0-1,0.2-1.5,0.7L28.1-33.5
			V1.8z"/>
	</g>
	<g id="Regular-M" transform="matrix(1 0 0 1 1380.36 1126)">
		<path d="M94.7-70.4L75.3-88.1c-1.8-1.6-3.8-2.4-5.9-2.4c-2.1,0-4.1,0.8-5.9,2.4L13.9-42.8c-0.9,0.8-1.5,1.8-1.5,3.2
			c0,2.3,1.9,3.8,4.2,3.8c1.4,0,2.5-0.7,3.5-1.7l47.7-43.4c0.5-0.5,1.1-0.7,1.7-0.7c0.6,0,1.2,0.2,1.8,0.7l47.6,43.4
			c1,1,2.1,1.7,3.5,1.7c2.3,0,4.2-1.4,4.2-3.8c0-1.5-0.6-2.4-1.5-3.2l-16.9-15.4L94.7-70.4z M26.4,1.4c0,6.8,4.1,10.7,11,10.7h19.8
			v-34.7c0-2.2,1.5-3.7,3.7-3.7h17.2c2.3,0,3.7,1.5,3.7,3.7v34.7h19.7c6.9,0,11-4,11-10.7v-35.7L71-71.7c-0.5-0.5-1.1-0.7-1.7-0.7
			c-0.5,0-1.1,0.2-1.7,0.8L26.4-34.1V1.4z"/>
	</g>
	<g id="Light-M" transform="matrix(1 0 0 1 1085.19 1126)">
		<path d="M95.8-65.8L73.2-86.4c-1.6-1.4-3.4-2.1-5.3-2.1c-1.8,0-3.7,0.7-5.2,2.1L13.6-41.6c-0.7,0.7-1.1,1.4-1.1,2.5
			c0,1.7,1.4,2.8,3.1,2.8c1.1,0,2-0.5,2.7-1.3L66-81.1c0.6-0.6,1.3-0.8,2-0.8c0.7,0,1.3,0.3,2,0.8l47.7,43.6
			c0.8,0.7,1.6,1.3,2.7,1.3c1.7,0,3.1-1.1,3.1-2.8c0-1.1-0.4-1.8-1.1-2.5L106.6-56L95.8-65.8z M25.6,2.3c0,6.3,3.8,9.9,10.1,9.9
			h20.1v-34.6c0-2.1,1.4-3.4,3.4-3.4h17.7c2.1,0,3.4,1.3,3.4,3.4v34.6h20.1c6.3,0,10-3.7,10-9.9v-38.4L70-72.3
			c-0.7-0.6-1.5-0.9-2.1-0.9c-0.7,0-1.4,0.3-2.1,1L25.6-35.5V2.3z"/>
	</g>
	<g id="Thin-M" transform="matrix(1 0 0 1 790.48 1126)">
		<path d="M97.2-59.6L70.4-84.2C69-85.4,67.4-86,65.9-86c-1.5,0-3,0.6-4.3,1.8L13.1-39.9c-0.4,0.4-0.6,0.8-0.6,1.5
			c0,0.9,0.7,1.6,1.8,1.6c0.7,0,1.2-0.3,1.6-0.8l47.9-43.7c0.7-0.7,1.5-1,2.2-1c0.7,0,1.5,0.3,2.1,1L116-37.6
			c0.5,0.4,0.9,0.8,1.7,0.8c1,0,1.8-0.7,1.8-1.6c0-0.6-0.2-1-0.6-1.5L104.5-53L97.2-59.6z M24.5,3.5c0,5.5,3.3,8.7,8.8,8.7h20.6
			v-34.4c0-1.8,1.1-2.9,2.9-2.9h18.4c1.8,0,2.9,1.1,2.9,2.9v34.4h20.6c5.5,0,8.8-3.2,8.8-8.7v-41.9L68.5-73c-1-0.8-1.9-1.2-2.7-1.2
			c-0.9,0-1.8,0.4-2.7,1.2L24.5-37.4V3.5z"/>
	</g>
	<g id="Ultralight-M" transform="matrix(1 0 0 1 494.794 1126)">
		<path d="M97.9-56.4l-29-26.7c-1.3-1.1-2.7-1.7-4.1-1.7c-1.4,0-2.7,0.5-4,1.7l-48,44c-0.3,0.3-0.4,0.5-0.4,1c0,0.5,0.4,1,1.1,1
			c0.5,0,0.8-0.2,1.1-0.5l48-43.8c0.7-0.7,1.6-1,2.4-1c0.7,0,1.6,0.4,2.2,1l48,43.8c0.3,0.3,0.5,0.5,1.1,0.5c0.6,0,1.1-0.4,1.1-1
			c0-0.4-0.1-0.7-0.4-1l-13.5-12.4L97.9-56.4z M23.9,4.1c0,5.1,3,8.2,8.2,8.2h20.8v-34.3c0-1.6,1.1-2.6,2.7-2.6h18.7
			c1.6,0,2.6,1,2.6,2.6v34.3h20.8c5.1,0,8.2-3,8.2-8.2v-43.7L67.7-73.4c-1.1-0.9-2.1-1.4-3-1.4c-1,0-2,0.4-3,1.4l-37.8,35V4.1z"/>
	</g>
	<g id="Black-S" transform="matrix(1 0 0 1 2869.39 696)">
		<path d="M81.3-74.7l-8.2-7.5C70.3-84.8,67.4-86,64-86c-3.4,0-6.3,1.3-9.1,3.8L12.5-43.4c-2.4,2.1-2.7,4-2.7,5.8c0,3.6,3,6.6,7,6.6
			c2,0,3.9-0.8,5.3-2.1l41.5-38.1c0.1-0.1,0.2-0.2,0.5-0.2c0.1,0,0.4,0,0.5,0.1L106-33.2c1.5,1.4,3.3,2.1,5.3,2.1c4,0,7-3,7-6.6
			c0-1.8-0.3-3.6-2.7-5.8L99.1-58.5L81.3-74.7z M27.8-5c0,6.3,4.6,10.6,11.6,10.6h13.8v-29.4c0-1.9,1.3-3.1,3.2-3.1h15.4
			c1.9,0,3.1,1.2,3.1,3.1V5.6h13.8c7,0,11.6-4.2,11.6-10.6v-26.8L64.6-64.6c-0.1-0.1-0.3-0.2-0.5-0.2c-0.2,0-0.4,0.1-0.6,0.2
			L27.8-31.8V-5z"/>
	</g>
	<g id="Heavy-S" transform="matrix(1 0 0 1 2574.75 696)">
		<path d="M79.5-72.4l-9.4-8.6c-2.5-2.3-5.2-3.4-8.2-3.4c-3,0-5.7,1.1-8.1,3.4L12.1-43c-2,1.8-2.3,3.4-2.3,5.1
			c0,3.3,2.7,5.9,6.2,5.9c1.9,0,3.5-0.8,4.8-2l40.5-37.2c0.1-0.1,0.3-0.3,0.6-0.3c0.2,0,0.5,0.1,0.7,0.2l40.5,37.2
			c1.3,1.2,3,2,4.8,2c3.6,0,6.3-2.6,6.3-5.9c0-1.7-0.3-3.3-2.4-5.1L95.8-57.5L79.5-72.4z M26.2-5.4c0,6.2,4.3,10.2,11,10.2h14.2
			v-28.9c0-1.9,1.3-3.1,3.2-3.1h14.8c1.9,0,3.1,1.2,3.1,3.1V4.7h14.2c6.7,0,11-4,11-10.2v-26.8L62.6-64.4c-0.2-0.2-0.4-0.3-0.7-0.3
			c-0.3,0-0.5,0.1-0.7,0.3l-35,32.1V-5.4z"/>
	</g>
	<g id="Bold-S" transform="matrix(1 0 0 1 2280.38 696)">
		<path d="M77.5-69.9l-10.9-9.9c-2.1-2-4.4-2.9-7-2.9c-2.5,0-4.9,1-7,2.9L11.8-42.6c-1.6,1.5-2,2.8-2,4.3c0,2.8,2.3,5,5.4,5
			c1.6,0,3-0.7,4.2-1.8l39.4-36c0.2-0.2,0.5-0.4,0.9-0.4c0.3,0,0.6,0.1,0.9,0.3l39.4,36.1c1.2,1.1,2.6,1.8,4.2,1.8
			c3,0,5.4-2.1,5.4-5c0-1.6-0.4-2.9-2-4.3L92.3-56.4L77.5-69.9z M24.5-6c0,6,4,9.7,10.3,9.7h14.6v-28.3c0-1.9,1.3-3.1,3.2-3.1h14.3
			c1.9,0,3.1,1.2,3.1,3.1V3.8h14.6C90.8,3.8,94.8,0,94.8-6v-26.8L60.4-64.1c-0.2-0.2-0.5-0.3-0.8-0.3c-0.3,0-0.6,0.1-0.9,0.4
			L24.5-32.7V-6z"/>
	</g>
	<g id="Semibold-S" transform="matrix(1 0 0 1 1985.28 696)">
		<path d="M76.1-68.1L64.2-79c-1.9-1.7-4-2.6-6.3-2.6c-2.2,0-4.3,0.9-6.2,2.6L11.5-42.3c-1.3,1.2-1.8,2.4-1.8,3.8
			c0,2.6,2.1,4.4,4.8,4.4c1.5,0,2.7-0.6,3.8-1.7L57-71c0.3-0.3,0.6-0.4,1-0.4c0.3,0,0.7,0.1,1,0.4l38.6,35.3c1.1,1,2.3,1.7,3.9,1.7
			c2.6,0,4.7-1.8,4.7-4.4c0-1.4-0.4-2.6-1.8-3.8L89.8-55.6L76.1-68.1z M23.2-6.3c0,5.8,3.8,9.4,9.9,9.4h14.8v-27.9
			c0-1.9,1.2-3.1,3.1-3.1H65c1.9,0,3.1,1.2,3.1,3.1V3.1h14.8c6.1,0,9.9-3.6,9.9-9.4v-26.8L58.9-63.9c-0.2-0.2-0.6-0.4-0.9-0.4
			c-0.3,0-0.6,0.1-0.9,0.4L23.2-33.1V-6.3z"/>
	</g>
	<g id="Medium-S" transform="matrix(1 0 0 1 1689.79 696)">
		<path d="M75-66.8L62.4-78.3c-1.7-1.6-3.6-2.3-5.7-2.3c-2,0-4,0.8-5.6,2.3L11.3-42c-1.1,1-1.6,2-1.6,3.4c0,2.4,1.9,4,4.3,4
			c1.4,0,2.5-0.6,3.5-1.6l38-34.7c0.3-0.3,0.7-0.5,1.1-0.5c0.4,0,0.7,0.1,1.1,0.5l38,34.7c1,0.9,2.2,1.6,3.6,1.6
			c2.4,0,4.3-1.6,4.3-4c0-1.4-0.4-2.4-1.6-3.4L87.9-55L75-66.8z M22.3-6.6c0,5.7,3.6,9.2,9.5,9.2h15v-27.7c0-1.9,1.2-3.1,3.1-3.1
			h13.6c1.9,0,3.1,1.2,3.1,3.1V2.6h15c5.9,0,9.5-3.5,9.5-9.2v-26.8L57.7-63.7c-0.3-0.3-0.6-0.4-1-0.4s-0.7,0.1-1,0.5L22.3-33.3V-6.6
			z"/>
	</g>
	<g id="Regular-S" transform="matrix(1 0 0 1 1394.67 696)">
		<path d="M73.6-65L60.1-77.4c-1.4-1.3-3.2-2-4.9-2s-3.4,0.7-4.9,2L11.1-41.7c-0.8,0.7-1.3,1.6-1.3,2.9c0,2.1,1.7,3.4,3.8,3.4
			c1.2,0,2.2-0.6,3.1-1.5l37.3-34c0.4-0.4,0.8-0.5,1.2-0.5c0.4,0,0.9,0.1,1.3,0.5l37.2,34c0.9,0.8,1.9,1.5,3.2,1.5
			c2.1,0,3.7-1.3,3.7-3.4c0-1.3-0.5-2.2-1.3-2.9L85.5-54.3L73.6-65z M21.1-6.9c0,5.6,3.4,8.8,9,8.8h15.3v-27.3c0-1.9,1.3-3,3.1-3
			h13.3c1.9,0,3.1,1.2,3.1,3V1.9h15.3c5.7,0,9-3.3,9-8.8v-26.8L56.2-63.5c-0.3-0.3-0.7-0.4-1.1-0.4s-0.7,0.1-1.1,0.5l-33,29.8V-6.9z
			"/>
	</g>
	<g id="Light-S" transform="matrix(1 0 0 1 1099.3 696)">
		<path d="M74.6-60.9L58.2-76c-1.3-1.2-2.8-1.8-4.3-1.8c-1.5,0-3,0.6-4.3,1.8L10.8-40.7c-0.6,0.6-1,1.3-1,2.2c0,1.6,1.3,2.6,2.8,2.6
			c1,0,1.8-0.5,2.4-1.1L52.4-71c0.5-0.4,0.9-0.6,1.5-0.6c0.5,0,1,0.2,1.4,0.6L92.6-37c0.7,0.6,1.5,1.1,2.4,1.1c1.6,0,2.8-1,2.8-2.6
			c0-1-0.4-1.6-1-2.2L84.1-52.3L74.6-60.9z M20.4-6.2c0,5.1,3.1,8.1,8.3,8.1h15.6v-27.1c0-1.7,1.1-2.7,2.8-2.7h13.7
			c1.7,0,2.8,1.1,2.8,2.7V1.9h15.6c5.2,0,8.3-3,8.3-8.1v-29.1L55.2-64c-0.5-0.4-1-0.7-1.5-0.7c-0.5,0-1,0.2-1.5,0.7L20.4-34.9V-6.2z
			"/>
	</g>
	<g id="Thin-S" transform="matrix(1 0 0 1 804.371 696)">
		<path d="M75.9-55.5L55.7-74c-1.1-1-2.3-1.5-3.7-1.5c-1.2,0-2.5,0.5-3.6,1.5L10.4-39.2c-0.4,0.4-0.6,0.7-0.6,1.4
			c0,0.9,0.7,1.5,1.7,1.5c0.6,0,1-0.3,1.5-0.7l37.5-34.2c0.5-0.5,1.1-0.7,1.7-0.7c0.5,0,1.1,0.3,1.6,0.7l37.5,34.2
			c0.4,0.4,0.8,0.7,1.5,0.7c0.9,0,1.6-0.6,1.6-1.5c0-0.6-0.2-1-0.6-1.4L82.3-49.7L75.9-55.5z M19.4-5.1c0,4.4,2.6,7.1,7.1,7.1h16
			v-27c0-1.5,0.9-2.4,2.3-2.4h14.3c1.4,0,2.3,0.9,2.3,2.4V2h16c4.4,0,7.1-2.6,7.1-7.1v-32.2L54-64.6c-0.7-0.6-1.4-0.9-2-0.9
			c-0.7,0-1.4,0.3-2.1,0.9L19.4-36.6V-5.1z"/>
	</g>
	<g id="Ultralight-S" transform="matrix(1 0 0 1 508.564 696)">
		<path d="M76.6-52.7L54.4-73c-1-0.9-2.1-1.3-3.3-1.3c-1.1,0-2.2,0.4-3.2,1.3L10.2-38.5c-0.3,0.3-0.4,0.5-0.4,0.9
			c0,0.5,0.4,0.9,1,0.9c0.5,0,0.7-0.2,1-0.5l37.6-34.3c0.6-0.5,1.2-0.8,1.8-0.8c0.6,0,1.2,0.3,1.8,0.8l37.5,34.3
			c0.3,0.3,0.5,0.5,1,0.5c0.6,0,1-0.4,1-0.9c0-0.4-0.1-0.6-0.4-0.9l-10.8-9.9L76.6-52.7z M18.9-4.6c0,4.1,2.4,6.5,6.6,6.5h16.2V-25
			c0-1.3,0.8-2.1,2.1-2.1h14.6c1.3,0,2.1,0.8,2.1,2.1V2h16.2c4.1,0,6.5-2.4,6.5-6.5v-33.8L53.3-65c-0.8-0.7-1.6-1.1-2.3-1.1
			c-0.7,0-1.5,0.3-2.2,1.1L18.9-37.5V-4.6z"/>
	</g>
</g>
</svg>
