<?xml version="1.0" encoding="utf-8"?>
<!-- Generator: Adobe Illustrator 24.1.3, SVG Export Plug-In . SVG Version: 6.00 Build 0)  -->
<svg version="1.1" id="Capa_1" xmlns="http://www.w3.org/2000/svg" xmlns:xlink="http://www.w3.org/1999/xlink" x="0px" y="0px"
	 viewBox="0 0 3300 2200" style="enable-background:new 0 0 3300 2200;" xml:space="preserve">
<style type="text/css">
	.st0{fill:#FFFFFF;}
	.st1{fill:none;stroke:#000000;stroke-width:0.5;}
	.st2{font-family:'Arial-BoldMT';}
	.st3{font-size:12px;}
	.st4{font-family:'ArialMT';}
	.st5{opacity:0.4;fill:#00AEEF;enable-background:new    ;}
	.st6{fill:#27AAE1;}
	.st7{fill:none;stroke:#27AAE1;stroke-width:0.577;}
</style>
<g id="Notes">
	<rect id="artboard" x="0" class="st0" width="3300" height="2200"/>
	<line class="st1" x1="242.2" y1="288.5" x2="3015.2" y2="288.5"/>
	<text transform="matrix(1 0 0 1 242.1613 318.5483)" class="st2 st3">Weight/Scale Variations</text>
	<text transform="matrix(1 0 0 1 515.1975 318.5483)" class="st4 st3">Ultralight</text>
	<text transform="matrix(1 0 0 1 823.9114 318.5483)" class="st4 st3">Thin</text>
	<text transform="matrix(1 0 0 1 1119.2805 318.5483)" class="st4 st3">Light</text>
	<text transform="matrix(1 0 0 1 1407.9895 318.5483)" class="st4 st3">Regular</text>
	<text transform="matrix(1 0 0 1 1704.3815 318.5483)" class="st4 st3">Medium</text>
	<text transform="matrix(1 0 0 1 1997.4177 318.5483)" class="st4 st3">Semibold</text>
	<text transform="matrix(1 0 0 1 2307.1323 318.5483)" class="st4 st3">Bold</text>
	<text transform="matrix(1 0 0 1 2598.8442 318.5483)" class="st4 st3">Heavy</text>
	<text transform="matrix(1 0 0 1 2897.8892 318.5483)" class="st4 st3">Black</text>
	<line class="st1" x1="242.2" y1="1899.5" x2="3015.2" y2="1899.5"/>
	<g transform="matrix(1 0 0 1 263 1933)">
		<path d="M-11.6-2.6c4.3,0,7.9-3.6,7.9-7.9c0-4.3-3.6-7.9-7.9-7.9c-4.3,0-7.9,3.6-7.9,7.9C-19.5-6.2-15.9-2.6-11.6-2.6z M-11.6-4.1
			c-3.5,0-6.4-2.8-6.4-6.4c0-3.6,2.8-6.4,6.4-6.4c3.6,0,6.4,2.8,6.4,6.4C-5.2-6.9-8-4.1-11.6-4.1z M-11.6-6.9c0.5,0,0.7-0.3,0.7-0.8
			v-2.1h2.2c0.5,0,0.8-0.3,0.8-0.7c0-0.5-0.3-0.7-0.8-0.7h-2.2v-2.2c0-0.5-0.3-0.8-0.7-0.8s-0.7,0.3-0.7,0.8v2.2h-2.2
			c-0.5,0-0.8,0.3-0.8,0.7c0,0.5,0.4,0.7,0.8,0.7h2.2v2.1C-12.3-7.2-12.1-6.9-11.6-6.9z"/>
	</g>
	<g transform="matrix(1 0 0 1 281.506 1933)">
		<path d="M-9.1-0.5c5.4,0,10-4.5,10-10c0-5.4-4.5-10-10-10c-5.4,0-10,4.5-10,10C-19.1-5.1-14.6-0.5-9.1-0.5z M-9.1-2.2
			c-4.6,0-8.3-3.7-8.3-8.3c0-4.6,3.7-8.3,8.3-8.3c4.6,0,8.3,3.7,8.3,8.3C-0.8-5.9-4.5-2.2-9.1-2.2z M-9.1-5.9c0.5,0,0.8-0.4,0.8-0.9
			v-2.9h3.1c0.5,0,0.9-0.3,0.9-0.8c0-0.5-0.4-0.8-0.9-0.8h-3.1v-3.1c0-0.6-0.3-0.9-0.8-0.9c-0.5,0-0.8,0.4-0.8,0.9v3.1h-3
			c-0.6,0-0.9,0.3-0.9,0.8c0,0.5,0.4,0.8,0.9,0.8h3v2.9C-10-6.2-9.7-5.9-9.1-5.9z"/>
	</g>
	<g transform="matrix(1 0 0 1 304.924 1933)">
		<path d="M-5.9,2.2c7,0,12.7-5.8,12.7-12.7c0-7-5.8-12.7-12.7-12.7c-7,0-12.7,5.8-12.7,12.7C-18.6-3.5-12.8,2.2-5.9,2.2z M-5.9,0.4
			c-6,0-10.9-4.9-10.9-10.9c0-6,4.8-10.9,10.9-10.9c6,0,10.9,4.9,10.9,10.9C5-4.5,0.2,0.4-5.9,0.4z M-5.9-4.5c0.6,0,0.9-0.4,0.9-1
			v-4.1h4.2c0.6,0,1-0.3,1-0.9c0-0.6-0.4-0.9-1-0.9H-5v-4.2c0-0.6-0.4-1-0.9-1c-0.6,0-0.9,0.4-0.9,1v4.2H-11c-0.6,0-1,0.3-1,0.9
			c0,0.6,0.4,0.9,1,0.9h4.2v4.1C-6.8-4.9-6.5-4.5-5.9-4.5z"/>
	</g>
	<text transform="matrix(1 0 0 1 242.1613 1949.5483)" class="st2 st3">Design Variations</text>
	<text transform="matrix(1 0 0 1 242.1613 1967.5483)" class="st4 st3">Symbols are supported in up to nine weights and three scales.</text>
	<text transform="matrix(1 0 0 1 242.1613 1985.5483)" class="st4 st3">For optimal layout with text and other symbols, vertically align</text>
	<text transform="matrix(1 0 0 1 242.1613 2003.5483)" class="st4 st3">symbols with the adjacent text.</text>
	<rect x="755.2" y="1915.5" class="st5" width="3" height="14"/>
	<g transform="matrix(1 0 0 1 779 1933)">
		<path d="M-10.3-3.5h1.8l-5.2-14.1h-1.7l-5.2,14.1h1.8l1.4-4h5.6L-10.3-3.5z M-14.6-15.4L-14.6-15.4l2.3,6.4h-4.6L-14.6-15.4z"/>
	</g>
	<rect x="770.8" y="1915.5" class="st5" width="3" height="14"/>
	<text transform="matrix(1 0 0 1 755.1613 1949.5483)" class="st2 st3">Margins</text>
	<text transform="matrix(1 0 0 1 755.1613 1967.5483)" class="st4 st3">Leading and trailing margins on the left and right side of each symbol</text>
	<text transform="matrix(1 0 0 1 755.1613 1985.5483)" class="st4 st3">can be adjusted by modifying the width of the blue rectangles.</text>
	<text transform="matrix(1 0 0 1 755.1613 2003.5483)" class="st4 st3">Modifications are automatically applied proportionally to all</text>
	<text transform="matrix(1 0 0 1 755.1613 2021.5483)" class="st4 st3">scales and weights.</text>
	<g transform="matrix(1 0 0 1 1289 1933)">
		<path d="M-18-0.3l1.5,1.5C-15.6,2-14.6,2-13.8,1l10.2-11.1c0.4,0.3,0.8,0.3,1.3,0.2l1-0.2l0.7,0.7l0,0.5C-0.7-8.4-0.5-8,0-7.5
			l0.8,0.8C1.3-6.2,2-6.1,2.5-6.6l3.3-3.3c0.5-0.5,0.5-1.1,0-1.6l-0.8-0.8c-0.5-0.5-0.9-0.7-1.4-0.6l-0.5,0.1l-0.7-0.7l0.3-1.1
			c0.1-0.6,0-1-0.6-1.6l-2.4-2.4c-3.5-3.5-8.1-3.4-11.2-0.3c-0.4,0.4-0.5,1-0.2,1.4c0.2,0.4,0.7,0.6,1.4,0.4c1.5-0.4,3-0.3,4.5,0.7
			l-0.6,1.6c-0.2,0.6-0.2,1.1,0,1.5L-17.8-3C-18.8-2.1-18.9-1.2-18-0.3z M-10.2-18.6c2.7-2,6-1.7,8.4,0.7l2.6,2.6
			C1.1-15,1.1-14.8,1-14.5L0.7-13l1.6,1.6l1-0.1c0.3,0,0.4,0,0.6,0.2l0.6,0.6L1.7-7.9L1-8.5C0.8-8.8,0.8-8.9,0.8-9.1l0.1-1l-1.6-1.6
			l-1.6,0.3c-0.3,0.1-0.4,0.1-0.7-0.2l-2.2-2.2c-0.2-0.2-0.3-0.4-0.1-0.7l0.9-2.3c-1.6-1.5-3.7-2.4-5.8-1.7c-0.1,0-0.2,0-0.2,0
			C-10.3-18.5-10.3-18.5-10.2-18.6z M-16.7-1c-0.5-0.5-0.3-0.8,0-1.1l11-10.1l1.2,1.2L-14.7-0.1c-0.3,0.3-0.7,0.4-1.1,0L-16.7-1z"/>
	</g>
	<text transform="matrix(1 0 0 1 1268.1613 1949.5483)" class="st2 st3">Exporting</text>
	<text transform="matrix(1 0 0 1 1268.1613 1967.5483)" class="st4 st3">Symbols should be outlined when exporting to ensure the</text>
	<text transform="matrix(1 0 0 1 1268.1613 1985.5483)" class="st4 st3">design is preserved when submitting to Xcode.</text>
	<text id="template-version" transform="matrix(1 0 0 1 2938.0107 1929.5483)" class="st4 st3">Template v.1.0</text>
	<text transform="matrix(1 0 0 1 2895.0908 1947.5483)" class="st4 st3">Generated from house</text>
	<text transform="matrix(1 0 0 1 2901.085 1965.5483)" class="st4 st3">Typeset at 100 points</text>
	<text transform="matrix(1 0 0 1 242.1613 722.5484)" class="st4 st3">Small</text>
	<text transform="matrix(1 0 0 1 242.1613 1152.5483)" class="st4 st3">Medium</text>
	<text transform="matrix(1 0 0 1 242.1613 1582.5483)" class="st4 st3">Large</text>
</g>
<g id="Guides">
	<g id="H-reference" transform="matrix(1 0 0 1 339 696)">
		<path class="st6" d="M54.9,0h2.7L30.6-70.5h-2.5L1,0h2.7l9.3-24.5h32.8L54.9,0z M29.2-67.1h0.2l15.4,40.4h-31L29.2-67.1z"/>
	</g>
	<line id="Baseline-S" class="st7" x1="263" y1="696" x2="3036" y2="696"/>
	<line id="Capline-S" class="st7" x1="263" y1="625.5" x2="3036" y2="625.5"/>
	<g id="H-reference_1_" transform="matrix(1 0 0 1 339 1126)">
		<path class="st6" d="M54.9,0h2.7L30.6-70.5h-2.5L1,0h2.7l9.3-24.5h32.8L54.9,0z M29.2-67.1h0.2l15.4,40.4h-31L29.2-67.1z"/>
	</g>
	<line id="Baseline-M" class="st7" x1="263" y1="1126" x2="3036" y2="1126"/>
	<line id="Capline-M" class="st7" x1="263" y1="1055.5" x2="3036" y2="1055.5"/>
	<g id="H-reference_2_" transform="matrix(1 0 0 1 339 1556)">
		<path class="st6" d="M54.9,0h2.7L30.6-70.5h-2.5L1,0h2.7l9.3-24.5h32.8L54.9,0z M29.2-67.1h0.2l15.4,40.4h-31L29.2-67.1z"/>
	</g>
	<line id="Baseline-L" class="st7" x1="263" y1="1556" x2="3036" y2="1556"/>
	<line id="Capline-L" class="st7" x1="263" y1="1485.5" x2="3036" y2="1485.5"/>
	<rect id="left-margin" x="1382.8" y="1030.8" class="st5" width="10" height="119.3"/>
	<rect id="right-margin" x="1506.9" y="1030.8" class="st5" width="10" height="119.3"/>
</g>
<g id="Symbols">
	<g id="Black-L" transform="matrix(1 0 0 1 2835.04 1556)">
		<path d="M127.1-96.2l-15.6-14.3c-4.1-3.7-8.3-5.5-13.2-5.5c-4.8,0-9.1,1.9-13.1,5.5L16.7-48c-3.2,2.9-3.8,5.6-3.8,8.3
			c0,5.3,4.3,9.5,10.1,9.5c3,0,5.7-1.2,7.9-3.2l8.4-7.8v53.8c0,10.9,7,17.9,18.7,17.9h80.9c11.7,0,18.7-6.9,18.7-17.9v-53.8l8.4,7.8
			c2.2,2,4.9,3.2,7.9,3.2c5.8,0,10.1-4.2,10.1-9.5c0-2.7-0.6-5.3-3.8-8.3L154-71.8L127.1-96.2z M117.5-30.4c0-3.1-2-5.1-5.1-5.1h-28
			c-3.1,0-5.2,2-5.2,5.1v40.5H65c-3.5,0-5.5-2.1-5.5-5.5v-64.5l37.7-34.6c0.3-0.2,0.6-0.5,1.1-0.5c0.4,0,0.9,0.1,1.2,0.4l37.7,34.6
			V4.6c0,3.5-2,5.5-5.5,5.5h-14.2V-30.4z"/>
	</g>
	<g id="Heavy-L" transform="matrix(1 0 0 1 2541.43 1556)">
		<path d="M125.4-91.7L107-108.5c-3.6-3.3-7.4-4.9-11.8-4.9c-4.3,0-8.2,1.7-11.7,4.9L16.2-47.1c-2.7,2.4-3.3,4.7-3.3,7.1
			c0,4.6,3.8,8.2,8.8,8.2c2.6,0,5-1.1,6.9-2.9l8.6-7.9v55c0,10.4,6.4,16.8,17.4,16.8H136c10.9,0,17.4-6.4,17.4-16.8v-55l8.6,7.9
			c1.9,1.8,4.2,2.9,6.9,2.9c5,0,8.8-3.6,8.8-8.2c0-2.4-0.6-4.7-3.3-7.1l-24.9-22.7L125.4-91.7z M114.2-29.2c0-3-2-5-5-5H81.4
			c-3.1,0-5.1,2-5.1,5v41h-16c-3.7,0-5.8-2.1-5.8-5.8v-64.5l39.2-35.9c0.3-0.3,0.8-0.6,1.4-0.6c0.5,0,1.1,0.2,1.5,0.6l39.2,35.9V6
			c0,3.7-2.1,5.8-5.8,5.8h-16V-29.2z"/>
	</g>
	<g id="Bold-L" transform="matrix(1 0 0 1 2248.18 1556)">
		<path d="M123.5-86.6l-21.6-19.7c-3-2.8-6.4-4.2-10.2-4.2c-3.7,0-7,1.4-10.1,4.2L15.6-46c-2.1,2-2.7,3.8-2.7,5.9
			c0,3.9,3.2,6.8,7.3,6.8c2.2,0,4.2-1,5.9-2.5l8.7-8v56.4c0,9.7,5.9,15.6,16,15.6h82c10.1,0,16-5.9,16-15.6v-56.4l8.7,8
			c1.7,1.5,3.6,2.5,5.9,2.5c4.2,0,7.3-2.9,7.3-6.8c0-2.1-0.6-4-2.7-5.9l-23.5-21.4L123.5-86.6z M110.4-27.8c0-2.9-1.9-4.8-4.8-4.8
			H78.1c-2.9,0-4.9,1.9-4.9,4.8v41.6H55.3c-4,0-6.1-2.2-6.1-6.2V-57L90-94.4c0.5-0.4,1.1-0.8,1.8-0.8c0.6,0,1.3,0.2,1.8,0.8
			L134.4-57V7.6c0,4-2.1,6.2-6.1,6.2h-18V-27.8z"/>
	</g>
	<g id="Semibold-L" transform="matrix(1 0 0 1 1953.86 1556)">
		<path d="M122.2-83.1l-23.8-21.7c-2.7-2.5-5.7-3.8-9-3.8s-6.3,1.3-9,3.8L15.2-45.3c-1.7,1.6-2.3,3.1-2.3,5.1c0,3.4,2.7,5.8,6.3,5.8
			c2,0,3.7-0.9,5.1-2.2l8.8-8.1v57.3c0,9.3,5.6,14.7,15.1,14.7h82.4c9.5,0,15.1-5.5,15.1-14.7v-57.3l8.8,8.1
			c1.5,1.4,3.1,2.2,5.1,2.2c3.6,0,6.3-2.4,6.3-5.8c0-2-0.6-3.5-2.3-5.1l-22.6-20.6L122.2-83.1z M107.7-26.9c0-2.9-1.8-4.7-4.7-4.7
			H75.8c-2.9,0-4.8,1.9-4.8,4.7V15H51.8c-4.2,0-6.3-2.2-6.3-6.4V-56l41.9-38.3c0.6-0.5,1.3-0.9,2-0.9c0.7,0,1.4,0.3,2.1,0.9
			L133.4-56V8.6c0,4.2-2.1,6.4-6.3,6.4h-19.4V-26.9z"/>
	</g>
	<g id="Medium-L" transform="matrix(1 0 0 1 1658.96 1556)">
		<path d="M121.1-80.4l-25.4-23.1c-2.4-2.2-5.2-3.4-8.2-3.4c-3,0-5.8,1.2-8.2,3.4L14.9-44.7c-1.4,1.3-2,2.6-2,4.4c0,3,2.4,5,5.5,5
			c1.8,0,3.3-0.8,4.6-2.1l8.9-8.1v58.1c0,8.9,5.2,14.1,14.4,14.1h82.6c9.2,0,14.4-5.2,14.4-14.1v-58.1l8.9,8.1
			c1.3,1.2,2.8,2.1,4.6,2.1c3.1,0,5.5-2.1,5.5-5c0-1.8-0.6-3.1-2-4.4l-21.9-20L121.1-80.4z M105.8-26.2c0-2.8-1.8-4.6-4.6-4.6H74.1
			c-2.8,0-4.7,1.8-4.7,4.6V16H49.1c-4.2,0-6.5-2.2-6.5-6.5v-64.7l42.9-39.1c0.6-0.6,1.3-1,2.1-1c0.8,0,1.6,0.3,2.2,0.9l42.8,39.1
			V9.5c0,4.3-2.2,6.5-6.4,6.5h-20.4V-26.2z"/>
	</g>
	<g id="Regular-L" transform="matrix(1 0 0 1 1364.61 1556)">
		<path d="M119.8-76.9l-27.5-25.1c-2.1-1.9-4.5-3-7-3c-2.6,0-5,1.1-7.1,3L14.5-43.9c-1,0.9-1.6,2-1.6,3.6c0,2.5,2,4.1,4.5,4.1
			c1.6,0,2.8-0.7,3.9-1.8l8.9-8.2v59c0,8.5,4.9,13.3,13.5,13.3h83.1c8.6,0,13.5-4.8,13.5-13.3v-59l8.9,8.2c1.1,1.1,2.3,1.8,3.9,1.8
			c2.5,0,4.5-1.6,4.5-4.1c0-1.6-0.6-2.6-1.6-3.6L135-63.1L119.8-76.9z M103.2-25.2c0-2.7-1.8-4.5-4.5-4.5H71.8
			c-2.7,0-4.6,1.8-4.6,4.5v42.6H45.6c-4.4,0-6.7-2.3-6.7-6.8v-64.7l44-40.1c0.7-0.6,1.5-1.1,2.4-1.1s1.7,0.4,2.4,1.1l43.9,40.1v64.7
			c0,4.4-2.2,6.8-6.7,6.8h-21.7V-25.2z"/>
	</g>
	<g id="Light-L" transform="matrix(1 0 0 1 1069.61 1556)">
		<path d="M121.1-71.7l-31.2-28.5c-1.8-1.7-4-2.7-6.3-2.7c-2.3,0-4.6,1-6.4,2.7l-63,57.6c-0.8,0.7-1.2,1.5-1.2,2.7
			c0,1.8,1.5,3,3.4,3c1.2,0,2.1-0.6,3-1.4l10.1-9.2v61c0,8,4.4,12.4,12.5,12.4h83.4c8.1,0,12.5-4.4,12.5-12.4v-61l10.1,9.2
			c0.8,0.8,1.7,1.4,2.9,1.4c1.9,0,3.4-1.2,3.4-3c0-1.2-0.4-2-1.2-2.7l-19.7-18L121.1-71.7z M101.2-24.2c0-2.5-1.6-4.1-4.1-4.1H70
			c-2.5,0-4.2,1.6-4.2,4.1v43.6H43.2c-4.9,0-7.3-2.4-7.3-7.3v-65.5l45-41c0.8-0.7,1.7-1.2,2.6-1.2c1,0,1.8,0.4,2.6,1.2l44.9,41v65.5
			c0,4.9-2.3,7.3-7.2,7.3h-22.7V-24.2z"/>
	</g>
	<g id="Thin-L" transform="matrix(1 0 0 1 775.148 1556)">
		<path d="M122.7-64.8l-35.9-33c-1.6-1.5-3.4-2.4-5.5-2.4c-2.1,0-4,1-5.5,2.4l-62.3,57c-0.5,0.4-0.7,0.9-0.7,1.6
			c0,1,0.7,1.7,1.9,1.7c0.8,0,1.3-0.3,1.8-0.8l11.6-10.6v63.7c0,7.3,3.9,11.2,11.2,11.2h84c7.3,0,11.2-4,11.2-11.2v-63.7L146-38.3
			c0.5,0.5,0.9,0.8,1.8,0.8c1.1,0,1.9-0.7,1.9-1.7c0-0.7-0.2-1.1-0.7-1.6l-18-16.5L122.7-64.8z M98.5-22.7c0-2.2-1.5-3.6-3.6-3.6
			H67.6c-2.1,0-3.6,1.4-3.6,3.6v44.8h-24c-5.6,0-8.1-2.4-8.1-8.1v-66.5l46.3-42.3c0.9-0.8,1.8-1.3,2.9-1.3c1.1,0,2,0.5,2.9,1.3
			l46.3,42.3V14c0,5.6-2.4,8.1-8.1,8.1H98.5V-22.7z"/>
	</g>
	<g id="Ultralight-L" transform="matrix(1 0 0 1 479.584 1556)">
		<path d="M123.5-61.3L85.2-96.5c-1.4-1.3-3.1-2.3-5-2.3c-2,0-3.6,1-5,2.3L13.3-39.8c-0.3,0.3-0.4,0.6-0.4,1c0,0.5,0.4,1,1.1,1
			c0.6,0,0.8-0.3,1.2-0.6l12.4-11.3v65.1C27.5,22.5,31,26,38,26h84.3c7,0,10.5-3.7,10.5-10.5v-65.1l12.4,11.3
			c0.3,0.3,0.5,0.6,1.1,0.6c0.7,0,1.1-0.5,1.1-1c0-0.4-0.1-0.7-0.4-1l-17.1-15.7L123.5-61.3z M97.2-22c0-2-1.3-3.3-3.3-3.3H66.4
			c-2,0-3.3,1.3-3.3,3.3v45.5H38.5c-6,0-8.4-2.5-8.4-8.5V-52l47.1-43c0.9-0.8,1.9-1.4,3-1.4c1.2,0,2.1,0.6,3,1.4l47.1,43V15
			c0,6-2.5,8.5-8.4,8.5H97.2V-22z"/>
	</g>
	<g id="Black-M" transform="matrix(1 0 0 1 2853.93 1126)">
		<path d="M101.5-85.9l-10.3-9.4c-3.7-3.3-7.4-4.9-11.9-4.9c-4.3,0-8.1,1.6-11.7,4.9L13.4-45.7c-3.1,2.8-3.5,5.2-3.5,7.4
			c0,4.6,3.9,8.5,9,8.5c2.6,0,5-1,6.9-2.7l6.9-6.4V2.1c0,9,5.9,14.9,15.6,14.9h62.3c9.7,0,15.6-5.9,15.6-14.9v-41.1l6.9,6.4
			c1.9,1.8,4.3,2.7,6.9,2.7c5.2,0,9-3.9,9-8.5c0-2.2-0.3-4.6-3.5-7.4L124.4-65L101.5-85.9z M94.6-32.5c0-2.4-1.6-4-4-4H68.4
			c-2.4,0-4.1,1.6-4.1,4v31.2h-9c-2.7,0-4.2-1.6-4.2-4.2v-50.2l27.8-25.6c0.1-0.1,0.3-0.2,0.6-0.2c0.1,0,0.4,0.1,0.6,0.2l27.8,25.6
			v50.2c0,2.7-1.6,4.2-4.2,4.2h-9.1V-32.5z"/>
	</g>
	<g id="Heavy-M" transform="matrix(1 0 0 1 2560.18 1126)">
		<path d="M99.3-82.3L86.9-93.6c-3.2-2.9-6.6-4.3-10.4-4.3c-3.8,0-7.2,1.4-10.3,4.3L12.9-45c-2.6,2.3-3,4.4-3,6.4
			c0,4.1,3.4,7.4,7.9,7.4c2.3,0,4.4-0.9,6.1-2.5l6.8-6.3V2c0,8.5,5.4,13.9,14.5,13.9h62.7c9.1,0,14.5-5.4,14.5-13.9v-41.9l6.8,6.3
			c1.7,1.6,3.8,2.5,6.1,2.5c4.5,0,7.9-3.3,7.9-7.4c0-2.1-0.4-4.1-3-6.4l-20.2-18.4L99.3-82.3z M91.4-31.5c0-2.4-1.5-3.9-3.9-3.9
			H65.6c-2.4,0-4,1.5-4,3.9V0H50.9c-2.8,0-4.3-1.6-4.3-4.4v-50.1l29.2-26.8c0.2-0.2,0.4-0.4,0.8-0.4c0.3,0,0.7,0.1,0.9,0.3
			l29.2,26.8v50.1c0,2.8-1.6,4.4-4.4,4.4H91.4V-31.5z"/>
	</g>
	<g id="Bold-M" transform="matrix(1 0 0 1 2266.74 1126)">
		<path d="M96.8-78.2L82-91.7c-2.7-2.4-5.6-3.7-8.8-3.7c-3.2,0-6.2,1.2-8.8,3.7l-52,47.5c-2,1.8-2.4,3.5-2.4,5.3
			c0,3.5,2.8,6.2,6.6,6.2c2,0,3.7-0.9,5.2-2.2l6.6-6.1V1.8c0,8,4.9,12.8,13.3,12.8h63.2c8.3,0,13.3-4.9,13.3-12.8v-42.8l6.6,6.1
			c1.4,1.3,3.2,2.2,5.2,2.2c3.7,0,6.6-2.6,6.6-6.2c0-1.9-0.5-3.5-2.5-5.3l-19-17.4L96.8-78.2z M87.8-30.3c0-2.3-1.5-3.9-3.8-3.9
			H62.5c-2.3,0-3.9,1.5-3.9,3.9V1.5H45.9c-2.9,0-4.5-1.6-4.5-4.5v-50l30.7-28.1c0.3-0.3,0.7-0.5,1.2-0.5c0.4,0,0.8,0.1,1.2,0.5
			L105-53v50c0,2.9-1.6,4.5-4.5,4.5H87.8V-30.3z"/>
	</g>
	<g id="Semibold-M" transform="matrix(1 0 0 1 1972.32 1126)">
		<path d="M95.1-75.4l-16.4-15c-2.3-2.1-4.9-3.2-7.8-3.2c-2.8,0-5.4,1.1-7.7,3.2L12.1-43.7c-1.6,1.5-2.1,2.8-2.1,4.5
			c0,3.1,2.5,5.3,5.7,5.3c1.8,0,3.3-0.8,4.5-2l6.5-6V1.6c0,7.6,4.6,12.1,12.5,12.1h63.5c7.8,0,12.5-4.5,12.5-12.1v-43.5l6.5,6
			c1.3,1.2,2.8,2,4.6,2c3.2,0,5.7-2.2,5.7-5.3c0-1.7-0.5-3.1-2.1-4.5l-18.3-16.7L95.1-75.4z M85.4-29.5c0-2.3-1.5-3.8-3.8-3.8H60.4
			c-2.3,0-3.9,1.5-3.9,3.8V2.5h-14c-3,0-4.6-1.7-4.6-4.7v-49.9l31.6-29c0.4-0.3,0.8-0.6,1.4-0.6c0.5,0,1,0.1,1.4,0.6l31.6,29v49.9
			c0,3-1.7,4.7-4.6,4.7h-14V-29.5z"/>
	</g>
	<g id="Medium-M" transform="matrix(1 0 0 1 1677.32 1126)">
		<path d="M93.8-73.3L76.2-89.4c-2.1-1.9-4.4-2.9-6.9-2.9c-2.5,0-4.9,1-6.9,2.9l-50.5,46c-1.3,1.2-1.8,2.4-1.8,4
			c0,2.7,2.2,4.6,5,4.6c1.6,0,2.9-0.7,4.1-1.9l6.4-5.9V1.5c0,7.3,4.3,11.5,11.8,11.5h63.8c7.5,0,11.8-4.3,11.8-11.5v-43.9l6.4,5.9
			c1.1,1.1,2.5,1.9,4.1,1.9c2.8,0,5-1.9,5-4.6c0-1.6-0.5-2.8-1.8-4L109-59.5L93.8-73.3z M83.5-28.9c0-2.3-1.5-3.8-3.8-3.8h-21
			c-2.2,0-3.8,1.5-3.8,3.8V3.3H40c-3.1,0-4.7-1.7-4.7-4.8v-49.9L67.7-81c0.4-0.4,0.9-0.6,1.5-0.6c0.5,0,1.1,0.2,1.6,0.6l32.4,29.6
			v49.9c0,3.1-1.7,4.8-4.7,4.8h-15V-28.9z"/>
	</g>
	<g id="Regular-M" transform="matrix(1 0 0 1 1382.85 1126)">
		<path d="M92.1-70.5L72.9-88.1c-1.7-1.6-3.8-2.4-5.9-2.4c-2.1,0-4.2,0.9-5.9,2.4L11.4-42.8C10.5-41.9,10-41,10-39.6
			c0,2.3,1.9,3.8,4.2,3.8c1.4,0,2.5-0.7,3.5-1.7l6.3-5.7V1.4c0,6.9,4.1,10.8,11,10.8h64.2c6.9,0,11-3.9,11-10.8v-44.6l6.3,5.8
			c1,1,2.1,1.7,3.5,1.7c2.3,0,4.2-1.4,4.2-3.8c0-1.5-0.6-2.4-1.5-3.2l-16.9-15.5L92.1-70.5z M81.1-28.1c0-2.2-1.5-3.7-3.7-3.7H56.6
			c-2.2,0-3.8,1.4-3.8,3.7V4.3H36.6c-3.1,0-4.8-1.7-4.8-4.9v-49.8l33.5-30.5c0.5-0.5,1.1-0.8,1.7-0.8c0.6,0,1.2,0.2,1.8,0.8
			l33.4,30.5v49.8c0,3.2-1.7,4.9-4.8,4.9H81.1V-28.1z"/>
	</g>
	<g id="Light-M" transform="matrix(1 0 0 1 1087.68 1126)">
		<path d="M93.3-65.8L70.7-86.4c-1.5-1.4-3.3-2.2-5.2-2.2c-1.9,0-3.8,0.8-5.3,2.2L11.1-41.6c-0.7,0.7-1.1,1.4-1.1,2.5
			c0,1.7,1.4,2.8,3.1,2.8c1.1,0,2-0.5,2.7-1.3l7.3-6.7V2.2c0,6.4,3.7,10,10.1,10h64.5c6.5,0,10.1-3.6,10.1-10v-46.4l7.3,6.7
			c0.8,0.7,1.6,1.3,2.7,1.3c1.7,0,3.1-1.1,3.1-2.8c0-1.1-0.4-1.8-1.1-2.5L104.1-56L93.3-65.8z M79.2-27.1c0-2-1.3-3.3-3.4-3.3H55
			c-2.1,0-3.4,1.3-3.4,3.3V6.2H34.5c-3.6,0-5.3-1.8-5.3-5.4v-50.4l34.4-31.4c0.6-0.5,1.2-0.9,2-0.9c0.7,0,1.4,0.3,2,0.9l34.4,31.3
			V0.7c0,3.6-1.8,5.4-5.4,5.4H79.2V-27.1z"/>
	</g>
	<g id="Thin-M" transform="matrix(1 0 0 1 792.97 1126)">
		<path d="M94.7-59.7L67.9-84.2c-1.2-1.2-2.7-2-4.4-2c-1.7,0-3.2,0.8-4.4,2L10.6-39.9c-0.4,0.4-0.6,0.8-0.6,1.5
			c0,0.9,0.7,1.6,1.8,1.6c0.7,0,1.2-0.3,1.6-0.8l8.7-7.9V3.3c0,5.8,3.1,8.9,8.9,8.9h65c5.8,0,8.9-3.1,8.9-8.9v-48.8l8.6,7.9
			c0.5,0.4,0.9,0.8,1.7,0.8c1,0,1.8-0.7,1.8-1.6c0-0.6-0.2-1-0.6-1.5L102-53L94.7-59.7z M76.9-25.8c0-1.8-1.2-2.9-2.9-2.9h-21
			c-1.8,0-2.9,1.1-2.9,2.9V8.6H31.7c-4.2,0-6.1-1.9-6.1-6.1v-51.3l35.6-32.5c0.6-0.6,1.4-1,2.1-1c0.8,0,1.6,0.4,2.2,1l35.6,32.5V2.5
			c0,4.2-1.9,6.1-6.1,6.1H76.9V-25.8z"/>
	</g>
	<g id="Ultralight-M" transform="matrix(1 0 0 1 497.284 1126)">
		<path d="M95.5-56.4l-29-26.7c-1.1-1-2.5-1.8-4.1-1.8c-1.5,0-2.9,0.8-4,1.8l-48,44c-0.3,0.3-0.4,0.5-0.4,1c0,0.5,0.4,1,1.1,1
			c0.5,0,0.8-0.2,1.1-0.5l9.3-8.5v50c0,5.5,2.8,8.3,8.4,8.3H95c5.5,0,8.3-2.9,8.3-8.3v-50l9.4,8.5c0.3,0.3,0.5,0.5,1.1,0.5
			c0.6,0,1.1-0.4,1.1-1c0-0.4-0.1-0.7-0.4-1l-13.5-12.4L95.5-56.4z M75.7-25.2c0-1.6-1.1-2.6-2.7-2.6H51.8c-1.6,0-2.6,1.1-2.6,2.6
			v35H30.3c-4.5,0-6.4-1.9-6.4-6.4v-51.7l36.3-33.1c0.7-0.6,1.4-1.1,2.3-1.1c0.9,0,1.7,0.4,2.3,1.1L101-48.3V3.4
			c0,4.5-1.9,6.4-6.4,6.4H75.7V-25.2z"/>
	</g>
	<g id="Black-S" transform="matrix(1 0 0 1 2871.34 696)">
		<path d="M79.3-74.7l-8.2-7.5C68.4-84.8,65.4-86,62-86c-3.4,0-6.3,1.3-9.1,3.8L10.5-43.4c-2.4,2.1-2.7,4-2.7,5.8c0,3.6,3,6.6,7,6.6
			c2,0,3.9-0.8,5.3-2.1l5.4-5V-6c0,7,4.5,11.6,12.1,11.6h48.8C94,5.6,98.6,1.1,98.6-6v-32.2l5.4,5c1.5,1.4,3.3,2.1,5.3,2.1
			c4,0,7-3,7-6.6c0-1.8-0.3-3.6-2.7-5.8L97.1-58.5L79.3-74.7z M73.9-33.1c0-1.9-1.2-3.1-3.1-3.1H53.4c-1.9,0-3.2,1.2-3.2,3.1v24.5
			H43c-2.1,0-3.3-1.2-3.3-3.3v-39.4l21.9-20.1c0.1-0.1,0.2-0.2,0.5-0.2c0.1,0,0.4,0,0.5,0.1l21.9,20.2v39.4c0,2.1-1.2,3.3-3.3,3.3
			h-7.2V-33.1z"/>
	</g>
	<g id="Heavy-S" transform="matrix(1 0 0 1 2576.7 696)">
		<path d="M77.5-72.5l-9.4-8.6c-2.5-2.3-5.2-3.4-8.2-3.4c-3,0-5.7,1.1-8.1,3.4L10.2-43c-2,1.8-2.3,3.4-2.3,5.1
			c0,3.3,2.7,5.9,6.2,5.9c1.9,0,3.5-0.8,4.8-2l5.2-4.8v32.7c0,6.7,4.2,10.9,11.4,10.9h49.1c7.1,0,11.4-4.2,11.4-10.9v-32.7l5.2,4.8
			c1.3,1.2,3,2,4.8,2c3.6,0,6.3-2.6,6.3-5.9c0-1.7-0.3-3.3-2.4-5.1L93.9-57.5L77.5-72.5z M71.6-32.4c0-1.9-1.2-3.1-3.1-3.1h-17
			c-1.9,0-3.2,1.2-3.2,3.1v24.6h-8.4c-2.1,0-3.4-1.2-3.4-3.4v-39.2l22.8-20.9c0.1-0.1,0.3-0.3,0.6-0.3c0.2,0,0.5,0.1,0.7,0.2
			l22.8,20.9v39.2c0,2.1-1.2,3.4-3.4,3.4h-8.4V-32.4z"/>
	</g>
	<g id="Bold-S" transform="matrix(1 0 0 1 2282.34 696)">
		<path d="M75.5-69.9l-10.8-9.9c-2.1-2-4.4-2.9-7-2.9c-2.5,0-4.9,1-7,2.9L9.8-42.6c-1.6,1.5-2,2.8-2,4.3c0,2.8,2.3,5,5.4,5
			c1.6,0,3-0.7,4.2-1.8l4.9-4.5v33.2c0,6.3,4,10.2,10.5,10.2h49.5c6.6,0,10.5-3.9,10.5-10.2v-33.2l5,4.5c1.2,1.1,2.6,1.8,4.2,1.8
			c3,0,5.4-2.1,5.4-5c0-1.6-0.4-2.9-2-4.3L90.3-56.4L75.5-69.9z M69.1-31.6c0-1.9-1.2-3.1-3.1-3.1H49.3c-1.9,0-3.1,1.2-3.1,3.1v24.8
			h-9.8c-2.2,0-3.4-1.3-3.4-3.5v-39l23.8-21.8c0.2-0.2,0.5-0.4,0.9-0.4c0.3,0,0.6,0.1,0.9,0.3l23.8,21.8v39c0,2.2-1.2,3.5-3.4,3.5
			h-9.8V-31.6z"/>
	</g>
	<g id="Semibold-S" transform="matrix(1 0 0 1 1987.24 696)">
		<path d="M74.1-68.2L62.3-79c-1.9-1.7-4-2.6-6.3-2.6c-2.2,0-4.3,0.9-6.2,2.6L9.6-42.3c-1.3,1.2-1.8,2.4-1.8,3.8
			c0,2.6,2.1,4.4,4.8,4.4c1.5,0,2.7-0.6,3.8-1.7l4.8-4.3v33.4c0,6.1,3.7,9.7,10,9.7h49.7c6.3,0,10-3.7,10-9.7v-33.4l4.8,4.3
			c1.1,1,2.3,1.7,3.9,1.7c2.6,0,4.7-1.8,4.7-4.4c0-1.4-0.4-2.6-1.8-3.8L87.8-55.7L74.1-68.2z M67.4-31.1c0-1.9-1.2-3.1-3.1-3.1H47.8
			c-1.9,0-3.2,1.2-3.2,3.1v24.9H33.9c-2.2,0-3.5-1.3-3.5-3.5v-38.9L55-71c0.3-0.2,0.6-0.4,1-0.4c0.3,0,0.7,0.1,1,0.4l24.5,22.4v38.9
			c0,2.2-1.3,3.5-3.5,3.5H67.4V-31.1z"/>
	</g>
	<g id="Medium-S" transform="matrix(1 0 0 1 1691.75 696)">
		<path d="M73-66.8L60.4-78.3c-1.7-1.6-3.6-2.3-5.6-2.3c-2.1,0-4,0.8-5.7,2.3L9.4-42c-1.1,1-1.6,2-1.6,3.4c0,2.4,1.9,4,4.3,4
			c1.4,0,2.5-0.6,3.5-1.6l4.6-4.2v33.7c0,5.9,3.6,9.4,9.6,9.4h49.9c6,0,9.6-3.5,9.6-9.4v-33.7l4.6,4.2c1,0.9,2.2,1.6,3.6,1.6
			c2.4,0,4.3-1.6,4.3-4c0-1.4-0.4-2.4-1.6-3.4l-14.3-13L73-66.8z M66.1-30.7c0-1.9-1.2-3.1-3.1-3.1H46.6c-1.9,0-3.1,1.2-3.1,3.1
			v24.9H32.1c-2.2,0-3.5-1.3-3.5-3.5v-38.8l25.1-22.9c0.3-0.3,0.7-0.5,1.1-0.5c0.4,0,0.8,0.1,1.1,0.5l25,22.9v38.8
			c0,2.2-1.3,3.5-3.5,3.5H66.1V-30.7z"/>
	</g>
	<g id="Regular-S" transform="matrix(1 0 0 1 1396.62 696)">
		<path d="M71.7-65.1L58.1-77.4c-1.4-1.3-3.1-2-4.9-2c-1.7,0-3.5,0.7-4.9,2L9.1-41.7c-0.8,0.7-1.3,1.6-1.3,2.9
			c0,2.1,1.7,3.4,3.8,3.4c1.2,0,2.2-0.6,3.1-1.5l4.4-4.1v34c0,5.6,3.4,8.8,9.1,8.8h50c5.7,0,9-3.3,9-8.8v-34l4.4,4.1
			c0.9,0.8,1.9,1.5,3.2,1.5c2.1,0,3.7-1.3,3.7-3.4c0-1.3-0.5-2.2-1.3-2.9L83.5-54.3L71.7-65.1z M64.4-30.1c0-1.9-1.2-3.1-3.1-3.1
			H45.2c-1.9,0-3.1,1.2-3.1,3.1v25H29.7c-2.2,0-3.5-1.3-3.5-3.6v-38.7L52-70.9c0.3-0.3,0.8-0.5,1.2-0.5c0.4,0,0.9,0.1,1.3,0.5
			l25.7,23.5v38.7c0,2.3-1.3,3.6-3.5,3.6H64.4V-30.1z"/>
	</g>
	<g id="Light-S" transform="matrix(1 0 0 1 1101.25 696)">
		<path d="M72.7-61L56.2-76c-1.2-1.2-2.7-1.8-4.3-1.8c-1.6,0-3.1,0.6-4.3,1.8L8.8-40.7c-0.6,0.6-1,1.3-1,2.2c0,1.6,1.3,2.6,2.8,2.6
			c1,0,1.8-0.5,2.4-1.1l5.3-4.9v35.6c0,5.2,3,8.1,8.3,8.1h50.3c5.3,0,8.3-2.9,8.3-8.1v-35.6l5.3,4.9c0.7,0.6,1.5,1.1,2.4,1.1
			c1.6,0,2.8-1,2.8-2.6c0-1-0.4-1.6-1-2.2L82.1-52.3L72.7-61z M62.8-29.2c0-1.7-1.1-2.8-2.8-2.8H43.8C42-32,41-31,41-29.2v25.7H27.8
			c-2.6,0-4-1.4-4-4.1v-39.3L50.4-71c0.4-0.4,0.9-0.6,1.5-0.6c0.5,0,1,0.2,1.4,0.6l26.6,24.2v39.3c0,2.7-1.4,4.1-4,4.1H62.8V-29.2z"
			/>
	</g>
	<g id="Thin-S" transform="matrix(1 0 0 1 806.325 696)">
		<path d="M73.9-55.5L53.7-74c-1-1-2.2-1.6-3.6-1.6c-1.4,0-2.6,0.6-3.6,1.6L8.4-39.2c-0.4,0.4-0.6,0.7-0.6,1.4
			c0,0.9,0.7,1.5,1.7,1.5c0.6,0,1-0.3,1.5-0.7l6.5-6v37.7C17.5-0.6,20,2,24.7,2h50.8c4.7,0,7.3-2.6,7.3-7.2V-43l6.5,6
			c0.4,0.4,0.8,0.7,1.5,0.7c0.9,0,1.6-0.6,1.6-1.5c0-0.6-0.2-1-0.6-1.4L80.3-49.7L73.9-55.5z M60.7-28.1c0-1.4-0.9-2.3-2.3-2.3H41.8
			c-1.4,0-2.3,0.9-2.3,2.3v26.8H25.4c-3.2,0-4.6-1.5-4.6-4.6v-40l27.7-25.2c0.5-0.4,1-0.7,1.7-0.7c0.6,0,1.2,0.3,1.7,0.7L79.4-46v40
			c0,3.2-1.5,4.6-4.6,4.6H60.7V-28.1z"/>
	</g>
	<g id="Ultralight-S" transform="matrix(1 0 0 1 510.517 696)">
		<path d="M52.4-73c-0.9-0.8-2-1.4-3.3-1.4c-1.2,0-2.3,0.6-3.2,1.4L8.2-38.5c-0.3,0.3-0.4,0.5-0.4,0.9c0,0.5,0.4,0.9,1,0.9
			c0.5,0,0.7-0.2,1-0.5l7.1-6.5v38.9c0,4.4,2.3,6.7,6.7,6.7h51c4.4,0,6.7-2.3,6.7-6.7v-38.9l7.1,6.5c0.3,0.3,0.5,0.5,1,0.5
			c0.6,0,1-0.4,1-0.9c0-0.4-0.1-0.6-0.4-0.9L52.4-73z M59.6-27.5c0-1.3-0.8-2.1-2.1-2.1H40.9c-1.3,0-2.1,0.9-2.1,2.1v27.3H24.1
			c-3.5,0-5-1.5-5-5v-40.4l28.3-25.8c0.5-0.5,1.1-0.8,1.8-0.8c0.7,0,1.3,0.3,1.8,0.8l28.2,25.8v40.4c0,3.5-1.5,5-4.9,5H59.6V-27.5z"
			/>
	</g>
</g>
</svg>
